G04 #@! TF.FileFunction,Copper,L2,Bot,Signal*
%FSLAX46Y46*%
G04 Gerber Fmt 4.6, Leading zero omitted, Abs format (unit mm)*
G04 Created by KiCad (PCBNEW 4.0.7) date 12/03/18 23:46:06*
%MOMM*%
%LPD*%
G01*
G04 APERTURE LIST*
%ADD10C,0.100000*%
%ADD11C,1.600000*%
%ADD12O,1.600000X1.600000*%
%ADD13R,1.700000X1.700000*%
%ADD14O,1.700000X1.700000*%
%ADD15C,1.000000*%
%ADD16R,1.000000X1.000000*%
%ADD17C,1.400000*%
%ADD18O,1.400000X1.400000*%
%ADD19R,1.600000X1.600000*%
%ADD20C,1.500000*%
%ADD21C,0.400000*%
%ADD22C,0.254000*%
G04 APERTURE END LIST*
D10*
D11*
X170180000Y-104140000D03*
D12*
X170180000Y-111640000D03*
D13*
X175260000Y-106680000D03*
D14*
X175260000Y-109220000D03*
X175260000Y-111760000D03*
D13*
X170180000Y-100330000D03*
D14*
X172720000Y-100330000D03*
D13*
X143510000Y-104140000D03*
D14*
X143510000Y-106680000D03*
X143510000Y-109220000D03*
X143510000Y-111760000D03*
D15*
X149860000Y-104775000D03*
X151130000Y-106045000D03*
D16*
X148590000Y-106045000D03*
D15*
X149860000Y-111125000D03*
X151130000Y-112395000D03*
D16*
X148590000Y-112395000D03*
D17*
X154940000Y-110490000D03*
D18*
X154940000Y-113030000D03*
D17*
X154940000Y-106680000D03*
D18*
X154940000Y-104140000D03*
D17*
X163830000Y-100330000D03*
D18*
X161290000Y-100330000D03*
D19*
X166370000Y-111760000D03*
D12*
X158750000Y-104140000D03*
X166370000Y-109220000D03*
X158750000Y-106680000D03*
X166370000Y-106680000D03*
X158750000Y-109220000D03*
X166370000Y-104140000D03*
X158750000Y-111760000D03*
D20*
X170180000Y-104140000D02*
X175070000Y-104140000D01*
X175070000Y-104140000D02*
X175260000Y-104330000D01*
X175260000Y-104330000D02*
X175260000Y-106680000D01*
X170180000Y-100330000D02*
X170180000Y-104140000D01*
D21*
X163830000Y-100330000D02*
X170180000Y-100330000D01*
X175260000Y-109220000D02*
X166370000Y-109220000D01*
X149860000Y-104775000D02*
X149860000Y-111125000D01*
X143510000Y-104140000D02*
X149225000Y-104140000D01*
X149225000Y-104140000D02*
X149860000Y-104775000D01*
X143510000Y-106680000D02*
X147955000Y-106680000D01*
X147955000Y-106680000D02*
X148590000Y-106045000D01*
X146685000Y-109855000D02*
X146050000Y-109220000D01*
X146050000Y-109220000D02*
X143510000Y-109220000D01*
X146685000Y-111390000D02*
X146685000Y-109855000D01*
X148590000Y-112395000D02*
X147690000Y-112395000D01*
X147690000Y-112395000D02*
X146685000Y-111390000D01*
X154940000Y-104140000D02*
X158750000Y-104140000D01*
X153035000Y-104140000D02*
X154940000Y-104140000D01*
X151130000Y-106045000D02*
X153035000Y-104140000D01*
X151130000Y-112395000D02*
X151130000Y-110490000D01*
X151130000Y-110490000D02*
X153035000Y-108585000D01*
X153035000Y-108585000D02*
X158115000Y-108585000D01*
X158115000Y-108585000D02*
X158750000Y-109220000D01*
X151765000Y-113030000D02*
X154940000Y-113030000D01*
X151130000Y-112395000D02*
X151765000Y-113030000D01*
X161290000Y-111125000D02*
X161925000Y-111760000D01*
X161925000Y-111760000D02*
X166370000Y-111760000D01*
X161290000Y-100330000D02*
X161290000Y-111125000D01*
D22*
G36*
X146436954Y-98557954D02*
X145971578Y-99254440D01*
X145808159Y-100076000D01*
X145971578Y-100897560D01*
X146436954Y-101594046D01*
X147133440Y-102059422D01*
X147955000Y-102222841D01*
X148776560Y-102059422D01*
X149473046Y-101594046D01*
X149938422Y-100897560D01*
X150051317Y-100330000D01*
X159928846Y-100330000D01*
X160030467Y-100840882D01*
X160319858Y-101273988D01*
X160455000Y-101364287D01*
X160455000Y-111125000D01*
X160518561Y-111444541D01*
X160651241Y-111643110D01*
X160699566Y-111715434D01*
X161334566Y-112350434D01*
X161605460Y-112531440D01*
X161925000Y-112595000D01*
X164929146Y-112595000D01*
X164966838Y-112795317D01*
X165105910Y-113011441D01*
X165318110Y-113156431D01*
X165570000Y-113207440D01*
X167170000Y-113207440D01*
X167405317Y-113163162D01*
X167621441Y-113024090D01*
X167766431Y-112811890D01*
X167817440Y-112560000D01*
X167817440Y-111989041D01*
X168788086Y-111989041D01*
X169027611Y-112495134D01*
X169442577Y-112871041D01*
X169830961Y-113031904D01*
X170053000Y-112909915D01*
X170053000Y-111767000D01*
X170307000Y-111767000D01*
X170307000Y-112909915D01*
X170529039Y-113031904D01*
X170917423Y-112871041D01*
X171332389Y-112495134D01*
X171511405Y-112116890D01*
X173818524Y-112116890D01*
X173988355Y-112526924D01*
X174378642Y-112955183D01*
X174903108Y-113201486D01*
X175133000Y-113080819D01*
X175133000Y-111887000D01*
X175387000Y-111887000D01*
X175387000Y-113080819D01*
X175616892Y-113201486D01*
X176141358Y-112955183D01*
X176531645Y-112526924D01*
X176701476Y-112116890D01*
X176580155Y-111887000D01*
X175387000Y-111887000D01*
X175133000Y-111887000D01*
X173939845Y-111887000D01*
X173818524Y-112116890D01*
X171511405Y-112116890D01*
X171571914Y-111989041D01*
X171450629Y-111767000D01*
X170307000Y-111767000D01*
X170053000Y-111767000D01*
X168909371Y-111767000D01*
X168788086Y-111989041D01*
X167817440Y-111989041D01*
X167817440Y-111290959D01*
X168788086Y-111290959D01*
X168909371Y-111513000D01*
X170053000Y-111513000D01*
X170053000Y-110370085D01*
X170307000Y-110370085D01*
X170307000Y-111513000D01*
X171450629Y-111513000D01*
X171571914Y-111290959D01*
X171332389Y-110784866D01*
X170917423Y-110408959D01*
X170529039Y-110248096D01*
X170307000Y-110370085D01*
X170053000Y-110370085D01*
X169830961Y-110248096D01*
X169442577Y-110408959D01*
X169027611Y-110784866D01*
X168788086Y-111290959D01*
X167817440Y-111290959D01*
X167817440Y-110960000D01*
X167773162Y-110724683D01*
X167634090Y-110508559D01*
X167421890Y-110363569D01*
X167266911Y-110332185D01*
X167412811Y-110234698D01*
X167532882Y-110055000D01*
X174037159Y-110055000D01*
X174180853Y-110270054D01*
X174521553Y-110497702D01*
X174378642Y-110564817D01*
X173988355Y-110993076D01*
X173818524Y-111403110D01*
X173939845Y-111633000D01*
X175133000Y-111633000D01*
X175133000Y-111613000D01*
X175387000Y-111613000D01*
X175387000Y-111633000D01*
X176580155Y-111633000D01*
X176701476Y-111403110D01*
X176531645Y-110993076D01*
X176141358Y-110564817D01*
X175998447Y-110497702D01*
X176339147Y-110270054D01*
X176661054Y-109788285D01*
X176774093Y-109220000D01*
X176661054Y-108651715D01*
X176339147Y-108169946D01*
X176297548Y-108142150D01*
X176345317Y-108133162D01*
X176561441Y-107994090D01*
X176706431Y-107781890D01*
X176757440Y-107530000D01*
X176757440Y-105830000D01*
X176713162Y-105594683D01*
X176645000Y-105488756D01*
X176645000Y-104330000D01*
X176632469Y-104267000D01*
X176539574Y-103799984D01*
X176239343Y-103350657D01*
X176049343Y-103160657D01*
X175996430Y-103125302D01*
X175600017Y-102860427D01*
X175070000Y-102755000D01*
X171565000Y-102755000D01*
X171565000Y-101521797D01*
X171626431Y-101431890D01*
X171648301Y-101323893D01*
X171953076Y-101601645D01*
X172363110Y-101771476D01*
X172593000Y-101650155D01*
X172593000Y-100457000D01*
X172847000Y-100457000D01*
X172847000Y-101650155D01*
X173076890Y-101771476D01*
X173486924Y-101601645D01*
X173915183Y-101211358D01*
X174161486Y-100686892D01*
X174040819Y-100457000D01*
X172847000Y-100457000D01*
X172593000Y-100457000D01*
X172573000Y-100457000D01*
X172573000Y-100203000D01*
X172593000Y-100203000D01*
X172593000Y-99009845D01*
X172847000Y-99009845D01*
X172847000Y-100203000D01*
X174040819Y-100203000D01*
X174161486Y-99973108D01*
X173915183Y-99448642D01*
X173486924Y-99058355D01*
X173076890Y-98888524D01*
X172847000Y-99009845D01*
X172593000Y-99009845D01*
X172363110Y-98888524D01*
X171953076Y-99058355D01*
X171650063Y-99334501D01*
X171633162Y-99244683D01*
X171494090Y-99028559D01*
X171281890Y-98883569D01*
X171030000Y-98832560D01*
X169330000Y-98832560D01*
X169094683Y-98876838D01*
X168878559Y-99015910D01*
X168733569Y-99228110D01*
X168682560Y-99480000D01*
X168682560Y-99495000D01*
X164882786Y-99495000D01*
X164587204Y-99198902D01*
X164096713Y-98995232D01*
X163565617Y-98994769D01*
X163074771Y-99197582D01*
X162698902Y-99572796D01*
X162564784Y-99895788D01*
X162549533Y-99819118D01*
X162260142Y-99386012D01*
X161827036Y-99096621D01*
X161316154Y-98995000D01*
X161263846Y-98995000D01*
X160752964Y-99096621D01*
X160319858Y-99386012D01*
X160030467Y-99819118D01*
X159928846Y-100330000D01*
X150051317Y-100330000D01*
X150101841Y-100076000D01*
X149938422Y-99254440D01*
X149473046Y-98557954D01*
X149464135Y-98552000D01*
X176721494Y-98552000D01*
X176738979Y-98555478D01*
X176916145Y-98673856D01*
X177034521Y-98851019D01*
X177038000Y-98868509D01*
X177038000Y-114491491D01*
X177034521Y-114508981D01*
X176916145Y-114686144D01*
X176738979Y-114804522D01*
X176721494Y-114808000D01*
X142048509Y-114808000D01*
X142031019Y-114804521D01*
X141853856Y-114686145D01*
X141735478Y-114508979D01*
X141732000Y-114491494D01*
X141732000Y-112116890D01*
X142068524Y-112116890D01*
X142238355Y-112526924D01*
X142628642Y-112955183D01*
X143153108Y-113201486D01*
X143383000Y-113080819D01*
X143383000Y-111887000D01*
X143637000Y-111887000D01*
X143637000Y-113080819D01*
X143866892Y-113201486D01*
X144391358Y-112955183D01*
X144781645Y-112526924D01*
X144951476Y-112116890D01*
X144830155Y-111887000D01*
X143637000Y-111887000D01*
X143383000Y-111887000D01*
X142189845Y-111887000D01*
X142068524Y-112116890D01*
X141732000Y-112116890D01*
X141732000Y-106680000D01*
X141995907Y-106680000D01*
X142108946Y-107248285D01*
X142430853Y-107730054D01*
X142760026Y-107950000D01*
X142430853Y-108169946D01*
X142108946Y-108651715D01*
X141995907Y-109220000D01*
X142108946Y-109788285D01*
X142430853Y-110270054D01*
X142771553Y-110497702D01*
X142628642Y-110564817D01*
X142238355Y-110993076D01*
X142068524Y-111403110D01*
X142189845Y-111633000D01*
X143383000Y-111633000D01*
X143383000Y-111613000D01*
X143637000Y-111613000D01*
X143637000Y-111633000D01*
X144830155Y-111633000D01*
X144951476Y-111403110D01*
X144781645Y-110993076D01*
X144391358Y-110564817D01*
X144248447Y-110497702D01*
X144589147Y-110270054D01*
X144732841Y-110055000D01*
X145704132Y-110055000D01*
X145850000Y-110200868D01*
X145850000Y-111390000D01*
X145913561Y-111709541D01*
X146080912Y-111960000D01*
X146094566Y-111980434D01*
X147099566Y-112985434D01*
X147370460Y-113166440D01*
X147530577Y-113198289D01*
X147625910Y-113346441D01*
X147838110Y-113491431D01*
X148090000Y-113542440D01*
X149090000Y-113542440D01*
X149325317Y-113498162D01*
X149541441Y-113359090D01*
X149686431Y-113146890D01*
X149737440Y-112895000D01*
X149737440Y-112259894D01*
X149995117Y-112260119D01*
X149994803Y-112619775D01*
X150167233Y-113037086D01*
X150486235Y-113356645D01*
X150903244Y-113529803D01*
X151084093Y-113529961D01*
X151174566Y-113620434D01*
X151445460Y-113801440D01*
X151765000Y-113865000D01*
X153905713Y-113865000D01*
X153996012Y-114000142D01*
X154429118Y-114289533D01*
X154940000Y-114391154D01*
X155450882Y-114289533D01*
X155883988Y-114000142D01*
X156173379Y-113567036D01*
X156275000Y-113056154D01*
X156275000Y-113003846D01*
X156173379Y-112492964D01*
X155883988Y-112059858D01*
X155450882Y-111770467D01*
X155373955Y-111755165D01*
X155695229Y-111622418D01*
X156071098Y-111247204D01*
X156274768Y-110756713D01*
X156275231Y-110225617D01*
X156072418Y-109734771D01*
X155758196Y-109420000D01*
X157326670Y-109420000D01*
X157396120Y-109769151D01*
X157707189Y-110234698D01*
X158089275Y-110490000D01*
X157707189Y-110745302D01*
X157396120Y-111210849D01*
X157286887Y-111760000D01*
X157396120Y-112309151D01*
X157707189Y-112774698D01*
X158172736Y-113085767D01*
X158721887Y-113195000D01*
X158778113Y-113195000D01*
X159327264Y-113085767D01*
X159792811Y-112774698D01*
X160103880Y-112309151D01*
X160213113Y-111760000D01*
X160103880Y-111210849D01*
X159792811Y-110745302D01*
X159410725Y-110490000D01*
X159792811Y-110234698D01*
X160103880Y-109769151D01*
X160213113Y-109220000D01*
X160103880Y-108670849D01*
X159792811Y-108205302D01*
X159410725Y-107950000D01*
X159792811Y-107694698D01*
X160103880Y-107229151D01*
X160213113Y-106680000D01*
X160103880Y-106130849D01*
X159792811Y-105665302D01*
X159410725Y-105410000D01*
X159792811Y-105154698D01*
X160103880Y-104689151D01*
X160213113Y-104140000D01*
X160103880Y-103590849D01*
X159792811Y-103125302D01*
X159327264Y-102814233D01*
X158778113Y-102705000D01*
X158721887Y-102705000D01*
X158172736Y-102814233D01*
X157707189Y-103125302D01*
X157587118Y-103305000D01*
X155974287Y-103305000D01*
X155883988Y-103169858D01*
X155450882Y-102880467D01*
X154940000Y-102778846D01*
X154429118Y-102880467D01*
X153996012Y-103169858D01*
X153905713Y-103305000D01*
X153035000Y-103305000D01*
X152715459Y-103368561D01*
X152444566Y-103549566D01*
X151084173Y-104909959D01*
X150994883Y-104909881D01*
X150995197Y-104550225D01*
X150822767Y-104132914D01*
X150503765Y-103813355D01*
X150086756Y-103640197D01*
X149905907Y-103640039D01*
X149815434Y-103549566D01*
X149544541Y-103368561D01*
X149225000Y-103305000D01*
X145007440Y-103305000D01*
X145007440Y-103290000D01*
X144963162Y-103054683D01*
X144824090Y-102838559D01*
X144611890Y-102693569D01*
X144360000Y-102642560D01*
X142660000Y-102642560D01*
X142424683Y-102686838D01*
X142208559Y-102825910D01*
X142063569Y-103038110D01*
X142012560Y-103290000D01*
X142012560Y-104990000D01*
X142056838Y-105225317D01*
X142195910Y-105441441D01*
X142408110Y-105586431D01*
X142475541Y-105600086D01*
X142430853Y-105629946D01*
X142108946Y-106111715D01*
X141995907Y-106680000D01*
X141732000Y-106680000D01*
X141732000Y-98868506D01*
X141735478Y-98851021D01*
X141853856Y-98673855D01*
X142031019Y-98555479D01*
X142048509Y-98552000D01*
X146445865Y-98552000D01*
X146436954Y-98557954D01*
X146436954Y-98557954D01*
G37*
X146436954Y-98557954D02*
X145971578Y-99254440D01*
X145808159Y-100076000D01*
X145971578Y-100897560D01*
X146436954Y-101594046D01*
X147133440Y-102059422D01*
X147955000Y-102222841D01*
X148776560Y-102059422D01*
X149473046Y-101594046D01*
X149938422Y-100897560D01*
X150051317Y-100330000D01*
X159928846Y-100330000D01*
X160030467Y-100840882D01*
X160319858Y-101273988D01*
X160455000Y-101364287D01*
X160455000Y-111125000D01*
X160518561Y-111444541D01*
X160651241Y-111643110D01*
X160699566Y-111715434D01*
X161334566Y-112350434D01*
X161605460Y-112531440D01*
X161925000Y-112595000D01*
X164929146Y-112595000D01*
X164966838Y-112795317D01*
X165105910Y-113011441D01*
X165318110Y-113156431D01*
X165570000Y-113207440D01*
X167170000Y-113207440D01*
X167405317Y-113163162D01*
X167621441Y-113024090D01*
X167766431Y-112811890D01*
X167817440Y-112560000D01*
X167817440Y-111989041D01*
X168788086Y-111989041D01*
X169027611Y-112495134D01*
X169442577Y-112871041D01*
X169830961Y-113031904D01*
X170053000Y-112909915D01*
X170053000Y-111767000D01*
X170307000Y-111767000D01*
X170307000Y-112909915D01*
X170529039Y-113031904D01*
X170917423Y-112871041D01*
X171332389Y-112495134D01*
X171511405Y-112116890D01*
X173818524Y-112116890D01*
X173988355Y-112526924D01*
X174378642Y-112955183D01*
X174903108Y-113201486D01*
X175133000Y-113080819D01*
X175133000Y-111887000D01*
X175387000Y-111887000D01*
X175387000Y-113080819D01*
X175616892Y-113201486D01*
X176141358Y-112955183D01*
X176531645Y-112526924D01*
X176701476Y-112116890D01*
X176580155Y-111887000D01*
X175387000Y-111887000D01*
X175133000Y-111887000D01*
X173939845Y-111887000D01*
X173818524Y-112116890D01*
X171511405Y-112116890D01*
X171571914Y-111989041D01*
X171450629Y-111767000D01*
X170307000Y-111767000D01*
X170053000Y-111767000D01*
X168909371Y-111767000D01*
X168788086Y-111989041D01*
X167817440Y-111989041D01*
X167817440Y-111290959D01*
X168788086Y-111290959D01*
X168909371Y-111513000D01*
X170053000Y-111513000D01*
X170053000Y-110370085D01*
X170307000Y-110370085D01*
X170307000Y-111513000D01*
X171450629Y-111513000D01*
X171571914Y-111290959D01*
X171332389Y-110784866D01*
X170917423Y-110408959D01*
X170529039Y-110248096D01*
X170307000Y-110370085D01*
X170053000Y-110370085D01*
X169830961Y-110248096D01*
X169442577Y-110408959D01*
X169027611Y-110784866D01*
X168788086Y-111290959D01*
X167817440Y-111290959D01*
X167817440Y-110960000D01*
X167773162Y-110724683D01*
X167634090Y-110508559D01*
X167421890Y-110363569D01*
X167266911Y-110332185D01*
X167412811Y-110234698D01*
X167532882Y-110055000D01*
X174037159Y-110055000D01*
X174180853Y-110270054D01*
X174521553Y-110497702D01*
X174378642Y-110564817D01*
X173988355Y-110993076D01*
X173818524Y-111403110D01*
X173939845Y-111633000D01*
X175133000Y-111633000D01*
X175133000Y-111613000D01*
X175387000Y-111613000D01*
X175387000Y-111633000D01*
X176580155Y-111633000D01*
X176701476Y-111403110D01*
X176531645Y-110993076D01*
X176141358Y-110564817D01*
X175998447Y-110497702D01*
X176339147Y-110270054D01*
X176661054Y-109788285D01*
X176774093Y-109220000D01*
X176661054Y-108651715D01*
X176339147Y-108169946D01*
X176297548Y-108142150D01*
X176345317Y-108133162D01*
X176561441Y-107994090D01*
X176706431Y-107781890D01*
X176757440Y-107530000D01*
X176757440Y-105830000D01*
X176713162Y-105594683D01*
X176645000Y-105488756D01*
X176645000Y-104330000D01*
X176632469Y-104267000D01*
X176539574Y-103799984D01*
X176239343Y-103350657D01*
X176049343Y-103160657D01*
X175996430Y-103125302D01*
X175600017Y-102860427D01*
X175070000Y-102755000D01*
X171565000Y-102755000D01*
X171565000Y-101521797D01*
X171626431Y-101431890D01*
X171648301Y-101323893D01*
X171953076Y-101601645D01*
X172363110Y-101771476D01*
X172593000Y-101650155D01*
X172593000Y-100457000D01*
X172847000Y-100457000D01*
X172847000Y-101650155D01*
X173076890Y-101771476D01*
X173486924Y-101601645D01*
X173915183Y-101211358D01*
X174161486Y-100686892D01*
X174040819Y-100457000D01*
X172847000Y-100457000D01*
X172593000Y-100457000D01*
X172573000Y-100457000D01*
X172573000Y-100203000D01*
X172593000Y-100203000D01*
X172593000Y-99009845D01*
X172847000Y-99009845D01*
X172847000Y-100203000D01*
X174040819Y-100203000D01*
X174161486Y-99973108D01*
X173915183Y-99448642D01*
X173486924Y-99058355D01*
X173076890Y-98888524D01*
X172847000Y-99009845D01*
X172593000Y-99009845D01*
X172363110Y-98888524D01*
X171953076Y-99058355D01*
X171650063Y-99334501D01*
X171633162Y-99244683D01*
X171494090Y-99028559D01*
X171281890Y-98883569D01*
X171030000Y-98832560D01*
X169330000Y-98832560D01*
X169094683Y-98876838D01*
X168878559Y-99015910D01*
X168733569Y-99228110D01*
X168682560Y-99480000D01*
X168682560Y-99495000D01*
X164882786Y-99495000D01*
X164587204Y-99198902D01*
X164096713Y-98995232D01*
X163565617Y-98994769D01*
X163074771Y-99197582D01*
X162698902Y-99572796D01*
X162564784Y-99895788D01*
X162549533Y-99819118D01*
X162260142Y-99386012D01*
X161827036Y-99096621D01*
X161316154Y-98995000D01*
X161263846Y-98995000D01*
X160752964Y-99096621D01*
X160319858Y-99386012D01*
X160030467Y-99819118D01*
X159928846Y-100330000D01*
X150051317Y-100330000D01*
X150101841Y-100076000D01*
X149938422Y-99254440D01*
X149473046Y-98557954D01*
X149464135Y-98552000D01*
X176721494Y-98552000D01*
X176738979Y-98555478D01*
X176916145Y-98673856D01*
X177034521Y-98851019D01*
X177038000Y-98868509D01*
X177038000Y-114491491D01*
X177034521Y-114508981D01*
X176916145Y-114686144D01*
X176738979Y-114804522D01*
X176721494Y-114808000D01*
X142048509Y-114808000D01*
X142031019Y-114804521D01*
X141853856Y-114686145D01*
X141735478Y-114508979D01*
X141732000Y-114491494D01*
X141732000Y-112116890D01*
X142068524Y-112116890D01*
X142238355Y-112526924D01*
X142628642Y-112955183D01*
X143153108Y-113201486D01*
X143383000Y-113080819D01*
X143383000Y-111887000D01*
X143637000Y-111887000D01*
X143637000Y-113080819D01*
X143866892Y-113201486D01*
X144391358Y-112955183D01*
X144781645Y-112526924D01*
X144951476Y-112116890D01*
X144830155Y-111887000D01*
X143637000Y-111887000D01*
X143383000Y-111887000D01*
X142189845Y-111887000D01*
X142068524Y-112116890D01*
X141732000Y-112116890D01*
X141732000Y-106680000D01*
X141995907Y-106680000D01*
X142108946Y-107248285D01*
X142430853Y-107730054D01*
X142760026Y-107950000D01*
X142430853Y-108169946D01*
X142108946Y-108651715D01*
X141995907Y-109220000D01*
X142108946Y-109788285D01*
X142430853Y-110270054D01*
X142771553Y-110497702D01*
X142628642Y-110564817D01*
X142238355Y-110993076D01*
X142068524Y-111403110D01*
X142189845Y-111633000D01*
X143383000Y-111633000D01*
X143383000Y-111613000D01*
X143637000Y-111613000D01*
X143637000Y-111633000D01*
X144830155Y-111633000D01*
X144951476Y-111403110D01*
X144781645Y-110993076D01*
X144391358Y-110564817D01*
X144248447Y-110497702D01*
X144589147Y-110270054D01*
X144732841Y-110055000D01*
X145704132Y-110055000D01*
X145850000Y-110200868D01*
X145850000Y-111390000D01*
X145913561Y-111709541D01*
X146080912Y-111960000D01*
X146094566Y-111980434D01*
X147099566Y-112985434D01*
X147370460Y-113166440D01*
X147530577Y-113198289D01*
X147625910Y-113346441D01*
X147838110Y-113491431D01*
X148090000Y-113542440D01*
X149090000Y-113542440D01*
X149325317Y-113498162D01*
X149541441Y-113359090D01*
X149686431Y-113146890D01*
X149737440Y-112895000D01*
X149737440Y-112259894D01*
X149995117Y-112260119D01*
X149994803Y-112619775D01*
X150167233Y-113037086D01*
X150486235Y-113356645D01*
X150903244Y-113529803D01*
X151084093Y-113529961D01*
X151174566Y-113620434D01*
X151445460Y-113801440D01*
X151765000Y-113865000D01*
X153905713Y-113865000D01*
X153996012Y-114000142D01*
X154429118Y-114289533D01*
X154940000Y-114391154D01*
X155450882Y-114289533D01*
X155883988Y-114000142D01*
X156173379Y-113567036D01*
X156275000Y-113056154D01*
X156275000Y-113003846D01*
X156173379Y-112492964D01*
X155883988Y-112059858D01*
X155450882Y-111770467D01*
X155373955Y-111755165D01*
X155695229Y-111622418D01*
X156071098Y-111247204D01*
X156274768Y-110756713D01*
X156275231Y-110225617D01*
X156072418Y-109734771D01*
X155758196Y-109420000D01*
X157326670Y-109420000D01*
X157396120Y-109769151D01*
X157707189Y-110234698D01*
X158089275Y-110490000D01*
X157707189Y-110745302D01*
X157396120Y-111210849D01*
X157286887Y-111760000D01*
X157396120Y-112309151D01*
X157707189Y-112774698D01*
X158172736Y-113085767D01*
X158721887Y-113195000D01*
X158778113Y-113195000D01*
X159327264Y-113085767D01*
X159792811Y-112774698D01*
X160103880Y-112309151D01*
X160213113Y-111760000D01*
X160103880Y-111210849D01*
X159792811Y-110745302D01*
X159410725Y-110490000D01*
X159792811Y-110234698D01*
X160103880Y-109769151D01*
X160213113Y-109220000D01*
X160103880Y-108670849D01*
X159792811Y-108205302D01*
X159410725Y-107950000D01*
X159792811Y-107694698D01*
X160103880Y-107229151D01*
X160213113Y-106680000D01*
X160103880Y-106130849D01*
X159792811Y-105665302D01*
X159410725Y-105410000D01*
X159792811Y-105154698D01*
X160103880Y-104689151D01*
X160213113Y-104140000D01*
X160103880Y-103590849D01*
X159792811Y-103125302D01*
X159327264Y-102814233D01*
X158778113Y-102705000D01*
X158721887Y-102705000D01*
X158172736Y-102814233D01*
X157707189Y-103125302D01*
X157587118Y-103305000D01*
X155974287Y-103305000D01*
X155883988Y-103169858D01*
X155450882Y-102880467D01*
X154940000Y-102778846D01*
X154429118Y-102880467D01*
X153996012Y-103169858D01*
X153905713Y-103305000D01*
X153035000Y-103305000D01*
X152715459Y-103368561D01*
X152444566Y-103549566D01*
X151084173Y-104909959D01*
X150994883Y-104909881D01*
X150995197Y-104550225D01*
X150822767Y-104132914D01*
X150503765Y-103813355D01*
X150086756Y-103640197D01*
X149905907Y-103640039D01*
X149815434Y-103549566D01*
X149544541Y-103368561D01*
X149225000Y-103305000D01*
X145007440Y-103305000D01*
X145007440Y-103290000D01*
X144963162Y-103054683D01*
X144824090Y-102838559D01*
X144611890Y-102693569D01*
X144360000Y-102642560D01*
X142660000Y-102642560D01*
X142424683Y-102686838D01*
X142208559Y-102825910D01*
X142063569Y-103038110D01*
X142012560Y-103290000D01*
X142012560Y-104990000D01*
X142056838Y-105225317D01*
X142195910Y-105441441D01*
X142408110Y-105586431D01*
X142475541Y-105600086D01*
X142430853Y-105629946D01*
X142108946Y-106111715D01*
X141995907Y-106680000D01*
X141732000Y-106680000D01*
X141732000Y-98868506D01*
X141735478Y-98851021D01*
X141853856Y-98673855D01*
X142031019Y-98555479D01*
X142048509Y-98552000D01*
X146445865Y-98552000D01*
X146436954Y-98557954D01*
G36*
X162697582Y-101085229D02*
X163072796Y-101461098D01*
X163563287Y-101664768D01*
X164094383Y-101665231D01*
X164585229Y-101462418D01*
X164883166Y-101165000D01*
X168682560Y-101165000D01*
X168682560Y-101180000D01*
X168726838Y-101415317D01*
X168795000Y-101521244D01*
X168795000Y-103733498D01*
X168745250Y-103853309D01*
X168744752Y-104424187D01*
X168962757Y-104951800D01*
X169366077Y-105355824D01*
X169893309Y-105574750D01*
X170464187Y-105575248D01*
X170585797Y-105525000D01*
X173849857Y-105525000D01*
X173813569Y-105578110D01*
X173762560Y-105830000D01*
X173762560Y-107530000D01*
X173806838Y-107765317D01*
X173945910Y-107981441D01*
X174158110Y-108126431D01*
X174225541Y-108140086D01*
X174180853Y-108169946D01*
X174037159Y-108385000D01*
X167532882Y-108385000D01*
X167412811Y-108205302D01*
X167030725Y-107950000D01*
X167412811Y-107694698D01*
X167723880Y-107229151D01*
X167833113Y-106680000D01*
X167723880Y-106130849D01*
X167412811Y-105665302D01*
X167008297Y-105395014D01*
X167225134Y-105292389D01*
X167601041Y-104877423D01*
X167761904Y-104489039D01*
X167639915Y-104267000D01*
X166497000Y-104267000D01*
X166497000Y-104287000D01*
X166243000Y-104287000D01*
X166243000Y-104267000D01*
X165100085Y-104267000D01*
X164978096Y-104489039D01*
X165138959Y-104877423D01*
X165514866Y-105292389D01*
X165731703Y-105395014D01*
X165327189Y-105665302D01*
X165016120Y-106130849D01*
X164906887Y-106680000D01*
X165016120Y-107229151D01*
X165327189Y-107694698D01*
X165709275Y-107950000D01*
X165327189Y-108205302D01*
X165016120Y-108670849D01*
X164906887Y-109220000D01*
X165016120Y-109769151D01*
X165327189Y-110234698D01*
X165471465Y-110331101D01*
X165334683Y-110356838D01*
X165118559Y-110495910D01*
X164973569Y-110708110D01*
X164929648Y-110925000D01*
X162270868Y-110925000D01*
X162125000Y-110779132D01*
X162125000Y-103790961D01*
X164978096Y-103790961D01*
X165100085Y-104013000D01*
X166243000Y-104013000D01*
X166243000Y-102869371D01*
X166497000Y-102869371D01*
X166497000Y-104013000D01*
X167639915Y-104013000D01*
X167761904Y-103790961D01*
X167601041Y-103402577D01*
X167225134Y-102987611D01*
X166719041Y-102748086D01*
X166497000Y-102869371D01*
X166243000Y-102869371D01*
X166020959Y-102748086D01*
X165514866Y-102987611D01*
X165138959Y-103402577D01*
X164978096Y-103790961D01*
X162125000Y-103790961D01*
X162125000Y-101364287D01*
X162260142Y-101273988D01*
X162549533Y-100840882D01*
X162564835Y-100763955D01*
X162697582Y-101085229D01*
X162697582Y-101085229D01*
G37*
X162697582Y-101085229D02*
X163072796Y-101461098D01*
X163563287Y-101664768D01*
X164094383Y-101665231D01*
X164585229Y-101462418D01*
X164883166Y-101165000D01*
X168682560Y-101165000D01*
X168682560Y-101180000D01*
X168726838Y-101415317D01*
X168795000Y-101521244D01*
X168795000Y-103733498D01*
X168745250Y-103853309D01*
X168744752Y-104424187D01*
X168962757Y-104951800D01*
X169366077Y-105355824D01*
X169893309Y-105574750D01*
X170464187Y-105575248D01*
X170585797Y-105525000D01*
X173849857Y-105525000D01*
X173813569Y-105578110D01*
X173762560Y-105830000D01*
X173762560Y-107530000D01*
X173806838Y-107765317D01*
X173945910Y-107981441D01*
X174158110Y-108126431D01*
X174225541Y-108140086D01*
X174180853Y-108169946D01*
X174037159Y-108385000D01*
X167532882Y-108385000D01*
X167412811Y-108205302D01*
X167030725Y-107950000D01*
X167412811Y-107694698D01*
X167723880Y-107229151D01*
X167833113Y-106680000D01*
X167723880Y-106130849D01*
X167412811Y-105665302D01*
X167008297Y-105395014D01*
X167225134Y-105292389D01*
X167601041Y-104877423D01*
X167761904Y-104489039D01*
X167639915Y-104267000D01*
X166497000Y-104267000D01*
X166497000Y-104287000D01*
X166243000Y-104287000D01*
X166243000Y-104267000D01*
X165100085Y-104267000D01*
X164978096Y-104489039D01*
X165138959Y-104877423D01*
X165514866Y-105292389D01*
X165731703Y-105395014D01*
X165327189Y-105665302D01*
X165016120Y-106130849D01*
X164906887Y-106680000D01*
X165016120Y-107229151D01*
X165327189Y-107694698D01*
X165709275Y-107950000D01*
X165327189Y-108205302D01*
X165016120Y-108670849D01*
X164906887Y-109220000D01*
X165016120Y-109769151D01*
X165327189Y-110234698D01*
X165471465Y-110331101D01*
X165334683Y-110356838D01*
X165118559Y-110495910D01*
X164973569Y-110708110D01*
X164929648Y-110925000D01*
X162270868Y-110925000D01*
X162125000Y-110779132D01*
X162125000Y-103790961D01*
X164978096Y-103790961D01*
X165100085Y-104013000D01*
X166243000Y-104013000D01*
X166243000Y-102869371D01*
X166497000Y-102869371D01*
X166497000Y-104013000D01*
X167639915Y-104013000D01*
X167761904Y-103790961D01*
X167601041Y-103402577D01*
X167225134Y-102987611D01*
X166719041Y-102748086D01*
X166497000Y-102869371D01*
X166243000Y-102869371D01*
X166020959Y-102748086D01*
X165514866Y-102987611D01*
X165138959Y-103402577D01*
X164978096Y-103790961D01*
X162125000Y-103790961D01*
X162125000Y-101364287D01*
X162260142Y-101273988D01*
X162549533Y-100840882D01*
X162564835Y-100763955D01*
X162697582Y-101085229D01*
M02*
