G75*
%MOIN*%
%OFA0B0*%
%FSLAX25Y25*%
%IPPOS*%
%LPD*%
%AMOC8*
5,1,8,0,0,1.08239X$1,22.5*
%
%ADD10C,0.00000*%
%ADD11R,0.06000X0.06000*%
%ADD12C,0.06000*%
%ADD13OC8,0.06000*%
%ADD14R,0.05000X0.05000*%
%ADD15C,0.05000*%
%ADD16C,0.01600*%
D10*
X0015000Y0022600D02*
X0165000Y0022600D01*
X0165242Y0022603D01*
X0165483Y0022612D01*
X0165724Y0022626D01*
X0165965Y0022647D01*
X0166205Y0022673D01*
X0166445Y0022705D01*
X0166684Y0022743D01*
X0166921Y0022786D01*
X0167158Y0022836D01*
X0167393Y0022891D01*
X0167627Y0022951D01*
X0167859Y0023018D01*
X0168090Y0023089D01*
X0168319Y0023167D01*
X0168546Y0023250D01*
X0168771Y0023338D01*
X0168994Y0023432D01*
X0169214Y0023531D01*
X0169432Y0023636D01*
X0169647Y0023745D01*
X0169860Y0023860D01*
X0170070Y0023980D01*
X0170276Y0024105D01*
X0170480Y0024235D01*
X0170681Y0024370D01*
X0170878Y0024510D01*
X0171072Y0024654D01*
X0171262Y0024803D01*
X0171448Y0024957D01*
X0171631Y0025115D01*
X0171810Y0025277D01*
X0171985Y0025444D01*
X0172156Y0025615D01*
X0172323Y0025790D01*
X0172485Y0025969D01*
X0172643Y0026152D01*
X0172797Y0026338D01*
X0172946Y0026528D01*
X0173090Y0026722D01*
X0173230Y0026919D01*
X0173365Y0027120D01*
X0173495Y0027324D01*
X0173620Y0027530D01*
X0173740Y0027740D01*
X0173855Y0027953D01*
X0173964Y0028168D01*
X0174069Y0028386D01*
X0174168Y0028606D01*
X0174262Y0028829D01*
X0174350Y0029054D01*
X0174433Y0029281D01*
X0174511Y0029510D01*
X0174582Y0029741D01*
X0174649Y0029973D01*
X0174709Y0030207D01*
X0174764Y0030442D01*
X0174814Y0030679D01*
X0174857Y0030916D01*
X0174895Y0031155D01*
X0174927Y0031395D01*
X0174953Y0031635D01*
X0174974Y0031876D01*
X0174988Y0032117D01*
X0174997Y0032358D01*
X0175000Y0032600D01*
X0175000Y0112600D01*
X0175002Y0112740D01*
X0175008Y0112880D01*
X0175018Y0113020D01*
X0175031Y0113160D01*
X0175049Y0113299D01*
X0175071Y0113438D01*
X0175096Y0113575D01*
X0175125Y0113713D01*
X0175158Y0113849D01*
X0175195Y0113984D01*
X0175236Y0114118D01*
X0175281Y0114251D01*
X0175329Y0114383D01*
X0175381Y0114513D01*
X0175436Y0114642D01*
X0175495Y0114769D01*
X0175558Y0114895D01*
X0175624Y0115019D01*
X0175693Y0115140D01*
X0175766Y0115260D01*
X0175843Y0115378D01*
X0175922Y0115493D01*
X0176005Y0115607D01*
X0176091Y0115717D01*
X0176180Y0115826D01*
X0176272Y0115932D01*
X0176367Y0116035D01*
X0176464Y0116136D01*
X0176565Y0116233D01*
X0176668Y0116328D01*
X0176774Y0116420D01*
X0176883Y0116509D01*
X0176993Y0116595D01*
X0177107Y0116678D01*
X0177222Y0116757D01*
X0177340Y0116834D01*
X0177460Y0116907D01*
X0177581Y0116976D01*
X0177705Y0117042D01*
X0177831Y0117105D01*
X0177958Y0117164D01*
X0178087Y0117219D01*
X0178217Y0117271D01*
X0178349Y0117319D01*
X0178482Y0117364D01*
X0178616Y0117405D01*
X0178751Y0117442D01*
X0178887Y0117475D01*
X0179025Y0117504D01*
X0179162Y0117529D01*
X0179301Y0117551D01*
X0179440Y0117569D01*
X0179580Y0117582D01*
X0179720Y0117592D01*
X0179860Y0117598D01*
X0180000Y0117600D01*
X0186034Y0117600D01*
X0192888Y0114882D02*
X0229354Y0080561D01*
X0232500Y0073279D02*
X0232500Y0032600D01*
X0232503Y0032358D01*
X0232512Y0032117D01*
X0232526Y0031876D01*
X0232547Y0031635D01*
X0232573Y0031395D01*
X0232605Y0031155D01*
X0232643Y0030916D01*
X0232686Y0030679D01*
X0232736Y0030442D01*
X0232791Y0030207D01*
X0232851Y0029973D01*
X0232918Y0029741D01*
X0232989Y0029510D01*
X0233067Y0029281D01*
X0233150Y0029054D01*
X0233238Y0028829D01*
X0233332Y0028606D01*
X0233431Y0028386D01*
X0233536Y0028168D01*
X0233645Y0027953D01*
X0233760Y0027740D01*
X0233880Y0027530D01*
X0234005Y0027324D01*
X0234135Y0027120D01*
X0234270Y0026919D01*
X0234410Y0026722D01*
X0234554Y0026528D01*
X0234703Y0026338D01*
X0234857Y0026152D01*
X0235015Y0025969D01*
X0235177Y0025790D01*
X0235344Y0025615D01*
X0235515Y0025444D01*
X0235690Y0025277D01*
X0235869Y0025115D01*
X0236052Y0024957D01*
X0236238Y0024803D01*
X0236428Y0024654D01*
X0236622Y0024510D01*
X0236819Y0024370D01*
X0237020Y0024235D01*
X0237224Y0024105D01*
X0237430Y0023980D01*
X0237640Y0023860D01*
X0237853Y0023745D01*
X0238068Y0023636D01*
X0238286Y0023531D01*
X0238506Y0023432D01*
X0238729Y0023338D01*
X0238954Y0023250D01*
X0239181Y0023167D01*
X0239410Y0023089D01*
X0239641Y0023018D01*
X0239873Y0022951D01*
X0240107Y0022891D01*
X0240342Y0022836D01*
X0240579Y0022786D01*
X0240816Y0022743D01*
X0241055Y0022705D01*
X0241295Y0022673D01*
X0241535Y0022647D01*
X0241776Y0022626D01*
X0242017Y0022612D01*
X0242258Y0022603D01*
X0242500Y0022600D01*
X0252421Y0022600D01*
X0252422Y0022600D02*
X0252664Y0022602D01*
X0252907Y0022610D01*
X0253149Y0022624D01*
X0253391Y0022643D01*
X0253632Y0022669D01*
X0253873Y0022700D01*
X0254112Y0022737D01*
X0254351Y0022780D01*
X0254589Y0022828D01*
X0254825Y0022882D01*
X0255060Y0022942D01*
X0255294Y0023008D01*
X0255526Y0023079D01*
X0255756Y0023156D01*
X0255984Y0023238D01*
X0256210Y0023326D01*
X0256434Y0023420D01*
X0256656Y0023518D01*
X0256875Y0023622D01*
X0257091Y0023732D01*
X0257305Y0023846D01*
X0257516Y0023966D01*
X0257724Y0024090D01*
X0257930Y0024220D01*
X0258131Y0024355D01*
X0258330Y0024494D01*
X0258525Y0024638D01*
X0258717Y0024787D01*
X0258904Y0024941D01*
X0259089Y0025099D01*
X0259269Y0025261D01*
X0259445Y0025428D01*
X0259617Y0025599D01*
X0259785Y0025774D01*
X0259949Y0025952D01*
X0260109Y0026135D01*
X0260263Y0026322D01*
X0260414Y0026512D01*
X0260560Y0026706D01*
X0260701Y0026904D01*
X0260837Y0027105D01*
X0260968Y0027309D01*
X0261094Y0027516D01*
X0261216Y0027726D01*
X0261332Y0027939D01*
X0261443Y0028155D01*
X0261548Y0028373D01*
X0261649Y0028594D01*
X0261744Y0028817D01*
X0261834Y0029042D01*
X0261918Y0029270D01*
X0261996Y0029499D01*
X0262069Y0029731D01*
X0262137Y0029964D01*
X0262199Y0030198D01*
X0262255Y0030434D01*
X0262305Y0030672D01*
X0262350Y0030910D01*
X0262389Y0031150D01*
X0262422Y0031390D01*
X0262449Y0031631D01*
X0262471Y0031873D01*
X0262486Y0032115D01*
X0262496Y0032357D01*
X0262500Y0032600D01*
X0262500Y0233100D01*
X0262496Y0233346D01*
X0262485Y0233592D01*
X0262469Y0233838D01*
X0262446Y0234083D01*
X0262418Y0234327D01*
X0262384Y0234571D01*
X0262343Y0234813D01*
X0262297Y0235055D01*
X0262245Y0235296D01*
X0262186Y0235535D01*
X0262123Y0235772D01*
X0262053Y0236008D01*
X0261977Y0236242D01*
X0261896Y0236475D01*
X0261809Y0236705D01*
X0261716Y0236933D01*
X0261618Y0237158D01*
X0261515Y0237382D01*
X0261405Y0237602D01*
X0261291Y0237820D01*
X0261171Y0238035D01*
X0261046Y0238247D01*
X0260916Y0238456D01*
X0260781Y0238661D01*
X0260640Y0238863D01*
X0260495Y0239062D01*
X0260345Y0239257D01*
X0260190Y0239448D01*
X0260031Y0239636D01*
X0259867Y0239819D01*
X0259699Y0239999D01*
X0259526Y0240174D01*
X0259349Y0240345D01*
X0259168Y0240511D01*
X0258982Y0240673D01*
X0258793Y0240831D01*
X0258600Y0240984D01*
X0258404Y0241132D01*
X0258204Y0241275D01*
X0258000Y0241413D01*
X0257793Y0241546D01*
X0257583Y0241674D01*
X0257369Y0241797D01*
X0257153Y0241914D01*
X0256934Y0242026D01*
X0256713Y0242133D01*
X0256488Y0242234D01*
X0256262Y0242330D01*
X0256033Y0242420D01*
X0255802Y0242505D01*
X0255568Y0242584D01*
X0255333Y0242657D01*
X0255097Y0242724D01*
X0254859Y0242785D01*
X0254619Y0242841D01*
X0254378Y0242891D01*
X0254136Y0242934D01*
X0253893Y0242972D01*
X0253649Y0243004D01*
X0253404Y0243030D01*
X0253159Y0243050D01*
X0252913Y0243063D01*
X0252667Y0243071D01*
X0252421Y0243073D01*
X0252421Y0243072D02*
X0015000Y0243072D01*
X0014758Y0243069D01*
X0014517Y0243060D01*
X0014276Y0243046D01*
X0014035Y0243025D01*
X0013795Y0242999D01*
X0013555Y0242967D01*
X0013316Y0242929D01*
X0013079Y0242886D01*
X0012842Y0242836D01*
X0012607Y0242781D01*
X0012373Y0242721D01*
X0012141Y0242654D01*
X0011910Y0242583D01*
X0011681Y0242505D01*
X0011454Y0242422D01*
X0011229Y0242334D01*
X0011006Y0242240D01*
X0010786Y0242141D01*
X0010568Y0242036D01*
X0010353Y0241927D01*
X0010140Y0241812D01*
X0009930Y0241692D01*
X0009724Y0241567D01*
X0009520Y0241437D01*
X0009319Y0241302D01*
X0009122Y0241162D01*
X0008928Y0241018D01*
X0008738Y0240869D01*
X0008552Y0240715D01*
X0008369Y0240557D01*
X0008190Y0240395D01*
X0008015Y0240228D01*
X0007844Y0240057D01*
X0007677Y0239882D01*
X0007515Y0239703D01*
X0007357Y0239520D01*
X0007203Y0239334D01*
X0007054Y0239144D01*
X0006910Y0238950D01*
X0006770Y0238753D01*
X0006635Y0238552D01*
X0006505Y0238348D01*
X0006380Y0238142D01*
X0006260Y0237932D01*
X0006145Y0237719D01*
X0006036Y0237504D01*
X0005931Y0237286D01*
X0005832Y0237066D01*
X0005738Y0236843D01*
X0005650Y0236618D01*
X0005567Y0236391D01*
X0005489Y0236162D01*
X0005418Y0235931D01*
X0005351Y0235699D01*
X0005291Y0235465D01*
X0005236Y0235230D01*
X0005186Y0234993D01*
X0005143Y0234756D01*
X0005105Y0234517D01*
X0005073Y0234277D01*
X0005047Y0234037D01*
X0005026Y0233796D01*
X0005012Y0233555D01*
X0005003Y0233314D01*
X0005000Y0233072D01*
X0005000Y0032600D01*
X0005003Y0032358D01*
X0005012Y0032117D01*
X0005026Y0031876D01*
X0005047Y0031635D01*
X0005073Y0031395D01*
X0005105Y0031155D01*
X0005143Y0030916D01*
X0005186Y0030679D01*
X0005236Y0030442D01*
X0005291Y0030207D01*
X0005351Y0029973D01*
X0005418Y0029741D01*
X0005489Y0029510D01*
X0005567Y0029281D01*
X0005650Y0029054D01*
X0005738Y0028829D01*
X0005832Y0028606D01*
X0005931Y0028386D01*
X0006036Y0028168D01*
X0006145Y0027953D01*
X0006260Y0027740D01*
X0006380Y0027530D01*
X0006505Y0027324D01*
X0006635Y0027120D01*
X0006770Y0026919D01*
X0006910Y0026722D01*
X0007054Y0026528D01*
X0007203Y0026338D01*
X0007357Y0026152D01*
X0007515Y0025969D01*
X0007677Y0025790D01*
X0007844Y0025615D01*
X0008015Y0025444D01*
X0008190Y0025277D01*
X0008369Y0025115D01*
X0008552Y0024957D01*
X0008738Y0024803D01*
X0008928Y0024654D01*
X0009122Y0024510D01*
X0009319Y0024370D01*
X0009520Y0024235D01*
X0009724Y0024105D01*
X0009930Y0023980D01*
X0010140Y0023860D01*
X0010353Y0023745D01*
X0010568Y0023636D01*
X0010786Y0023531D01*
X0011006Y0023432D01*
X0011229Y0023338D01*
X0011454Y0023250D01*
X0011681Y0023167D01*
X0011910Y0023089D01*
X0012141Y0023018D01*
X0012373Y0022951D01*
X0012607Y0022891D01*
X0012842Y0022836D01*
X0013079Y0022786D01*
X0013316Y0022743D01*
X0013555Y0022705D01*
X0013795Y0022673D01*
X0014035Y0022647D01*
X0014276Y0022626D01*
X0014517Y0022612D01*
X0014758Y0022603D01*
X0015000Y0022600D01*
X0013268Y0036380D02*
X0013270Y0036528D01*
X0013276Y0036676D01*
X0013286Y0036824D01*
X0013300Y0036971D01*
X0013318Y0037118D01*
X0013339Y0037264D01*
X0013365Y0037410D01*
X0013395Y0037555D01*
X0013428Y0037699D01*
X0013466Y0037842D01*
X0013507Y0037984D01*
X0013552Y0038125D01*
X0013600Y0038265D01*
X0013653Y0038404D01*
X0013709Y0038541D01*
X0013769Y0038676D01*
X0013832Y0038810D01*
X0013899Y0038942D01*
X0013970Y0039072D01*
X0014044Y0039200D01*
X0014121Y0039326D01*
X0014202Y0039450D01*
X0014286Y0039572D01*
X0014373Y0039691D01*
X0014464Y0039808D01*
X0014558Y0039923D01*
X0014654Y0040035D01*
X0014754Y0040145D01*
X0014856Y0040251D01*
X0014962Y0040355D01*
X0015070Y0040456D01*
X0015181Y0040554D01*
X0015294Y0040650D01*
X0015410Y0040742D01*
X0015528Y0040831D01*
X0015649Y0040916D01*
X0015772Y0040999D01*
X0015897Y0041078D01*
X0016024Y0041154D01*
X0016153Y0041226D01*
X0016284Y0041295D01*
X0016417Y0041360D01*
X0016552Y0041421D01*
X0016688Y0041479D01*
X0016825Y0041534D01*
X0016964Y0041584D01*
X0017105Y0041631D01*
X0017246Y0041674D01*
X0017389Y0041714D01*
X0017533Y0041749D01*
X0017677Y0041781D01*
X0017823Y0041808D01*
X0017969Y0041832D01*
X0018116Y0041852D01*
X0018263Y0041868D01*
X0018410Y0041880D01*
X0018558Y0041888D01*
X0018706Y0041892D01*
X0018854Y0041892D01*
X0019002Y0041888D01*
X0019150Y0041880D01*
X0019297Y0041868D01*
X0019444Y0041852D01*
X0019591Y0041832D01*
X0019737Y0041808D01*
X0019883Y0041781D01*
X0020027Y0041749D01*
X0020171Y0041714D01*
X0020314Y0041674D01*
X0020455Y0041631D01*
X0020596Y0041584D01*
X0020735Y0041534D01*
X0020872Y0041479D01*
X0021008Y0041421D01*
X0021143Y0041360D01*
X0021276Y0041295D01*
X0021407Y0041226D01*
X0021536Y0041154D01*
X0021663Y0041078D01*
X0021788Y0040999D01*
X0021911Y0040916D01*
X0022032Y0040831D01*
X0022150Y0040742D01*
X0022266Y0040650D01*
X0022379Y0040554D01*
X0022490Y0040456D01*
X0022598Y0040355D01*
X0022704Y0040251D01*
X0022806Y0040145D01*
X0022906Y0040035D01*
X0023002Y0039923D01*
X0023096Y0039808D01*
X0023187Y0039691D01*
X0023274Y0039572D01*
X0023358Y0039450D01*
X0023439Y0039326D01*
X0023516Y0039200D01*
X0023590Y0039072D01*
X0023661Y0038942D01*
X0023728Y0038810D01*
X0023791Y0038676D01*
X0023851Y0038541D01*
X0023907Y0038404D01*
X0023960Y0038265D01*
X0024008Y0038125D01*
X0024053Y0037984D01*
X0024094Y0037842D01*
X0024132Y0037699D01*
X0024165Y0037555D01*
X0024195Y0037410D01*
X0024221Y0037264D01*
X0024242Y0037118D01*
X0024260Y0036971D01*
X0024274Y0036824D01*
X0024284Y0036676D01*
X0024290Y0036528D01*
X0024292Y0036380D01*
X0024290Y0036232D01*
X0024284Y0036084D01*
X0024274Y0035936D01*
X0024260Y0035789D01*
X0024242Y0035642D01*
X0024221Y0035496D01*
X0024195Y0035350D01*
X0024165Y0035205D01*
X0024132Y0035061D01*
X0024094Y0034918D01*
X0024053Y0034776D01*
X0024008Y0034635D01*
X0023960Y0034495D01*
X0023907Y0034356D01*
X0023851Y0034219D01*
X0023791Y0034084D01*
X0023728Y0033950D01*
X0023661Y0033818D01*
X0023590Y0033688D01*
X0023516Y0033560D01*
X0023439Y0033434D01*
X0023358Y0033310D01*
X0023274Y0033188D01*
X0023187Y0033069D01*
X0023096Y0032952D01*
X0023002Y0032837D01*
X0022906Y0032725D01*
X0022806Y0032615D01*
X0022704Y0032509D01*
X0022598Y0032405D01*
X0022490Y0032304D01*
X0022379Y0032206D01*
X0022266Y0032110D01*
X0022150Y0032018D01*
X0022032Y0031929D01*
X0021911Y0031844D01*
X0021788Y0031761D01*
X0021663Y0031682D01*
X0021536Y0031606D01*
X0021407Y0031534D01*
X0021276Y0031465D01*
X0021143Y0031400D01*
X0021008Y0031339D01*
X0020872Y0031281D01*
X0020735Y0031226D01*
X0020596Y0031176D01*
X0020455Y0031129D01*
X0020314Y0031086D01*
X0020171Y0031046D01*
X0020027Y0031011D01*
X0019883Y0030979D01*
X0019737Y0030952D01*
X0019591Y0030928D01*
X0019444Y0030908D01*
X0019297Y0030892D01*
X0019150Y0030880D01*
X0019002Y0030872D01*
X0018854Y0030868D01*
X0018706Y0030868D01*
X0018558Y0030872D01*
X0018410Y0030880D01*
X0018263Y0030892D01*
X0018116Y0030908D01*
X0017969Y0030928D01*
X0017823Y0030952D01*
X0017677Y0030979D01*
X0017533Y0031011D01*
X0017389Y0031046D01*
X0017246Y0031086D01*
X0017105Y0031129D01*
X0016964Y0031176D01*
X0016825Y0031226D01*
X0016688Y0031281D01*
X0016552Y0031339D01*
X0016417Y0031400D01*
X0016284Y0031465D01*
X0016153Y0031534D01*
X0016024Y0031606D01*
X0015897Y0031682D01*
X0015772Y0031761D01*
X0015649Y0031844D01*
X0015528Y0031929D01*
X0015410Y0032018D01*
X0015294Y0032110D01*
X0015181Y0032206D01*
X0015070Y0032304D01*
X0014962Y0032405D01*
X0014856Y0032509D01*
X0014754Y0032615D01*
X0014654Y0032725D01*
X0014558Y0032837D01*
X0014464Y0032952D01*
X0014373Y0033069D01*
X0014286Y0033188D01*
X0014202Y0033310D01*
X0014121Y0033434D01*
X0014044Y0033560D01*
X0013970Y0033688D01*
X0013899Y0033818D01*
X0013832Y0033950D01*
X0013769Y0034084D01*
X0013709Y0034219D01*
X0013653Y0034356D01*
X0013600Y0034495D01*
X0013552Y0034635D01*
X0013507Y0034776D01*
X0013466Y0034918D01*
X0013428Y0035061D01*
X0013395Y0035205D01*
X0013365Y0035350D01*
X0013339Y0035496D01*
X0013318Y0035642D01*
X0013300Y0035789D01*
X0013286Y0035936D01*
X0013276Y0036084D01*
X0013270Y0036232D01*
X0013268Y0036380D01*
X0186034Y0117600D02*
X0186278Y0117597D01*
X0186521Y0117588D01*
X0186764Y0117573D01*
X0187007Y0117553D01*
X0187249Y0117526D01*
X0187490Y0117493D01*
X0187731Y0117455D01*
X0187970Y0117411D01*
X0188209Y0117361D01*
X0188446Y0117305D01*
X0188681Y0117243D01*
X0188916Y0117176D01*
X0189148Y0117103D01*
X0189378Y0117024D01*
X0189607Y0116940D01*
X0189833Y0116850D01*
X0190058Y0116755D01*
X0190279Y0116654D01*
X0190499Y0116548D01*
X0190715Y0116437D01*
X0190929Y0116320D01*
X0191140Y0116198D01*
X0191348Y0116071D01*
X0191553Y0115939D01*
X0191754Y0115802D01*
X0191952Y0115661D01*
X0192147Y0115514D01*
X0192338Y0115363D01*
X0192525Y0115207D01*
X0192708Y0115047D01*
X0192888Y0114882D01*
X0229354Y0080561D02*
X0229526Y0080395D01*
X0229695Y0080224D01*
X0229860Y0080049D01*
X0230020Y0079871D01*
X0230176Y0079689D01*
X0230327Y0079503D01*
X0230474Y0079313D01*
X0230617Y0079120D01*
X0230755Y0078924D01*
X0230888Y0078724D01*
X0231016Y0078521D01*
X0231139Y0078315D01*
X0231257Y0078107D01*
X0231371Y0077895D01*
X0231479Y0077681D01*
X0231582Y0077464D01*
X0231680Y0077245D01*
X0231772Y0077024D01*
X0231859Y0076800D01*
X0231941Y0076575D01*
X0232018Y0076348D01*
X0232088Y0076118D01*
X0232154Y0075887D01*
X0232214Y0075655D01*
X0232268Y0075421D01*
X0232316Y0075187D01*
X0232359Y0074950D01*
X0232397Y0074713D01*
X0232428Y0074476D01*
X0232454Y0074237D01*
X0232474Y0073998D01*
X0232488Y0073759D01*
X0232497Y0073519D01*
X0232500Y0073279D01*
X0241614Y0036380D02*
X0241616Y0036528D01*
X0241622Y0036676D01*
X0241632Y0036824D01*
X0241646Y0036971D01*
X0241664Y0037118D01*
X0241685Y0037264D01*
X0241711Y0037410D01*
X0241741Y0037555D01*
X0241774Y0037699D01*
X0241812Y0037842D01*
X0241853Y0037984D01*
X0241898Y0038125D01*
X0241946Y0038265D01*
X0241999Y0038404D01*
X0242055Y0038541D01*
X0242115Y0038676D01*
X0242178Y0038810D01*
X0242245Y0038942D01*
X0242316Y0039072D01*
X0242390Y0039200D01*
X0242467Y0039326D01*
X0242548Y0039450D01*
X0242632Y0039572D01*
X0242719Y0039691D01*
X0242810Y0039808D01*
X0242904Y0039923D01*
X0243000Y0040035D01*
X0243100Y0040145D01*
X0243202Y0040251D01*
X0243308Y0040355D01*
X0243416Y0040456D01*
X0243527Y0040554D01*
X0243640Y0040650D01*
X0243756Y0040742D01*
X0243874Y0040831D01*
X0243995Y0040916D01*
X0244118Y0040999D01*
X0244243Y0041078D01*
X0244370Y0041154D01*
X0244499Y0041226D01*
X0244630Y0041295D01*
X0244763Y0041360D01*
X0244898Y0041421D01*
X0245034Y0041479D01*
X0245171Y0041534D01*
X0245310Y0041584D01*
X0245451Y0041631D01*
X0245592Y0041674D01*
X0245735Y0041714D01*
X0245879Y0041749D01*
X0246023Y0041781D01*
X0246169Y0041808D01*
X0246315Y0041832D01*
X0246462Y0041852D01*
X0246609Y0041868D01*
X0246756Y0041880D01*
X0246904Y0041888D01*
X0247052Y0041892D01*
X0247200Y0041892D01*
X0247348Y0041888D01*
X0247496Y0041880D01*
X0247643Y0041868D01*
X0247790Y0041852D01*
X0247937Y0041832D01*
X0248083Y0041808D01*
X0248229Y0041781D01*
X0248373Y0041749D01*
X0248517Y0041714D01*
X0248660Y0041674D01*
X0248801Y0041631D01*
X0248942Y0041584D01*
X0249081Y0041534D01*
X0249218Y0041479D01*
X0249354Y0041421D01*
X0249489Y0041360D01*
X0249622Y0041295D01*
X0249753Y0041226D01*
X0249882Y0041154D01*
X0250009Y0041078D01*
X0250134Y0040999D01*
X0250257Y0040916D01*
X0250378Y0040831D01*
X0250496Y0040742D01*
X0250612Y0040650D01*
X0250725Y0040554D01*
X0250836Y0040456D01*
X0250944Y0040355D01*
X0251050Y0040251D01*
X0251152Y0040145D01*
X0251252Y0040035D01*
X0251348Y0039923D01*
X0251442Y0039808D01*
X0251533Y0039691D01*
X0251620Y0039572D01*
X0251704Y0039450D01*
X0251785Y0039326D01*
X0251862Y0039200D01*
X0251936Y0039072D01*
X0252007Y0038942D01*
X0252074Y0038810D01*
X0252137Y0038676D01*
X0252197Y0038541D01*
X0252253Y0038404D01*
X0252306Y0038265D01*
X0252354Y0038125D01*
X0252399Y0037984D01*
X0252440Y0037842D01*
X0252478Y0037699D01*
X0252511Y0037555D01*
X0252541Y0037410D01*
X0252567Y0037264D01*
X0252588Y0037118D01*
X0252606Y0036971D01*
X0252620Y0036824D01*
X0252630Y0036676D01*
X0252636Y0036528D01*
X0252638Y0036380D01*
X0252636Y0036232D01*
X0252630Y0036084D01*
X0252620Y0035936D01*
X0252606Y0035789D01*
X0252588Y0035642D01*
X0252567Y0035496D01*
X0252541Y0035350D01*
X0252511Y0035205D01*
X0252478Y0035061D01*
X0252440Y0034918D01*
X0252399Y0034776D01*
X0252354Y0034635D01*
X0252306Y0034495D01*
X0252253Y0034356D01*
X0252197Y0034219D01*
X0252137Y0034084D01*
X0252074Y0033950D01*
X0252007Y0033818D01*
X0251936Y0033688D01*
X0251862Y0033560D01*
X0251785Y0033434D01*
X0251704Y0033310D01*
X0251620Y0033188D01*
X0251533Y0033069D01*
X0251442Y0032952D01*
X0251348Y0032837D01*
X0251252Y0032725D01*
X0251152Y0032615D01*
X0251050Y0032509D01*
X0250944Y0032405D01*
X0250836Y0032304D01*
X0250725Y0032206D01*
X0250612Y0032110D01*
X0250496Y0032018D01*
X0250378Y0031929D01*
X0250257Y0031844D01*
X0250134Y0031761D01*
X0250009Y0031682D01*
X0249882Y0031606D01*
X0249753Y0031534D01*
X0249622Y0031465D01*
X0249489Y0031400D01*
X0249354Y0031339D01*
X0249218Y0031281D01*
X0249081Y0031226D01*
X0248942Y0031176D01*
X0248801Y0031129D01*
X0248660Y0031086D01*
X0248517Y0031046D01*
X0248373Y0031011D01*
X0248229Y0030979D01*
X0248083Y0030952D01*
X0247937Y0030928D01*
X0247790Y0030908D01*
X0247643Y0030892D01*
X0247496Y0030880D01*
X0247348Y0030872D01*
X0247200Y0030868D01*
X0247052Y0030868D01*
X0246904Y0030872D01*
X0246756Y0030880D01*
X0246609Y0030892D01*
X0246462Y0030908D01*
X0246315Y0030928D01*
X0246169Y0030952D01*
X0246023Y0030979D01*
X0245879Y0031011D01*
X0245735Y0031046D01*
X0245592Y0031086D01*
X0245451Y0031129D01*
X0245310Y0031176D01*
X0245171Y0031226D01*
X0245034Y0031281D01*
X0244898Y0031339D01*
X0244763Y0031400D01*
X0244630Y0031465D01*
X0244499Y0031534D01*
X0244370Y0031606D01*
X0244243Y0031682D01*
X0244118Y0031761D01*
X0243995Y0031844D01*
X0243874Y0031929D01*
X0243756Y0032018D01*
X0243640Y0032110D01*
X0243527Y0032206D01*
X0243416Y0032304D01*
X0243308Y0032405D01*
X0243202Y0032509D01*
X0243100Y0032615D01*
X0243000Y0032725D01*
X0242904Y0032837D01*
X0242810Y0032952D01*
X0242719Y0033069D01*
X0242632Y0033188D01*
X0242548Y0033310D01*
X0242467Y0033434D01*
X0242390Y0033560D01*
X0242316Y0033688D01*
X0242245Y0033818D01*
X0242178Y0033950D01*
X0242115Y0034084D01*
X0242055Y0034219D01*
X0241999Y0034356D01*
X0241946Y0034495D01*
X0241898Y0034635D01*
X0241853Y0034776D01*
X0241812Y0034918D01*
X0241774Y0035061D01*
X0241741Y0035205D01*
X0241711Y0035350D01*
X0241685Y0035496D01*
X0241664Y0035642D01*
X0241646Y0035789D01*
X0241632Y0035936D01*
X0241622Y0036084D01*
X0241616Y0036232D01*
X0241614Y0036380D01*
X0241614Y0229293D02*
X0241616Y0229441D01*
X0241622Y0229589D01*
X0241632Y0229737D01*
X0241646Y0229884D01*
X0241664Y0230031D01*
X0241685Y0230177D01*
X0241711Y0230323D01*
X0241741Y0230468D01*
X0241774Y0230612D01*
X0241812Y0230755D01*
X0241853Y0230897D01*
X0241898Y0231038D01*
X0241946Y0231178D01*
X0241999Y0231317D01*
X0242055Y0231454D01*
X0242115Y0231589D01*
X0242178Y0231723D01*
X0242245Y0231855D01*
X0242316Y0231985D01*
X0242390Y0232113D01*
X0242467Y0232239D01*
X0242548Y0232363D01*
X0242632Y0232485D01*
X0242719Y0232604D01*
X0242810Y0232721D01*
X0242904Y0232836D01*
X0243000Y0232948D01*
X0243100Y0233058D01*
X0243202Y0233164D01*
X0243308Y0233268D01*
X0243416Y0233369D01*
X0243527Y0233467D01*
X0243640Y0233563D01*
X0243756Y0233655D01*
X0243874Y0233744D01*
X0243995Y0233829D01*
X0244118Y0233912D01*
X0244243Y0233991D01*
X0244370Y0234067D01*
X0244499Y0234139D01*
X0244630Y0234208D01*
X0244763Y0234273D01*
X0244898Y0234334D01*
X0245034Y0234392D01*
X0245171Y0234447D01*
X0245310Y0234497D01*
X0245451Y0234544D01*
X0245592Y0234587D01*
X0245735Y0234627D01*
X0245879Y0234662D01*
X0246023Y0234694D01*
X0246169Y0234721D01*
X0246315Y0234745D01*
X0246462Y0234765D01*
X0246609Y0234781D01*
X0246756Y0234793D01*
X0246904Y0234801D01*
X0247052Y0234805D01*
X0247200Y0234805D01*
X0247348Y0234801D01*
X0247496Y0234793D01*
X0247643Y0234781D01*
X0247790Y0234765D01*
X0247937Y0234745D01*
X0248083Y0234721D01*
X0248229Y0234694D01*
X0248373Y0234662D01*
X0248517Y0234627D01*
X0248660Y0234587D01*
X0248801Y0234544D01*
X0248942Y0234497D01*
X0249081Y0234447D01*
X0249218Y0234392D01*
X0249354Y0234334D01*
X0249489Y0234273D01*
X0249622Y0234208D01*
X0249753Y0234139D01*
X0249882Y0234067D01*
X0250009Y0233991D01*
X0250134Y0233912D01*
X0250257Y0233829D01*
X0250378Y0233744D01*
X0250496Y0233655D01*
X0250612Y0233563D01*
X0250725Y0233467D01*
X0250836Y0233369D01*
X0250944Y0233268D01*
X0251050Y0233164D01*
X0251152Y0233058D01*
X0251252Y0232948D01*
X0251348Y0232836D01*
X0251442Y0232721D01*
X0251533Y0232604D01*
X0251620Y0232485D01*
X0251704Y0232363D01*
X0251785Y0232239D01*
X0251862Y0232113D01*
X0251936Y0231985D01*
X0252007Y0231855D01*
X0252074Y0231723D01*
X0252137Y0231589D01*
X0252197Y0231454D01*
X0252253Y0231317D01*
X0252306Y0231178D01*
X0252354Y0231038D01*
X0252399Y0230897D01*
X0252440Y0230755D01*
X0252478Y0230612D01*
X0252511Y0230468D01*
X0252541Y0230323D01*
X0252567Y0230177D01*
X0252588Y0230031D01*
X0252606Y0229884D01*
X0252620Y0229737D01*
X0252630Y0229589D01*
X0252636Y0229441D01*
X0252638Y0229293D01*
X0252636Y0229145D01*
X0252630Y0228997D01*
X0252620Y0228849D01*
X0252606Y0228702D01*
X0252588Y0228555D01*
X0252567Y0228409D01*
X0252541Y0228263D01*
X0252511Y0228118D01*
X0252478Y0227974D01*
X0252440Y0227831D01*
X0252399Y0227689D01*
X0252354Y0227548D01*
X0252306Y0227408D01*
X0252253Y0227269D01*
X0252197Y0227132D01*
X0252137Y0226997D01*
X0252074Y0226863D01*
X0252007Y0226731D01*
X0251936Y0226601D01*
X0251862Y0226473D01*
X0251785Y0226347D01*
X0251704Y0226223D01*
X0251620Y0226101D01*
X0251533Y0225982D01*
X0251442Y0225865D01*
X0251348Y0225750D01*
X0251252Y0225638D01*
X0251152Y0225528D01*
X0251050Y0225422D01*
X0250944Y0225318D01*
X0250836Y0225217D01*
X0250725Y0225119D01*
X0250612Y0225023D01*
X0250496Y0224931D01*
X0250378Y0224842D01*
X0250257Y0224757D01*
X0250134Y0224674D01*
X0250009Y0224595D01*
X0249882Y0224519D01*
X0249753Y0224447D01*
X0249622Y0224378D01*
X0249489Y0224313D01*
X0249354Y0224252D01*
X0249218Y0224194D01*
X0249081Y0224139D01*
X0248942Y0224089D01*
X0248801Y0224042D01*
X0248660Y0223999D01*
X0248517Y0223959D01*
X0248373Y0223924D01*
X0248229Y0223892D01*
X0248083Y0223865D01*
X0247937Y0223841D01*
X0247790Y0223821D01*
X0247643Y0223805D01*
X0247496Y0223793D01*
X0247348Y0223785D01*
X0247200Y0223781D01*
X0247052Y0223781D01*
X0246904Y0223785D01*
X0246756Y0223793D01*
X0246609Y0223805D01*
X0246462Y0223821D01*
X0246315Y0223841D01*
X0246169Y0223865D01*
X0246023Y0223892D01*
X0245879Y0223924D01*
X0245735Y0223959D01*
X0245592Y0223999D01*
X0245451Y0224042D01*
X0245310Y0224089D01*
X0245171Y0224139D01*
X0245034Y0224194D01*
X0244898Y0224252D01*
X0244763Y0224313D01*
X0244630Y0224378D01*
X0244499Y0224447D01*
X0244370Y0224519D01*
X0244243Y0224595D01*
X0244118Y0224674D01*
X0243995Y0224757D01*
X0243874Y0224842D01*
X0243756Y0224931D01*
X0243640Y0225023D01*
X0243527Y0225119D01*
X0243416Y0225217D01*
X0243308Y0225318D01*
X0243202Y0225422D01*
X0243100Y0225528D01*
X0243000Y0225638D01*
X0242904Y0225750D01*
X0242810Y0225865D01*
X0242719Y0225982D01*
X0242632Y0226101D01*
X0242548Y0226223D01*
X0242467Y0226347D01*
X0242390Y0226473D01*
X0242316Y0226601D01*
X0242245Y0226731D01*
X0242178Y0226863D01*
X0242115Y0226997D01*
X0242055Y0227132D01*
X0241999Y0227269D01*
X0241946Y0227408D01*
X0241898Y0227548D01*
X0241853Y0227689D01*
X0241812Y0227831D01*
X0241774Y0227974D01*
X0241741Y0228118D01*
X0241711Y0228263D01*
X0241685Y0228409D01*
X0241664Y0228555D01*
X0241646Y0228702D01*
X0241632Y0228849D01*
X0241622Y0228997D01*
X0241616Y0229145D01*
X0241614Y0229293D01*
X0013268Y0229293D02*
X0013270Y0229441D01*
X0013276Y0229589D01*
X0013286Y0229737D01*
X0013300Y0229884D01*
X0013318Y0230031D01*
X0013339Y0230177D01*
X0013365Y0230323D01*
X0013395Y0230468D01*
X0013428Y0230612D01*
X0013466Y0230755D01*
X0013507Y0230897D01*
X0013552Y0231038D01*
X0013600Y0231178D01*
X0013653Y0231317D01*
X0013709Y0231454D01*
X0013769Y0231589D01*
X0013832Y0231723D01*
X0013899Y0231855D01*
X0013970Y0231985D01*
X0014044Y0232113D01*
X0014121Y0232239D01*
X0014202Y0232363D01*
X0014286Y0232485D01*
X0014373Y0232604D01*
X0014464Y0232721D01*
X0014558Y0232836D01*
X0014654Y0232948D01*
X0014754Y0233058D01*
X0014856Y0233164D01*
X0014962Y0233268D01*
X0015070Y0233369D01*
X0015181Y0233467D01*
X0015294Y0233563D01*
X0015410Y0233655D01*
X0015528Y0233744D01*
X0015649Y0233829D01*
X0015772Y0233912D01*
X0015897Y0233991D01*
X0016024Y0234067D01*
X0016153Y0234139D01*
X0016284Y0234208D01*
X0016417Y0234273D01*
X0016552Y0234334D01*
X0016688Y0234392D01*
X0016825Y0234447D01*
X0016964Y0234497D01*
X0017105Y0234544D01*
X0017246Y0234587D01*
X0017389Y0234627D01*
X0017533Y0234662D01*
X0017677Y0234694D01*
X0017823Y0234721D01*
X0017969Y0234745D01*
X0018116Y0234765D01*
X0018263Y0234781D01*
X0018410Y0234793D01*
X0018558Y0234801D01*
X0018706Y0234805D01*
X0018854Y0234805D01*
X0019002Y0234801D01*
X0019150Y0234793D01*
X0019297Y0234781D01*
X0019444Y0234765D01*
X0019591Y0234745D01*
X0019737Y0234721D01*
X0019883Y0234694D01*
X0020027Y0234662D01*
X0020171Y0234627D01*
X0020314Y0234587D01*
X0020455Y0234544D01*
X0020596Y0234497D01*
X0020735Y0234447D01*
X0020872Y0234392D01*
X0021008Y0234334D01*
X0021143Y0234273D01*
X0021276Y0234208D01*
X0021407Y0234139D01*
X0021536Y0234067D01*
X0021663Y0233991D01*
X0021788Y0233912D01*
X0021911Y0233829D01*
X0022032Y0233744D01*
X0022150Y0233655D01*
X0022266Y0233563D01*
X0022379Y0233467D01*
X0022490Y0233369D01*
X0022598Y0233268D01*
X0022704Y0233164D01*
X0022806Y0233058D01*
X0022906Y0232948D01*
X0023002Y0232836D01*
X0023096Y0232721D01*
X0023187Y0232604D01*
X0023274Y0232485D01*
X0023358Y0232363D01*
X0023439Y0232239D01*
X0023516Y0232113D01*
X0023590Y0231985D01*
X0023661Y0231855D01*
X0023728Y0231723D01*
X0023791Y0231589D01*
X0023851Y0231454D01*
X0023907Y0231317D01*
X0023960Y0231178D01*
X0024008Y0231038D01*
X0024053Y0230897D01*
X0024094Y0230755D01*
X0024132Y0230612D01*
X0024165Y0230468D01*
X0024195Y0230323D01*
X0024221Y0230177D01*
X0024242Y0230031D01*
X0024260Y0229884D01*
X0024274Y0229737D01*
X0024284Y0229589D01*
X0024290Y0229441D01*
X0024292Y0229293D01*
X0024290Y0229145D01*
X0024284Y0228997D01*
X0024274Y0228849D01*
X0024260Y0228702D01*
X0024242Y0228555D01*
X0024221Y0228409D01*
X0024195Y0228263D01*
X0024165Y0228118D01*
X0024132Y0227974D01*
X0024094Y0227831D01*
X0024053Y0227689D01*
X0024008Y0227548D01*
X0023960Y0227408D01*
X0023907Y0227269D01*
X0023851Y0227132D01*
X0023791Y0226997D01*
X0023728Y0226863D01*
X0023661Y0226731D01*
X0023590Y0226601D01*
X0023516Y0226473D01*
X0023439Y0226347D01*
X0023358Y0226223D01*
X0023274Y0226101D01*
X0023187Y0225982D01*
X0023096Y0225865D01*
X0023002Y0225750D01*
X0022906Y0225638D01*
X0022806Y0225528D01*
X0022704Y0225422D01*
X0022598Y0225318D01*
X0022490Y0225217D01*
X0022379Y0225119D01*
X0022266Y0225023D01*
X0022150Y0224931D01*
X0022032Y0224842D01*
X0021911Y0224757D01*
X0021788Y0224674D01*
X0021663Y0224595D01*
X0021536Y0224519D01*
X0021407Y0224447D01*
X0021276Y0224378D01*
X0021143Y0224313D01*
X0021008Y0224252D01*
X0020872Y0224194D01*
X0020735Y0224139D01*
X0020596Y0224089D01*
X0020455Y0224042D01*
X0020314Y0223999D01*
X0020171Y0223959D01*
X0020027Y0223924D01*
X0019883Y0223892D01*
X0019737Y0223865D01*
X0019591Y0223841D01*
X0019444Y0223821D01*
X0019297Y0223805D01*
X0019150Y0223793D01*
X0019002Y0223785D01*
X0018854Y0223781D01*
X0018706Y0223781D01*
X0018558Y0223785D01*
X0018410Y0223793D01*
X0018263Y0223805D01*
X0018116Y0223821D01*
X0017969Y0223841D01*
X0017823Y0223865D01*
X0017677Y0223892D01*
X0017533Y0223924D01*
X0017389Y0223959D01*
X0017246Y0223999D01*
X0017105Y0224042D01*
X0016964Y0224089D01*
X0016825Y0224139D01*
X0016688Y0224194D01*
X0016552Y0224252D01*
X0016417Y0224313D01*
X0016284Y0224378D01*
X0016153Y0224447D01*
X0016024Y0224519D01*
X0015897Y0224595D01*
X0015772Y0224674D01*
X0015649Y0224757D01*
X0015528Y0224842D01*
X0015410Y0224931D01*
X0015294Y0225023D01*
X0015181Y0225119D01*
X0015070Y0225217D01*
X0014962Y0225318D01*
X0014856Y0225422D01*
X0014754Y0225528D01*
X0014654Y0225638D01*
X0014558Y0225750D01*
X0014464Y0225865D01*
X0014373Y0225982D01*
X0014286Y0226101D01*
X0014202Y0226223D01*
X0014121Y0226347D01*
X0014044Y0226473D01*
X0013970Y0226601D01*
X0013899Y0226731D01*
X0013832Y0226863D01*
X0013769Y0226997D01*
X0013709Y0227132D01*
X0013653Y0227269D01*
X0013600Y0227408D01*
X0013552Y0227548D01*
X0013507Y0227689D01*
X0013466Y0227831D01*
X0013428Y0227974D01*
X0013395Y0228118D01*
X0013365Y0228263D01*
X0013339Y0228409D01*
X0013318Y0228555D01*
X0013300Y0228702D01*
X0013286Y0228849D01*
X0013276Y0228997D01*
X0013270Y0229145D01*
X0013268Y0229293D01*
D11*
X0037953Y0224293D03*
D12*
X0047900Y0224300D03*
X0057900Y0224300D03*
X0067900Y0224300D03*
X0077900Y0224300D03*
X0087900Y0224300D03*
X0097900Y0224300D03*
X0107900Y0224300D03*
X0117900Y0224300D03*
X0127900Y0224300D03*
X0137900Y0224300D03*
X0147900Y0224300D03*
X0157900Y0224300D03*
X0167900Y0224300D03*
X0177900Y0224300D03*
X0187900Y0224300D03*
X0197900Y0224300D03*
X0207900Y0224300D03*
X0217900Y0224300D03*
X0227900Y0224300D03*
X0227900Y0234300D03*
X0217900Y0234300D03*
X0207900Y0234300D03*
X0197900Y0234300D03*
X0187900Y0234300D03*
X0177900Y0234300D03*
X0167900Y0234300D03*
X0157900Y0234300D03*
X0147900Y0234300D03*
X0137900Y0234300D03*
X0127900Y0234300D03*
X0117900Y0234300D03*
X0107900Y0234300D03*
X0097900Y0234300D03*
X0087900Y0234300D03*
X0077900Y0234300D03*
X0067900Y0234300D03*
X0057900Y0234300D03*
X0047900Y0234300D03*
X0037900Y0234300D03*
D13*
X0042500Y0202600D03*
X0052500Y0202600D03*
X0062500Y0202600D03*
X0072500Y0202600D03*
X0082500Y0202600D03*
X0092500Y0202600D03*
X0102500Y0202600D03*
X0112500Y0202600D03*
X0122500Y0202600D03*
X0132500Y0202600D03*
X0142500Y0202600D03*
X0152500Y0202600D03*
X0162500Y0202600D03*
X0172500Y0202600D03*
X0182500Y0202600D03*
X0192500Y0202600D03*
X0202500Y0202600D03*
X0212500Y0202600D03*
X0222500Y0202600D03*
X0232500Y0202600D03*
X0242500Y0202600D03*
X0252500Y0202600D03*
X0252500Y0192600D03*
X0242500Y0192600D03*
X0232500Y0192600D03*
X0222500Y0192600D03*
X0212500Y0192600D03*
X0202500Y0192600D03*
X0192500Y0192600D03*
X0182500Y0192600D03*
X0172500Y0192600D03*
X0162500Y0192600D03*
X0152500Y0192600D03*
X0142500Y0192600D03*
X0132500Y0192600D03*
X0122500Y0192600D03*
X0112500Y0192600D03*
X0102500Y0192600D03*
X0092500Y0192600D03*
X0082500Y0192600D03*
X0072500Y0192600D03*
X0062500Y0192600D03*
X0052500Y0192600D03*
X0042500Y0192600D03*
X0042500Y0182600D03*
X0052500Y0182600D03*
X0062500Y0182600D03*
X0072500Y0182600D03*
X0082500Y0182600D03*
X0092500Y0182600D03*
X0102500Y0182600D03*
X0112500Y0182600D03*
X0122500Y0182600D03*
X0132500Y0182600D03*
X0142500Y0182600D03*
X0152500Y0182600D03*
X0162500Y0182600D03*
X0172500Y0182600D03*
X0182500Y0182600D03*
X0192500Y0182600D03*
X0202500Y0182600D03*
X0212500Y0182600D03*
X0222500Y0182600D03*
X0232500Y0182600D03*
X0242500Y0182600D03*
X0252500Y0182600D03*
X0252500Y0172600D03*
X0242500Y0172600D03*
X0232500Y0172600D03*
X0222500Y0172600D03*
X0212500Y0172600D03*
X0202500Y0172600D03*
X0192500Y0172600D03*
X0182500Y0172600D03*
X0172500Y0172600D03*
X0162500Y0172600D03*
X0152500Y0172600D03*
X0142500Y0172600D03*
X0132500Y0172600D03*
X0122500Y0172600D03*
X0112500Y0172600D03*
X0102500Y0172600D03*
X0092500Y0172600D03*
X0082500Y0172600D03*
X0072500Y0172600D03*
X0062500Y0172600D03*
X0052500Y0172600D03*
X0042500Y0172600D03*
X0032500Y0172600D03*
X0022500Y0172600D03*
X0012500Y0172600D03*
X0012500Y0162600D03*
X0022500Y0162600D03*
X0032500Y0162600D03*
X0042500Y0162600D03*
X0052500Y0162600D03*
X0062500Y0162600D03*
X0072500Y0162600D03*
X0082500Y0162600D03*
X0092500Y0162600D03*
X0102500Y0162600D03*
X0112500Y0162600D03*
X0122500Y0162600D03*
X0132500Y0162600D03*
X0142500Y0162600D03*
X0152500Y0162600D03*
X0162500Y0162600D03*
X0172500Y0162600D03*
X0182500Y0162600D03*
X0192500Y0162600D03*
X0202500Y0162600D03*
X0212500Y0162600D03*
X0222500Y0162600D03*
X0232500Y0162600D03*
X0242500Y0162600D03*
X0252500Y0162600D03*
X0252500Y0152600D03*
X0242500Y0152600D03*
X0232500Y0152600D03*
X0222500Y0152600D03*
X0212500Y0152600D03*
X0202500Y0152600D03*
X0192500Y0152600D03*
X0182500Y0152600D03*
X0172500Y0152600D03*
X0162500Y0152600D03*
X0152500Y0152600D03*
X0142500Y0152600D03*
X0132500Y0152600D03*
X0122500Y0152600D03*
X0112500Y0152600D03*
X0102500Y0152600D03*
X0092500Y0152600D03*
X0082500Y0152600D03*
X0072500Y0152600D03*
X0062500Y0152600D03*
X0052500Y0152600D03*
X0042500Y0152600D03*
X0032500Y0152600D03*
X0022500Y0152600D03*
X0012500Y0152600D03*
X0012500Y0142600D03*
X0022500Y0142600D03*
X0032500Y0142600D03*
X0042500Y0142600D03*
X0052500Y0142600D03*
X0062500Y0142600D03*
X0072500Y0142600D03*
X0082500Y0142600D03*
X0092500Y0142600D03*
X0102500Y0142600D03*
X0112500Y0142600D03*
X0122500Y0142600D03*
X0132500Y0142600D03*
X0142500Y0142600D03*
X0152500Y0142600D03*
X0162500Y0142600D03*
X0172500Y0142600D03*
X0182500Y0142600D03*
X0192500Y0142600D03*
X0202500Y0142600D03*
X0212500Y0142600D03*
X0222500Y0142600D03*
X0232500Y0142600D03*
X0242500Y0142600D03*
X0252500Y0142600D03*
X0252500Y0132600D03*
X0242500Y0132600D03*
X0232500Y0132600D03*
X0222500Y0132600D03*
X0212500Y0132600D03*
X0202500Y0132600D03*
X0192500Y0132600D03*
X0182500Y0132600D03*
X0172500Y0132600D03*
X0162500Y0132600D03*
X0152500Y0132600D03*
X0142500Y0132600D03*
X0132500Y0132600D03*
X0122500Y0132600D03*
X0112500Y0132600D03*
X0102500Y0132600D03*
X0092500Y0132600D03*
X0082500Y0132600D03*
X0072500Y0132600D03*
X0062500Y0132600D03*
X0052500Y0132600D03*
X0042500Y0132600D03*
X0032500Y0132600D03*
X0022500Y0132600D03*
X0012500Y0132600D03*
X0012500Y0122600D03*
X0022500Y0122600D03*
X0032500Y0122600D03*
X0042500Y0122600D03*
X0052500Y0122600D03*
X0062500Y0122600D03*
X0072500Y0122600D03*
X0082500Y0122600D03*
X0092500Y0122600D03*
X0102500Y0122600D03*
X0112500Y0122600D03*
X0122500Y0122600D03*
X0132500Y0122600D03*
X0142500Y0122600D03*
X0152500Y0122600D03*
X0162500Y0122600D03*
X0172500Y0122600D03*
X0182500Y0122600D03*
X0192500Y0122600D03*
X0202500Y0122600D03*
X0212500Y0122600D03*
X0222500Y0122600D03*
X0232500Y0122600D03*
X0242500Y0122600D03*
X0252500Y0122600D03*
X0162500Y0112600D03*
X0152500Y0112600D03*
X0142500Y0112600D03*
X0132500Y0112600D03*
X0122500Y0112600D03*
X0112500Y0112600D03*
X0102500Y0112600D03*
X0092500Y0112600D03*
X0082500Y0112600D03*
X0072500Y0112600D03*
X0062500Y0112600D03*
X0052500Y0112600D03*
X0042500Y0112600D03*
X0032500Y0112600D03*
X0022500Y0112600D03*
X0012500Y0112600D03*
X0012500Y0102600D03*
X0022500Y0102600D03*
X0032500Y0102600D03*
X0042500Y0102600D03*
X0052500Y0102600D03*
X0062500Y0102600D03*
X0072500Y0102600D03*
X0082500Y0102600D03*
X0092500Y0102600D03*
X0102500Y0102600D03*
X0112500Y0102600D03*
X0122500Y0102600D03*
X0132500Y0102600D03*
X0142500Y0102600D03*
X0152500Y0102600D03*
X0162500Y0102600D03*
X0162500Y0092600D03*
X0152500Y0092600D03*
X0142500Y0092600D03*
X0132500Y0092600D03*
X0122500Y0092600D03*
X0112500Y0092600D03*
X0102500Y0092600D03*
X0092500Y0092600D03*
X0082500Y0092600D03*
X0072500Y0092600D03*
X0062500Y0092600D03*
X0052500Y0092600D03*
X0042500Y0092600D03*
X0032500Y0092600D03*
X0022500Y0092600D03*
X0012500Y0092600D03*
X0012500Y0082600D03*
X0022500Y0082600D03*
X0032500Y0082600D03*
X0042500Y0082600D03*
X0052500Y0082600D03*
X0062500Y0082600D03*
X0072500Y0082600D03*
X0082500Y0082600D03*
X0092500Y0082600D03*
X0102500Y0082600D03*
X0112500Y0082600D03*
X0122500Y0082600D03*
X0132500Y0082600D03*
X0142500Y0082600D03*
X0152500Y0082600D03*
X0162500Y0082600D03*
X0162500Y0072600D03*
X0152500Y0072600D03*
X0142500Y0072600D03*
X0132500Y0072600D03*
X0122500Y0072600D03*
X0112500Y0072600D03*
X0102500Y0072600D03*
X0092500Y0072600D03*
X0082500Y0072600D03*
X0072500Y0072600D03*
X0062500Y0072600D03*
X0052500Y0072600D03*
X0042500Y0072600D03*
X0032500Y0072600D03*
X0022500Y0072600D03*
X0012500Y0072600D03*
X0012500Y0062600D03*
X0022500Y0062600D03*
X0032500Y0062600D03*
X0042500Y0062600D03*
X0052500Y0062600D03*
X0062500Y0062600D03*
X0072500Y0062600D03*
X0082500Y0062600D03*
X0092500Y0062600D03*
X0102500Y0062600D03*
X0112500Y0062600D03*
X0122500Y0062600D03*
X0132500Y0062600D03*
X0142500Y0062600D03*
X0152500Y0062600D03*
X0162500Y0062600D03*
X0162500Y0052600D03*
X0152500Y0052600D03*
X0142500Y0052600D03*
X0132500Y0052600D03*
X0122500Y0052600D03*
X0112500Y0052600D03*
X0102500Y0052600D03*
X0092500Y0052600D03*
X0082500Y0052600D03*
X0072500Y0052600D03*
X0062500Y0052600D03*
X0052500Y0052600D03*
X0042500Y0052600D03*
X0032500Y0052600D03*
X0022500Y0052600D03*
X0012500Y0052600D03*
X0032500Y0042600D03*
X0042500Y0042600D03*
X0052500Y0042600D03*
X0062500Y0042600D03*
X0072500Y0042600D03*
X0082500Y0042600D03*
X0092500Y0042600D03*
X0102500Y0042600D03*
X0112500Y0042600D03*
X0122500Y0042600D03*
X0132500Y0042600D03*
X0142500Y0042600D03*
X0152500Y0042600D03*
X0162500Y0042600D03*
X0162500Y0032600D03*
X0152500Y0032600D03*
X0142500Y0032600D03*
X0132500Y0032600D03*
X0122500Y0032600D03*
X0112500Y0032600D03*
X0102500Y0032600D03*
X0092500Y0032600D03*
X0082500Y0032600D03*
X0072500Y0032600D03*
X0062500Y0032600D03*
X0052500Y0032600D03*
X0042500Y0032600D03*
X0032500Y0032600D03*
D14*
X0020000Y0185789D03*
D15*
X0020000Y0193663D03*
X0020000Y0201537D03*
X0020000Y0209411D03*
D16*
X0015500Y0212600D02*
X0015500Y0205100D01*
X0020000Y0201537D01*
X0025500Y0198600D02*
X0025500Y0207100D01*
X0036500Y0218600D01*
X0041500Y0218600D01*
X0047900Y0224300D01*
X0053000Y0226600D02*
X0050500Y0229600D01*
X0040500Y0229600D01*
X0037900Y0234300D01*
X0037953Y0224293D02*
X0028000Y0224100D01*
X0015500Y0212600D01*
X0025500Y0198600D02*
X0020000Y0193663D01*
X0042500Y0202600D02*
X0042500Y0211100D01*
X0053000Y0220100D01*
X0053000Y0226600D01*
X0067900Y0224300D02*
X0068000Y0207100D01*
X0072500Y0202600D01*
X0082500Y0202600D02*
X0083000Y0205600D01*
X0083000Y0229600D01*
X0087900Y0234300D01*
X0087900Y0224300D02*
X0088000Y0210100D01*
X0092500Y0202600D01*
X0098000Y0207600D02*
X0102500Y0202600D01*
X0098000Y0207600D02*
X0097900Y0224300D01*
X0103000Y0228100D02*
X0103000Y0212100D01*
X0112500Y0202600D01*
X0122500Y0202600D02*
X0108000Y0218100D01*
X0107900Y0224300D01*
X0113000Y0227600D02*
X0113000Y0220100D01*
X0123000Y0209100D01*
X0126000Y0209100D01*
X0132500Y0202600D01*
X0130500Y0211600D02*
X0144000Y0211600D01*
X0152500Y0202600D01*
X0162500Y0202600D02*
X0162500Y0208100D01*
X0177900Y0224300D01*
X0183000Y0222100D02*
X0183000Y0229100D01*
X0187900Y0234300D01*
X0187900Y0224300D02*
X0188000Y0221100D01*
X0182500Y0213600D01*
X0182500Y0202600D01*
X0172500Y0202600D02*
X0172500Y0210100D01*
X0183000Y0222100D01*
X0192500Y0218100D02*
X0197900Y0224300D01*
X0203000Y0229600D02*
X0207900Y0234300D01*
X0203000Y0229600D02*
X0203000Y0206600D01*
X0202500Y0202600D01*
X0208000Y0207600D02*
X0212500Y0202600D01*
X0208000Y0207600D02*
X0207900Y0224300D01*
X0213000Y0228600D02*
X0213000Y0212600D01*
X0222500Y0202600D01*
X0228500Y0207600D02*
X0224000Y0213100D01*
X0218000Y0220100D01*
X0217900Y0224300D01*
X0213000Y0228600D02*
X0217900Y0234300D01*
X0227900Y0234300D02*
X0235000Y0228100D01*
X0235000Y0212100D01*
X0242500Y0202600D01*
X0232500Y0202600D02*
X0228500Y0207600D01*
X0192500Y0202600D02*
X0192500Y0218100D01*
X0130500Y0211600D02*
X0117900Y0224300D01*
X0113000Y0227600D02*
X0117900Y0234300D01*
X0107900Y0234300D02*
X0103000Y0228100D01*
M02*
