%
M48
M72
T01C0.03150
T02C0.04000
T03C0.11024
%
T01
X20000Y185789
X20000Y193663
X20000Y201537
X20000Y209411
T02
X32500Y32600
X42500Y32600
X52500Y32600
X62500Y32600
X72500Y32600
X82500Y32600
X92500Y32600
X102500Y32600
X112500Y32600
X122500Y32600
X132500Y32600
X142500Y32600
X152500Y32600
X162500Y32600
X162500Y42600
X152500Y42600
X142500Y42600
X132500Y42600
X122500Y42600
X112500Y42600
X102500Y42600
X92500Y42600
X82500Y42600
X72500Y42600
X62500Y42600
X52500Y42600
X42500Y42600
X32500Y42600
X32500Y52600
X22500Y52600
X12500Y52600
X12500Y62600
X22500Y62600
X32500Y62600
X42500Y62600
X52500Y62600
X62500Y62600
X72500Y62600
X82500Y62600
X92500Y62600
X102500Y62600
X112500Y62600
X122500Y62600
X132500Y62600
X142500Y62600
X152500Y62600
X162500Y62600
X162500Y52600
X152500Y52600
X142500Y52600
X132500Y52600
X122500Y52600
X112500Y52600
X102500Y52600
X92500Y52600
X82500Y52600
X72500Y52600
X62500Y52600
X52500Y52600
X42500Y52600
X42500Y72600
X32500Y72600
X22500Y72600
X12500Y72600
X12500Y82600
X22500Y82600
X32500Y82600
X42500Y82600
X52500Y82600
X62500Y82600
X72500Y82600
X82500Y82600
X92500Y82600
X102500Y82600
X112500Y82600
X122500Y82600
X132500Y82600
X142500Y82600
X152500Y82600
X162500Y82600
X162500Y72600
X152500Y72600
X142500Y72600
X132500Y72600
X122500Y72600
X112500Y72600
X102500Y72600
X92500Y72600
X82500Y72600
X72500Y72600
X62500Y72600
X52500Y72600
X52500Y92600
X62500Y92600
X72500Y92600
X82500Y92600
X92500Y92600
X102500Y92600
X112500Y92600
X122500Y92600
X132500Y92600
X142500Y92600
X152500Y92600
X162500Y92600
X162500Y102600
X152500Y102600
X142500Y102600
X132500Y102600
X122500Y102600
X112500Y102600
X102500Y102600
X92500Y102600
X82500Y102600
X72500Y102600
X62500Y102600
X52500Y102600
X42500Y102600
X32500Y102600
X22500Y102600
X12500Y102600
X12500Y92600
X22500Y92600
X32500Y92600
X42500Y92600
X42500Y112600
X32500Y112600
X22500Y112600
X12500Y112600
X12500Y122600
X22500Y122600
X32500Y122600
X42500Y122600
X52500Y122600
X62500Y122600
X72500Y122600
X82500Y122600
X92500Y122600
X102500Y122600
X112500Y122600
X122500Y122600
X132500Y122600
X142500Y122600
X152500Y122600
X162500Y122600
X172500Y122600
X182500Y122600
X192500Y122600
X202500Y122600
X212500Y122600
X222500Y122600
X232500Y122600
X242500Y122600
X252500Y122600
X252500Y132600
X242500Y132600
X232500Y132600
X222500Y132600
X212500Y132600
X202500Y132600
X192500Y132600
X182500Y132600
X172500Y132600
X162500Y132600
X152500Y132600
X142500Y132600
X132500Y132600
X122500Y132600
X112500Y132600
X102500Y132600
X92500Y132600
X82500Y132600
X72500Y132600
X62500Y132600
X52500Y132600
X42500Y132600
X32500Y132600
X22500Y132600
X12500Y132600
X12500Y142600
X22500Y142600
X32500Y142600
X42500Y142600
X52500Y142600
X62500Y142600
X72500Y142600
X82500Y142600
X92500Y142600
X102500Y142600
X112500Y142600
X122500Y142600
X132500Y142600
X142500Y142600
X152500Y142600
X162500Y142600
X172500Y142600
X182500Y142600
X192500Y142600
X202500Y142600
X212500Y142600
X222500Y142600
X232500Y142600
X242500Y142600
X252500Y142600
X252500Y152600
X242500Y152600
X232500Y152600
X222500Y152600
X212500Y152600
X202500Y152600
X192500Y152600
X182500Y152600
X172500Y152600
X162500Y152600
X152500Y152600
X142500Y152600
X132500Y152600
X122500Y152600
X112500Y152600
X102500Y152600
X92500Y152600
X82500Y152600
X72500Y152600
X62500Y152600
X52500Y152600
X42500Y152600
X32500Y152600
X22500Y152600
X12500Y152600
X12500Y162600
X22500Y162600
X32500Y162600
X42500Y162600
X52500Y162600
X62500Y162600
X72500Y162600
X82500Y162600
X92500Y162600
X102500Y162600
X112500Y162600
X122500Y162600
X132500Y162600
X142500Y162600
X152500Y162600
X162500Y162600
X172500Y162600
X182500Y162600
X192500Y162600
X202500Y162600
X212500Y162600
X222500Y162600
X232500Y162600
X242500Y162600
X252500Y162600
X252500Y172600
X242500Y172600
X232500Y172600
X222500Y172600
X212500Y172600
X202500Y172600
X192500Y172600
X182500Y172600
X172500Y172600
X162500Y172600
X152500Y172600
X142500Y172600
X132500Y172600
X122500Y172600
X112500Y172600
X102500Y172600
X92500Y172600
X82500Y172600
X72500Y172600
X62500Y172600
X52500Y172600
X42500Y172600
X32500Y172600
X22500Y172600
X12500Y172600
X42500Y182600
X52500Y182600
X62500Y182600
X72500Y182600
X82500Y182600
X92500Y182600
X102500Y182600
X112500Y182600
X122500Y182600
X132500Y182600
X142500Y182600
X152500Y182600
X162500Y182600
X172500Y182600
X182500Y182600
X192500Y182600
X202500Y182600
X212500Y182600
X222500Y182600
X232500Y182600
X242500Y182600
X252500Y182600
X252500Y192600
X242500Y192600
X232500Y192600
X222500Y192600
X212500Y192600
X202500Y192600
X192500Y192600
X182500Y192600
X172500Y192600
X162500Y192600
X152500Y192600
X142500Y192600
X132500Y192600
X122500Y192600
X112500Y192600
X102500Y192600
X92500Y192600
X82500Y192600
X72500Y192600
X62500Y192600
X52500Y192600
X42500Y192600
X42500Y202600
X52500Y202600
X62500Y202600
X72500Y202600
X82500Y202600
X92500Y202600
X102500Y202600
X112500Y202600
X122500Y202600
X132500Y202600
X142500Y202600
X152500Y202600
X162500Y202600
X172500Y202600
X182500Y202600
X192500Y202600
X202500Y202600
X212500Y202600
X222500Y202600
X232500Y202600
X242500Y202600
X252500Y202600
X227900Y224300
X217900Y224300
X207900Y224300
X197900Y224300
X187900Y224300
X177900Y224300
X167900Y224300
X157900Y224300
X147900Y224300
X137900Y224300
X127900Y224300
X117900Y224300
X107900Y224300
X97900Y224300
X87900Y224300
X77900Y224300
X67900Y224300
X57900Y224300
X47900Y224300
X37953Y224293
X37900Y234300
X47900Y234300
X57900Y234300
X67900Y234300
X77900Y234300
X87900Y234300
X97900Y234300
X107900Y234300
X117900Y234300
X127900Y234300
X137900Y234300
X147900Y234300
X157900Y234300
X167900Y234300
X177900Y234300
X187900Y234300
X197900Y234300
X207900Y234300
X217900Y234300
X227900Y234300
X162500Y112600
X152500Y112600
X142500Y112600
X132500Y112600
X122500Y112600
X112500Y112600
X102500Y112600
X92500Y112600
X82500Y112600
X72500Y112600
X62500Y112600
X52500Y112600
T03
X18780Y36380
X247126Y36380
X247126Y229293
X18780Y229293
M30
