G04 #@! TF.FileFunction,Legend,Top*
%FSLAX46Y46*%
G04 Gerber Fmt 4.6, Leading zero omitted, Abs format (unit mm)*
G04 Created by KiCad (PCBNEW 4.0.7) date 07/06/18 16:03:28*
%MOMM*%
%LPD*%
G01*
G04 APERTURE LIST*
%ADD10C,0.100000*%
%ADD11C,0.150000*%
%ADD12C,0.200000*%
%ADD13C,0.120000*%
G04 APERTURE END LIST*
D10*
D11*
X91433809Y-77755714D02*
X91395714Y-77793810D01*
X91281428Y-77831905D01*
X91205238Y-77831905D01*
X91090952Y-77793810D01*
X91014761Y-77717619D01*
X90976666Y-77641429D01*
X90938571Y-77489048D01*
X90938571Y-77374762D01*
X90976666Y-77222381D01*
X91014761Y-77146190D01*
X91090952Y-77070000D01*
X91205238Y-77031905D01*
X91281428Y-77031905D01*
X91395714Y-77070000D01*
X91433809Y-77108095D01*
X92195714Y-77831905D02*
X91738571Y-77831905D01*
X91967142Y-77831905D02*
X91967142Y-77031905D01*
X91890952Y-77146190D01*
X91814761Y-77222381D01*
X91738571Y-77260476D01*
X92652857Y-77374762D02*
X92576666Y-77336667D01*
X92538571Y-77298571D01*
X92500476Y-77222381D01*
X92500476Y-77184286D01*
X92538571Y-77108095D01*
X92576666Y-77070000D01*
X92652857Y-77031905D01*
X92805238Y-77031905D01*
X92881428Y-77070000D01*
X92919524Y-77108095D01*
X92957619Y-77184286D01*
X92957619Y-77222381D01*
X92919524Y-77298571D01*
X92881428Y-77336667D01*
X92805238Y-77374762D01*
X92652857Y-77374762D01*
X92576666Y-77412857D01*
X92538571Y-77450952D01*
X92500476Y-77527143D01*
X92500476Y-77679524D01*
X92538571Y-77755714D01*
X92576666Y-77793810D01*
X92652857Y-77831905D01*
X92805238Y-77831905D01*
X92881428Y-77793810D01*
X92919524Y-77755714D01*
X92957619Y-77679524D01*
X92957619Y-77527143D01*
X92919524Y-77450952D01*
X92881428Y-77412857D01*
X92805238Y-77374762D01*
X93719524Y-77831905D02*
X93262381Y-77831905D01*
X93490952Y-77831905D02*
X93490952Y-77031905D01*
X93414762Y-77146190D01*
X93338571Y-77222381D01*
X93262381Y-77260476D01*
X94443334Y-77031905D02*
X94062381Y-77031905D01*
X94024286Y-77412857D01*
X94062381Y-77374762D01*
X94138572Y-77336667D01*
X94329048Y-77336667D01*
X94405238Y-77374762D01*
X94443334Y-77412857D01*
X94481429Y-77489048D01*
X94481429Y-77679524D01*
X94443334Y-77755714D01*
X94405238Y-77793810D01*
X94329048Y-77831905D01*
X94138572Y-77831905D01*
X94062381Y-77793810D01*
X94024286Y-77755714D01*
D12*
X109672381Y-91574762D02*
X109196190Y-91908096D01*
X109672381Y-92146191D02*
X108672381Y-92146191D01*
X108672381Y-91765238D01*
X108720000Y-91670000D01*
X108767619Y-91622381D01*
X108862857Y-91574762D01*
X109005714Y-91574762D01*
X109100952Y-91622381D01*
X109148571Y-91670000D01*
X109196190Y-91765238D01*
X109196190Y-92146191D01*
X109148571Y-91146191D02*
X109148571Y-90812857D01*
X109672381Y-90670000D02*
X109672381Y-91146191D01*
X108672381Y-91146191D01*
X108672381Y-90670000D01*
X109672381Y-89765238D02*
X109672381Y-90241429D01*
X108672381Y-90241429D01*
X109386667Y-89479524D02*
X109386667Y-89003333D01*
X109672381Y-89574762D02*
X108672381Y-89241429D01*
X109672381Y-88908095D01*
X109196190Y-88384286D02*
X109672381Y-88384286D01*
X108672381Y-88717619D02*
X109196190Y-88384286D01*
X108672381Y-88050952D01*
X80331429Y-100457143D02*
X80217143Y-100400000D01*
X80160000Y-100342857D01*
X80102857Y-100228571D01*
X80102857Y-100171429D01*
X80160000Y-100057143D01*
X80217143Y-100000000D01*
X80331429Y-99942857D01*
X80560000Y-99942857D01*
X80674286Y-100000000D01*
X80731429Y-100057143D01*
X80788572Y-100171429D01*
X80788572Y-100228571D01*
X80731429Y-100342857D01*
X80674286Y-100400000D01*
X80560000Y-100457143D01*
X80331429Y-100457143D01*
X80217143Y-100514286D01*
X80160000Y-100571429D01*
X80102857Y-100685714D01*
X80102857Y-100914286D01*
X80160000Y-101028571D01*
X80217143Y-101085714D01*
X80331429Y-101142857D01*
X80560000Y-101142857D01*
X80674286Y-101085714D01*
X80731429Y-101028571D01*
X80788572Y-100914286D01*
X80788572Y-100685714D01*
X80731429Y-100571429D01*
X80674286Y-100514286D01*
X80560000Y-100457143D01*
X81988572Y-101028571D02*
X81931429Y-101085714D01*
X81760000Y-101142857D01*
X81645714Y-101142857D01*
X81474286Y-101085714D01*
X81360000Y-100971429D01*
X81302857Y-100857143D01*
X81245714Y-100628571D01*
X81245714Y-100457143D01*
X81302857Y-100228571D01*
X81360000Y-100114286D01*
X81474286Y-100000000D01*
X81645714Y-99942857D01*
X81760000Y-99942857D01*
X81931429Y-100000000D01*
X81988572Y-100057143D01*
X82502857Y-101142857D02*
X82502857Y-99942857D01*
X83017143Y-101142857D02*
X83017143Y-100514286D01*
X82960000Y-100400000D01*
X82845714Y-100342857D01*
X82674286Y-100342857D01*
X82560000Y-100400000D01*
X82502857Y-100457143D01*
X85188572Y-101142857D02*
X84788572Y-100571429D01*
X84502857Y-101142857D02*
X84502857Y-99942857D01*
X84960000Y-99942857D01*
X85074286Y-100000000D01*
X85131429Y-100057143D01*
X85188572Y-100171429D01*
X85188572Y-100342857D01*
X85131429Y-100457143D01*
X85074286Y-100514286D01*
X84960000Y-100571429D01*
X84502857Y-100571429D01*
X86160000Y-101085714D02*
X86045714Y-101142857D01*
X85817143Y-101142857D01*
X85702857Y-101085714D01*
X85645714Y-100971429D01*
X85645714Y-100514286D01*
X85702857Y-100400000D01*
X85817143Y-100342857D01*
X86045714Y-100342857D01*
X86160000Y-100400000D01*
X86217143Y-100514286D01*
X86217143Y-100628571D01*
X85645714Y-100742857D01*
X86902857Y-101142857D02*
X86788571Y-101085714D01*
X86731428Y-100971429D01*
X86731428Y-99942857D01*
X87874285Y-101142857D02*
X87874285Y-100514286D01*
X87817142Y-100400000D01*
X87702856Y-100342857D01*
X87474285Y-100342857D01*
X87359999Y-100400000D01*
X87874285Y-101085714D02*
X87759999Y-101142857D01*
X87474285Y-101142857D01*
X87359999Y-101085714D01*
X87302856Y-100971429D01*
X87302856Y-100857143D01*
X87359999Y-100742857D01*
X87474285Y-100685714D01*
X87759999Y-100685714D01*
X87874285Y-100628571D01*
X88331428Y-100342857D02*
X88617142Y-101142857D01*
X88902856Y-100342857D02*
X88617142Y-101142857D01*
X88502856Y-101428571D01*
X88445713Y-101485714D01*
X88331428Y-101542857D01*
X90274285Y-101142857D02*
X90274285Y-99942857D01*
X91702857Y-99885714D02*
X90674286Y-101428571D01*
X92502857Y-100514286D02*
X92102857Y-100514286D01*
X92102857Y-101142857D02*
X92102857Y-99942857D01*
X92674286Y-99942857D01*
X83274286Y-102342857D02*
X83731429Y-102342857D01*
X83445714Y-103142857D02*
X83445714Y-102114286D01*
X83502857Y-102000000D01*
X83617143Y-101942857D01*
X83731429Y-101942857D01*
X84302857Y-103142857D02*
X84188571Y-103085714D01*
X84131428Y-103028571D01*
X84074285Y-102914286D01*
X84074285Y-102571429D01*
X84131428Y-102457143D01*
X84188571Y-102400000D01*
X84302857Y-102342857D01*
X84474285Y-102342857D01*
X84588571Y-102400000D01*
X84645714Y-102457143D01*
X84702857Y-102571429D01*
X84702857Y-102914286D01*
X84645714Y-103028571D01*
X84588571Y-103085714D01*
X84474285Y-103142857D01*
X84302857Y-103142857D01*
X85217142Y-103142857D02*
X85217142Y-102342857D01*
X85217142Y-102571429D02*
X85274285Y-102457143D01*
X85331428Y-102400000D01*
X85445714Y-102342857D01*
X85559999Y-102342857D01*
X87560000Y-103142857D02*
X87160000Y-102571429D01*
X86874285Y-103142857D02*
X86874285Y-101942857D01*
X87331428Y-101942857D01*
X87445714Y-102000000D01*
X87502857Y-102057143D01*
X87560000Y-102171429D01*
X87560000Y-102342857D01*
X87502857Y-102457143D01*
X87445714Y-102514286D01*
X87331428Y-102571429D01*
X86874285Y-102571429D01*
X88074285Y-103142857D02*
X88074285Y-101942857D01*
X88531428Y-101942857D01*
X88645714Y-102000000D01*
X88702857Y-102057143D01*
X88760000Y-102171429D01*
X88760000Y-102342857D01*
X88702857Y-102457143D01*
X88645714Y-102514286D01*
X88531428Y-102571429D01*
X88074285Y-102571429D01*
X89274285Y-103142857D02*
X89274285Y-102342857D01*
X89274285Y-101942857D02*
X89217142Y-102000000D01*
X89274285Y-102057143D01*
X89331428Y-102000000D01*
X89274285Y-101942857D01*
X89274285Y-102057143D01*
X96504286Y-99131429D02*
X97266191Y-99131429D01*
X96885239Y-99512381D02*
X96885239Y-98750476D01*
X98218572Y-98512381D02*
X97742381Y-98512381D01*
X97694762Y-98988571D01*
X97742381Y-98940952D01*
X97837619Y-98893333D01*
X98075715Y-98893333D01*
X98170953Y-98940952D01*
X98218572Y-98988571D01*
X98266191Y-99083810D01*
X98266191Y-99321905D01*
X98218572Y-99417143D01*
X98170953Y-99464762D01*
X98075715Y-99512381D01*
X97837619Y-99512381D01*
X97742381Y-99464762D01*
X97694762Y-99417143D01*
X98551905Y-98512381D02*
X98885238Y-99512381D01*
X99218572Y-98512381D01*
X106941905Y-101100000D02*
X106846667Y-101052381D01*
X106703810Y-101052381D01*
X106560952Y-101100000D01*
X106465714Y-101195238D01*
X106418095Y-101290476D01*
X106370476Y-101480952D01*
X106370476Y-101623810D01*
X106418095Y-101814286D01*
X106465714Y-101909524D01*
X106560952Y-102004762D01*
X106703810Y-102052381D01*
X106799048Y-102052381D01*
X106941905Y-102004762D01*
X106989524Y-101957143D01*
X106989524Y-101623810D01*
X106799048Y-101623810D01*
X106941905Y-98560000D02*
X106846667Y-98512381D01*
X106703810Y-98512381D01*
X106560952Y-98560000D01*
X106465714Y-98655238D01*
X106418095Y-98750476D01*
X106370476Y-98940952D01*
X106370476Y-99083810D01*
X106418095Y-99274286D01*
X106465714Y-99369524D01*
X106560952Y-99464762D01*
X106703810Y-99512381D01*
X106799048Y-99512381D01*
X106941905Y-99464762D01*
X106989524Y-99417143D01*
X106989524Y-99083810D01*
X106799048Y-99083810D01*
X106346667Y-93432381D02*
X107013334Y-93432381D01*
X106584762Y-94432381D01*
X106584762Y-96400952D02*
X106489524Y-96353333D01*
X106441905Y-96305714D01*
X106394286Y-96210476D01*
X106394286Y-96162857D01*
X106441905Y-96067619D01*
X106489524Y-96020000D01*
X106584762Y-95972381D01*
X106775239Y-95972381D01*
X106870477Y-96020000D01*
X106918096Y-96067619D01*
X106965715Y-96162857D01*
X106965715Y-96210476D01*
X106918096Y-96305714D01*
X106870477Y-96353333D01*
X106775239Y-96400952D01*
X106584762Y-96400952D01*
X106489524Y-96448571D01*
X106441905Y-96496190D01*
X106394286Y-96591429D01*
X106394286Y-96781905D01*
X106441905Y-96877143D01*
X106489524Y-96924762D01*
X106584762Y-96972381D01*
X106775239Y-96972381D01*
X106870477Y-96924762D01*
X106918096Y-96877143D01*
X106965715Y-96781905D01*
X106965715Y-96591429D01*
X106918096Y-96496190D01*
X106870477Y-96448571D01*
X106775239Y-96400952D01*
X106870477Y-86145714D02*
X106870477Y-86812381D01*
X106632381Y-85764762D02*
X106394286Y-86479048D01*
X107013334Y-86479048D01*
X106346667Y-83272381D02*
X106965715Y-83272381D01*
X106632381Y-83653333D01*
X106775239Y-83653333D01*
X106870477Y-83700952D01*
X106918096Y-83748571D01*
X106965715Y-83843810D01*
X106965715Y-84081905D01*
X106918096Y-84177143D01*
X106870477Y-84224762D01*
X106775239Y-84272381D01*
X106489524Y-84272381D01*
X106394286Y-84224762D01*
X106346667Y-84177143D01*
X106918096Y-88352381D02*
X106441905Y-88352381D01*
X106394286Y-88828571D01*
X106441905Y-88780952D01*
X106537143Y-88733333D01*
X106775239Y-88733333D01*
X106870477Y-88780952D01*
X106918096Y-88828571D01*
X106965715Y-88923810D01*
X106965715Y-89161905D01*
X106918096Y-89257143D01*
X106870477Y-89304762D01*
X106775239Y-89352381D01*
X106537143Y-89352381D01*
X106441905Y-89304762D01*
X106394286Y-89257143D01*
X106870477Y-90892381D02*
X106680000Y-90892381D01*
X106584762Y-90940000D01*
X106537143Y-90987619D01*
X106441905Y-91130476D01*
X106394286Y-91320952D01*
X106394286Y-91701905D01*
X106441905Y-91797143D01*
X106489524Y-91844762D01*
X106584762Y-91892381D01*
X106775239Y-91892381D01*
X106870477Y-91844762D01*
X106918096Y-91797143D01*
X106965715Y-91701905D01*
X106965715Y-91463810D01*
X106918096Y-91368571D01*
X106870477Y-91320952D01*
X106775239Y-91273333D01*
X106584762Y-91273333D01*
X106489524Y-91320952D01*
X106441905Y-91368571D01*
X106394286Y-91463810D01*
X106965715Y-79192381D02*
X106394286Y-79192381D01*
X106680000Y-79192381D02*
X106680000Y-78192381D01*
X106584762Y-78335238D01*
X106489524Y-78430476D01*
X106394286Y-78478095D01*
X106394286Y-80827619D02*
X106441905Y-80780000D01*
X106537143Y-80732381D01*
X106775239Y-80732381D01*
X106870477Y-80780000D01*
X106918096Y-80827619D01*
X106965715Y-80922857D01*
X106965715Y-81018095D01*
X106918096Y-81160952D01*
X106346667Y-81732381D01*
X106965715Y-81732381D01*
X74644286Y-80827619D02*
X74691905Y-80780000D01*
X74787143Y-80732381D01*
X75025239Y-80732381D01*
X75120477Y-80780000D01*
X75168096Y-80827619D01*
X75215715Y-80922857D01*
X75215715Y-81018095D01*
X75168096Y-81160952D01*
X74596667Y-81732381D01*
X75215715Y-81732381D01*
X75215715Y-79192381D02*
X74644286Y-79192381D01*
X74930000Y-79192381D02*
X74930000Y-78192381D01*
X74834762Y-78335238D01*
X74739524Y-78430476D01*
X74644286Y-78478095D01*
X75120477Y-90892381D02*
X74930000Y-90892381D01*
X74834762Y-90940000D01*
X74787143Y-90987619D01*
X74691905Y-91130476D01*
X74644286Y-91320952D01*
X74644286Y-91701905D01*
X74691905Y-91797143D01*
X74739524Y-91844762D01*
X74834762Y-91892381D01*
X75025239Y-91892381D01*
X75120477Y-91844762D01*
X75168096Y-91797143D01*
X75215715Y-91701905D01*
X75215715Y-91463810D01*
X75168096Y-91368571D01*
X75120477Y-91320952D01*
X75025239Y-91273333D01*
X74834762Y-91273333D01*
X74739524Y-91320952D01*
X74691905Y-91368571D01*
X74644286Y-91463810D01*
X75168096Y-88352381D02*
X74691905Y-88352381D01*
X74644286Y-88828571D01*
X74691905Y-88780952D01*
X74787143Y-88733333D01*
X75025239Y-88733333D01*
X75120477Y-88780952D01*
X75168096Y-88828571D01*
X75215715Y-88923810D01*
X75215715Y-89161905D01*
X75168096Y-89257143D01*
X75120477Y-89304762D01*
X75025239Y-89352381D01*
X74787143Y-89352381D01*
X74691905Y-89304762D01*
X74644286Y-89257143D01*
X74596667Y-83272381D02*
X75215715Y-83272381D01*
X74882381Y-83653333D01*
X75025239Y-83653333D01*
X75120477Y-83700952D01*
X75168096Y-83748571D01*
X75215715Y-83843810D01*
X75215715Y-84081905D01*
X75168096Y-84177143D01*
X75120477Y-84224762D01*
X75025239Y-84272381D01*
X74739524Y-84272381D01*
X74644286Y-84224762D01*
X74596667Y-84177143D01*
X75120477Y-86145714D02*
X75120477Y-86812381D01*
X74882381Y-85764762D02*
X74644286Y-86479048D01*
X75263334Y-86479048D01*
X74834762Y-96400952D02*
X74739524Y-96353333D01*
X74691905Y-96305714D01*
X74644286Y-96210476D01*
X74644286Y-96162857D01*
X74691905Y-96067619D01*
X74739524Y-96020000D01*
X74834762Y-95972381D01*
X75025239Y-95972381D01*
X75120477Y-96020000D01*
X75168096Y-96067619D01*
X75215715Y-96162857D01*
X75215715Y-96210476D01*
X75168096Y-96305714D01*
X75120477Y-96353333D01*
X75025239Y-96400952D01*
X74834762Y-96400952D01*
X74739524Y-96448571D01*
X74691905Y-96496190D01*
X74644286Y-96591429D01*
X74644286Y-96781905D01*
X74691905Y-96877143D01*
X74739524Y-96924762D01*
X74834762Y-96972381D01*
X75025239Y-96972381D01*
X75120477Y-96924762D01*
X75168096Y-96877143D01*
X75215715Y-96781905D01*
X75215715Y-96591429D01*
X75168096Y-96496190D01*
X75120477Y-96448571D01*
X75025239Y-96400952D01*
X74596667Y-93432381D02*
X75263334Y-93432381D01*
X74834762Y-94432381D01*
X75191905Y-98560000D02*
X75096667Y-98512381D01*
X74953810Y-98512381D01*
X74810952Y-98560000D01*
X74715714Y-98655238D01*
X74668095Y-98750476D01*
X74620476Y-98940952D01*
X74620476Y-99083810D01*
X74668095Y-99274286D01*
X74715714Y-99369524D01*
X74810952Y-99464762D01*
X74953810Y-99512381D01*
X75049048Y-99512381D01*
X75191905Y-99464762D01*
X75239524Y-99417143D01*
X75239524Y-99083810D01*
X75049048Y-99083810D01*
X75191905Y-101100000D02*
X75096667Y-101052381D01*
X74953810Y-101052381D01*
X74810952Y-101100000D01*
X74715714Y-101195238D01*
X74668095Y-101290476D01*
X74620476Y-101480952D01*
X74620476Y-101623810D01*
X74668095Y-101814286D01*
X74715714Y-101909524D01*
X74810952Y-102004762D01*
X74953810Y-102052381D01*
X75049048Y-102052381D01*
X75191905Y-102004762D01*
X75239524Y-101957143D01*
X75239524Y-101623810D01*
X75049048Y-101623810D01*
X71382000Y-91677999D02*
X71334381Y-91773237D01*
X71334381Y-91916094D01*
X71382000Y-92058952D01*
X71477238Y-92154190D01*
X71572476Y-92201809D01*
X71762952Y-92249428D01*
X71905810Y-92249428D01*
X72096286Y-92201809D01*
X72191524Y-92154190D01*
X72286762Y-92058952D01*
X72334381Y-91916094D01*
X72334381Y-91820856D01*
X72286762Y-91677999D01*
X72239143Y-91630380D01*
X71905810Y-91630380D01*
X71905810Y-91820856D01*
X72334381Y-91201809D02*
X71334381Y-91201809D01*
X71334381Y-90820856D01*
X71382000Y-90725618D01*
X71429619Y-90677999D01*
X71524857Y-90630380D01*
X71667714Y-90630380D01*
X71762952Y-90677999D01*
X71810571Y-90725618D01*
X71858190Y-90820856D01*
X71858190Y-91201809D01*
X72334381Y-90201809D02*
X71334381Y-90201809D01*
X71334381Y-89535143D02*
X71334381Y-89344666D01*
X71382000Y-89249428D01*
X71477238Y-89154190D01*
X71667714Y-89106571D01*
X72001048Y-89106571D01*
X72191524Y-89154190D01*
X72286762Y-89249428D01*
X72334381Y-89344666D01*
X72334381Y-89535143D01*
X72286762Y-89630381D01*
X72191524Y-89725619D01*
X72001048Y-89773238D01*
X71667714Y-89773238D01*
X71477238Y-89725619D01*
X71382000Y-89630381D01*
X71334381Y-89535143D01*
D13*
X76140000Y-102930000D02*
X78800000Y-102930000D01*
X76140000Y-80010000D02*
X76140000Y-102930000D01*
X78800000Y-80010000D02*
X78800000Y-102930000D01*
X76140000Y-80010000D02*
X78800000Y-80010000D01*
X76140000Y-78740000D02*
X76140000Y-77410000D01*
X76140000Y-77410000D02*
X77470000Y-77410000D01*
X105470000Y-77410000D02*
X102810000Y-77410000D01*
X105470000Y-100330000D02*
X105470000Y-77410000D01*
X102810000Y-100330000D02*
X102810000Y-77410000D01*
X105470000Y-100330000D02*
X102810000Y-100330000D01*
X105470000Y-101600000D02*
X105470000Y-102930000D01*
X105470000Y-102930000D02*
X104140000Y-102930000D01*
X100390000Y-102930000D02*
X100390000Y-100270000D01*
X97790000Y-102930000D02*
X100390000Y-102930000D01*
X97790000Y-100270000D02*
X100390000Y-100270000D01*
X97790000Y-102930000D02*
X97790000Y-100270000D01*
X96520000Y-102930000D02*
X95190000Y-102930000D01*
X95190000Y-102930000D02*
X95190000Y-101600000D01*
X95305000Y-76940000D02*
X95305000Y-80540000D01*
X95316522Y-76901522D02*
G75*
G02X99755000Y-78740000I1838478J-1838478D01*
G01*
X95316522Y-80578478D02*
G75*
G03X99755000Y-78740000I1838478J1838478D01*
G01*
X89590000Y-79480000D02*
X89590000Y-83080000D01*
X89601522Y-79441522D02*
G75*
G02X94040000Y-81280000I1838478J-1838478D01*
G01*
X89601522Y-83118478D02*
G75*
G03X94040000Y-81280000I1838478J1838478D01*
G01*
X95305000Y-82020000D02*
X95305000Y-85620000D01*
X95316522Y-81981522D02*
G75*
G02X99755000Y-83820000I1838478J-1838478D01*
G01*
X95316522Y-85658478D02*
G75*
G03X99755000Y-83820000I1838478J1838478D01*
G01*
X89590000Y-84560000D02*
X89590000Y-88160000D01*
X89601522Y-84521522D02*
G75*
G02X94040000Y-86360000I1838478J-1838478D01*
G01*
X89601522Y-88198478D02*
G75*
G03X94040000Y-86360000I1838478J1838478D01*
G01*
X95305000Y-87100000D02*
X95305000Y-90700000D01*
X95316522Y-87061522D02*
G75*
G02X99755000Y-88900000I1838478J-1838478D01*
G01*
X95316522Y-90738478D02*
G75*
G03X99755000Y-88900000I1838478J1838478D01*
G01*
X89590000Y-89640000D02*
X89590000Y-93240000D01*
X89601522Y-89601522D02*
G75*
G02X94040000Y-91440000I1838478J-1838478D01*
G01*
X89601522Y-93278478D02*
G75*
G03X94040000Y-91440000I1838478J1838478D01*
G01*
X95305000Y-92180000D02*
X95305000Y-95780000D01*
X95316522Y-92141522D02*
G75*
G02X99755000Y-93980000I1838478J-1838478D01*
G01*
X95316522Y-95818478D02*
G75*
G03X99755000Y-93980000I1838478J1838478D01*
G01*
X89590000Y-94720000D02*
X89590000Y-98320000D01*
X89601522Y-94681522D02*
G75*
G02X94040000Y-96520000I1838478J-1838478D01*
G01*
X89601522Y-98358478D02*
G75*
G03X94040000Y-96520000I1838478J1838478D01*
G01*
X88490000Y-78740000D02*
G75*
G03X88490000Y-78740000I-860000J0D01*
G01*
X86770000Y-78740000D02*
X86730000Y-78740000D01*
X88490000Y-81280000D02*
G75*
G03X88490000Y-81280000I-860000J0D01*
G01*
X86770000Y-81280000D02*
X86730000Y-81280000D01*
X88490000Y-83820000D02*
G75*
G03X88490000Y-83820000I-860000J0D01*
G01*
X86770000Y-83820000D02*
X86730000Y-83820000D01*
X88490000Y-86360000D02*
G75*
G03X88490000Y-86360000I-860000J0D01*
G01*
X86770000Y-86360000D02*
X86730000Y-86360000D01*
X88490000Y-88900000D02*
G75*
G03X88490000Y-88900000I-860000J0D01*
G01*
X86770000Y-88900000D02*
X86730000Y-88900000D01*
X88490000Y-91440000D02*
G75*
G03X88490000Y-91440000I-860000J0D01*
G01*
X86770000Y-91440000D02*
X86730000Y-91440000D01*
X88490000Y-93980000D02*
G75*
G03X88490000Y-93980000I-860000J0D01*
G01*
X86770000Y-93980000D02*
X86730000Y-93980000D01*
X88490000Y-96520000D02*
G75*
G03X88490000Y-96520000I-860000J0D01*
G01*
X86770000Y-96520000D02*
X86730000Y-96520000D01*
X82140000Y-78740000D02*
G75*
G03X82140000Y-78740000I-860000J0D01*
G01*
X82140000Y-78740000D02*
X82180000Y-78740000D01*
X82140000Y-81280000D02*
G75*
G03X82140000Y-81280000I-860000J0D01*
G01*
X82140000Y-81280000D02*
X82180000Y-81280000D01*
X82140000Y-83820000D02*
G75*
G03X82140000Y-83820000I-860000J0D01*
G01*
X82140000Y-83820000D02*
X82180000Y-83820000D01*
X82140000Y-86360000D02*
G75*
G03X82140000Y-86360000I-860000J0D01*
G01*
X82140000Y-86360000D02*
X82180000Y-86360000D01*
X82140000Y-88900000D02*
G75*
G03X82140000Y-88900000I-860000J0D01*
G01*
X82140000Y-88900000D02*
X82180000Y-88900000D01*
X82140000Y-91440000D02*
G75*
G03X82140000Y-91440000I-860000J0D01*
G01*
X82140000Y-91440000D02*
X82180000Y-91440000D01*
X82140000Y-93980000D02*
G75*
G03X82140000Y-93980000I-860000J0D01*
G01*
X82140000Y-93980000D02*
X82180000Y-93980000D01*
X82140000Y-96520000D02*
G75*
G03X82140000Y-96520000I-860000J0D01*
G01*
X82140000Y-96520000D02*
X82180000Y-96520000D01*
D11*
X77136667Y-75862381D02*
X77136667Y-76576667D01*
X77089047Y-76719524D01*
X76993809Y-76814762D01*
X76850952Y-76862381D01*
X76755714Y-76862381D01*
X78136667Y-76862381D02*
X77565238Y-76862381D01*
X77850952Y-76862381D02*
X77850952Y-75862381D01*
X77755714Y-76005238D01*
X77660476Y-76100476D01*
X77565238Y-76148095D01*
X103806667Y-103382381D02*
X103806667Y-104096667D01*
X103759047Y-104239524D01*
X103663809Y-104334762D01*
X103520952Y-104382381D01*
X103425714Y-104382381D01*
X104235238Y-103477619D02*
X104282857Y-103430000D01*
X104378095Y-103382381D01*
X104616191Y-103382381D01*
X104711429Y-103430000D01*
X104759048Y-103477619D01*
X104806667Y-103572857D01*
X104806667Y-103668095D01*
X104759048Y-103810952D01*
X104187619Y-104382381D01*
X104806667Y-104382381D01*
X93642381Y-101933333D02*
X94356667Y-101933333D01*
X94499524Y-101980953D01*
X94594762Y-102076191D01*
X94642381Y-102219048D01*
X94642381Y-102314286D01*
X93642381Y-101552381D02*
X93642381Y-100933333D01*
X94023333Y-101266667D01*
X94023333Y-101123809D01*
X94070952Y-101028571D01*
X94118571Y-100980952D01*
X94213810Y-100933333D01*
X94451905Y-100933333D01*
X94547143Y-100980952D01*
X94594762Y-101028571D01*
X94642381Y-101123809D01*
X94642381Y-101409524D01*
X94594762Y-101504762D01*
X94547143Y-101552381D01*
X101262619Y-78835238D02*
X101215000Y-78930476D01*
X101119762Y-79025714D01*
X100976905Y-79168571D01*
X100929286Y-79263810D01*
X100929286Y-79359048D01*
X101167381Y-79311429D02*
X101119762Y-79406667D01*
X101024524Y-79501905D01*
X100834048Y-79549524D01*
X100500714Y-79549524D01*
X100310238Y-79501905D01*
X100215000Y-79406667D01*
X100167381Y-79311429D01*
X100167381Y-79120952D01*
X100215000Y-79025714D01*
X100310238Y-78930476D01*
X100500714Y-78882857D01*
X100834048Y-78882857D01*
X101024524Y-78930476D01*
X101119762Y-79025714D01*
X101167381Y-79120952D01*
X101167381Y-79311429D01*
X101167381Y-77930476D02*
X101167381Y-78501905D01*
X101167381Y-78216191D02*
X100167381Y-78216191D01*
X100310238Y-78311429D01*
X100405476Y-78406667D01*
X100453095Y-78501905D01*
X95547619Y-81375238D02*
X95500000Y-81470476D01*
X95404762Y-81565714D01*
X95261905Y-81708571D01*
X95214286Y-81803810D01*
X95214286Y-81899048D01*
X95452381Y-81851429D02*
X95404762Y-81946667D01*
X95309524Y-82041905D01*
X95119048Y-82089524D01*
X94785714Y-82089524D01*
X94595238Y-82041905D01*
X94500000Y-81946667D01*
X94452381Y-81851429D01*
X94452381Y-81660952D01*
X94500000Y-81565714D01*
X94595238Y-81470476D01*
X94785714Y-81422857D01*
X95119048Y-81422857D01*
X95309524Y-81470476D01*
X95404762Y-81565714D01*
X95452381Y-81660952D01*
X95452381Y-81851429D01*
X94547619Y-81041905D02*
X94500000Y-80994286D01*
X94452381Y-80899048D01*
X94452381Y-80660952D01*
X94500000Y-80565714D01*
X94547619Y-80518095D01*
X94642857Y-80470476D01*
X94738095Y-80470476D01*
X94880952Y-80518095D01*
X95452381Y-81089524D01*
X95452381Y-80470476D01*
X101262619Y-83915238D02*
X101215000Y-84010476D01*
X101119762Y-84105714D01*
X100976905Y-84248571D01*
X100929286Y-84343810D01*
X100929286Y-84439048D01*
X101167381Y-84391429D02*
X101119762Y-84486667D01*
X101024524Y-84581905D01*
X100834048Y-84629524D01*
X100500714Y-84629524D01*
X100310238Y-84581905D01*
X100215000Y-84486667D01*
X100167381Y-84391429D01*
X100167381Y-84200952D01*
X100215000Y-84105714D01*
X100310238Y-84010476D01*
X100500714Y-83962857D01*
X100834048Y-83962857D01*
X101024524Y-84010476D01*
X101119762Y-84105714D01*
X101167381Y-84200952D01*
X101167381Y-84391429D01*
X100167381Y-83629524D02*
X100167381Y-83010476D01*
X100548333Y-83343810D01*
X100548333Y-83200952D01*
X100595952Y-83105714D01*
X100643571Y-83058095D01*
X100738810Y-83010476D01*
X100976905Y-83010476D01*
X101072143Y-83058095D01*
X101119762Y-83105714D01*
X101167381Y-83200952D01*
X101167381Y-83486667D01*
X101119762Y-83581905D01*
X101072143Y-83629524D01*
X95547619Y-86455238D02*
X95500000Y-86550476D01*
X95404762Y-86645714D01*
X95261905Y-86788571D01*
X95214286Y-86883810D01*
X95214286Y-86979048D01*
X95452381Y-86931429D02*
X95404762Y-87026667D01*
X95309524Y-87121905D01*
X95119048Y-87169524D01*
X94785714Y-87169524D01*
X94595238Y-87121905D01*
X94500000Y-87026667D01*
X94452381Y-86931429D01*
X94452381Y-86740952D01*
X94500000Y-86645714D01*
X94595238Y-86550476D01*
X94785714Y-86502857D01*
X95119048Y-86502857D01*
X95309524Y-86550476D01*
X95404762Y-86645714D01*
X95452381Y-86740952D01*
X95452381Y-86931429D01*
X94785714Y-85645714D02*
X95452381Y-85645714D01*
X94404762Y-85883810D02*
X95119048Y-86121905D01*
X95119048Y-85502857D01*
X101262619Y-88995238D02*
X101215000Y-89090476D01*
X101119762Y-89185714D01*
X100976905Y-89328571D01*
X100929286Y-89423810D01*
X100929286Y-89519048D01*
X101167381Y-89471429D02*
X101119762Y-89566667D01*
X101024524Y-89661905D01*
X100834048Y-89709524D01*
X100500714Y-89709524D01*
X100310238Y-89661905D01*
X100215000Y-89566667D01*
X100167381Y-89471429D01*
X100167381Y-89280952D01*
X100215000Y-89185714D01*
X100310238Y-89090476D01*
X100500714Y-89042857D01*
X100834048Y-89042857D01*
X101024524Y-89090476D01*
X101119762Y-89185714D01*
X101167381Y-89280952D01*
X101167381Y-89471429D01*
X100167381Y-88138095D02*
X100167381Y-88614286D01*
X100643571Y-88661905D01*
X100595952Y-88614286D01*
X100548333Y-88519048D01*
X100548333Y-88280952D01*
X100595952Y-88185714D01*
X100643571Y-88138095D01*
X100738810Y-88090476D01*
X100976905Y-88090476D01*
X101072143Y-88138095D01*
X101119762Y-88185714D01*
X101167381Y-88280952D01*
X101167381Y-88519048D01*
X101119762Y-88614286D01*
X101072143Y-88661905D01*
X95547619Y-91535238D02*
X95500000Y-91630476D01*
X95404762Y-91725714D01*
X95261905Y-91868571D01*
X95214286Y-91963810D01*
X95214286Y-92059048D01*
X95452381Y-92011429D02*
X95404762Y-92106667D01*
X95309524Y-92201905D01*
X95119048Y-92249524D01*
X94785714Y-92249524D01*
X94595238Y-92201905D01*
X94500000Y-92106667D01*
X94452381Y-92011429D01*
X94452381Y-91820952D01*
X94500000Y-91725714D01*
X94595238Y-91630476D01*
X94785714Y-91582857D01*
X95119048Y-91582857D01*
X95309524Y-91630476D01*
X95404762Y-91725714D01*
X95452381Y-91820952D01*
X95452381Y-92011429D01*
X94452381Y-90725714D02*
X94452381Y-90916191D01*
X94500000Y-91011429D01*
X94547619Y-91059048D01*
X94690476Y-91154286D01*
X94880952Y-91201905D01*
X95261905Y-91201905D01*
X95357143Y-91154286D01*
X95404762Y-91106667D01*
X95452381Y-91011429D01*
X95452381Y-90820952D01*
X95404762Y-90725714D01*
X95357143Y-90678095D01*
X95261905Y-90630476D01*
X95023810Y-90630476D01*
X94928571Y-90678095D01*
X94880952Y-90725714D01*
X94833333Y-90820952D01*
X94833333Y-91011429D01*
X94880952Y-91106667D01*
X94928571Y-91154286D01*
X95023810Y-91201905D01*
X101262619Y-94075238D02*
X101215000Y-94170476D01*
X101119762Y-94265714D01*
X100976905Y-94408571D01*
X100929286Y-94503810D01*
X100929286Y-94599048D01*
X101167381Y-94551429D02*
X101119762Y-94646667D01*
X101024524Y-94741905D01*
X100834048Y-94789524D01*
X100500714Y-94789524D01*
X100310238Y-94741905D01*
X100215000Y-94646667D01*
X100167381Y-94551429D01*
X100167381Y-94360952D01*
X100215000Y-94265714D01*
X100310238Y-94170476D01*
X100500714Y-94122857D01*
X100834048Y-94122857D01*
X101024524Y-94170476D01*
X101119762Y-94265714D01*
X101167381Y-94360952D01*
X101167381Y-94551429D01*
X100167381Y-93789524D02*
X100167381Y-93122857D01*
X101167381Y-93551429D01*
X95547619Y-96615238D02*
X95500000Y-96710476D01*
X95404762Y-96805714D01*
X95261905Y-96948571D01*
X95214286Y-97043810D01*
X95214286Y-97139048D01*
X95452381Y-97091429D02*
X95404762Y-97186667D01*
X95309524Y-97281905D01*
X95119048Y-97329524D01*
X94785714Y-97329524D01*
X94595238Y-97281905D01*
X94500000Y-97186667D01*
X94452381Y-97091429D01*
X94452381Y-96900952D01*
X94500000Y-96805714D01*
X94595238Y-96710476D01*
X94785714Y-96662857D01*
X95119048Y-96662857D01*
X95309524Y-96710476D01*
X95404762Y-96805714D01*
X95452381Y-96900952D01*
X95452381Y-97091429D01*
X94880952Y-96091429D02*
X94833333Y-96186667D01*
X94785714Y-96234286D01*
X94690476Y-96281905D01*
X94642857Y-96281905D01*
X94547619Y-96234286D01*
X94500000Y-96186667D01*
X94452381Y-96091429D01*
X94452381Y-95900952D01*
X94500000Y-95805714D01*
X94547619Y-95758095D01*
X94642857Y-95710476D01*
X94690476Y-95710476D01*
X94785714Y-95758095D01*
X94833333Y-95805714D01*
X94880952Y-95900952D01*
X94880952Y-96091429D01*
X94928571Y-96186667D01*
X94976190Y-96234286D01*
X95071429Y-96281905D01*
X95261905Y-96281905D01*
X95357143Y-96234286D01*
X95404762Y-96186667D01*
X95452381Y-96091429D01*
X95452381Y-95900952D01*
X95404762Y-95805714D01*
X95357143Y-95758095D01*
X95261905Y-95710476D01*
X95071429Y-95710476D01*
X94976190Y-95758095D01*
X94928571Y-95805714D01*
X94880952Y-95900952D01*
X86513334Y-81052381D02*
X86180000Y-80576190D01*
X85941905Y-81052381D02*
X85941905Y-80052381D01*
X86322858Y-80052381D01*
X86418096Y-80100000D01*
X86465715Y-80147619D01*
X86513334Y-80242857D01*
X86513334Y-80385714D01*
X86465715Y-80480952D01*
X86418096Y-80528571D01*
X86322858Y-80576190D01*
X85941905Y-80576190D01*
X87465715Y-81052381D02*
X86894286Y-81052381D01*
X87180000Y-81052381D02*
X87180000Y-80052381D01*
X87084762Y-80195238D01*
X86989524Y-80290476D01*
X86894286Y-80338095D01*
X86513334Y-83592381D02*
X86180000Y-83116190D01*
X85941905Y-83592381D02*
X85941905Y-82592381D01*
X86322858Y-82592381D01*
X86418096Y-82640000D01*
X86465715Y-82687619D01*
X86513334Y-82782857D01*
X86513334Y-82925714D01*
X86465715Y-83020952D01*
X86418096Y-83068571D01*
X86322858Y-83116190D01*
X85941905Y-83116190D01*
X86894286Y-82687619D02*
X86941905Y-82640000D01*
X87037143Y-82592381D01*
X87275239Y-82592381D01*
X87370477Y-82640000D01*
X87418096Y-82687619D01*
X87465715Y-82782857D01*
X87465715Y-82878095D01*
X87418096Y-83020952D01*
X86846667Y-83592381D01*
X87465715Y-83592381D01*
X86513334Y-86132381D02*
X86180000Y-85656190D01*
X85941905Y-86132381D02*
X85941905Y-85132381D01*
X86322858Y-85132381D01*
X86418096Y-85180000D01*
X86465715Y-85227619D01*
X86513334Y-85322857D01*
X86513334Y-85465714D01*
X86465715Y-85560952D01*
X86418096Y-85608571D01*
X86322858Y-85656190D01*
X85941905Y-85656190D01*
X86846667Y-85132381D02*
X87465715Y-85132381D01*
X87132381Y-85513333D01*
X87275239Y-85513333D01*
X87370477Y-85560952D01*
X87418096Y-85608571D01*
X87465715Y-85703810D01*
X87465715Y-85941905D01*
X87418096Y-86037143D01*
X87370477Y-86084762D01*
X87275239Y-86132381D01*
X86989524Y-86132381D01*
X86894286Y-86084762D01*
X86846667Y-86037143D01*
X86513334Y-88672381D02*
X86180000Y-88196190D01*
X85941905Y-88672381D02*
X85941905Y-87672381D01*
X86322858Y-87672381D01*
X86418096Y-87720000D01*
X86465715Y-87767619D01*
X86513334Y-87862857D01*
X86513334Y-88005714D01*
X86465715Y-88100952D01*
X86418096Y-88148571D01*
X86322858Y-88196190D01*
X85941905Y-88196190D01*
X87370477Y-88005714D02*
X87370477Y-88672381D01*
X87132381Y-87624762D02*
X86894286Y-88339048D01*
X87513334Y-88339048D01*
X86513334Y-91212381D02*
X86180000Y-90736190D01*
X85941905Y-91212381D02*
X85941905Y-90212381D01*
X86322858Y-90212381D01*
X86418096Y-90260000D01*
X86465715Y-90307619D01*
X86513334Y-90402857D01*
X86513334Y-90545714D01*
X86465715Y-90640952D01*
X86418096Y-90688571D01*
X86322858Y-90736190D01*
X85941905Y-90736190D01*
X87418096Y-90212381D02*
X86941905Y-90212381D01*
X86894286Y-90688571D01*
X86941905Y-90640952D01*
X87037143Y-90593333D01*
X87275239Y-90593333D01*
X87370477Y-90640952D01*
X87418096Y-90688571D01*
X87465715Y-90783810D01*
X87465715Y-91021905D01*
X87418096Y-91117143D01*
X87370477Y-91164762D01*
X87275239Y-91212381D01*
X87037143Y-91212381D01*
X86941905Y-91164762D01*
X86894286Y-91117143D01*
X86513334Y-93752381D02*
X86180000Y-93276190D01*
X85941905Y-93752381D02*
X85941905Y-92752381D01*
X86322858Y-92752381D01*
X86418096Y-92800000D01*
X86465715Y-92847619D01*
X86513334Y-92942857D01*
X86513334Y-93085714D01*
X86465715Y-93180952D01*
X86418096Y-93228571D01*
X86322858Y-93276190D01*
X85941905Y-93276190D01*
X87370477Y-92752381D02*
X87180000Y-92752381D01*
X87084762Y-92800000D01*
X87037143Y-92847619D01*
X86941905Y-92990476D01*
X86894286Y-93180952D01*
X86894286Y-93561905D01*
X86941905Y-93657143D01*
X86989524Y-93704762D01*
X87084762Y-93752381D01*
X87275239Y-93752381D01*
X87370477Y-93704762D01*
X87418096Y-93657143D01*
X87465715Y-93561905D01*
X87465715Y-93323810D01*
X87418096Y-93228571D01*
X87370477Y-93180952D01*
X87275239Y-93133333D01*
X87084762Y-93133333D01*
X86989524Y-93180952D01*
X86941905Y-93228571D01*
X86894286Y-93323810D01*
X86513334Y-96292381D02*
X86180000Y-95816190D01*
X85941905Y-96292381D02*
X85941905Y-95292381D01*
X86322858Y-95292381D01*
X86418096Y-95340000D01*
X86465715Y-95387619D01*
X86513334Y-95482857D01*
X86513334Y-95625714D01*
X86465715Y-95720952D01*
X86418096Y-95768571D01*
X86322858Y-95816190D01*
X85941905Y-95816190D01*
X86846667Y-95292381D02*
X87513334Y-95292381D01*
X87084762Y-96292381D01*
X86513334Y-98832381D02*
X86180000Y-98356190D01*
X85941905Y-98832381D02*
X85941905Y-97832381D01*
X86322858Y-97832381D01*
X86418096Y-97880000D01*
X86465715Y-97927619D01*
X86513334Y-98022857D01*
X86513334Y-98165714D01*
X86465715Y-98260952D01*
X86418096Y-98308571D01*
X86322858Y-98356190D01*
X85941905Y-98356190D01*
X87084762Y-98260952D02*
X86989524Y-98213333D01*
X86941905Y-98165714D01*
X86894286Y-98070476D01*
X86894286Y-98022857D01*
X86941905Y-97927619D01*
X86989524Y-97880000D01*
X87084762Y-97832381D01*
X87275239Y-97832381D01*
X87370477Y-97880000D01*
X87418096Y-97927619D01*
X87465715Y-98022857D01*
X87465715Y-98070476D01*
X87418096Y-98165714D01*
X87370477Y-98213333D01*
X87275239Y-98260952D01*
X87084762Y-98260952D01*
X86989524Y-98308571D01*
X86941905Y-98356190D01*
X86894286Y-98451429D01*
X86894286Y-98641905D01*
X86941905Y-98737143D01*
X86989524Y-98784762D01*
X87084762Y-98832381D01*
X87275239Y-98832381D01*
X87370477Y-98784762D01*
X87418096Y-98737143D01*
X87465715Y-98641905D01*
X87465715Y-98451429D01*
X87418096Y-98356190D01*
X87370477Y-98308571D01*
X87275239Y-98260952D01*
X82063334Y-77332381D02*
X81730000Y-76856190D01*
X81491905Y-77332381D02*
X81491905Y-76332381D01*
X81872858Y-76332381D01*
X81968096Y-76380000D01*
X82015715Y-76427619D01*
X82063334Y-76522857D01*
X82063334Y-76665714D01*
X82015715Y-76760952D01*
X81968096Y-76808571D01*
X81872858Y-76856190D01*
X81491905Y-76856190D01*
X82539524Y-77332381D02*
X82730000Y-77332381D01*
X82825239Y-77284762D01*
X82872858Y-77237143D01*
X82968096Y-77094286D01*
X83015715Y-76903810D01*
X83015715Y-76522857D01*
X82968096Y-76427619D01*
X82920477Y-76380000D01*
X82825239Y-76332381D01*
X82634762Y-76332381D01*
X82539524Y-76380000D01*
X82491905Y-76427619D01*
X82444286Y-76522857D01*
X82444286Y-76760952D01*
X82491905Y-76856190D01*
X82539524Y-76903810D01*
X82634762Y-76951429D01*
X82825239Y-76951429D01*
X82920477Y-76903810D01*
X82968096Y-76856190D01*
X83015715Y-76760952D01*
X81587143Y-79872381D02*
X81253809Y-79396190D01*
X81015714Y-79872381D02*
X81015714Y-78872381D01*
X81396667Y-78872381D01*
X81491905Y-78920000D01*
X81539524Y-78967619D01*
X81587143Y-79062857D01*
X81587143Y-79205714D01*
X81539524Y-79300952D01*
X81491905Y-79348571D01*
X81396667Y-79396190D01*
X81015714Y-79396190D01*
X82539524Y-79872381D02*
X81968095Y-79872381D01*
X82253809Y-79872381D02*
X82253809Y-78872381D01*
X82158571Y-79015238D01*
X82063333Y-79110476D01*
X81968095Y-79158095D01*
X83158571Y-78872381D02*
X83253810Y-78872381D01*
X83349048Y-78920000D01*
X83396667Y-78967619D01*
X83444286Y-79062857D01*
X83491905Y-79253333D01*
X83491905Y-79491429D01*
X83444286Y-79681905D01*
X83396667Y-79777143D01*
X83349048Y-79824762D01*
X83253810Y-79872381D01*
X83158571Y-79872381D01*
X83063333Y-79824762D01*
X83015714Y-79777143D01*
X82968095Y-79681905D01*
X82920476Y-79491429D01*
X82920476Y-79253333D01*
X82968095Y-79062857D01*
X83015714Y-78967619D01*
X83063333Y-78920000D01*
X83158571Y-78872381D01*
X81587143Y-82412381D02*
X81253809Y-81936190D01*
X81015714Y-82412381D02*
X81015714Y-81412381D01*
X81396667Y-81412381D01*
X81491905Y-81460000D01*
X81539524Y-81507619D01*
X81587143Y-81602857D01*
X81587143Y-81745714D01*
X81539524Y-81840952D01*
X81491905Y-81888571D01*
X81396667Y-81936190D01*
X81015714Y-81936190D01*
X82539524Y-82412381D02*
X81968095Y-82412381D01*
X82253809Y-82412381D02*
X82253809Y-81412381D01*
X82158571Y-81555238D01*
X82063333Y-81650476D01*
X81968095Y-81698095D01*
X83491905Y-82412381D02*
X82920476Y-82412381D01*
X83206190Y-82412381D02*
X83206190Y-81412381D01*
X83110952Y-81555238D01*
X83015714Y-81650476D01*
X82920476Y-81698095D01*
X81587143Y-84952381D02*
X81253809Y-84476190D01*
X81015714Y-84952381D02*
X81015714Y-83952381D01*
X81396667Y-83952381D01*
X81491905Y-84000000D01*
X81539524Y-84047619D01*
X81587143Y-84142857D01*
X81587143Y-84285714D01*
X81539524Y-84380952D01*
X81491905Y-84428571D01*
X81396667Y-84476190D01*
X81015714Y-84476190D01*
X82539524Y-84952381D02*
X81968095Y-84952381D01*
X82253809Y-84952381D02*
X82253809Y-83952381D01*
X82158571Y-84095238D01*
X82063333Y-84190476D01*
X81968095Y-84238095D01*
X82920476Y-84047619D02*
X82968095Y-84000000D01*
X83063333Y-83952381D01*
X83301429Y-83952381D01*
X83396667Y-84000000D01*
X83444286Y-84047619D01*
X83491905Y-84142857D01*
X83491905Y-84238095D01*
X83444286Y-84380952D01*
X82872857Y-84952381D01*
X83491905Y-84952381D01*
X81587143Y-87492381D02*
X81253809Y-87016190D01*
X81015714Y-87492381D02*
X81015714Y-86492381D01*
X81396667Y-86492381D01*
X81491905Y-86540000D01*
X81539524Y-86587619D01*
X81587143Y-86682857D01*
X81587143Y-86825714D01*
X81539524Y-86920952D01*
X81491905Y-86968571D01*
X81396667Y-87016190D01*
X81015714Y-87016190D01*
X82539524Y-87492381D02*
X81968095Y-87492381D01*
X82253809Y-87492381D02*
X82253809Y-86492381D01*
X82158571Y-86635238D01*
X82063333Y-86730476D01*
X81968095Y-86778095D01*
X82872857Y-86492381D02*
X83491905Y-86492381D01*
X83158571Y-86873333D01*
X83301429Y-86873333D01*
X83396667Y-86920952D01*
X83444286Y-86968571D01*
X83491905Y-87063810D01*
X83491905Y-87301905D01*
X83444286Y-87397143D01*
X83396667Y-87444762D01*
X83301429Y-87492381D01*
X83015714Y-87492381D01*
X82920476Y-87444762D01*
X82872857Y-87397143D01*
X81587143Y-90032381D02*
X81253809Y-89556190D01*
X81015714Y-90032381D02*
X81015714Y-89032381D01*
X81396667Y-89032381D01*
X81491905Y-89080000D01*
X81539524Y-89127619D01*
X81587143Y-89222857D01*
X81587143Y-89365714D01*
X81539524Y-89460952D01*
X81491905Y-89508571D01*
X81396667Y-89556190D01*
X81015714Y-89556190D01*
X82539524Y-90032381D02*
X81968095Y-90032381D01*
X82253809Y-90032381D02*
X82253809Y-89032381D01*
X82158571Y-89175238D01*
X82063333Y-89270476D01*
X81968095Y-89318095D01*
X83396667Y-89365714D02*
X83396667Y-90032381D01*
X83158571Y-88984762D02*
X82920476Y-89699048D01*
X83539524Y-89699048D01*
X81587143Y-92572381D02*
X81253809Y-92096190D01*
X81015714Y-92572381D02*
X81015714Y-91572381D01*
X81396667Y-91572381D01*
X81491905Y-91620000D01*
X81539524Y-91667619D01*
X81587143Y-91762857D01*
X81587143Y-91905714D01*
X81539524Y-92000952D01*
X81491905Y-92048571D01*
X81396667Y-92096190D01*
X81015714Y-92096190D01*
X82539524Y-92572381D02*
X81968095Y-92572381D01*
X82253809Y-92572381D02*
X82253809Y-91572381D01*
X82158571Y-91715238D01*
X82063333Y-91810476D01*
X81968095Y-91858095D01*
X83444286Y-91572381D02*
X82968095Y-91572381D01*
X82920476Y-92048571D01*
X82968095Y-92000952D01*
X83063333Y-91953333D01*
X83301429Y-91953333D01*
X83396667Y-92000952D01*
X83444286Y-92048571D01*
X83491905Y-92143810D01*
X83491905Y-92381905D01*
X83444286Y-92477143D01*
X83396667Y-92524762D01*
X83301429Y-92572381D01*
X83063333Y-92572381D01*
X82968095Y-92524762D01*
X82920476Y-92477143D01*
X81587143Y-95112381D02*
X81253809Y-94636190D01*
X81015714Y-95112381D02*
X81015714Y-94112381D01*
X81396667Y-94112381D01*
X81491905Y-94160000D01*
X81539524Y-94207619D01*
X81587143Y-94302857D01*
X81587143Y-94445714D01*
X81539524Y-94540952D01*
X81491905Y-94588571D01*
X81396667Y-94636190D01*
X81015714Y-94636190D01*
X82539524Y-95112381D02*
X81968095Y-95112381D01*
X82253809Y-95112381D02*
X82253809Y-94112381D01*
X82158571Y-94255238D01*
X82063333Y-94350476D01*
X81968095Y-94398095D01*
X83396667Y-94112381D02*
X83206190Y-94112381D01*
X83110952Y-94160000D01*
X83063333Y-94207619D01*
X82968095Y-94350476D01*
X82920476Y-94540952D01*
X82920476Y-94921905D01*
X82968095Y-95017143D01*
X83015714Y-95064762D01*
X83110952Y-95112381D01*
X83301429Y-95112381D01*
X83396667Y-95064762D01*
X83444286Y-95017143D01*
X83491905Y-94921905D01*
X83491905Y-94683810D01*
X83444286Y-94588571D01*
X83396667Y-94540952D01*
X83301429Y-94493333D01*
X83110952Y-94493333D01*
X83015714Y-94540952D01*
X82968095Y-94588571D01*
X82920476Y-94683810D01*
M02*
