G04 #@! TF.FileFunction,Copper,L1,Top,Signal*
%FSLAX46Y46*%
G04 Gerber Fmt 4.6, Leading zero omitted, Abs format (unit mm)*
G04 Created by KiCad (PCBNEW 4.0.7) date 07/06/18 16:03:28*
%MOMM*%
%LPD*%
G01*
G04 APERTURE LIST*
%ADD10C,0.100000*%
%ADD11R,1.700000X1.700000*%
%ADD12O,1.700000X1.700000*%
%ADD13C,1.000000*%
%ADD14R,1.000000X1.000000*%
%ADD15C,1.400000*%
%ADD16O,1.400000X1.400000*%
%ADD17C,0.254000*%
G04 APERTURE END LIST*
D10*
D11*
X77470000Y-78740000D03*
D12*
X77470000Y-81280000D03*
X77470000Y-83820000D03*
X77470000Y-86360000D03*
X77470000Y-88900000D03*
X77470000Y-91440000D03*
X77470000Y-93980000D03*
X77470000Y-96520000D03*
X77470000Y-99060000D03*
X77470000Y-101600000D03*
D11*
X104140000Y-101600000D03*
D12*
X104140000Y-99060000D03*
X104140000Y-96520000D03*
X104140000Y-93980000D03*
X104140000Y-91440000D03*
X104140000Y-88900000D03*
X104140000Y-86360000D03*
X104140000Y-83820000D03*
X104140000Y-81280000D03*
X104140000Y-78740000D03*
D11*
X96520000Y-101600000D03*
D12*
X99060000Y-101600000D03*
D13*
X98425000Y-78740000D03*
X97155000Y-80010000D03*
D14*
X97155000Y-77470000D03*
D13*
X92710000Y-81280000D03*
X91440000Y-82550000D03*
D14*
X91440000Y-80010000D03*
D13*
X98425000Y-83820000D03*
X97155000Y-85090000D03*
D14*
X97155000Y-82550000D03*
D13*
X92710000Y-86360000D03*
X91440000Y-87630000D03*
D14*
X91440000Y-85090000D03*
D13*
X98425000Y-88900000D03*
X97155000Y-90170000D03*
D14*
X97155000Y-87630000D03*
D13*
X92710000Y-91440000D03*
X91440000Y-92710000D03*
D14*
X91440000Y-90170000D03*
D13*
X98425000Y-93980000D03*
X97155000Y-95250000D03*
D14*
X97155000Y-92710000D03*
D13*
X92710000Y-96520000D03*
X91440000Y-97790000D03*
D14*
X91440000Y-95250000D03*
D15*
X87630000Y-78740000D03*
D16*
X85730000Y-78740000D03*
D15*
X87630000Y-81280000D03*
D16*
X85730000Y-81280000D03*
D15*
X87630000Y-83820000D03*
D16*
X85730000Y-83820000D03*
D15*
X87630000Y-86360000D03*
D16*
X85730000Y-86360000D03*
D15*
X87630000Y-88900000D03*
D16*
X85730000Y-88900000D03*
D15*
X87630000Y-91440000D03*
D16*
X85730000Y-91440000D03*
D15*
X87630000Y-93980000D03*
D16*
X85730000Y-93980000D03*
D15*
X87630000Y-96520000D03*
D16*
X85730000Y-96520000D03*
D15*
X81280000Y-78740000D03*
D16*
X83180000Y-78740000D03*
D15*
X81280000Y-81280000D03*
D16*
X83180000Y-81280000D03*
D15*
X81280000Y-83820000D03*
D16*
X83180000Y-83820000D03*
D15*
X81280000Y-86360000D03*
D16*
X83180000Y-86360000D03*
D15*
X81280000Y-88900000D03*
D16*
X83180000Y-88900000D03*
D15*
X81280000Y-91440000D03*
D16*
X83180000Y-91440000D03*
D15*
X81280000Y-93980000D03*
D16*
X83180000Y-93980000D03*
D15*
X81280000Y-96520000D03*
D16*
X83180000Y-96520000D03*
D17*
G36*
X107640323Y-76144323D02*
X107156053Y-76869085D01*
X106986000Y-77724000D01*
X107156053Y-78578915D01*
X107640323Y-79303677D01*
X108365085Y-79787947D01*
X109220000Y-79958000D01*
X110074915Y-79787947D01*
X110799677Y-79303677D01*
X111050000Y-78929042D01*
X111050000Y-101265428D01*
X110857968Y-100978032D01*
X110106462Y-100475891D01*
X109220000Y-100299563D01*
X108333538Y-100475891D01*
X107582032Y-100978032D01*
X107079891Y-101729538D01*
X106903563Y-102616000D01*
X107079891Y-103502462D01*
X107582032Y-104253968D01*
X107981673Y-104521000D01*
X73736796Y-104521000D01*
X74223677Y-104195677D01*
X74707947Y-103470915D01*
X74878000Y-102616000D01*
X74746895Y-101956890D01*
X76028524Y-101956890D01*
X76198355Y-102366924D01*
X76588642Y-102795183D01*
X77113108Y-103041486D01*
X77343000Y-102920819D01*
X77343000Y-101727000D01*
X77597000Y-101727000D01*
X77597000Y-102920819D01*
X77826892Y-103041486D01*
X78351358Y-102795183D01*
X78741645Y-102366924D01*
X78911476Y-101956890D01*
X78790155Y-101727000D01*
X77597000Y-101727000D01*
X77343000Y-101727000D01*
X76149845Y-101727000D01*
X76028524Y-101956890D01*
X74746895Y-101956890D01*
X74707947Y-101761085D01*
X74223677Y-101036323D01*
X73498915Y-100552053D01*
X72644000Y-100382000D01*
X71789085Y-100552053D01*
X71064323Y-101036323D01*
X70580053Y-101761085D01*
X70560000Y-101861898D01*
X70560000Y-99416890D01*
X76028524Y-99416890D01*
X76198355Y-99826924D01*
X76588642Y-100255183D01*
X76747954Y-100330000D01*
X76588642Y-100404817D01*
X76198355Y-100833076D01*
X76028524Y-101243110D01*
X76149845Y-101473000D01*
X77343000Y-101473000D01*
X77343000Y-99187000D01*
X77597000Y-99187000D01*
X77597000Y-101473000D01*
X78790155Y-101473000D01*
X78911476Y-101243110D01*
X78741645Y-100833076D01*
X78665936Y-100750000D01*
X95022560Y-100750000D01*
X95022560Y-102450000D01*
X95066838Y-102685317D01*
X95205910Y-102901441D01*
X95418110Y-103046431D01*
X95670000Y-103097440D01*
X97370000Y-103097440D01*
X97605317Y-103053162D01*
X97821441Y-102914090D01*
X97966431Y-102701890D01*
X97980086Y-102634459D01*
X98009946Y-102679147D01*
X98491715Y-103001054D01*
X99060000Y-103114093D01*
X99628285Y-103001054D01*
X100110054Y-102679147D01*
X100431961Y-102197378D01*
X100493947Y-101885750D01*
X102655000Y-101885750D01*
X102655000Y-102576310D01*
X102751673Y-102809699D01*
X102930302Y-102988327D01*
X103163691Y-103085000D01*
X103854250Y-103085000D01*
X104013000Y-102926250D01*
X104013000Y-101727000D01*
X104267000Y-101727000D01*
X104267000Y-102926250D01*
X104425750Y-103085000D01*
X105116309Y-103085000D01*
X105349698Y-102988327D01*
X105528327Y-102809699D01*
X105625000Y-102576310D01*
X105625000Y-101885750D01*
X105466250Y-101727000D01*
X104267000Y-101727000D01*
X104013000Y-101727000D01*
X102813750Y-101727000D01*
X102655000Y-101885750D01*
X100493947Y-101885750D01*
X100545000Y-101629093D01*
X100545000Y-101570907D01*
X100431961Y-101002622D01*
X100178768Y-100623690D01*
X102655000Y-100623690D01*
X102655000Y-101314250D01*
X102813750Y-101473000D01*
X104013000Y-101473000D01*
X104013000Y-99187000D01*
X104267000Y-99187000D01*
X104267000Y-101473000D01*
X105466250Y-101473000D01*
X105625000Y-101314250D01*
X105625000Y-100623690D01*
X105528327Y-100390301D01*
X105349698Y-100211673D01*
X105140122Y-100124864D01*
X105411645Y-99826924D01*
X105581476Y-99416890D01*
X105460155Y-99187000D01*
X104267000Y-99187000D01*
X104013000Y-99187000D01*
X102819845Y-99187000D01*
X102698524Y-99416890D01*
X102868355Y-99826924D01*
X103139878Y-100124864D01*
X102930302Y-100211673D01*
X102751673Y-100390301D01*
X102655000Y-100623690D01*
X100178768Y-100623690D01*
X100110054Y-100520853D01*
X99628285Y-100198946D01*
X99060000Y-100085907D01*
X98491715Y-100198946D01*
X98009946Y-100520853D01*
X97982150Y-100562452D01*
X97973162Y-100514683D01*
X97834090Y-100298559D01*
X97621890Y-100153569D01*
X97370000Y-100102560D01*
X95670000Y-100102560D01*
X95434683Y-100146838D01*
X95218559Y-100285910D01*
X95073569Y-100498110D01*
X95022560Y-100750000D01*
X78665936Y-100750000D01*
X78351358Y-100404817D01*
X78192046Y-100330000D01*
X78351358Y-100255183D01*
X78741645Y-99826924D01*
X78911476Y-99416890D01*
X78790155Y-99187000D01*
X77597000Y-99187000D01*
X77343000Y-99187000D01*
X76149845Y-99187000D01*
X76028524Y-99416890D01*
X70560000Y-99416890D01*
X70560000Y-81280000D01*
X75955907Y-81280000D01*
X76068946Y-81848285D01*
X76390853Y-82330054D01*
X76720026Y-82550000D01*
X76390853Y-82769946D01*
X76068946Y-83251715D01*
X75955907Y-83820000D01*
X76068946Y-84388285D01*
X76390853Y-84870054D01*
X76720026Y-85090000D01*
X76390853Y-85309946D01*
X76068946Y-85791715D01*
X75955907Y-86360000D01*
X76068946Y-86928285D01*
X76390853Y-87410054D01*
X76720026Y-87630000D01*
X76390853Y-87849946D01*
X76068946Y-88331715D01*
X75955907Y-88900000D01*
X76068946Y-89468285D01*
X76390853Y-89950054D01*
X76720026Y-90170000D01*
X76390853Y-90389946D01*
X76068946Y-90871715D01*
X75955907Y-91440000D01*
X76068946Y-92008285D01*
X76390853Y-92490054D01*
X76720026Y-92710000D01*
X76390853Y-92929946D01*
X76068946Y-93411715D01*
X75955907Y-93980000D01*
X76068946Y-94548285D01*
X76390853Y-95030054D01*
X76720026Y-95250000D01*
X76390853Y-95469946D01*
X76068946Y-95951715D01*
X75955907Y-96520000D01*
X76068946Y-97088285D01*
X76390853Y-97570054D01*
X76731553Y-97797702D01*
X76588642Y-97864817D01*
X76198355Y-98293076D01*
X76028524Y-98703110D01*
X76149845Y-98933000D01*
X77343000Y-98933000D01*
X77343000Y-98913000D01*
X77597000Y-98913000D01*
X77597000Y-98933000D01*
X78790155Y-98933000D01*
X78911476Y-98703110D01*
X78741645Y-98293076D01*
X78488020Y-98014775D01*
X90304803Y-98014775D01*
X90477233Y-98432086D01*
X90796235Y-98751645D01*
X91213244Y-98924803D01*
X91664775Y-98925197D01*
X92082086Y-98752767D01*
X92401645Y-98433765D01*
X92574803Y-98016756D01*
X92575119Y-97654883D01*
X92934775Y-97655197D01*
X93352086Y-97482767D01*
X93671645Y-97163765D01*
X93844803Y-96746756D01*
X93845197Y-96295225D01*
X93672767Y-95877914D01*
X93353765Y-95558355D01*
X93152483Y-95474775D01*
X96019803Y-95474775D01*
X96192233Y-95892086D01*
X96511235Y-96211645D01*
X96928244Y-96384803D01*
X97379775Y-96385197D01*
X97797086Y-96212767D01*
X98116645Y-95893765D01*
X98289803Y-95476756D01*
X98290119Y-95114883D01*
X98649775Y-95115197D01*
X99067086Y-94942767D01*
X99386645Y-94623765D01*
X99559803Y-94206756D01*
X99560197Y-93755225D01*
X99387767Y-93337914D01*
X99068765Y-93018355D01*
X98651756Y-92845197D01*
X98200225Y-92844803D01*
X98156939Y-92862689D01*
X98131250Y-92837000D01*
X97282000Y-92837000D01*
X97282000Y-93686250D01*
X97307448Y-93711698D01*
X97290197Y-93753244D01*
X97289881Y-94115117D01*
X96930225Y-94114803D01*
X96512914Y-94287233D01*
X96193355Y-94606235D01*
X96020197Y-95023244D01*
X96019803Y-95474775D01*
X93152483Y-95474775D01*
X92936756Y-95385197D01*
X92485225Y-95384803D01*
X92441939Y-95402689D01*
X92416250Y-95377000D01*
X91567000Y-95377000D01*
X91567000Y-96226250D01*
X91592448Y-96251698D01*
X91575197Y-96293244D01*
X91574881Y-96655117D01*
X91215225Y-96654803D01*
X90797914Y-96827233D01*
X90478355Y-97146235D01*
X90305197Y-97563244D01*
X90304803Y-98014775D01*
X78488020Y-98014775D01*
X78351358Y-97864817D01*
X78208447Y-97797702D01*
X78549147Y-97570054D01*
X78871054Y-97088285D01*
X78984093Y-96520000D01*
X78871054Y-95951715D01*
X78549147Y-95469946D01*
X78219974Y-95250000D01*
X78549147Y-95030054D01*
X78871054Y-94548285D01*
X78984093Y-93980000D01*
X78871054Y-93411715D01*
X78549147Y-92929946D01*
X78219974Y-92710000D01*
X78549147Y-92490054D01*
X78871054Y-92008285D01*
X78984093Y-91440000D01*
X78871054Y-90871715D01*
X78549147Y-90389946D01*
X78219974Y-90170000D01*
X78549147Y-89950054D01*
X78871054Y-89468285D01*
X78984093Y-88900000D01*
X78871054Y-88331715D01*
X78549147Y-87849946D01*
X78219974Y-87630000D01*
X78549147Y-87410054D01*
X78871054Y-86928285D01*
X78984093Y-86360000D01*
X78871054Y-85791715D01*
X78549147Y-85309946D01*
X78219974Y-85090000D01*
X78549147Y-84870054D01*
X78871054Y-84388285D01*
X78984093Y-83820000D01*
X78871054Y-83251715D01*
X78549147Y-82769946D01*
X78219974Y-82550000D01*
X78549147Y-82330054D01*
X78871054Y-81848285D01*
X78984093Y-81280000D01*
X78871054Y-80711715D01*
X78549147Y-80229946D01*
X78507548Y-80202150D01*
X78555317Y-80193162D01*
X78771441Y-80054090D01*
X78916431Y-79841890D01*
X78967440Y-79590000D01*
X78967440Y-79004383D01*
X79944769Y-79004383D01*
X80147582Y-79495229D01*
X80522796Y-79871098D01*
X80857527Y-80010091D01*
X80524771Y-80147582D01*
X80148902Y-80522796D01*
X79945232Y-81013287D01*
X79944769Y-81544383D01*
X80147582Y-82035229D01*
X80522796Y-82411098D01*
X80857527Y-82550091D01*
X80524771Y-82687582D01*
X80148902Y-83062796D01*
X79945232Y-83553287D01*
X79944769Y-84084383D01*
X80147582Y-84575229D01*
X80522796Y-84951098D01*
X80857527Y-85090091D01*
X80524771Y-85227582D01*
X80148902Y-85602796D01*
X79945232Y-86093287D01*
X79944769Y-86624383D01*
X80147582Y-87115229D01*
X80522796Y-87491098D01*
X80857527Y-87630091D01*
X80524771Y-87767582D01*
X80148902Y-88142796D01*
X79945232Y-88633287D01*
X79944769Y-89164383D01*
X80147582Y-89655229D01*
X80522796Y-90031098D01*
X80857527Y-90170091D01*
X80524771Y-90307582D01*
X80148902Y-90682796D01*
X79945232Y-91173287D01*
X79944769Y-91704383D01*
X80147582Y-92195229D01*
X80522796Y-92571098D01*
X80857527Y-92710091D01*
X80524771Y-92847582D01*
X80148902Y-93222796D01*
X79945232Y-93713287D01*
X79944769Y-94244383D01*
X80147582Y-94735229D01*
X80522796Y-95111098D01*
X80857527Y-95250091D01*
X80524771Y-95387582D01*
X80148902Y-95762796D01*
X79945232Y-96253287D01*
X79944769Y-96784383D01*
X80147582Y-97275229D01*
X80522796Y-97651098D01*
X81013287Y-97854768D01*
X81544383Y-97855231D01*
X82035229Y-97652418D01*
X82247034Y-97440983D01*
X82377337Y-97586764D01*
X82846669Y-97812727D01*
X83053000Y-97690206D01*
X83053000Y-96647000D01*
X83033000Y-96647000D01*
X83033000Y-96393000D01*
X83053000Y-96393000D01*
X83053000Y-95349794D01*
X82884942Y-95250000D01*
X83053000Y-95150206D01*
X83053000Y-94107000D01*
X83033000Y-94107000D01*
X83033000Y-93853000D01*
X83053000Y-93853000D01*
X83053000Y-92809794D01*
X82884942Y-92710000D01*
X83053000Y-92610206D01*
X83053000Y-91567000D01*
X83033000Y-91567000D01*
X83033000Y-91313000D01*
X83053000Y-91313000D01*
X83053000Y-90269794D01*
X82884942Y-90170000D01*
X83053000Y-90070206D01*
X83053000Y-89027000D01*
X83033000Y-89027000D01*
X83033000Y-88773000D01*
X83053000Y-88773000D01*
X83053000Y-87729794D01*
X82884942Y-87630000D01*
X83053000Y-87530206D01*
X83053000Y-86487000D01*
X83033000Y-86487000D01*
X83033000Y-86233000D01*
X83053000Y-86233000D01*
X83053000Y-85189794D01*
X82884942Y-85090000D01*
X83053000Y-84990206D01*
X83053000Y-83947000D01*
X83033000Y-83947000D01*
X83033000Y-83693000D01*
X83053000Y-83693000D01*
X83053000Y-82649794D01*
X82884942Y-82550000D01*
X83053000Y-82450206D01*
X83053000Y-81407000D01*
X83033000Y-81407000D01*
X83033000Y-81153000D01*
X83053000Y-81153000D01*
X83053000Y-80109794D01*
X82884942Y-80010000D01*
X83053000Y-79910206D01*
X83053000Y-78867000D01*
X83033000Y-78867000D01*
X83033000Y-78613000D01*
X83053000Y-78613000D01*
X83053000Y-77569794D01*
X83307000Y-77569794D01*
X83307000Y-78613000D01*
X83327000Y-78613000D01*
X83327000Y-78867000D01*
X83307000Y-78867000D01*
X83307000Y-79910206D01*
X83475058Y-80010000D01*
X83307000Y-80109794D01*
X83307000Y-81153000D01*
X83327000Y-81153000D01*
X83327000Y-81407000D01*
X83307000Y-81407000D01*
X83307000Y-82450206D01*
X83475058Y-82550000D01*
X83307000Y-82649794D01*
X83307000Y-83693000D01*
X83327000Y-83693000D01*
X83327000Y-83947000D01*
X83307000Y-83947000D01*
X83307000Y-84990206D01*
X83475058Y-85090000D01*
X83307000Y-85189794D01*
X83307000Y-86233000D01*
X83327000Y-86233000D01*
X83327000Y-86487000D01*
X83307000Y-86487000D01*
X83307000Y-87530206D01*
X83475058Y-87630000D01*
X83307000Y-87729794D01*
X83307000Y-88773000D01*
X83327000Y-88773000D01*
X83327000Y-89027000D01*
X83307000Y-89027000D01*
X83307000Y-90070206D01*
X83475058Y-90170000D01*
X83307000Y-90269794D01*
X83307000Y-91313000D01*
X83327000Y-91313000D01*
X83327000Y-91567000D01*
X83307000Y-91567000D01*
X83307000Y-92610206D01*
X83475058Y-92710000D01*
X83307000Y-92809794D01*
X83307000Y-93853000D01*
X83327000Y-93853000D01*
X83327000Y-94107000D01*
X83307000Y-94107000D01*
X83307000Y-95150206D01*
X83475058Y-95250000D01*
X83307000Y-95349794D01*
X83307000Y-96393000D01*
X83327000Y-96393000D01*
X83327000Y-96647000D01*
X83307000Y-96647000D01*
X83307000Y-97690206D01*
X83513331Y-97812727D01*
X83982663Y-97586764D01*
X84329797Y-97198396D01*
X84447338Y-96914603D01*
X84470467Y-97030882D01*
X84759858Y-97463988D01*
X85192964Y-97753379D01*
X85703846Y-97855000D01*
X85756154Y-97855000D01*
X86267036Y-97753379D01*
X86691666Y-97469652D01*
X86872796Y-97651098D01*
X87363287Y-97854768D01*
X87894383Y-97855231D01*
X88385229Y-97652418D01*
X88761098Y-97277204D01*
X88964768Y-96786713D01*
X88965231Y-96255617D01*
X88762418Y-95764771D01*
X88533797Y-95535750D01*
X90305000Y-95535750D01*
X90305000Y-95876310D01*
X90401673Y-96109699D01*
X90580302Y-96288327D01*
X90813691Y-96385000D01*
X91154250Y-96385000D01*
X91313000Y-96226250D01*
X91313000Y-95377000D01*
X90463750Y-95377000D01*
X90305000Y-95535750D01*
X88533797Y-95535750D01*
X88387204Y-95388902D01*
X88052473Y-95249909D01*
X88385229Y-95112418D01*
X88761098Y-94737204D01*
X88808233Y-94623690D01*
X90305000Y-94623690D01*
X90305000Y-94964250D01*
X90463750Y-95123000D01*
X91313000Y-95123000D01*
X91313000Y-94273750D01*
X91567000Y-94273750D01*
X91567000Y-95123000D01*
X92416250Y-95123000D01*
X92575000Y-94964250D01*
X92575000Y-94623690D01*
X92478327Y-94390301D01*
X92299698Y-94211673D01*
X92066309Y-94115000D01*
X91725750Y-94115000D01*
X91567000Y-94273750D01*
X91313000Y-94273750D01*
X91154250Y-94115000D01*
X90813691Y-94115000D01*
X90580302Y-94211673D01*
X90401673Y-94390301D01*
X90305000Y-94623690D01*
X88808233Y-94623690D01*
X88964768Y-94246713D01*
X88965231Y-93715617D01*
X88762418Y-93224771D01*
X88472928Y-92934775D01*
X90304803Y-92934775D01*
X90477233Y-93352086D01*
X90796235Y-93671645D01*
X91213244Y-93844803D01*
X91664775Y-93845197D01*
X92082086Y-93672767D01*
X92401645Y-93353765D01*
X92550306Y-92995750D01*
X96020000Y-92995750D01*
X96020000Y-93336310D01*
X96116673Y-93569699D01*
X96295302Y-93748327D01*
X96528691Y-93845000D01*
X96869250Y-93845000D01*
X97028000Y-93686250D01*
X97028000Y-92837000D01*
X96178750Y-92837000D01*
X96020000Y-92995750D01*
X92550306Y-92995750D01*
X92574803Y-92936756D01*
X92575119Y-92574883D01*
X92934775Y-92575197D01*
X93352086Y-92402767D01*
X93671645Y-92083765D01*
X93671676Y-92083690D01*
X96020000Y-92083690D01*
X96020000Y-92424250D01*
X96178750Y-92583000D01*
X97028000Y-92583000D01*
X97028000Y-91733750D01*
X97282000Y-91733750D01*
X97282000Y-92583000D01*
X98131250Y-92583000D01*
X98290000Y-92424250D01*
X98290000Y-92083690D01*
X98193327Y-91850301D01*
X98014698Y-91671673D01*
X97781309Y-91575000D01*
X97440750Y-91575000D01*
X97282000Y-91733750D01*
X97028000Y-91733750D01*
X96869250Y-91575000D01*
X96528691Y-91575000D01*
X96295302Y-91671673D01*
X96116673Y-91850301D01*
X96020000Y-92083690D01*
X93671676Y-92083690D01*
X93844803Y-91666756D01*
X93845197Y-91215225D01*
X93672767Y-90797914D01*
X93353765Y-90478355D01*
X93152483Y-90394775D01*
X96019803Y-90394775D01*
X96192233Y-90812086D01*
X96511235Y-91131645D01*
X96928244Y-91304803D01*
X97379775Y-91305197D01*
X97797086Y-91132767D01*
X98116645Y-90813765D01*
X98289803Y-90396756D01*
X98290119Y-90034883D01*
X98649775Y-90035197D01*
X99067086Y-89862767D01*
X99386645Y-89543765D01*
X99559803Y-89126756D01*
X99560197Y-88675225D01*
X99387767Y-88257914D01*
X99068765Y-87938355D01*
X98651756Y-87765197D01*
X98200225Y-87764803D01*
X98156939Y-87782689D01*
X98131250Y-87757000D01*
X97282000Y-87757000D01*
X97282000Y-88606250D01*
X97307448Y-88631698D01*
X97290197Y-88673244D01*
X97289881Y-89035117D01*
X96930225Y-89034803D01*
X96512914Y-89207233D01*
X96193355Y-89526235D01*
X96020197Y-89943244D01*
X96019803Y-90394775D01*
X93152483Y-90394775D01*
X92936756Y-90305197D01*
X92485225Y-90304803D01*
X92441939Y-90322689D01*
X92416250Y-90297000D01*
X91567000Y-90297000D01*
X91567000Y-91146250D01*
X91592448Y-91171698D01*
X91575197Y-91213244D01*
X91574881Y-91575117D01*
X91215225Y-91574803D01*
X90797914Y-91747233D01*
X90478355Y-92066235D01*
X90305197Y-92483244D01*
X90304803Y-92934775D01*
X88472928Y-92934775D01*
X88387204Y-92848902D01*
X88052473Y-92709909D01*
X88385229Y-92572418D01*
X88761098Y-92197204D01*
X88964768Y-91706713D01*
X88965231Y-91175617D01*
X88762418Y-90684771D01*
X88533797Y-90455750D01*
X90305000Y-90455750D01*
X90305000Y-90796310D01*
X90401673Y-91029699D01*
X90580302Y-91208327D01*
X90813691Y-91305000D01*
X91154250Y-91305000D01*
X91313000Y-91146250D01*
X91313000Y-90297000D01*
X90463750Y-90297000D01*
X90305000Y-90455750D01*
X88533797Y-90455750D01*
X88387204Y-90308902D01*
X88052473Y-90169909D01*
X88385229Y-90032418D01*
X88761098Y-89657204D01*
X88808233Y-89543690D01*
X90305000Y-89543690D01*
X90305000Y-89884250D01*
X90463750Y-90043000D01*
X91313000Y-90043000D01*
X91313000Y-89193750D01*
X91567000Y-89193750D01*
X91567000Y-90043000D01*
X92416250Y-90043000D01*
X92575000Y-89884250D01*
X92575000Y-89543690D01*
X92478327Y-89310301D01*
X92299698Y-89131673D01*
X92066309Y-89035000D01*
X91725750Y-89035000D01*
X91567000Y-89193750D01*
X91313000Y-89193750D01*
X91154250Y-89035000D01*
X90813691Y-89035000D01*
X90580302Y-89131673D01*
X90401673Y-89310301D01*
X90305000Y-89543690D01*
X88808233Y-89543690D01*
X88964768Y-89166713D01*
X88965231Y-88635617D01*
X88762418Y-88144771D01*
X88472928Y-87854775D01*
X90304803Y-87854775D01*
X90477233Y-88272086D01*
X90796235Y-88591645D01*
X91213244Y-88764803D01*
X91664775Y-88765197D01*
X92082086Y-88592767D01*
X92401645Y-88273765D01*
X92550306Y-87915750D01*
X96020000Y-87915750D01*
X96020000Y-88256310D01*
X96116673Y-88489699D01*
X96295302Y-88668327D01*
X96528691Y-88765000D01*
X96869250Y-88765000D01*
X97028000Y-88606250D01*
X97028000Y-87757000D01*
X96178750Y-87757000D01*
X96020000Y-87915750D01*
X92550306Y-87915750D01*
X92574803Y-87856756D01*
X92575119Y-87494883D01*
X92934775Y-87495197D01*
X93352086Y-87322767D01*
X93671645Y-87003765D01*
X93671676Y-87003690D01*
X96020000Y-87003690D01*
X96020000Y-87344250D01*
X96178750Y-87503000D01*
X97028000Y-87503000D01*
X97028000Y-86653750D01*
X97282000Y-86653750D01*
X97282000Y-87503000D01*
X98131250Y-87503000D01*
X98290000Y-87344250D01*
X98290000Y-87003690D01*
X98193327Y-86770301D01*
X98014698Y-86591673D01*
X97781309Y-86495000D01*
X97440750Y-86495000D01*
X97282000Y-86653750D01*
X97028000Y-86653750D01*
X96869250Y-86495000D01*
X96528691Y-86495000D01*
X96295302Y-86591673D01*
X96116673Y-86770301D01*
X96020000Y-87003690D01*
X93671676Y-87003690D01*
X93844803Y-86586756D01*
X93845197Y-86135225D01*
X93672767Y-85717914D01*
X93353765Y-85398355D01*
X93152483Y-85314775D01*
X96019803Y-85314775D01*
X96192233Y-85732086D01*
X96511235Y-86051645D01*
X96928244Y-86224803D01*
X97379775Y-86225197D01*
X97797086Y-86052767D01*
X98116645Y-85733765D01*
X98289803Y-85316756D01*
X98290119Y-84954883D01*
X98649775Y-84955197D01*
X99067086Y-84782767D01*
X99386645Y-84463765D01*
X99559803Y-84046756D01*
X99560197Y-83595225D01*
X99387767Y-83177914D01*
X99068765Y-82858355D01*
X98651756Y-82685197D01*
X98200225Y-82684803D01*
X98156939Y-82702689D01*
X98131250Y-82677000D01*
X97282000Y-82677000D01*
X97282000Y-83526250D01*
X97307448Y-83551698D01*
X97290197Y-83593244D01*
X97289881Y-83955117D01*
X96930225Y-83954803D01*
X96512914Y-84127233D01*
X96193355Y-84446235D01*
X96020197Y-84863244D01*
X96019803Y-85314775D01*
X93152483Y-85314775D01*
X92936756Y-85225197D01*
X92485225Y-85224803D01*
X92441939Y-85242689D01*
X92416250Y-85217000D01*
X91567000Y-85217000D01*
X91567000Y-86066250D01*
X91592448Y-86091698D01*
X91575197Y-86133244D01*
X91574881Y-86495117D01*
X91215225Y-86494803D01*
X90797914Y-86667233D01*
X90478355Y-86986235D01*
X90305197Y-87403244D01*
X90304803Y-87854775D01*
X88472928Y-87854775D01*
X88387204Y-87768902D01*
X88052473Y-87629909D01*
X88385229Y-87492418D01*
X88761098Y-87117204D01*
X88964768Y-86626713D01*
X88965231Y-86095617D01*
X88762418Y-85604771D01*
X88533797Y-85375750D01*
X90305000Y-85375750D01*
X90305000Y-85716310D01*
X90401673Y-85949699D01*
X90580302Y-86128327D01*
X90813691Y-86225000D01*
X91154250Y-86225000D01*
X91313000Y-86066250D01*
X91313000Y-85217000D01*
X90463750Y-85217000D01*
X90305000Y-85375750D01*
X88533797Y-85375750D01*
X88387204Y-85228902D01*
X88052473Y-85089909D01*
X88385229Y-84952418D01*
X88761098Y-84577204D01*
X88808233Y-84463690D01*
X90305000Y-84463690D01*
X90305000Y-84804250D01*
X90463750Y-84963000D01*
X91313000Y-84963000D01*
X91313000Y-84113750D01*
X91567000Y-84113750D01*
X91567000Y-84963000D01*
X92416250Y-84963000D01*
X92575000Y-84804250D01*
X92575000Y-84463690D01*
X92478327Y-84230301D01*
X92299698Y-84051673D01*
X92066309Y-83955000D01*
X91725750Y-83955000D01*
X91567000Y-84113750D01*
X91313000Y-84113750D01*
X91154250Y-83955000D01*
X90813691Y-83955000D01*
X90580302Y-84051673D01*
X90401673Y-84230301D01*
X90305000Y-84463690D01*
X88808233Y-84463690D01*
X88964768Y-84086713D01*
X88965231Y-83555617D01*
X88762418Y-83064771D01*
X88472928Y-82774775D01*
X90304803Y-82774775D01*
X90477233Y-83192086D01*
X90796235Y-83511645D01*
X91213244Y-83684803D01*
X91664775Y-83685197D01*
X92082086Y-83512767D01*
X92401645Y-83193765D01*
X92550306Y-82835750D01*
X96020000Y-82835750D01*
X96020000Y-83176310D01*
X96116673Y-83409699D01*
X96295302Y-83588327D01*
X96528691Y-83685000D01*
X96869250Y-83685000D01*
X97028000Y-83526250D01*
X97028000Y-82677000D01*
X96178750Y-82677000D01*
X96020000Y-82835750D01*
X92550306Y-82835750D01*
X92574803Y-82776756D01*
X92575119Y-82414883D01*
X92934775Y-82415197D01*
X93352086Y-82242767D01*
X93671645Y-81923765D01*
X93671676Y-81923690D01*
X96020000Y-81923690D01*
X96020000Y-82264250D01*
X96178750Y-82423000D01*
X97028000Y-82423000D01*
X97028000Y-81573750D01*
X97282000Y-81573750D01*
X97282000Y-82423000D01*
X98131250Y-82423000D01*
X98290000Y-82264250D01*
X98290000Y-81923690D01*
X98193327Y-81690301D01*
X98014698Y-81511673D01*
X97781309Y-81415000D01*
X97440750Y-81415000D01*
X97282000Y-81573750D01*
X97028000Y-81573750D01*
X96869250Y-81415000D01*
X96528691Y-81415000D01*
X96295302Y-81511673D01*
X96116673Y-81690301D01*
X96020000Y-81923690D01*
X93671676Y-81923690D01*
X93844803Y-81506756D01*
X93845197Y-81055225D01*
X93672767Y-80637914D01*
X93353765Y-80318355D01*
X93152483Y-80234775D01*
X96019803Y-80234775D01*
X96192233Y-80652086D01*
X96511235Y-80971645D01*
X96928244Y-81144803D01*
X97379775Y-81145197D01*
X97797086Y-80972767D01*
X98116645Y-80653765D01*
X98289803Y-80236756D01*
X98290119Y-79874883D01*
X98649775Y-79875197D01*
X99067086Y-79702767D01*
X99386645Y-79383765D01*
X99559803Y-78966756D01*
X99560000Y-78740000D01*
X102625907Y-78740000D01*
X102738946Y-79308285D01*
X103060853Y-79790054D01*
X103390026Y-80010000D01*
X103060853Y-80229946D01*
X102738946Y-80711715D01*
X102625907Y-81280000D01*
X102738946Y-81848285D01*
X103060853Y-82330054D01*
X103390026Y-82550000D01*
X103060853Y-82769946D01*
X102738946Y-83251715D01*
X102625907Y-83820000D01*
X102738946Y-84388285D01*
X103060853Y-84870054D01*
X103390026Y-85090000D01*
X103060853Y-85309946D01*
X102738946Y-85791715D01*
X102625907Y-86360000D01*
X102738946Y-86928285D01*
X103060853Y-87410054D01*
X103390026Y-87630000D01*
X103060853Y-87849946D01*
X102738946Y-88331715D01*
X102625907Y-88900000D01*
X102738946Y-89468285D01*
X103060853Y-89950054D01*
X103390026Y-90170000D01*
X103060853Y-90389946D01*
X102738946Y-90871715D01*
X102625907Y-91440000D01*
X102738946Y-92008285D01*
X103060853Y-92490054D01*
X103390026Y-92710000D01*
X103060853Y-92929946D01*
X102738946Y-93411715D01*
X102625907Y-93980000D01*
X102738946Y-94548285D01*
X103060853Y-95030054D01*
X103390026Y-95250000D01*
X103060853Y-95469946D01*
X102738946Y-95951715D01*
X102625907Y-96520000D01*
X102738946Y-97088285D01*
X103060853Y-97570054D01*
X103401553Y-97797702D01*
X103258642Y-97864817D01*
X102868355Y-98293076D01*
X102698524Y-98703110D01*
X102819845Y-98933000D01*
X104013000Y-98933000D01*
X104013000Y-98913000D01*
X104267000Y-98913000D01*
X104267000Y-98933000D01*
X105460155Y-98933000D01*
X105581476Y-98703110D01*
X105411645Y-98293076D01*
X105021358Y-97864817D01*
X104878447Y-97797702D01*
X105219147Y-97570054D01*
X105541054Y-97088285D01*
X105654093Y-96520000D01*
X105541054Y-95951715D01*
X105219147Y-95469946D01*
X104889974Y-95250000D01*
X105219147Y-95030054D01*
X105541054Y-94548285D01*
X105654093Y-93980000D01*
X105541054Y-93411715D01*
X105219147Y-92929946D01*
X104889974Y-92710000D01*
X105219147Y-92490054D01*
X105541054Y-92008285D01*
X105654093Y-91440000D01*
X105541054Y-90871715D01*
X105219147Y-90389946D01*
X104889974Y-90170000D01*
X105219147Y-89950054D01*
X105541054Y-89468285D01*
X105654093Y-88900000D01*
X105541054Y-88331715D01*
X105219147Y-87849946D01*
X104889974Y-87630000D01*
X105219147Y-87410054D01*
X105541054Y-86928285D01*
X105654093Y-86360000D01*
X105541054Y-85791715D01*
X105219147Y-85309946D01*
X104889974Y-85090000D01*
X105219147Y-84870054D01*
X105541054Y-84388285D01*
X105654093Y-83820000D01*
X105541054Y-83251715D01*
X105219147Y-82769946D01*
X104889974Y-82550000D01*
X105219147Y-82330054D01*
X105541054Y-81848285D01*
X105654093Y-81280000D01*
X105541054Y-80711715D01*
X105219147Y-80229946D01*
X104889974Y-80010000D01*
X105219147Y-79790054D01*
X105541054Y-79308285D01*
X105654093Y-78740000D01*
X105541054Y-78171715D01*
X105219147Y-77689946D01*
X104737378Y-77368039D01*
X104169093Y-77255000D01*
X104110907Y-77255000D01*
X103542622Y-77368039D01*
X103060853Y-77689946D01*
X102738946Y-78171715D01*
X102625907Y-78740000D01*
X99560000Y-78740000D01*
X99560197Y-78515225D01*
X99387767Y-78097914D01*
X99068765Y-77778355D01*
X98651756Y-77605197D01*
X98200225Y-77604803D01*
X98156939Y-77622689D01*
X98131250Y-77597000D01*
X97282000Y-77597000D01*
X97282000Y-78446250D01*
X97307448Y-78471698D01*
X97290197Y-78513244D01*
X97289881Y-78875117D01*
X96930225Y-78874803D01*
X96512914Y-79047233D01*
X96193355Y-79366235D01*
X96020197Y-79783244D01*
X96019803Y-80234775D01*
X93152483Y-80234775D01*
X92936756Y-80145197D01*
X92485225Y-80144803D01*
X92441939Y-80162689D01*
X92416250Y-80137000D01*
X91567000Y-80137000D01*
X91567000Y-80986250D01*
X91592448Y-81011698D01*
X91575197Y-81053244D01*
X91574881Y-81415117D01*
X91215225Y-81414803D01*
X90797914Y-81587233D01*
X90478355Y-81906235D01*
X90305197Y-82323244D01*
X90304803Y-82774775D01*
X88472928Y-82774775D01*
X88387204Y-82688902D01*
X88052473Y-82549909D01*
X88385229Y-82412418D01*
X88761098Y-82037204D01*
X88964768Y-81546713D01*
X88965231Y-81015617D01*
X88762418Y-80524771D01*
X88533797Y-80295750D01*
X90305000Y-80295750D01*
X90305000Y-80636310D01*
X90401673Y-80869699D01*
X90580302Y-81048327D01*
X90813691Y-81145000D01*
X91154250Y-81145000D01*
X91313000Y-80986250D01*
X91313000Y-80137000D01*
X90463750Y-80137000D01*
X90305000Y-80295750D01*
X88533797Y-80295750D01*
X88387204Y-80148902D01*
X88052473Y-80009909D01*
X88385229Y-79872418D01*
X88761098Y-79497204D01*
X88808233Y-79383690D01*
X90305000Y-79383690D01*
X90305000Y-79724250D01*
X90463750Y-79883000D01*
X91313000Y-79883000D01*
X91313000Y-79033750D01*
X91567000Y-79033750D01*
X91567000Y-79883000D01*
X92416250Y-79883000D01*
X92575000Y-79724250D01*
X92575000Y-79383690D01*
X92478327Y-79150301D01*
X92299698Y-78971673D01*
X92066309Y-78875000D01*
X91725750Y-78875000D01*
X91567000Y-79033750D01*
X91313000Y-79033750D01*
X91154250Y-78875000D01*
X90813691Y-78875000D01*
X90580302Y-78971673D01*
X90401673Y-79150301D01*
X90305000Y-79383690D01*
X88808233Y-79383690D01*
X88964768Y-79006713D01*
X88965231Y-78475617D01*
X88762418Y-77984771D01*
X88533797Y-77755750D01*
X96020000Y-77755750D01*
X96020000Y-78096310D01*
X96116673Y-78329699D01*
X96295302Y-78508327D01*
X96528691Y-78605000D01*
X96869250Y-78605000D01*
X97028000Y-78446250D01*
X97028000Y-77597000D01*
X96178750Y-77597000D01*
X96020000Y-77755750D01*
X88533797Y-77755750D01*
X88387204Y-77608902D01*
X87896713Y-77405232D01*
X87365617Y-77404769D01*
X86874771Y-77607582D01*
X86691678Y-77790356D01*
X86267036Y-77506621D01*
X85756154Y-77405000D01*
X85703846Y-77405000D01*
X85192964Y-77506621D01*
X84759858Y-77796012D01*
X84470467Y-78229118D01*
X84447338Y-78345397D01*
X84329797Y-78061604D01*
X83982663Y-77673236D01*
X83513331Y-77447273D01*
X83307000Y-77569794D01*
X83053000Y-77569794D01*
X82846669Y-77447273D01*
X82377337Y-77673236D01*
X82246996Y-77819060D01*
X82037204Y-77608902D01*
X81546713Y-77405232D01*
X81015617Y-77404769D01*
X80524771Y-77607582D01*
X80148902Y-77982796D01*
X79945232Y-78473287D01*
X79944769Y-79004383D01*
X78967440Y-79004383D01*
X78967440Y-77890000D01*
X78923162Y-77654683D01*
X78784090Y-77438559D01*
X78571890Y-77293569D01*
X78320000Y-77242560D01*
X76620000Y-77242560D01*
X76384683Y-77286838D01*
X76168559Y-77425910D01*
X76023569Y-77638110D01*
X75972560Y-77890000D01*
X75972560Y-79590000D01*
X76016838Y-79825317D01*
X76155910Y-80041441D01*
X76368110Y-80186431D01*
X76435541Y-80200086D01*
X76390853Y-80229946D01*
X76068946Y-80711715D01*
X75955907Y-81280000D01*
X70560000Y-81280000D01*
X70560000Y-78478102D01*
X70580053Y-78578915D01*
X71064323Y-79303677D01*
X71789085Y-79787947D01*
X72644000Y-79958000D01*
X73498915Y-79787947D01*
X74223677Y-79303677D01*
X74707947Y-78578915D01*
X74878000Y-77724000D01*
X74707947Y-76869085D01*
X74690979Y-76843690D01*
X96020000Y-76843690D01*
X96020000Y-77184250D01*
X96178750Y-77343000D01*
X97028000Y-77343000D01*
X97028000Y-76493750D01*
X97282000Y-76493750D01*
X97282000Y-77343000D01*
X98131250Y-77343000D01*
X98290000Y-77184250D01*
X98290000Y-76843690D01*
X98193327Y-76610301D01*
X98014698Y-76431673D01*
X97781309Y-76335000D01*
X97440750Y-76335000D01*
X97282000Y-76493750D01*
X97028000Y-76493750D01*
X96869250Y-76335000D01*
X96528691Y-76335000D01*
X96295302Y-76431673D01*
X96116673Y-76610301D01*
X96020000Y-76843690D01*
X74690979Y-76843690D01*
X74223677Y-76144323D01*
X73736796Y-75819000D01*
X108127204Y-75819000D01*
X107640323Y-76144323D01*
X107640323Y-76144323D01*
G37*
X107640323Y-76144323D02*
X107156053Y-76869085D01*
X106986000Y-77724000D01*
X107156053Y-78578915D01*
X107640323Y-79303677D01*
X108365085Y-79787947D01*
X109220000Y-79958000D01*
X110074915Y-79787947D01*
X110799677Y-79303677D01*
X111050000Y-78929042D01*
X111050000Y-101265428D01*
X110857968Y-100978032D01*
X110106462Y-100475891D01*
X109220000Y-100299563D01*
X108333538Y-100475891D01*
X107582032Y-100978032D01*
X107079891Y-101729538D01*
X106903563Y-102616000D01*
X107079891Y-103502462D01*
X107582032Y-104253968D01*
X107981673Y-104521000D01*
X73736796Y-104521000D01*
X74223677Y-104195677D01*
X74707947Y-103470915D01*
X74878000Y-102616000D01*
X74746895Y-101956890D01*
X76028524Y-101956890D01*
X76198355Y-102366924D01*
X76588642Y-102795183D01*
X77113108Y-103041486D01*
X77343000Y-102920819D01*
X77343000Y-101727000D01*
X77597000Y-101727000D01*
X77597000Y-102920819D01*
X77826892Y-103041486D01*
X78351358Y-102795183D01*
X78741645Y-102366924D01*
X78911476Y-101956890D01*
X78790155Y-101727000D01*
X77597000Y-101727000D01*
X77343000Y-101727000D01*
X76149845Y-101727000D01*
X76028524Y-101956890D01*
X74746895Y-101956890D01*
X74707947Y-101761085D01*
X74223677Y-101036323D01*
X73498915Y-100552053D01*
X72644000Y-100382000D01*
X71789085Y-100552053D01*
X71064323Y-101036323D01*
X70580053Y-101761085D01*
X70560000Y-101861898D01*
X70560000Y-99416890D01*
X76028524Y-99416890D01*
X76198355Y-99826924D01*
X76588642Y-100255183D01*
X76747954Y-100330000D01*
X76588642Y-100404817D01*
X76198355Y-100833076D01*
X76028524Y-101243110D01*
X76149845Y-101473000D01*
X77343000Y-101473000D01*
X77343000Y-99187000D01*
X77597000Y-99187000D01*
X77597000Y-101473000D01*
X78790155Y-101473000D01*
X78911476Y-101243110D01*
X78741645Y-100833076D01*
X78665936Y-100750000D01*
X95022560Y-100750000D01*
X95022560Y-102450000D01*
X95066838Y-102685317D01*
X95205910Y-102901441D01*
X95418110Y-103046431D01*
X95670000Y-103097440D01*
X97370000Y-103097440D01*
X97605317Y-103053162D01*
X97821441Y-102914090D01*
X97966431Y-102701890D01*
X97980086Y-102634459D01*
X98009946Y-102679147D01*
X98491715Y-103001054D01*
X99060000Y-103114093D01*
X99628285Y-103001054D01*
X100110054Y-102679147D01*
X100431961Y-102197378D01*
X100493947Y-101885750D01*
X102655000Y-101885750D01*
X102655000Y-102576310D01*
X102751673Y-102809699D01*
X102930302Y-102988327D01*
X103163691Y-103085000D01*
X103854250Y-103085000D01*
X104013000Y-102926250D01*
X104013000Y-101727000D01*
X104267000Y-101727000D01*
X104267000Y-102926250D01*
X104425750Y-103085000D01*
X105116309Y-103085000D01*
X105349698Y-102988327D01*
X105528327Y-102809699D01*
X105625000Y-102576310D01*
X105625000Y-101885750D01*
X105466250Y-101727000D01*
X104267000Y-101727000D01*
X104013000Y-101727000D01*
X102813750Y-101727000D01*
X102655000Y-101885750D01*
X100493947Y-101885750D01*
X100545000Y-101629093D01*
X100545000Y-101570907D01*
X100431961Y-101002622D01*
X100178768Y-100623690D01*
X102655000Y-100623690D01*
X102655000Y-101314250D01*
X102813750Y-101473000D01*
X104013000Y-101473000D01*
X104013000Y-99187000D01*
X104267000Y-99187000D01*
X104267000Y-101473000D01*
X105466250Y-101473000D01*
X105625000Y-101314250D01*
X105625000Y-100623690D01*
X105528327Y-100390301D01*
X105349698Y-100211673D01*
X105140122Y-100124864D01*
X105411645Y-99826924D01*
X105581476Y-99416890D01*
X105460155Y-99187000D01*
X104267000Y-99187000D01*
X104013000Y-99187000D01*
X102819845Y-99187000D01*
X102698524Y-99416890D01*
X102868355Y-99826924D01*
X103139878Y-100124864D01*
X102930302Y-100211673D01*
X102751673Y-100390301D01*
X102655000Y-100623690D01*
X100178768Y-100623690D01*
X100110054Y-100520853D01*
X99628285Y-100198946D01*
X99060000Y-100085907D01*
X98491715Y-100198946D01*
X98009946Y-100520853D01*
X97982150Y-100562452D01*
X97973162Y-100514683D01*
X97834090Y-100298559D01*
X97621890Y-100153569D01*
X97370000Y-100102560D01*
X95670000Y-100102560D01*
X95434683Y-100146838D01*
X95218559Y-100285910D01*
X95073569Y-100498110D01*
X95022560Y-100750000D01*
X78665936Y-100750000D01*
X78351358Y-100404817D01*
X78192046Y-100330000D01*
X78351358Y-100255183D01*
X78741645Y-99826924D01*
X78911476Y-99416890D01*
X78790155Y-99187000D01*
X77597000Y-99187000D01*
X77343000Y-99187000D01*
X76149845Y-99187000D01*
X76028524Y-99416890D01*
X70560000Y-99416890D01*
X70560000Y-81280000D01*
X75955907Y-81280000D01*
X76068946Y-81848285D01*
X76390853Y-82330054D01*
X76720026Y-82550000D01*
X76390853Y-82769946D01*
X76068946Y-83251715D01*
X75955907Y-83820000D01*
X76068946Y-84388285D01*
X76390853Y-84870054D01*
X76720026Y-85090000D01*
X76390853Y-85309946D01*
X76068946Y-85791715D01*
X75955907Y-86360000D01*
X76068946Y-86928285D01*
X76390853Y-87410054D01*
X76720026Y-87630000D01*
X76390853Y-87849946D01*
X76068946Y-88331715D01*
X75955907Y-88900000D01*
X76068946Y-89468285D01*
X76390853Y-89950054D01*
X76720026Y-90170000D01*
X76390853Y-90389946D01*
X76068946Y-90871715D01*
X75955907Y-91440000D01*
X76068946Y-92008285D01*
X76390853Y-92490054D01*
X76720026Y-92710000D01*
X76390853Y-92929946D01*
X76068946Y-93411715D01*
X75955907Y-93980000D01*
X76068946Y-94548285D01*
X76390853Y-95030054D01*
X76720026Y-95250000D01*
X76390853Y-95469946D01*
X76068946Y-95951715D01*
X75955907Y-96520000D01*
X76068946Y-97088285D01*
X76390853Y-97570054D01*
X76731553Y-97797702D01*
X76588642Y-97864817D01*
X76198355Y-98293076D01*
X76028524Y-98703110D01*
X76149845Y-98933000D01*
X77343000Y-98933000D01*
X77343000Y-98913000D01*
X77597000Y-98913000D01*
X77597000Y-98933000D01*
X78790155Y-98933000D01*
X78911476Y-98703110D01*
X78741645Y-98293076D01*
X78488020Y-98014775D01*
X90304803Y-98014775D01*
X90477233Y-98432086D01*
X90796235Y-98751645D01*
X91213244Y-98924803D01*
X91664775Y-98925197D01*
X92082086Y-98752767D01*
X92401645Y-98433765D01*
X92574803Y-98016756D01*
X92575119Y-97654883D01*
X92934775Y-97655197D01*
X93352086Y-97482767D01*
X93671645Y-97163765D01*
X93844803Y-96746756D01*
X93845197Y-96295225D01*
X93672767Y-95877914D01*
X93353765Y-95558355D01*
X93152483Y-95474775D01*
X96019803Y-95474775D01*
X96192233Y-95892086D01*
X96511235Y-96211645D01*
X96928244Y-96384803D01*
X97379775Y-96385197D01*
X97797086Y-96212767D01*
X98116645Y-95893765D01*
X98289803Y-95476756D01*
X98290119Y-95114883D01*
X98649775Y-95115197D01*
X99067086Y-94942767D01*
X99386645Y-94623765D01*
X99559803Y-94206756D01*
X99560197Y-93755225D01*
X99387767Y-93337914D01*
X99068765Y-93018355D01*
X98651756Y-92845197D01*
X98200225Y-92844803D01*
X98156939Y-92862689D01*
X98131250Y-92837000D01*
X97282000Y-92837000D01*
X97282000Y-93686250D01*
X97307448Y-93711698D01*
X97290197Y-93753244D01*
X97289881Y-94115117D01*
X96930225Y-94114803D01*
X96512914Y-94287233D01*
X96193355Y-94606235D01*
X96020197Y-95023244D01*
X96019803Y-95474775D01*
X93152483Y-95474775D01*
X92936756Y-95385197D01*
X92485225Y-95384803D01*
X92441939Y-95402689D01*
X92416250Y-95377000D01*
X91567000Y-95377000D01*
X91567000Y-96226250D01*
X91592448Y-96251698D01*
X91575197Y-96293244D01*
X91574881Y-96655117D01*
X91215225Y-96654803D01*
X90797914Y-96827233D01*
X90478355Y-97146235D01*
X90305197Y-97563244D01*
X90304803Y-98014775D01*
X78488020Y-98014775D01*
X78351358Y-97864817D01*
X78208447Y-97797702D01*
X78549147Y-97570054D01*
X78871054Y-97088285D01*
X78984093Y-96520000D01*
X78871054Y-95951715D01*
X78549147Y-95469946D01*
X78219974Y-95250000D01*
X78549147Y-95030054D01*
X78871054Y-94548285D01*
X78984093Y-93980000D01*
X78871054Y-93411715D01*
X78549147Y-92929946D01*
X78219974Y-92710000D01*
X78549147Y-92490054D01*
X78871054Y-92008285D01*
X78984093Y-91440000D01*
X78871054Y-90871715D01*
X78549147Y-90389946D01*
X78219974Y-90170000D01*
X78549147Y-89950054D01*
X78871054Y-89468285D01*
X78984093Y-88900000D01*
X78871054Y-88331715D01*
X78549147Y-87849946D01*
X78219974Y-87630000D01*
X78549147Y-87410054D01*
X78871054Y-86928285D01*
X78984093Y-86360000D01*
X78871054Y-85791715D01*
X78549147Y-85309946D01*
X78219974Y-85090000D01*
X78549147Y-84870054D01*
X78871054Y-84388285D01*
X78984093Y-83820000D01*
X78871054Y-83251715D01*
X78549147Y-82769946D01*
X78219974Y-82550000D01*
X78549147Y-82330054D01*
X78871054Y-81848285D01*
X78984093Y-81280000D01*
X78871054Y-80711715D01*
X78549147Y-80229946D01*
X78507548Y-80202150D01*
X78555317Y-80193162D01*
X78771441Y-80054090D01*
X78916431Y-79841890D01*
X78967440Y-79590000D01*
X78967440Y-79004383D01*
X79944769Y-79004383D01*
X80147582Y-79495229D01*
X80522796Y-79871098D01*
X80857527Y-80010091D01*
X80524771Y-80147582D01*
X80148902Y-80522796D01*
X79945232Y-81013287D01*
X79944769Y-81544383D01*
X80147582Y-82035229D01*
X80522796Y-82411098D01*
X80857527Y-82550091D01*
X80524771Y-82687582D01*
X80148902Y-83062796D01*
X79945232Y-83553287D01*
X79944769Y-84084383D01*
X80147582Y-84575229D01*
X80522796Y-84951098D01*
X80857527Y-85090091D01*
X80524771Y-85227582D01*
X80148902Y-85602796D01*
X79945232Y-86093287D01*
X79944769Y-86624383D01*
X80147582Y-87115229D01*
X80522796Y-87491098D01*
X80857527Y-87630091D01*
X80524771Y-87767582D01*
X80148902Y-88142796D01*
X79945232Y-88633287D01*
X79944769Y-89164383D01*
X80147582Y-89655229D01*
X80522796Y-90031098D01*
X80857527Y-90170091D01*
X80524771Y-90307582D01*
X80148902Y-90682796D01*
X79945232Y-91173287D01*
X79944769Y-91704383D01*
X80147582Y-92195229D01*
X80522796Y-92571098D01*
X80857527Y-92710091D01*
X80524771Y-92847582D01*
X80148902Y-93222796D01*
X79945232Y-93713287D01*
X79944769Y-94244383D01*
X80147582Y-94735229D01*
X80522796Y-95111098D01*
X80857527Y-95250091D01*
X80524771Y-95387582D01*
X80148902Y-95762796D01*
X79945232Y-96253287D01*
X79944769Y-96784383D01*
X80147582Y-97275229D01*
X80522796Y-97651098D01*
X81013287Y-97854768D01*
X81544383Y-97855231D01*
X82035229Y-97652418D01*
X82247034Y-97440983D01*
X82377337Y-97586764D01*
X82846669Y-97812727D01*
X83053000Y-97690206D01*
X83053000Y-96647000D01*
X83033000Y-96647000D01*
X83033000Y-96393000D01*
X83053000Y-96393000D01*
X83053000Y-95349794D01*
X82884942Y-95250000D01*
X83053000Y-95150206D01*
X83053000Y-94107000D01*
X83033000Y-94107000D01*
X83033000Y-93853000D01*
X83053000Y-93853000D01*
X83053000Y-92809794D01*
X82884942Y-92710000D01*
X83053000Y-92610206D01*
X83053000Y-91567000D01*
X83033000Y-91567000D01*
X83033000Y-91313000D01*
X83053000Y-91313000D01*
X83053000Y-90269794D01*
X82884942Y-90170000D01*
X83053000Y-90070206D01*
X83053000Y-89027000D01*
X83033000Y-89027000D01*
X83033000Y-88773000D01*
X83053000Y-88773000D01*
X83053000Y-87729794D01*
X82884942Y-87630000D01*
X83053000Y-87530206D01*
X83053000Y-86487000D01*
X83033000Y-86487000D01*
X83033000Y-86233000D01*
X83053000Y-86233000D01*
X83053000Y-85189794D01*
X82884942Y-85090000D01*
X83053000Y-84990206D01*
X83053000Y-83947000D01*
X83033000Y-83947000D01*
X83033000Y-83693000D01*
X83053000Y-83693000D01*
X83053000Y-82649794D01*
X82884942Y-82550000D01*
X83053000Y-82450206D01*
X83053000Y-81407000D01*
X83033000Y-81407000D01*
X83033000Y-81153000D01*
X83053000Y-81153000D01*
X83053000Y-80109794D01*
X82884942Y-80010000D01*
X83053000Y-79910206D01*
X83053000Y-78867000D01*
X83033000Y-78867000D01*
X83033000Y-78613000D01*
X83053000Y-78613000D01*
X83053000Y-77569794D01*
X83307000Y-77569794D01*
X83307000Y-78613000D01*
X83327000Y-78613000D01*
X83327000Y-78867000D01*
X83307000Y-78867000D01*
X83307000Y-79910206D01*
X83475058Y-80010000D01*
X83307000Y-80109794D01*
X83307000Y-81153000D01*
X83327000Y-81153000D01*
X83327000Y-81407000D01*
X83307000Y-81407000D01*
X83307000Y-82450206D01*
X83475058Y-82550000D01*
X83307000Y-82649794D01*
X83307000Y-83693000D01*
X83327000Y-83693000D01*
X83327000Y-83947000D01*
X83307000Y-83947000D01*
X83307000Y-84990206D01*
X83475058Y-85090000D01*
X83307000Y-85189794D01*
X83307000Y-86233000D01*
X83327000Y-86233000D01*
X83327000Y-86487000D01*
X83307000Y-86487000D01*
X83307000Y-87530206D01*
X83475058Y-87630000D01*
X83307000Y-87729794D01*
X83307000Y-88773000D01*
X83327000Y-88773000D01*
X83327000Y-89027000D01*
X83307000Y-89027000D01*
X83307000Y-90070206D01*
X83475058Y-90170000D01*
X83307000Y-90269794D01*
X83307000Y-91313000D01*
X83327000Y-91313000D01*
X83327000Y-91567000D01*
X83307000Y-91567000D01*
X83307000Y-92610206D01*
X83475058Y-92710000D01*
X83307000Y-92809794D01*
X83307000Y-93853000D01*
X83327000Y-93853000D01*
X83327000Y-94107000D01*
X83307000Y-94107000D01*
X83307000Y-95150206D01*
X83475058Y-95250000D01*
X83307000Y-95349794D01*
X83307000Y-96393000D01*
X83327000Y-96393000D01*
X83327000Y-96647000D01*
X83307000Y-96647000D01*
X83307000Y-97690206D01*
X83513331Y-97812727D01*
X83982663Y-97586764D01*
X84329797Y-97198396D01*
X84447338Y-96914603D01*
X84470467Y-97030882D01*
X84759858Y-97463988D01*
X85192964Y-97753379D01*
X85703846Y-97855000D01*
X85756154Y-97855000D01*
X86267036Y-97753379D01*
X86691666Y-97469652D01*
X86872796Y-97651098D01*
X87363287Y-97854768D01*
X87894383Y-97855231D01*
X88385229Y-97652418D01*
X88761098Y-97277204D01*
X88964768Y-96786713D01*
X88965231Y-96255617D01*
X88762418Y-95764771D01*
X88533797Y-95535750D01*
X90305000Y-95535750D01*
X90305000Y-95876310D01*
X90401673Y-96109699D01*
X90580302Y-96288327D01*
X90813691Y-96385000D01*
X91154250Y-96385000D01*
X91313000Y-96226250D01*
X91313000Y-95377000D01*
X90463750Y-95377000D01*
X90305000Y-95535750D01*
X88533797Y-95535750D01*
X88387204Y-95388902D01*
X88052473Y-95249909D01*
X88385229Y-95112418D01*
X88761098Y-94737204D01*
X88808233Y-94623690D01*
X90305000Y-94623690D01*
X90305000Y-94964250D01*
X90463750Y-95123000D01*
X91313000Y-95123000D01*
X91313000Y-94273750D01*
X91567000Y-94273750D01*
X91567000Y-95123000D01*
X92416250Y-95123000D01*
X92575000Y-94964250D01*
X92575000Y-94623690D01*
X92478327Y-94390301D01*
X92299698Y-94211673D01*
X92066309Y-94115000D01*
X91725750Y-94115000D01*
X91567000Y-94273750D01*
X91313000Y-94273750D01*
X91154250Y-94115000D01*
X90813691Y-94115000D01*
X90580302Y-94211673D01*
X90401673Y-94390301D01*
X90305000Y-94623690D01*
X88808233Y-94623690D01*
X88964768Y-94246713D01*
X88965231Y-93715617D01*
X88762418Y-93224771D01*
X88472928Y-92934775D01*
X90304803Y-92934775D01*
X90477233Y-93352086D01*
X90796235Y-93671645D01*
X91213244Y-93844803D01*
X91664775Y-93845197D01*
X92082086Y-93672767D01*
X92401645Y-93353765D01*
X92550306Y-92995750D01*
X96020000Y-92995750D01*
X96020000Y-93336310D01*
X96116673Y-93569699D01*
X96295302Y-93748327D01*
X96528691Y-93845000D01*
X96869250Y-93845000D01*
X97028000Y-93686250D01*
X97028000Y-92837000D01*
X96178750Y-92837000D01*
X96020000Y-92995750D01*
X92550306Y-92995750D01*
X92574803Y-92936756D01*
X92575119Y-92574883D01*
X92934775Y-92575197D01*
X93352086Y-92402767D01*
X93671645Y-92083765D01*
X93671676Y-92083690D01*
X96020000Y-92083690D01*
X96020000Y-92424250D01*
X96178750Y-92583000D01*
X97028000Y-92583000D01*
X97028000Y-91733750D01*
X97282000Y-91733750D01*
X97282000Y-92583000D01*
X98131250Y-92583000D01*
X98290000Y-92424250D01*
X98290000Y-92083690D01*
X98193327Y-91850301D01*
X98014698Y-91671673D01*
X97781309Y-91575000D01*
X97440750Y-91575000D01*
X97282000Y-91733750D01*
X97028000Y-91733750D01*
X96869250Y-91575000D01*
X96528691Y-91575000D01*
X96295302Y-91671673D01*
X96116673Y-91850301D01*
X96020000Y-92083690D01*
X93671676Y-92083690D01*
X93844803Y-91666756D01*
X93845197Y-91215225D01*
X93672767Y-90797914D01*
X93353765Y-90478355D01*
X93152483Y-90394775D01*
X96019803Y-90394775D01*
X96192233Y-90812086D01*
X96511235Y-91131645D01*
X96928244Y-91304803D01*
X97379775Y-91305197D01*
X97797086Y-91132767D01*
X98116645Y-90813765D01*
X98289803Y-90396756D01*
X98290119Y-90034883D01*
X98649775Y-90035197D01*
X99067086Y-89862767D01*
X99386645Y-89543765D01*
X99559803Y-89126756D01*
X99560197Y-88675225D01*
X99387767Y-88257914D01*
X99068765Y-87938355D01*
X98651756Y-87765197D01*
X98200225Y-87764803D01*
X98156939Y-87782689D01*
X98131250Y-87757000D01*
X97282000Y-87757000D01*
X97282000Y-88606250D01*
X97307448Y-88631698D01*
X97290197Y-88673244D01*
X97289881Y-89035117D01*
X96930225Y-89034803D01*
X96512914Y-89207233D01*
X96193355Y-89526235D01*
X96020197Y-89943244D01*
X96019803Y-90394775D01*
X93152483Y-90394775D01*
X92936756Y-90305197D01*
X92485225Y-90304803D01*
X92441939Y-90322689D01*
X92416250Y-90297000D01*
X91567000Y-90297000D01*
X91567000Y-91146250D01*
X91592448Y-91171698D01*
X91575197Y-91213244D01*
X91574881Y-91575117D01*
X91215225Y-91574803D01*
X90797914Y-91747233D01*
X90478355Y-92066235D01*
X90305197Y-92483244D01*
X90304803Y-92934775D01*
X88472928Y-92934775D01*
X88387204Y-92848902D01*
X88052473Y-92709909D01*
X88385229Y-92572418D01*
X88761098Y-92197204D01*
X88964768Y-91706713D01*
X88965231Y-91175617D01*
X88762418Y-90684771D01*
X88533797Y-90455750D01*
X90305000Y-90455750D01*
X90305000Y-90796310D01*
X90401673Y-91029699D01*
X90580302Y-91208327D01*
X90813691Y-91305000D01*
X91154250Y-91305000D01*
X91313000Y-91146250D01*
X91313000Y-90297000D01*
X90463750Y-90297000D01*
X90305000Y-90455750D01*
X88533797Y-90455750D01*
X88387204Y-90308902D01*
X88052473Y-90169909D01*
X88385229Y-90032418D01*
X88761098Y-89657204D01*
X88808233Y-89543690D01*
X90305000Y-89543690D01*
X90305000Y-89884250D01*
X90463750Y-90043000D01*
X91313000Y-90043000D01*
X91313000Y-89193750D01*
X91567000Y-89193750D01*
X91567000Y-90043000D01*
X92416250Y-90043000D01*
X92575000Y-89884250D01*
X92575000Y-89543690D01*
X92478327Y-89310301D01*
X92299698Y-89131673D01*
X92066309Y-89035000D01*
X91725750Y-89035000D01*
X91567000Y-89193750D01*
X91313000Y-89193750D01*
X91154250Y-89035000D01*
X90813691Y-89035000D01*
X90580302Y-89131673D01*
X90401673Y-89310301D01*
X90305000Y-89543690D01*
X88808233Y-89543690D01*
X88964768Y-89166713D01*
X88965231Y-88635617D01*
X88762418Y-88144771D01*
X88472928Y-87854775D01*
X90304803Y-87854775D01*
X90477233Y-88272086D01*
X90796235Y-88591645D01*
X91213244Y-88764803D01*
X91664775Y-88765197D01*
X92082086Y-88592767D01*
X92401645Y-88273765D01*
X92550306Y-87915750D01*
X96020000Y-87915750D01*
X96020000Y-88256310D01*
X96116673Y-88489699D01*
X96295302Y-88668327D01*
X96528691Y-88765000D01*
X96869250Y-88765000D01*
X97028000Y-88606250D01*
X97028000Y-87757000D01*
X96178750Y-87757000D01*
X96020000Y-87915750D01*
X92550306Y-87915750D01*
X92574803Y-87856756D01*
X92575119Y-87494883D01*
X92934775Y-87495197D01*
X93352086Y-87322767D01*
X93671645Y-87003765D01*
X93671676Y-87003690D01*
X96020000Y-87003690D01*
X96020000Y-87344250D01*
X96178750Y-87503000D01*
X97028000Y-87503000D01*
X97028000Y-86653750D01*
X97282000Y-86653750D01*
X97282000Y-87503000D01*
X98131250Y-87503000D01*
X98290000Y-87344250D01*
X98290000Y-87003690D01*
X98193327Y-86770301D01*
X98014698Y-86591673D01*
X97781309Y-86495000D01*
X97440750Y-86495000D01*
X97282000Y-86653750D01*
X97028000Y-86653750D01*
X96869250Y-86495000D01*
X96528691Y-86495000D01*
X96295302Y-86591673D01*
X96116673Y-86770301D01*
X96020000Y-87003690D01*
X93671676Y-87003690D01*
X93844803Y-86586756D01*
X93845197Y-86135225D01*
X93672767Y-85717914D01*
X93353765Y-85398355D01*
X93152483Y-85314775D01*
X96019803Y-85314775D01*
X96192233Y-85732086D01*
X96511235Y-86051645D01*
X96928244Y-86224803D01*
X97379775Y-86225197D01*
X97797086Y-86052767D01*
X98116645Y-85733765D01*
X98289803Y-85316756D01*
X98290119Y-84954883D01*
X98649775Y-84955197D01*
X99067086Y-84782767D01*
X99386645Y-84463765D01*
X99559803Y-84046756D01*
X99560197Y-83595225D01*
X99387767Y-83177914D01*
X99068765Y-82858355D01*
X98651756Y-82685197D01*
X98200225Y-82684803D01*
X98156939Y-82702689D01*
X98131250Y-82677000D01*
X97282000Y-82677000D01*
X97282000Y-83526250D01*
X97307448Y-83551698D01*
X97290197Y-83593244D01*
X97289881Y-83955117D01*
X96930225Y-83954803D01*
X96512914Y-84127233D01*
X96193355Y-84446235D01*
X96020197Y-84863244D01*
X96019803Y-85314775D01*
X93152483Y-85314775D01*
X92936756Y-85225197D01*
X92485225Y-85224803D01*
X92441939Y-85242689D01*
X92416250Y-85217000D01*
X91567000Y-85217000D01*
X91567000Y-86066250D01*
X91592448Y-86091698D01*
X91575197Y-86133244D01*
X91574881Y-86495117D01*
X91215225Y-86494803D01*
X90797914Y-86667233D01*
X90478355Y-86986235D01*
X90305197Y-87403244D01*
X90304803Y-87854775D01*
X88472928Y-87854775D01*
X88387204Y-87768902D01*
X88052473Y-87629909D01*
X88385229Y-87492418D01*
X88761098Y-87117204D01*
X88964768Y-86626713D01*
X88965231Y-86095617D01*
X88762418Y-85604771D01*
X88533797Y-85375750D01*
X90305000Y-85375750D01*
X90305000Y-85716310D01*
X90401673Y-85949699D01*
X90580302Y-86128327D01*
X90813691Y-86225000D01*
X91154250Y-86225000D01*
X91313000Y-86066250D01*
X91313000Y-85217000D01*
X90463750Y-85217000D01*
X90305000Y-85375750D01*
X88533797Y-85375750D01*
X88387204Y-85228902D01*
X88052473Y-85089909D01*
X88385229Y-84952418D01*
X88761098Y-84577204D01*
X88808233Y-84463690D01*
X90305000Y-84463690D01*
X90305000Y-84804250D01*
X90463750Y-84963000D01*
X91313000Y-84963000D01*
X91313000Y-84113750D01*
X91567000Y-84113750D01*
X91567000Y-84963000D01*
X92416250Y-84963000D01*
X92575000Y-84804250D01*
X92575000Y-84463690D01*
X92478327Y-84230301D01*
X92299698Y-84051673D01*
X92066309Y-83955000D01*
X91725750Y-83955000D01*
X91567000Y-84113750D01*
X91313000Y-84113750D01*
X91154250Y-83955000D01*
X90813691Y-83955000D01*
X90580302Y-84051673D01*
X90401673Y-84230301D01*
X90305000Y-84463690D01*
X88808233Y-84463690D01*
X88964768Y-84086713D01*
X88965231Y-83555617D01*
X88762418Y-83064771D01*
X88472928Y-82774775D01*
X90304803Y-82774775D01*
X90477233Y-83192086D01*
X90796235Y-83511645D01*
X91213244Y-83684803D01*
X91664775Y-83685197D01*
X92082086Y-83512767D01*
X92401645Y-83193765D01*
X92550306Y-82835750D01*
X96020000Y-82835750D01*
X96020000Y-83176310D01*
X96116673Y-83409699D01*
X96295302Y-83588327D01*
X96528691Y-83685000D01*
X96869250Y-83685000D01*
X97028000Y-83526250D01*
X97028000Y-82677000D01*
X96178750Y-82677000D01*
X96020000Y-82835750D01*
X92550306Y-82835750D01*
X92574803Y-82776756D01*
X92575119Y-82414883D01*
X92934775Y-82415197D01*
X93352086Y-82242767D01*
X93671645Y-81923765D01*
X93671676Y-81923690D01*
X96020000Y-81923690D01*
X96020000Y-82264250D01*
X96178750Y-82423000D01*
X97028000Y-82423000D01*
X97028000Y-81573750D01*
X97282000Y-81573750D01*
X97282000Y-82423000D01*
X98131250Y-82423000D01*
X98290000Y-82264250D01*
X98290000Y-81923690D01*
X98193327Y-81690301D01*
X98014698Y-81511673D01*
X97781309Y-81415000D01*
X97440750Y-81415000D01*
X97282000Y-81573750D01*
X97028000Y-81573750D01*
X96869250Y-81415000D01*
X96528691Y-81415000D01*
X96295302Y-81511673D01*
X96116673Y-81690301D01*
X96020000Y-81923690D01*
X93671676Y-81923690D01*
X93844803Y-81506756D01*
X93845197Y-81055225D01*
X93672767Y-80637914D01*
X93353765Y-80318355D01*
X93152483Y-80234775D01*
X96019803Y-80234775D01*
X96192233Y-80652086D01*
X96511235Y-80971645D01*
X96928244Y-81144803D01*
X97379775Y-81145197D01*
X97797086Y-80972767D01*
X98116645Y-80653765D01*
X98289803Y-80236756D01*
X98290119Y-79874883D01*
X98649775Y-79875197D01*
X99067086Y-79702767D01*
X99386645Y-79383765D01*
X99559803Y-78966756D01*
X99560000Y-78740000D01*
X102625907Y-78740000D01*
X102738946Y-79308285D01*
X103060853Y-79790054D01*
X103390026Y-80010000D01*
X103060853Y-80229946D01*
X102738946Y-80711715D01*
X102625907Y-81280000D01*
X102738946Y-81848285D01*
X103060853Y-82330054D01*
X103390026Y-82550000D01*
X103060853Y-82769946D01*
X102738946Y-83251715D01*
X102625907Y-83820000D01*
X102738946Y-84388285D01*
X103060853Y-84870054D01*
X103390026Y-85090000D01*
X103060853Y-85309946D01*
X102738946Y-85791715D01*
X102625907Y-86360000D01*
X102738946Y-86928285D01*
X103060853Y-87410054D01*
X103390026Y-87630000D01*
X103060853Y-87849946D01*
X102738946Y-88331715D01*
X102625907Y-88900000D01*
X102738946Y-89468285D01*
X103060853Y-89950054D01*
X103390026Y-90170000D01*
X103060853Y-90389946D01*
X102738946Y-90871715D01*
X102625907Y-91440000D01*
X102738946Y-92008285D01*
X103060853Y-92490054D01*
X103390026Y-92710000D01*
X103060853Y-92929946D01*
X102738946Y-93411715D01*
X102625907Y-93980000D01*
X102738946Y-94548285D01*
X103060853Y-95030054D01*
X103390026Y-95250000D01*
X103060853Y-95469946D01*
X102738946Y-95951715D01*
X102625907Y-96520000D01*
X102738946Y-97088285D01*
X103060853Y-97570054D01*
X103401553Y-97797702D01*
X103258642Y-97864817D01*
X102868355Y-98293076D01*
X102698524Y-98703110D01*
X102819845Y-98933000D01*
X104013000Y-98933000D01*
X104013000Y-98913000D01*
X104267000Y-98913000D01*
X104267000Y-98933000D01*
X105460155Y-98933000D01*
X105581476Y-98703110D01*
X105411645Y-98293076D01*
X105021358Y-97864817D01*
X104878447Y-97797702D01*
X105219147Y-97570054D01*
X105541054Y-97088285D01*
X105654093Y-96520000D01*
X105541054Y-95951715D01*
X105219147Y-95469946D01*
X104889974Y-95250000D01*
X105219147Y-95030054D01*
X105541054Y-94548285D01*
X105654093Y-93980000D01*
X105541054Y-93411715D01*
X105219147Y-92929946D01*
X104889974Y-92710000D01*
X105219147Y-92490054D01*
X105541054Y-92008285D01*
X105654093Y-91440000D01*
X105541054Y-90871715D01*
X105219147Y-90389946D01*
X104889974Y-90170000D01*
X105219147Y-89950054D01*
X105541054Y-89468285D01*
X105654093Y-88900000D01*
X105541054Y-88331715D01*
X105219147Y-87849946D01*
X104889974Y-87630000D01*
X105219147Y-87410054D01*
X105541054Y-86928285D01*
X105654093Y-86360000D01*
X105541054Y-85791715D01*
X105219147Y-85309946D01*
X104889974Y-85090000D01*
X105219147Y-84870054D01*
X105541054Y-84388285D01*
X105654093Y-83820000D01*
X105541054Y-83251715D01*
X105219147Y-82769946D01*
X104889974Y-82550000D01*
X105219147Y-82330054D01*
X105541054Y-81848285D01*
X105654093Y-81280000D01*
X105541054Y-80711715D01*
X105219147Y-80229946D01*
X104889974Y-80010000D01*
X105219147Y-79790054D01*
X105541054Y-79308285D01*
X105654093Y-78740000D01*
X105541054Y-78171715D01*
X105219147Y-77689946D01*
X104737378Y-77368039D01*
X104169093Y-77255000D01*
X104110907Y-77255000D01*
X103542622Y-77368039D01*
X103060853Y-77689946D01*
X102738946Y-78171715D01*
X102625907Y-78740000D01*
X99560000Y-78740000D01*
X99560197Y-78515225D01*
X99387767Y-78097914D01*
X99068765Y-77778355D01*
X98651756Y-77605197D01*
X98200225Y-77604803D01*
X98156939Y-77622689D01*
X98131250Y-77597000D01*
X97282000Y-77597000D01*
X97282000Y-78446250D01*
X97307448Y-78471698D01*
X97290197Y-78513244D01*
X97289881Y-78875117D01*
X96930225Y-78874803D01*
X96512914Y-79047233D01*
X96193355Y-79366235D01*
X96020197Y-79783244D01*
X96019803Y-80234775D01*
X93152483Y-80234775D01*
X92936756Y-80145197D01*
X92485225Y-80144803D01*
X92441939Y-80162689D01*
X92416250Y-80137000D01*
X91567000Y-80137000D01*
X91567000Y-80986250D01*
X91592448Y-81011698D01*
X91575197Y-81053244D01*
X91574881Y-81415117D01*
X91215225Y-81414803D01*
X90797914Y-81587233D01*
X90478355Y-81906235D01*
X90305197Y-82323244D01*
X90304803Y-82774775D01*
X88472928Y-82774775D01*
X88387204Y-82688902D01*
X88052473Y-82549909D01*
X88385229Y-82412418D01*
X88761098Y-82037204D01*
X88964768Y-81546713D01*
X88965231Y-81015617D01*
X88762418Y-80524771D01*
X88533797Y-80295750D01*
X90305000Y-80295750D01*
X90305000Y-80636310D01*
X90401673Y-80869699D01*
X90580302Y-81048327D01*
X90813691Y-81145000D01*
X91154250Y-81145000D01*
X91313000Y-80986250D01*
X91313000Y-80137000D01*
X90463750Y-80137000D01*
X90305000Y-80295750D01*
X88533797Y-80295750D01*
X88387204Y-80148902D01*
X88052473Y-80009909D01*
X88385229Y-79872418D01*
X88761098Y-79497204D01*
X88808233Y-79383690D01*
X90305000Y-79383690D01*
X90305000Y-79724250D01*
X90463750Y-79883000D01*
X91313000Y-79883000D01*
X91313000Y-79033750D01*
X91567000Y-79033750D01*
X91567000Y-79883000D01*
X92416250Y-79883000D01*
X92575000Y-79724250D01*
X92575000Y-79383690D01*
X92478327Y-79150301D01*
X92299698Y-78971673D01*
X92066309Y-78875000D01*
X91725750Y-78875000D01*
X91567000Y-79033750D01*
X91313000Y-79033750D01*
X91154250Y-78875000D01*
X90813691Y-78875000D01*
X90580302Y-78971673D01*
X90401673Y-79150301D01*
X90305000Y-79383690D01*
X88808233Y-79383690D01*
X88964768Y-79006713D01*
X88965231Y-78475617D01*
X88762418Y-77984771D01*
X88533797Y-77755750D01*
X96020000Y-77755750D01*
X96020000Y-78096310D01*
X96116673Y-78329699D01*
X96295302Y-78508327D01*
X96528691Y-78605000D01*
X96869250Y-78605000D01*
X97028000Y-78446250D01*
X97028000Y-77597000D01*
X96178750Y-77597000D01*
X96020000Y-77755750D01*
X88533797Y-77755750D01*
X88387204Y-77608902D01*
X87896713Y-77405232D01*
X87365617Y-77404769D01*
X86874771Y-77607582D01*
X86691678Y-77790356D01*
X86267036Y-77506621D01*
X85756154Y-77405000D01*
X85703846Y-77405000D01*
X85192964Y-77506621D01*
X84759858Y-77796012D01*
X84470467Y-78229118D01*
X84447338Y-78345397D01*
X84329797Y-78061604D01*
X83982663Y-77673236D01*
X83513331Y-77447273D01*
X83307000Y-77569794D01*
X83053000Y-77569794D01*
X82846669Y-77447273D01*
X82377337Y-77673236D01*
X82246996Y-77819060D01*
X82037204Y-77608902D01*
X81546713Y-77405232D01*
X81015617Y-77404769D01*
X80524771Y-77607582D01*
X80148902Y-77982796D01*
X79945232Y-78473287D01*
X79944769Y-79004383D01*
X78967440Y-79004383D01*
X78967440Y-77890000D01*
X78923162Y-77654683D01*
X78784090Y-77438559D01*
X78571890Y-77293569D01*
X78320000Y-77242560D01*
X76620000Y-77242560D01*
X76384683Y-77286838D01*
X76168559Y-77425910D01*
X76023569Y-77638110D01*
X75972560Y-77890000D01*
X75972560Y-79590000D01*
X76016838Y-79825317D01*
X76155910Y-80041441D01*
X76368110Y-80186431D01*
X76435541Y-80200086D01*
X76390853Y-80229946D01*
X76068946Y-80711715D01*
X75955907Y-81280000D01*
X70560000Y-81280000D01*
X70560000Y-78478102D01*
X70580053Y-78578915D01*
X71064323Y-79303677D01*
X71789085Y-79787947D01*
X72644000Y-79958000D01*
X73498915Y-79787947D01*
X74223677Y-79303677D01*
X74707947Y-78578915D01*
X74878000Y-77724000D01*
X74707947Y-76869085D01*
X74690979Y-76843690D01*
X96020000Y-76843690D01*
X96020000Y-77184250D01*
X96178750Y-77343000D01*
X97028000Y-77343000D01*
X97028000Y-76493750D01*
X97282000Y-76493750D01*
X97282000Y-77343000D01*
X98131250Y-77343000D01*
X98290000Y-77184250D01*
X98290000Y-76843690D01*
X98193327Y-76610301D01*
X98014698Y-76431673D01*
X97781309Y-76335000D01*
X97440750Y-76335000D01*
X97282000Y-76493750D01*
X97028000Y-76493750D01*
X96869250Y-76335000D01*
X96528691Y-76335000D01*
X96295302Y-76431673D01*
X96116673Y-76610301D01*
X96020000Y-76843690D01*
X74690979Y-76843690D01*
X74223677Y-76144323D01*
X73736796Y-75819000D01*
X108127204Y-75819000D01*
X107640323Y-76144323D01*
M02*
