M48
;DRILL file {KiCad 4.0.7} date 07/06/18 16:03:33
;FORMAT={-:-/ absolute / inch / decimal}
FMAT,2
INCH,TZ
T1C0.024
T2C0.028
T3C0.039
%
G90
G05
M72
T1
X3.6Y-3.15
X3.6Y-3.25
X3.6Y-3.35
X3.6Y-3.45
X3.6Y-3.55
X3.6Y-3.65
X3.6Y-3.75
X3.6Y-3.85
X3.65Y-3.2
X3.65Y-3.4
X3.65Y-3.6
X3.65Y-3.8
X3.825Y-3.05
X3.825Y-3.15
X3.825Y-3.25
X3.825Y-3.35
X3.825Y-3.45
X3.825Y-3.55
X3.825Y-3.65
X3.825Y-3.75
X3.875Y-3.1
X3.875Y-3.3
X3.875Y-3.5
X3.875Y-3.7
T2
X3.2Y-3.1
X3.2Y-3.2
X3.2Y-3.3
X3.2Y-3.4
X3.2Y-3.5
X3.2Y-3.6
X3.2Y-3.7
X3.2Y-3.8
X3.2748Y-3.1
X3.2748Y-3.2
X3.2748Y-3.3
X3.2748Y-3.4
X3.2748Y-3.5
X3.2748Y-3.6
X3.2748Y-3.7
X3.2748Y-3.8
X3.3752Y-3.1
X3.3752Y-3.2
X3.3752Y-3.3
X3.3752Y-3.4
X3.3752Y-3.5
X3.3752Y-3.6
X3.3752Y-3.7
X3.3752Y-3.8
X3.45Y-3.1
X3.45Y-3.2
X3.45Y-3.3
X3.45Y-3.4
X3.45Y-3.5
X3.45Y-3.6
X3.45Y-3.7
X3.45Y-3.8
T3
X3.05Y-3.1
X3.05Y-3.2
X3.05Y-3.3
X3.05Y-3.4
X3.05Y-3.5
X3.05Y-3.6
X3.05Y-3.7
X3.05Y-3.8
X3.05Y-3.9
X3.05Y-4.
X3.8Y-4.
X3.9Y-4.
X4.1Y-3.1
X4.1Y-3.2
X4.1Y-3.3
X4.1Y-3.4
X4.1Y-3.5
X4.1Y-3.6
X4.1Y-3.7
X4.1Y-3.8
X4.1Y-3.9
X4.1Y-4.
T0
M30
