G04 #@! TF.FileFunction,Soldermask,Top*
%FSLAX46Y46*%
G04 Gerber Fmt 4.6, Leading zero omitted, Abs format (unit mm)*
G04 Created by KiCad (PCBNEW 4.0.7) date 07/06/18 16:03:28*
%MOMM*%
%LPD*%
G01*
G04 APERTURE LIST*
%ADD10C,0.100000*%
%ADD11R,2.100000X2.100000*%
%ADD12O,2.100000X2.100000*%
%ADD13C,1.400000*%
%ADD14R,1.400000X1.400000*%
%ADD15C,1.800000*%
%ADD16O,1.800000X1.800000*%
G04 APERTURE END LIST*
D10*
D11*
X77470000Y-78740000D03*
D12*
X77470000Y-81280000D03*
X77470000Y-83820000D03*
X77470000Y-86360000D03*
X77470000Y-88900000D03*
X77470000Y-91440000D03*
X77470000Y-93980000D03*
X77470000Y-96520000D03*
X77470000Y-99060000D03*
X77470000Y-101600000D03*
D11*
X104140000Y-101600000D03*
D12*
X104140000Y-99060000D03*
X104140000Y-96520000D03*
X104140000Y-93980000D03*
X104140000Y-91440000D03*
X104140000Y-88900000D03*
X104140000Y-86360000D03*
X104140000Y-83820000D03*
X104140000Y-81280000D03*
X104140000Y-78740000D03*
D11*
X96520000Y-101600000D03*
D12*
X99060000Y-101600000D03*
D13*
X98425000Y-78740000D03*
X97155000Y-80010000D03*
D14*
X97155000Y-77470000D03*
D13*
X92710000Y-81280000D03*
X91440000Y-82550000D03*
D14*
X91440000Y-80010000D03*
D13*
X98425000Y-83820000D03*
X97155000Y-85090000D03*
D14*
X97155000Y-82550000D03*
D13*
X92710000Y-86360000D03*
X91440000Y-87630000D03*
D14*
X91440000Y-85090000D03*
D13*
X98425000Y-88900000D03*
X97155000Y-90170000D03*
D14*
X97155000Y-87630000D03*
D13*
X92710000Y-91440000D03*
X91440000Y-92710000D03*
D14*
X91440000Y-90170000D03*
D13*
X98425000Y-93980000D03*
X97155000Y-95250000D03*
D14*
X97155000Y-92710000D03*
D13*
X92710000Y-96520000D03*
X91440000Y-97790000D03*
D14*
X91440000Y-95250000D03*
D15*
X87630000Y-78740000D03*
D16*
X85730000Y-78740000D03*
D15*
X87630000Y-81280000D03*
D16*
X85730000Y-81280000D03*
D15*
X87630000Y-83820000D03*
D16*
X85730000Y-83820000D03*
D15*
X87630000Y-86360000D03*
D16*
X85730000Y-86360000D03*
D15*
X87630000Y-88900000D03*
D16*
X85730000Y-88900000D03*
D15*
X87630000Y-91440000D03*
D16*
X85730000Y-91440000D03*
D15*
X87630000Y-93980000D03*
D16*
X85730000Y-93980000D03*
D15*
X87630000Y-96520000D03*
D16*
X85730000Y-96520000D03*
D15*
X81280000Y-78740000D03*
D16*
X83180000Y-78740000D03*
D15*
X81280000Y-81280000D03*
D16*
X83180000Y-81280000D03*
D15*
X81280000Y-83820000D03*
D16*
X83180000Y-83820000D03*
D15*
X81280000Y-86360000D03*
D16*
X83180000Y-86360000D03*
D15*
X81280000Y-88900000D03*
D16*
X83180000Y-88900000D03*
D15*
X81280000Y-91440000D03*
D16*
X83180000Y-91440000D03*
D15*
X81280000Y-93980000D03*
D16*
X83180000Y-93980000D03*
D15*
X81280000Y-96520000D03*
D16*
X83180000Y-96520000D03*
M02*
