G75*
%MOIN*%
%OFA0B0*%
%FSLAX25Y25*%
%IPPOS*%
%LPD*%
%AMOC8*
5,1,8,0,0,1.08239X$1,22.5*
%
%ADD10C,0.00000*%
%ADD11C,0.00300*%
%ADD12C,0.00600*%
D10*
X0019517Y0026222D02*
X0039202Y0006537D01*
X0054950Y0006537D01*
X0074635Y0026222D01*
X0114005Y0026222D01*
X0125816Y0038033D01*
X0125816Y0120710D01*
X0114005Y0132521D01*
X0031328Y0132521D01*
X0019517Y0120710D01*
X0019517Y0026222D01*
X0027784Y0040002D02*
X0027786Y0040150D01*
X0027792Y0040298D01*
X0027802Y0040446D01*
X0027816Y0040593D01*
X0027834Y0040740D01*
X0027855Y0040886D01*
X0027881Y0041032D01*
X0027911Y0041177D01*
X0027944Y0041321D01*
X0027982Y0041464D01*
X0028023Y0041606D01*
X0028068Y0041747D01*
X0028116Y0041887D01*
X0028169Y0042026D01*
X0028225Y0042163D01*
X0028285Y0042298D01*
X0028348Y0042432D01*
X0028415Y0042564D01*
X0028486Y0042694D01*
X0028560Y0042822D01*
X0028637Y0042948D01*
X0028718Y0043072D01*
X0028802Y0043194D01*
X0028889Y0043313D01*
X0028980Y0043430D01*
X0029074Y0043545D01*
X0029170Y0043657D01*
X0029270Y0043767D01*
X0029372Y0043873D01*
X0029478Y0043977D01*
X0029586Y0044078D01*
X0029697Y0044176D01*
X0029810Y0044272D01*
X0029926Y0044364D01*
X0030044Y0044453D01*
X0030165Y0044538D01*
X0030288Y0044621D01*
X0030413Y0044700D01*
X0030540Y0044776D01*
X0030669Y0044848D01*
X0030800Y0044917D01*
X0030933Y0044982D01*
X0031068Y0045043D01*
X0031204Y0045101D01*
X0031341Y0045156D01*
X0031480Y0045206D01*
X0031621Y0045253D01*
X0031762Y0045296D01*
X0031905Y0045336D01*
X0032049Y0045371D01*
X0032193Y0045403D01*
X0032339Y0045430D01*
X0032485Y0045454D01*
X0032632Y0045474D01*
X0032779Y0045490D01*
X0032926Y0045502D01*
X0033074Y0045510D01*
X0033222Y0045514D01*
X0033370Y0045514D01*
X0033518Y0045510D01*
X0033666Y0045502D01*
X0033813Y0045490D01*
X0033960Y0045474D01*
X0034107Y0045454D01*
X0034253Y0045430D01*
X0034399Y0045403D01*
X0034543Y0045371D01*
X0034687Y0045336D01*
X0034830Y0045296D01*
X0034971Y0045253D01*
X0035112Y0045206D01*
X0035251Y0045156D01*
X0035388Y0045101D01*
X0035524Y0045043D01*
X0035659Y0044982D01*
X0035792Y0044917D01*
X0035923Y0044848D01*
X0036052Y0044776D01*
X0036179Y0044700D01*
X0036304Y0044621D01*
X0036427Y0044538D01*
X0036548Y0044453D01*
X0036666Y0044364D01*
X0036782Y0044272D01*
X0036895Y0044176D01*
X0037006Y0044078D01*
X0037114Y0043977D01*
X0037220Y0043873D01*
X0037322Y0043767D01*
X0037422Y0043657D01*
X0037518Y0043545D01*
X0037612Y0043430D01*
X0037703Y0043313D01*
X0037790Y0043194D01*
X0037874Y0043072D01*
X0037955Y0042948D01*
X0038032Y0042822D01*
X0038106Y0042694D01*
X0038177Y0042564D01*
X0038244Y0042432D01*
X0038307Y0042298D01*
X0038367Y0042163D01*
X0038423Y0042026D01*
X0038476Y0041887D01*
X0038524Y0041747D01*
X0038569Y0041606D01*
X0038610Y0041464D01*
X0038648Y0041321D01*
X0038681Y0041177D01*
X0038711Y0041032D01*
X0038737Y0040886D01*
X0038758Y0040740D01*
X0038776Y0040593D01*
X0038790Y0040446D01*
X0038800Y0040298D01*
X0038806Y0040150D01*
X0038808Y0040002D01*
X0038806Y0039854D01*
X0038800Y0039706D01*
X0038790Y0039558D01*
X0038776Y0039411D01*
X0038758Y0039264D01*
X0038737Y0039118D01*
X0038711Y0038972D01*
X0038681Y0038827D01*
X0038648Y0038683D01*
X0038610Y0038540D01*
X0038569Y0038398D01*
X0038524Y0038257D01*
X0038476Y0038117D01*
X0038423Y0037978D01*
X0038367Y0037841D01*
X0038307Y0037706D01*
X0038244Y0037572D01*
X0038177Y0037440D01*
X0038106Y0037310D01*
X0038032Y0037182D01*
X0037955Y0037056D01*
X0037874Y0036932D01*
X0037790Y0036810D01*
X0037703Y0036691D01*
X0037612Y0036574D01*
X0037518Y0036459D01*
X0037422Y0036347D01*
X0037322Y0036237D01*
X0037220Y0036131D01*
X0037114Y0036027D01*
X0037006Y0035926D01*
X0036895Y0035828D01*
X0036782Y0035732D01*
X0036666Y0035640D01*
X0036548Y0035551D01*
X0036427Y0035466D01*
X0036304Y0035383D01*
X0036179Y0035304D01*
X0036052Y0035228D01*
X0035923Y0035156D01*
X0035792Y0035087D01*
X0035659Y0035022D01*
X0035524Y0034961D01*
X0035388Y0034903D01*
X0035251Y0034848D01*
X0035112Y0034798D01*
X0034971Y0034751D01*
X0034830Y0034708D01*
X0034687Y0034668D01*
X0034543Y0034633D01*
X0034399Y0034601D01*
X0034253Y0034574D01*
X0034107Y0034550D01*
X0033960Y0034530D01*
X0033813Y0034514D01*
X0033666Y0034502D01*
X0033518Y0034494D01*
X0033370Y0034490D01*
X0033222Y0034490D01*
X0033074Y0034494D01*
X0032926Y0034502D01*
X0032779Y0034514D01*
X0032632Y0034530D01*
X0032485Y0034550D01*
X0032339Y0034574D01*
X0032193Y0034601D01*
X0032049Y0034633D01*
X0031905Y0034668D01*
X0031762Y0034708D01*
X0031621Y0034751D01*
X0031480Y0034798D01*
X0031341Y0034848D01*
X0031204Y0034903D01*
X0031068Y0034961D01*
X0030933Y0035022D01*
X0030800Y0035087D01*
X0030669Y0035156D01*
X0030540Y0035228D01*
X0030413Y0035304D01*
X0030288Y0035383D01*
X0030165Y0035466D01*
X0030044Y0035551D01*
X0029926Y0035640D01*
X0029810Y0035732D01*
X0029697Y0035828D01*
X0029586Y0035926D01*
X0029478Y0036027D01*
X0029372Y0036131D01*
X0029270Y0036237D01*
X0029170Y0036347D01*
X0029074Y0036459D01*
X0028980Y0036574D01*
X0028889Y0036691D01*
X0028802Y0036810D01*
X0028718Y0036932D01*
X0028637Y0037056D01*
X0028560Y0037182D01*
X0028486Y0037310D01*
X0028415Y0037440D01*
X0028348Y0037572D01*
X0028285Y0037706D01*
X0028225Y0037841D01*
X0028169Y0037978D01*
X0028116Y0038117D01*
X0028068Y0038257D01*
X0028023Y0038398D01*
X0027982Y0038540D01*
X0027944Y0038683D01*
X0027911Y0038827D01*
X0027881Y0038972D01*
X0027855Y0039118D01*
X0027834Y0039264D01*
X0027816Y0039411D01*
X0027802Y0039558D01*
X0027792Y0039706D01*
X0027786Y0039854D01*
X0027784Y0040002D01*
X0025422Y0079372D02*
X0025436Y0080531D01*
X0025479Y0081690D01*
X0025550Y0082847D01*
X0025649Y0084003D01*
X0025777Y0085155D01*
X0025933Y0086304D01*
X0026118Y0087449D01*
X0026330Y0088589D01*
X0026570Y0089723D01*
X0026838Y0090851D01*
X0027133Y0091973D01*
X0027456Y0093086D01*
X0027806Y0094192D01*
X0028184Y0095288D01*
X0028588Y0096375D01*
X0029018Y0097451D01*
X0029475Y0098517D01*
X0029958Y0099571D01*
X0030467Y0100613D01*
X0031001Y0101643D01*
X0031560Y0102658D01*
X0032143Y0103660D01*
X0032752Y0104647D01*
X0033384Y0105619D01*
X0034040Y0106575D01*
X0034719Y0107515D01*
X0035421Y0108438D01*
X0036146Y0109343D01*
X0036892Y0110230D01*
X0037661Y0111099D01*
X0038450Y0111949D01*
X0039259Y0112779D01*
X0040089Y0113588D01*
X0040939Y0114377D01*
X0041808Y0115146D01*
X0042695Y0115892D01*
X0043600Y0116617D01*
X0044523Y0117319D01*
X0045463Y0117998D01*
X0046419Y0118654D01*
X0047391Y0119286D01*
X0048378Y0119895D01*
X0049380Y0120478D01*
X0050395Y0121037D01*
X0051425Y0121571D01*
X0052467Y0122080D01*
X0053521Y0122563D01*
X0054587Y0123020D01*
X0055663Y0123450D01*
X0056750Y0123854D01*
X0057846Y0124232D01*
X0058952Y0124582D01*
X0060065Y0124905D01*
X0061187Y0125200D01*
X0062315Y0125468D01*
X0063449Y0125708D01*
X0064589Y0125920D01*
X0065734Y0126105D01*
X0066883Y0126261D01*
X0068035Y0126389D01*
X0069191Y0126488D01*
X0070348Y0126559D01*
X0071507Y0126602D01*
X0072666Y0126616D01*
X0073825Y0126602D01*
X0074984Y0126559D01*
X0076141Y0126488D01*
X0077297Y0126389D01*
X0078449Y0126261D01*
X0079598Y0126105D01*
X0080743Y0125920D01*
X0081883Y0125708D01*
X0083017Y0125468D01*
X0084145Y0125200D01*
X0085267Y0124905D01*
X0086380Y0124582D01*
X0087486Y0124232D01*
X0088582Y0123854D01*
X0089669Y0123450D01*
X0090745Y0123020D01*
X0091811Y0122563D01*
X0092865Y0122080D01*
X0093907Y0121571D01*
X0094937Y0121037D01*
X0095952Y0120478D01*
X0096954Y0119895D01*
X0097941Y0119286D01*
X0098913Y0118654D01*
X0099869Y0117998D01*
X0100809Y0117319D01*
X0101732Y0116617D01*
X0102637Y0115892D01*
X0103524Y0115146D01*
X0104393Y0114377D01*
X0105243Y0113588D01*
X0106073Y0112779D01*
X0106882Y0111949D01*
X0107671Y0111099D01*
X0108440Y0110230D01*
X0109186Y0109343D01*
X0109911Y0108438D01*
X0110613Y0107515D01*
X0111292Y0106575D01*
X0111948Y0105619D01*
X0112580Y0104647D01*
X0113189Y0103660D01*
X0113772Y0102658D01*
X0114331Y0101643D01*
X0114865Y0100613D01*
X0115374Y0099571D01*
X0115857Y0098517D01*
X0116314Y0097451D01*
X0116744Y0096375D01*
X0117148Y0095288D01*
X0117526Y0094192D01*
X0117876Y0093086D01*
X0118199Y0091973D01*
X0118494Y0090851D01*
X0118762Y0089723D01*
X0119002Y0088589D01*
X0119214Y0087449D01*
X0119399Y0086304D01*
X0119555Y0085155D01*
X0119683Y0084003D01*
X0119782Y0082847D01*
X0119853Y0081690D01*
X0119896Y0080531D01*
X0119910Y0079372D01*
X0119896Y0078213D01*
X0119853Y0077054D01*
X0119782Y0075897D01*
X0119683Y0074741D01*
X0119555Y0073589D01*
X0119399Y0072440D01*
X0119214Y0071295D01*
X0119002Y0070155D01*
X0118762Y0069021D01*
X0118494Y0067893D01*
X0118199Y0066771D01*
X0117876Y0065658D01*
X0117526Y0064552D01*
X0117148Y0063456D01*
X0116744Y0062369D01*
X0116314Y0061293D01*
X0115857Y0060227D01*
X0115374Y0059173D01*
X0114865Y0058131D01*
X0114331Y0057101D01*
X0113772Y0056086D01*
X0113189Y0055084D01*
X0112580Y0054097D01*
X0111948Y0053125D01*
X0111292Y0052169D01*
X0110613Y0051229D01*
X0109911Y0050306D01*
X0109186Y0049401D01*
X0108440Y0048514D01*
X0107671Y0047645D01*
X0106882Y0046795D01*
X0106073Y0045965D01*
X0105243Y0045156D01*
X0104393Y0044367D01*
X0103524Y0043598D01*
X0102637Y0042852D01*
X0101732Y0042127D01*
X0100809Y0041425D01*
X0099869Y0040746D01*
X0098913Y0040090D01*
X0097941Y0039458D01*
X0096954Y0038849D01*
X0095952Y0038266D01*
X0094937Y0037707D01*
X0093907Y0037173D01*
X0092865Y0036664D01*
X0091811Y0036181D01*
X0090745Y0035724D01*
X0089669Y0035294D01*
X0088582Y0034890D01*
X0087486Y0034512D01*
X0086380Y0034162D01*
X0085267Y0033839D01*
X0084145Y0033544D01*
X0083017Y0033276D01*
X0081883Y0033036D01*
X0080743Y0032824D01*
X0079598Y0032639D01*
X0078449Y0032483D01*
X0077297Y0032355D01*
X0076141Y0032256D01*
X0074984Y0032185D01*
X0073825Y0032142D01*
X0072666Y0032128D01*
X0071507Y0032142D01*
X0070348Y0032185D01*
X0069191Y0032256D01*
X0068035Y0032355D01*
X0066883Y0032483D01*
X0065734Y0032639D01*
X0064589Y0032824D01*
X0063449Y0033036D01*
X0062315Y0033276D01*
X0061187Y0033544D01*
X0060065Y0033839D01*
X0058952Y0034162D01*
X0057846Y0034512D01*
X0056750Y0034890D01*
X0055663Y0035294D01*
X0054587Y0035724D01*
X0053521Y0036181D01*
X0052467Y0036664D01*
X0051425Y0037173D01*
X0050395Y0037707D01*
X0049380Y0038266D01*
X0048378Y0038849D01*
X0047391Y0039458D01*
X0046419Y0040090D01*
X0045463Y0040746D01*
X0044523Y0041425D01*
X0043600Y0042127D01*
X0042695Y0042852D01*
X0041808Y0043598D01*
X0040939Y0044367D01*
X0040089Y0045156D01*
X0039259Y0045965D01*
X0038450Y0046795D01*
X0037661Y0047645D01*
X0036892Y0048514D01*
X0036146Y0049401D01*
X0035421Y0050306D01*
X0034719Y0051229D01*
X0034040Y0052169D01*
X0033384Y0053125D01*
X0032752Y0054097D01*
X0032143Y0055084D01*
X0031560Y0056086D01*
X0031001Y0057101D01*
X0030467Y0058131D01*
X0029958Y0059173D01*
X0029475Y0060227D01*
X0029018Y0061293D01*
X0028588Y0062369D01*
X0028184Y0063456D01*
X0027806Y0064552D01*
X0027456Y0065658D01*
X0027133Y0066771D01*
X0026838Y0067893D01*
X0026570Y0069021D01*
X0026330Y0070155D01*
X0026118Y0071295D01*
X0025933Y0072440D01*
X0025777Y0073589D01*
X0025649Y0074741D01*
X0025550Y0075897D01*
X0025479Y0077054D01*
X0025436Y0078213D01*
X0025422Y0079372D01*
X0027784Y0118742D02*
X0027786Y0118890D01*
X0027792Y0119038D01*
X0027802Y0119186D01*
X0027816Y0119333D01*
X0027834Y0119480D01*
X0027855Y0119626D01*
X0027881Y0119772D01*
X0027911Y0119917D01*
X0027944Y0120061D01*
X0027982Y0120204D01*
X0028023Y0120346D01*
X0028068Y0120487D01*
X0028116Y0120627D01*
X0028169Y0120766D01*
X0028225Y0120903D01*
X0028285Y0121038D01*
X0028348Y0121172D01*
X0028415Y0121304D01*
X0028486Y0121434D01*
X0028560Y0121562D01*
X0028637Y0121688D01*
X0028718Y0121812D01*
X0028802Y0121934D01*
X0028889Y0122053D01*
X0028980Y0122170D01*
X0029074Y0122285D01*
X0029170Y0122397D01*
X0029270Y0122507D01*
X0029372Y0122613D01*
X0029478Y0122717D01*
X0029586Y0122818D01*
X0029697Y0122916D01*
X0029810Y0123012D01*
X0029926Y0123104D01*
X0030044Y0123193D01*
X0030165Y0123278D01*
X0030288Y0123361D01*
X0030413Y0123440D01*
X0030540Y0123516D01*
X0030669Y0123588D01*
X0030800Y0123657D01*
X0030933Y0123722D01*
X0031068Y0123783D01*
X0031204Y0123841D01*
X0031341Y0123896D01*
X0031480Y0123946D01*
X0031621Y0123993D01*
X0031762Y0124036D01*
X0031905Y0124076D01*
X0032049Y0124111D01*
X0032193Y0124143D01*
X0032339Y0124170D01*
X0032485Y0124194D01*
X0032632Y0124214D01*
X0032779Y0124230D01*
X0032926Y0124242D01*
X0033074Y0124250D01*
X0033222Y0124254D01*
X0033370Y0124254D01*
X0033518Y0124250D01*
X0033666Y0124242D01*
X0033813Y0124230D01*
X0033960Y0124214D01*
X0034107Y0124194D01*
X0034253Y0124170D01*
X0034399Y0124143D01*
X0034543Y0124111D01*
X0034687Y0124076D01*
X0034830Y0124036D01*
X0034971Y0123993D01*
X0035112Y0123946D01*
X0035251Y0123896D01*
X0035388Y0123841D01*
X0035524Y0123783D01*
X0035659Y0123722D01*
X0035792Y0123657D01*
X0035923Y0123588D01*
X0036052Y0123516D01*
X0036179Y0123440D01*
X0036304Y0123361D01*
X0036427Y0123278D01*
X0036548Y0123193D01*
X0036666Y0123104D01*
X0036782Y0123012D01*
X0036895Y0122916D01*
X0037006Y0122818D01*
X0037114Y0122717D01*
X0037220Y0122613D01*
X0037322Y0122507D01*
X0037422Y0122397D01*
X0037518Y0122285D01*
X0037612Y0122170D01*
X0037703Y0122053D01*
X0037790Y0121934D01*
X0037874Y0121812D01*
X0037955Y0121688D01*
X0038032Y0121562D01*
X0038106Y0121434D01*
X0038177Y0121304D01*
X0038244Y0121172D01*
X0038307Y0121038D01*
X0038367Y0120903D01*
X0038423Y0120766D01*
X0038476Y0120627D01*
X0038524Y0120487D01*
X0038569Y0120346D01*
X0038610Y0120204D01*
X0038648Y0120061D01*
X0038681Y0119917D01*
X0038711Y0119772D01*
X0038737Y0119626D01*
X0038758Y0119480D01*
X0038776Y0119333D01*
X0038790Y0119186D01*
X0038800Y0119038D01*
X0038806Y0118890D01*
X0038808Y0118742D01*
X0038806Y0118594D01*
X0038800Y0118446D01*
X0038790Y0118298D01*
X0038776Y0118151D01*
X0038758Y0118004D01*
X0038737Y0117858D01*
X0038711Y0117712D01*
X0038681Y0117567D01*
X0038648Y0117423D01*
X0038610Y0117280D01*
X0038569Y0117138D01*
X0038524Y0116997D01*
X0038476Y0116857D01*
X0038423Y0116718D01*
X0038367Y0116581D01*
X0038307Y0116446D01*
X0038244Y0116312D01*
X0038177Y0116180D01*
X0038106Y0116050D01*
X0038032Y0115922D01*
X0037955Y0115796D01*
X0037874Y0115672D01*
X0037790Y0115550D01*
X0037703Y0115431D01*
X0037612Y0115314D01*
X0037518Y0115199D01*
X0037422Y0115087D01*
X0037322Y0114977D01*
X0037220Y0114871D01*
X0037114Y0114767D01*
X0037006Y0114666D01*
X0036895Y0114568D01*
X0036782Y0114472D01*
X0036666Y0114380D01*
X0036548Y0114291D01*
X0036427Y0114206D01*
X0036304Y0114123D01*
X0036179Y0114044D01*
X0036052Y0113968D01*
X0035923Y0113896D01*
X0035792Y0113827D01*
X0035659Y0113762D01*
X0035524Y0113701D01*
X0035388Y0113643D01*
X0035251Y0113588D01*
X0035112Y0113538D01*
X0034971Y0113491D01*
X0034830Y0113448D01*
X0034687Y0113408D01*
X0034543Y0113373D01*
X0034399Y0113341D01*
X0034253Y0113314D01*
X0034107Y0113290D01*
X0033960Y0113270D01*
X0033813Y0113254D01*
X0033666Y0113242D01*
X0033518Y0113234D01*
X0033370Y0113230D01*
X0033222Y0113230D01*
X0033074Y0113234D01*
X0032926Y0113242D01*
X0032779Y0113254D01*
X0032632Y0113270D01*
X0032485Y0113290D01*
X0032339Y0113314D01*
X0032193Y0113341D01*
X0032049Y0113373D01*
X0031905Y0113408D01*
X0031762Y0113448D01*
X0031621Y0113491D01*
X0031480Y0113538D01*
X0031341Y0113588D01*
X0031204Y0113643D01*
X0031068Y0113701D01*
X0030933Y0113762D01*
X0030800Y0113827D01*
X0030669Y0113896D01*
X0030540Y0113968D01*
X0030413Y0114044D01*
X0030288Y0114123D01*
X0030165Y0114206D01*
X0030044Y0114291D01*
X0029926Y0114380D01*
X0029810Y0114472D01*
X0029697Y0114568D01*
X0029586Y0114666D01*
X0029478Y0114767D01*
X0029372Y0114871D01*
X0029270Y0114977D01*
X0029170Y0115087D01*
X0029074Y0115199D01*
X0028980Y0115314D01*
X0028889Y0115431D01*
X0028802Y0115550D01*
X0028718Y0115672D01*
X0028637Y0115796D01*
X0028560Y0115922D01*
X0028486Y0116050D01*
X0028415Y0116180D01*
X0028348Y0116312D01*
X0028285Y0116446D01*
X0028225Y0116581D01*
X0028169Y0116718D01*
X0028116Y0116857D01*
X0028068Y0116997D01*
X0028023Y0117138D01*
X0027982Y0117280D01*
X0027944Y0117423D01*
X0027911Y0117567D01*
X0027881Y0117712D01*
X0027855Y0117858D01*
X0027834Y0118004D01*
X0027816Y0118151D01*
X0027802Y0118298D01*
X0027792Y0118446D01*
X0027786Y0118594D01*
X0027784Y0118742D01*
X0106524Y0118742D02*
X0106526Y0118890D01*
X0106532Y0119038D01*
X0106542Y0119186D01*
X0106556Y0119333D01*
X0106574Y0119480D01*
X0106595Y0119626D01*
X0106621Y0119772D01*
X0106651Y0119917D01*
X0106684Y0120061D01*
X0106722Y0120204D01*
X0106763Y0120346D01*
X0106808Y0120487D01*
X0106856Y0120627D01*
X0106909Y0120766D01*
X0106965Y0120903D01*
X0107025Y0121038D01*
X0107088Y0121172D01*
X0107155Y0121304D01*
X0107226Y0121434D01*
X0107300Y0121562D01*
X0107377Y0121688D01*
X0107458Y0121812D01*
X0107542Y0121934D01*
X0107629Y0122053D01*
X0107720Y0122170D01*
X0107814Y0122285D01*
X0107910Y0122397D01*
X0108010Y0122507D01*
X0108112Y0122613D01*
X0108218Y0122717D01*
X0108326Y0122818D01*
X0108437Y0122916D01*
X0108550Y0123012D01*
X0108666Y0123104D01*
X0108784Y0123193D01*
X0108905Y0123278D01*
X0109028Y0123361D01*
X0109153Y0123440D01*
X0109280Y0123516D01*
X0109409Y0123588D01*
X0109540Y0123657D01*
X0109673Y0123722D01*
X0109808Y0123783D01*
X0109944Y0123841D01*
X0110081Y0123896D01*
X0110220Y0123946D01*
X0110361Y0123993D01*
X0110502Y0124036D01*
X0110645Y0124076D01*
X0110789Y0124111D01*
X0110933Y0124143D01*
X0111079Y0124170D01*
X0111225Y0124194D01*
X0111372Y0124214D01*
X0111519Y0124230D01*
X0111666Y0124242D01*
X0111814Y0124250D01*
X0111962Y0124254D01*
X0112110Y0124254D01*
X0112258Y0124250D01*
X0112406Y0124242D01*
X0112553Y0124230D01*
X0112700Y0124214D01*
X0112847Y0124194D01*
X0112993Y0124170D01*
X0113139Y0124143D01*
X0113283Y0124111D01*
X0113427Y0124076D01*
X0113570Y0124036D01*
X0113711Y0123993D01*
X0113852Y0123946D01*
X0113991Y0123896D01*
X0114128Y0123841D01*
X0114264Y0123783D01*
X0114399Y0123722D01*
X0114532Y0123657D01*
X0114663Y0123588D01*
X0114792Y0123516D01*
X0114919Y0123440D01*
X0115044Y0123361D01*
X0115167Y0123278D01*
X0115288Y0123193D01*
X0115406Y0123104D01*
X0115522Y0123012D01*
X0115635Y0122916D01*
X0115746Y0122818D01*
X0115854Y0122717D01*
X0115960Y0122613D01*
X0116062Y0122507D01*
X0116162Y0122397D01*
X0116258Y0122285D01*
X0116352Y0122170D01*
X0116443Y0122053D01*
X0116530Y0121934D01*
X0116614Y0121812D01*
X0116695Y0121688D01*
X0116772Y0121562D01*
X0116846Y0121434D01*
X0116917Y0121304D01*
X0116984Y0121172D01*
X0117047Y0121038D01*
X0117107Y0120903D01*
X0117163Y0120766D01*
X0117216Y0120627D01*
X0117264Y0120487D01*
X0117309Y0120346D01*
X0117350Y0120204D01*
X0117388Y0120061D01*
X0117421Y0119917D01*
X0117451Y0119772D01*
X0117477Y0119626D01*
X0117498Y0119480D01*
X0117516Y0119333D01*
X0117530Y0119186D01*
X0117540Y0119038D01*
X0117546Y0118890D01*
X0117548Y0118742D01*
X0117546Y0118594D01*
X0117540Y0118446D01*
X0117530Y0118298D01*
X0117516Y0118151D01*
X0117498Y0118004D01*
X0117477Y0117858D01*
X0117451Y0117712D01*
X0117421Y0117567D01*
X0117388Y0117423D01*
X0117350Y0117280D01*
X0117309Y0117138D01*
X0117264Y0116997D01*
X0117216Y0116857D01*
X0117163Y0116718D01*
X0117107Y0116581D01*
X0117047Y0116446D01*
X0116984Y0116312D01*
X0116917Y0116180D01*
X0116846Y0116050D01*
X0116772Y0115922D01*
X0116695Y0115796D01*
X0116614Y0115672D01*
X0116530Y0115550D01*
X0116443Y0115431D01*
X0116352Y0115314D01*
X0116258Y0115199D01*
X0116162Y0115087D01*
X0116062Y0114977D01*
X0115960Y0114871D01*
X0115854Y0114767D01*
X0115746Y0114666D01*
X0115635Y0114568D01*
X0115522Y0114472D01*
X0115406Y0114380D01*
X0115288Y0114291D01*
X0115167Y0114206D01*
X0115044Y0114123D01*
X0114919Y0114044D01*
X0114792Y0113968D01*
X0114663Y0113896D01*
X0114532Y0113827D01*
X0114399Y0113762D01*
X0114264Y0113701D01*
X0114128Y0113643D01*
X0113991Y0113588D01*
X0113852Y0113538D01*
X0113711Y0113491D01*
X0113570Y0113448D01*
X0113427Y0113408D01*
X0113283Y0113373D01*
X0113139Y0113341D01*
X0112993Y0113314D01*
X0112847Y0113290D01*
X0112700Y0113270D01*
X0112553Y0113254D01*
X0112406Y0113242D01*
X0112258Y0113234D01*
X0112110Y0113230D01*
X0111962Y0113230D01*
X0111814Y0113234D01*
X0111666Y0113242D01*
X0111519Y0113254D01*
X0111372Y0113270D01*
X0111225Y0113290D01*
X0111079Y0113314D01*
X0110933Y0113341D01*
X0110789Y0113373D01*
X0110645Y0113408D01*
X0110502Y0113448D01*
X0110361Y0113491D01*
X0110220Y0113538D01*
X0110081Y0113588D01*
X0109944Y0113643D01*
X0109808Y0113701D01*
X0109673Y0113762D01*
X0109540Y0113827D01*
X0109409Y0113896D01*
X0109280Y0113968D01*
X0109153Y0114044D01*
X0109028Y0114123D01*
X0108905Y0114206D01*
X0108784Y0114291D01*
X0108666Y0114380D01*
X0108550Y0114472D01*
X0108437Y0114568D01*
X0108326Y0114666D01*
X0108218Y0114767D01*
X0108112Y0114871D01*
X0108010Y0114977D01*
X0107910Y0115087D01*
X0107814Y0115199D01*
X0107720Y0115314D01*
X0107629Y0115431D01*
X0107542Y0115550D01*
X0107458Y0115672D01*
X0107377Y0115796D01*
X0107300Y0115922D01*
X0107226Y0116050D01*
X0107155Y0116180D01*
X0107088Y0116312D01*
X0107025Y0116446D01*
X0106965Y0116581D01*
X0106909Y0116718D01*
X0106856Y0116857D01*
X0106808Y0116997D01*
X0106763Y0117138D01*
X0106722Y0117280D01*
X0106684Y0117423D01*
X0106651Y0117567D01*
X0106621Y0117712D01*
X0106595Y0117858D01*
X0106574Y0118004D01*
X0106556Y0118151D01*
X0106542Y0118298D01*
X0106532Y0118446D01*
X0106526Y0118594D01*
X0106524Y0118742D01*
X0106524Y0040002D02*
X0106526Y0040150D01*
X0106532Y0040298D01*
X0106542Y0040446D01*
X0106556Y0040593D01*
X0106574Y0040740D01*
X0106595Y0040886D01*
X0106621Y0041032D01*
X0106651Y0041177D01*
X0106684Y0041321D01*
X0106722Y0041464D01*
X0106763Y0041606D01*
X0106808Y0041747D01*
X0106856Y0041887D01*
X0106909Y0042026D01*
X0106965Y0042163D01*
X0107025Y0042298D01*
X0107088Y0042432D01*
X0107155Y0042564D01*
X0107226Y0042694D01*
X0107300Y0042822D01*
X0107377Y0042948D01*
X0107458Y0043072D01*
X0107542Y0043194D01*
X0107629Y0043313D01*
X0107720Y0043430D01*
X0107814Y0043545D01*
X0107910Y0043657D01*
X0108010Y0043767D01*
X0108112Y0043873D01*
X0108218Y0043977D01*
X0108326Y0044078D01*
X0108437Y0044176D01*
X0108550Y0044272D01*
X0108666Y0044364D01*
X0108784Y0044453D01*
X0108905Y0044538D01*
X0109028Y0044621D01*
X0109153Y0044700D01*
X0109280Y0044776D01*
X0109409Y0044848D01*
X0109540Y0044917D01*
X0109673Y0044982D01*
X0109808Y0045043D01*
X0109944Y0045101D01*
X0110081Y0045156D01*
X0110220Y0045206D01*
X0110361Y0045253D01*
X0110502Y0045296D01*
X0110645Y0045336D01*
X0110789Y0045371D01*
X0110933Y0045403D01*
X0111079Y0045430D01*
X0111225Y0045454D01*
X0111372Y0045474D01*
X0111519Y0045490D01*
X0111666Y0045502D01*
X0111814Y0045510D01*
X0111962Y0045514D01*
X0112110Y0045514D01*
X0112258Y0045510D01*
X0112406Y0045502D01*
X0112553Y0045490D01*
X0112700Y0045474D01*
X0112847Y0045454D01*
X0112993Y0045430D01*
X0113139Y0045403D01*
X0113283Y0045371D01*
X0113427Y0045336D01*
X0113570Y0045296D01*
X0113711Y0045253D01*
X0113852Y0045206D01*
X0113991Y0045156D01*
X0114128Y0045101D01*
X0114264Y0045043D01*
X0114399Y0044982D01*
X0114532Y0044917D01*
X0114663Y0044848D01*
X0114792Y0044776D01*
X0114919Y0044700D01*
X0115044Y0044621D01*
X0115167Y0044538D01*
X0115288Y0044453D01*
X0115406Y0044364D01*
X0115522Y0044272D01*
X0115635Y0044176D01*
X0115746Y0044078D01*
X0115854Y0043977D01*
X0115960Y0043873D01*
X0116062Y0043767D01*
X0116162Y0043657D01*
X0116258Y0043545D01*
X0116352Y0043430D01*
X0116443Y0043313D01*
X0116530Y0043194D01*
X0116614Y0043072D01*
X0116695Y0042948D01*
X0116772Y0042822D01*
X0116846Y0042694D01*
X0116917Y0042564D01*
X0116984Y0042432D01*
X0117047Y0042298D01*
X0117107Y0042163D01*
X0117163Y0042026D01*
X0117216Y0041887D01*
X0117264Y0041747D01*
X0117309Y0041606D01*
X0117350Y0041464D01*
X0117388Y0041321D01*
X0117421Y0041177D01*
X0117451Y0041032D01*
X0117477Y0040886D01*
X0117498Y0040740D01*
X0117516Y0040593D01*
X0117530Y0040446D01*
X0117540Y0040298D01*
X0117546Y0040150D01*
X0117548Y0040002D01*
X0117546Y0039854D01*
X0117540Y0039706D01*
X0117530Y0039558D01*
X0117516Y0039411D01*
X0117498Y0039264D01*
X0117477Y0039118D01*
X0117451Y0038972D01*
X0117421Y0038827D01*
X0117388Y0038683D01*
X0117350Y0038540D01*
X0117309Y0038398D01*
X0117264Y0038257D01*
X0117216Y0038117D01*
X0117163Y0037978D01*
X0117107Y0037841D01*
X0117047Y0037706D01*
X0116984Y0037572D01*
X0116917Y0037440D01*
X0116846Y0037310D01*
X0116772Y0037182D01*
X0116695Y0037056D01*
X0116614Y0036932D01*
X0116530Y0036810D01*
X0116443Y0036691D01*
X0116352Y0036574D01*
X0116258Y0036459D01*
X0116162Y0036347D01*
X0116062Y0036237D01*
X0115960Y0036131D01*
X0115854Y0036027D01*
X0115746Y0035926D01*
X0115635Y0035828D01*
X0115522Y0035732D01*
X0115406Y0035640D01*
X0115288Y0035551D01*
X0115167Y0035466D01*
X0115044Y0035383D01*
X0114919Y0035304D01*
X0114792Y0035228D01*
X0114663Y0035156D01*
X0114532Y0035087D01*
X0114399Y0035022D01*
X0114264Y0034961D01*
X0114128Y0034903D01*
X0113991Y0034848D01*
X0113852Y0034798D01*
X0113711Y0034751D01*
X0113570Y0034708D01*
X0113427Y0034668D01*
X0113283Y0034633D01*
X0113139Y0034601D01*
X0112993Y0034574D01*
X0112847Y0034550D01*
X0112700Y0034530D01*
X0112553Y0034514D01*
X0112406Y0034502D01*
X0112258Y0034494D01*
X0112110Y0034490D01*
X0111962Y0034490D01*
X0111814Y0034494D01*
X0111666Y0034502D01*
X0111519Y0034514D01*
X0111372Y0034530D01*
X0111225Y0034550D01*
X0111079Y0034574D01*
X0110933Y0034601D01*
X0110789Y0034633D01*
X0110645Y0034668D01*
X0110502Y0034708D01*
X0110361Y0034751D01*
X0110220Y0034798D01*
X0110081Y0034848D01*
X0109944Y0034903D01*
X0109808Y0034961D01*
X0109673Y0035022D01*
X0109540Y0035087D01*
X0109409Y0035156D01*
X0109280Y0035228D01*
X0109153Y0035304D01*
X0109028Y0035383D01*
X0108905Y0035466D01*
X0108784Y0035551D01*
X0108666Y0035640D01*
X0108550Y0035732D01*
X0108437Y0035828D01*
X0108326Y0035926D01*
X0108218Y0036027D01*
X0108112Y0036131D01*
X0108010Y0036237D01*
X0107910Y0036347D01*
X0107814Y0036459D01*
X0107720Y0036574D01*
X0107629Y0036691D01*
X0107542Y0036810D01*
X0107458Y0036932D01*
X0107377Y0037056D01*
X0107300Y0037182D01*
X0107226Y0037310D01*
X0107155Y0037440D01*
X0107088Y0037572D01*
X0107025Y0037706D01*
X0106965Y0037841D01*
X0106909Y0037978D01*
X0106856Y0038117D01*
X0106808Y0038257D01*
X0106763Y0038398D01*
X0106722Y0038540D01*
X0106684Y0038683D01*
X0106651Y0038827D01*
X0106621Y0038972D01*
X0106595Y0039118D01*
X0106574Y0039264D01*
X0106556Y0039411D01*
X0106542Y0039558D01*
X0106532Y0039706D01*
X0106526Y0039854D01*
X0106524Y0040002D01*
D11*
X0068268Y0023521D02*
X0067651Y0024138D01*
X0065799Y0024138D01*
X0065799Y0020435D01*
X0067651Y0020435D01*
X0068268Y0021052D01*
X0068268Y0023521D01*
X0064585Y0024138D02*
X0064585Y0020435D01*
X0062116Y0024138D01*
X0062116Y0020435D01*
X0060902Y0021052D02*
X0060902Y0022287D01*
X0059668Y0022287D01*
X0060902Y0023521D02*
X0060285Y0024138D01*
X0059050Y0024138D01*
X0058433Y0023521D01*
X0058433Y0021052D01*
X0059050Y0020435D01*
X0060285Y0020435D01*
X0060902Y0021052D01*
X0035915Y0021669D02*
X0035915Y0024138D01*
X0035915Y0021669D02*
X0034680Y0020435D01*
X0033446Y0021669D01*
X0033446Y0024138D01*
X0032232Y0024138D02*
X0029763Y0024138D01*
X0029763Y0022287D01*
X0030997Y0022904D01*
X0031614Y0022904D01*
X0032232Y0022287D01*
X0032232Y0021052D01*
X0031614Y0020435D01*
X0030380Y0020435D01*
X0029763Y0021052D01*
D12*
X0037076Y0019785D02*
X0039576Y0017285D01*
X0044576Y0017285D01*
X0047076Y0019785D01*
X0049576Y0017285D01*
X0054576Y0017285D01*
X0057076Y0019785D01*
X0057076Y0024785D01*
X0054576Y0027285D01*
X0049576Y0027285D01*
X0047076Y0024785D01*
X0047076Y0019785D01*
X0049576Y0017443D02*
X0054576Y0017443D01*
X0057076Y0014943D01*
X0057076Y0009943D01*
X0054576Y0007443D01*
X0049576Y0007443D01*
X0047076Y0009943D01*
X0044576Y0007443D01*
X0039576Y0007443D01*
X0037076Y0009943D01*
X0037076Y0014943D01*
X0039576Y0017443D01*
X0044576Y0017443D01*
X0047076Y0014943D01*
X0049576Y0017443D01*
X0047076Y0014943D02*
X0047076Y0009943D01*
X0037076Y0019785D02*
X0037076Y0024785D01*
X0039576Y0027285D01*
X0044576Y0027285D01*
X0047076Y0024785D01*
M02*
