G04 #@! TF.GenerationSoftware,KiCad,Pcbnew,(5.1.4)-1*
G04 #@! TF.CreationDate,2019-11-21T00:21:00+09:00*
G04 #@! TF.ProjectId,rpi3GpioTester,72706933-4770-4696-9f54-65737465722e,rev?*
G04 #@! TF.SameCoordinates,Original*
G04 #@! TF.FileFunction,Legend,Top*
G04 #@! TF.FilePolarity,Positive*
%FSLAX46Y46*%
G04 Gerber Fmt 4.6, Leading zero omitted, Abs format (unit mm)*
G04 Created by KiCad (PCBNEW (5.1.4)-1) date 2019-11-21 00:21:00*
%MOMM*%
%LPD*%
G04 APERTURE LIST*
%ADD10C,0.150000*%
%ADD11C,0.300000*%
%ADD12C,0.120000*%
G04 APERTURE END LIST*
D10*
X76835000Y-95885000D02*
X76835000Y-146685000D01*
X78105000Y-94615000D02*
X76835000Y-95885000D01*
X83185000Y-94615000D02*
X78105000Y-94615000D01*
X83185000Y-146685000D02*
X83185000Y-94615000D01*
X76835000Y-146685000D02*
X83185000Y-146685000D01*
X86995000Y-86995000D02*
X112395000Y-86995000D01*
X86995000Y-71755000D02*
X86995000Y-86995000D01*
X93345000Y-71755000D02*
X86995000Y-71755000D01*
X102235000Y-71755000D02*
X112395000Y-71755000D01*
X86995000Y-107315000D02*
X112395000Y-107315000D01*
X86995000Y-92075000D02*
X86995000Y-107315000D01*
X93345000Y-92075000D02*
X86995000Y-92075000D01*
X102235000Y-92075000D02*
X112395000Y-92075000D01*
D11*
X42440714Y-146564285D02*
X42512142Y-146635714D01*
X42583571Y-146850000D01*
X42583571Y-146992857D01*
X42512142Y-147207142D01*
X42369285Y-147350000D01*
X42226428Y-147421428D01*
X41940714Y-147492857D01*
X41726428Y-147492857D01*
X41440714Y-147421428D01*
X41297857Y-147350000D01*
X41155000Y-147207142D01*
X41083571Y-146992857D01*
X41083571Y-146850000D01*
X41155000Y-146635714D01*
X41226428Y-146564285D01*
X42583571Y-145921428D02*
X41083571Y-145921428D01*
X41797857Y-145921428D02*
X41797857Y-145064285D01*
X42583571Y-145064285D02*
X41083571Y-145064285D01*
X42583571Y-144350000D02*
X41083571Y-144350000D01*
X42583571Y-142778571D02*
X41869285Y-143278571D01*
X42583571Y-143635714D02*
X41083571Y-143635714D01*
X41083571Y-143064285D01*
X41155000Y-142921428D01*
X41226428Y-142850000D01*
X41369285Y-142778571D01*
X41583571Y-142778571D01*
X41726428Y-142850000D01*
X41797857Y-142921428D01*
X41869285Y-143064285D01*
X41869285Y-143635714D01*
X42583571Y-142135714D02*
X41083571Y-142135714D01*
X42583571Y-141421428D02*
X41083571Y-141421428D01*
X42155000Y-140921428D01*
X41083571Y-140421428D01*
X42583571Y-140421428D01*
X41797857Y-139707142D02*
X41797857Y-139207142D01*
X42583571Y-138992857D02*
X42583571Y-139707142D01*
X41083571Y-139707142D01*
X41083571Y-138992857D01*
X42583571Y-138350000D02*
X41083571Y-138350000D01*
X42583571Y-137492857D01*
X41083571Y-137492857D01*
X41083571Y-135350000D02*
X41083571Y-135064285D01*
X41155000Y-134921428D01*
X41297857Y-134778571D01*
X41583571Y-134707142D01*
X42083571Y-134707142D01*
X42369285Y-134778571D01*
X42512142Y-134921428D01*
X42583571Y-135064285D01*
X42583571Y-135350000D01*
X42512142Y-135492857D01*
X42369285Y-135635714D01*
X42083571Y-135707142D01*
X41583571Y-135707142D01*
X41297857Y-135635714D01*
X41155000Y-135492857D01*
X41083571Y-135350000D01*
X41583571Y-134064285D02*
X43083571Y-134064285D01*
X41655000Y-134064285D02*
X41583571Y-133921428D01*
X41583571Y-133635714D01*
X41655000Y-133492857D01*
X41726428Y-133421428D01*
X41869285Y-133350000D01*
X42297857Y-133350000D01*
X42440714Y-133421428D01*
X42512142Y-133492857D01*
X42583571Y-133635714D01*
X42583571Y-133921428D01*
X42512142Y-134064285D01*
X42512142Y-132135714D02*
X42583571Y-132278571D01*
X42583571Y-132564285D01*
X42512142Y-132707142D01*
X42369285Y-132778571D01*
X41797857Y-132778571D01*
X41655000Y-132707142D01*
X41583571Y-132564285D01*
X41583571Y-132278571D01*
X41655000Y-132135714D01*
X41797857Y-132064285D01*
X41940714Y-132064285D01*
X42083571Y-132778571D01*
X41583571Y-131421428D02*
X42583571Y-131421428D01*
X41726428Y-131421428D02*
X41655000Y-131350000D01*
X41583571Y-131207142D01*
X41583571Y-130992857D01*
X41655000Y-130850000D01*
X41797857Y-130778571D01*
X42583571Y-130778571D01*
X42583571Y-128921428D02*
X41083571Y-128921428D01*
X41797857Y-128921428D02*
X41797857Y-128064285D01*
X42583571Y-128064285D02*
X41083571Y-128064285D01*
X42583571Y-126707142D02*
X41797857Y-126707142D01*
X41655000Y-126778571D01*
X41583571Y-126921428D01*
X41583571Y-127207142D01*
X41655000Y-127350000D01*
X42512142Y-126707142D02*
X42583571Y-126850000D01*
X42583571Y-127207142D01*
X42512142Y-127350000D01*
X42369285Y-127421428D01*
X42226428Y-127421428D01*
X42083571Y-127350000D01*
X42012142Y-127207142D01*
X42012142Y-126850000D01*
X41940714Y-126707142D01*
X42583571Y-125992857D02*
X41583571Y-125992857D01*
X41869285Y-125992857D02*
X41726428Y-125921428D01*
X41655000Y-125850000D01*
X41583571Y-125707142D01*
X41583571Y-125564285D01*
X42583571Y-124421428D02*
X41083571Y-124421428D01*
X42512142Y-124421428D02*
X42583571Y-124564285D01*
X42583571Y-124850000D01*
X42512142Y-124992857D01*
X42440714Y-125064285D01*
X42297857Y-125135714D01*
X41869285Y-125135714D01*
X41726428Y-125064285D01*
X41655000Y-124992857D01*
X41583571Y-124850000D01*
X41583571Y-124564285D01*
X41655000Y-124421428D01*
X41583571Y-123850000D02*
X42583571Y-123564285D01*
X41869285Y-123278571D01*
X42583571Y-122992857D01*
X41583571Y-122707142D01*
X42583571Y-121492857D02*
X41797857Y-121492857D01*
X41655000Y-121564285D01*
X41583571Y-121707142D01*
X41583571Y-121992857D01*
X41655000Y-122135714D01*
X42512142Y-121492857D02*
X42583571Y-121635714D01*
X42583571Y-121992857D01*
X42512142Y-122135714D01*
X42369285Y-122207142D01*
X42226428Y-122207142D01*
X42083571Y-122135714D01*
X42012142Y-121992857D01*
X42012142Y-121635714D01*
X41940714Y-121492857D01*
X42583571Y-120778571D02*
X41583571Y-120778571D01*
X41869285Y-120778571D02*
X41726428Y-120707142D01*
X41655000Y-120635714D01*
X41583571Y-120492857D01*
X41583571Y-120350000D01*
X42512142Y-119278571D02*
X42583571Y-119421428D01*
X42583571Y-119707142D01*
X42512142Y-119850000D01*
X42369285Y-119921428D01*
X41797857Y-119921428D01*
X41655000Y-119850000D01*
X41583571Y-119707142D01*
X41583571Y-119421428D01*
X41655000Y-119278571D01*
X41797857Y-119207142D01*
X41940714Y-119207142D01*
X42083571Y-119921428D01*
X44990714Y-138278571D02*
X45062142Y-138350000D01*
X45133571Y-138564285D01*
X45133571Y-138707142D01*
X45062142Y-138921428D01*
X44919285Y-139064285D01*
X44776428Y-139135714D01*
X44490714Y-139207142D01*
X44276428Y-139207142D01*
X43990714Y-139135714D01*
X43847857Y-139064285D01*
X43705000Y-138921428D01*
X43633571Y-138707142D01*
X43633571Y-138564285D01*
X43705000Y-138350000D01*
X43776428Y-138278571D01*
X45133571Y-137421428D02*
X45062142Y-137564285D01*
X44990714Y-137635714D01*
X44847857Y-137707142D01*
X44419285Y-137707142D01*
X44276428Y-137635714D01*
X44205000Y-137564285D01*
X44133571Y-137421428D01*
X44133571Y-137207142D01*
X44205000Y-137064285D01*
X44276428Y-136992857D01*
X44419285Y-136921428D01*
X44847857Y-136921428D01*
X44990714Y-136992857D01*
X45062142Y-137064285D01*
X45133571Y-137207142D01*
X45133571Y-137421428D01*
X45133571Y-136278571D02*
X44133571Y-136278571D01*
X44276428Y-136278571D02*
X44205000Y-136207142D01*
X44133571Y-136064285D01*
X44133571Y-135850000D01*
X44205000Y-135707142D01*
X44347857Y-135635714D01*
X45133571Y-135635714D01*
X44347857Y-135635714D02*
X44205000Y-135564285D01*
X44133571Y-135421428D01*
X44133571Y-135207142D01*
X44205000Y-135064285D01*
X44347857Y-134992857D01*
X45133571Y-134992857D01*
X45133571Y-134278571D02*
X44133571Y-134278571D01*
X44276428Y-134278571D02*
X44205000Y-134207142D01*
X44133571Y-134064285D01*
X44133571Y-133850000D01*
X44205000Y-133707142D01*
X44347857Y-133635714D01*
X45133571Y-133635714D01*
X44347857Y-133635714D02*
X44205000Y-133564285D01*
X44133571Y-133421428D01*
X44133571Y-133207142D01*
X44205000Y-133064285D01*
X44347857Y-132992857D01*
X45133571Y-132992857D01*
X44133571Y-131635714D02*
X45133571Y-131635714D01*
X44133571Y-132278571D02*
X44919285Y-132278571D01*
X45062142Y-132207142D01*
X45133571Y-132064285D01*
X45133571Y-131850000D01*
X45062142Y-131707142D01*
X44990714Y-131635714D01*
X44133571Y-130921428D02*
X45133571Y-130921428D01*
X44276428Y-130921428D02*
X44205000Y-130850000D01*
X44133571Y-130707142D01*
X44133571Y-130492857D01*
X44205000Y-130350000D01*
X44347857Y-130278571D01*
X45133571Y-130278571D01*
X45133571Y-129564285D02*
X44133571Y-129564285D01*
X43633571Y-129564285D02*
X43705000Y-129635714D01*
X43776428Y-129564285D01*
X43705000Y-129492857D01*
X43633571Y-129564285D01*
X43776428Y-129564285D01*
X44133571Y-129064285D02*
X44133571Y-128492857D01*
X43633571Y-128850000D02*
X44919285Y-128850000D01*
X45062142Y-128778571D01*
X45133571Y-128635714D01*
X45133571Y-128492857D01*
X44133571Y-128135714D02*
X45133571Y-127778571D01*
X44133571Y-127421428D02*
X45133571Y-127778571D01*
X45490714Y-127921428D01*
X45562142Y-127992857D01*
X45633571Y-128135714D01*
X37421428Y-141945714D02*
X37350000Y-141874285D01*
X37278571Y-141731428D01*
X37278571Y-141374285D01*
X37350000Y-141231428D01*
X37421428Y-141160000D01*
X37564285Y-141088571D01*
X37707142Y-141088571D01*
X37921428Y-141160000D01*
X38778571Y-142017142D01*
X38778571Y-141088571D01*
X37278571Y-140160000D02*
X37278571Y-140017142D01*
X37350000Y-139874285D01*
X37421428Y-139802857D01*
X37564285Y-139731428D01*
X37850000Y-139660000D01*
X38207142Y-139660000D01*
X38492857Y-139731428D01*
X38635714Y-139802857D01*
X38707142Y-139874285D01*
X38778571Y-140017142D01*
X38778571Y-140160000D01*
X38707142Y-140302857D01*
X38635714Y-140374285D01*
X38492857Y-140445714D01*
X38207142Y-140517142D01*
X37850000Y-140517142D01*
X37564285Y-140445714D01*
X37421428Y-140374285D01*
X37350000Y-140302857D01*
X37278571Y-140160000D01*
X38778571Y-138231428D02*
X38778571Y-139088571D01*
X38778571Y-138660000D02*
X37278571Y-138660000D01*
X37492857Y-138802857D01*
X37635714Y-138945714D01*
X37707142Y-139088571D01*
X38778571Y-137517142D02*
X38778571Y-137231428D01*
X38707142Y-137088571D01*
X38635714Y-137017142D01*
X38421428Y-136874285D01*
X38135714Y-136802857D01*
X37564285Y-136802857D01*
X37421428Y-136874285D01*
X37350000Y-136945714D01*
X37278571Y-137088571D01*
X37278571Y-137374285D01*
X37350000Y-137517142D01*
X37421428Y-137588571D01*
X37564285Y-137660000D01*
X37921428Y-137660000D01*
X38064285Y-137588571D01*
X38135714Y-137517142D01*
X38207142Y-137374285D01*
X38207142Y-137088571D01*
X38135714Y-136945714D01*
X38064285Y-136874285D01*
X37921428Y-136802857D01*
X37207142Y-135088571D02*
X39135714Y-136374285D01*
X38778571Y-133802857D02*
X38778571Y-134660000D01*
X38778571Y-134231428D02*
X37278571Y-134231428D01*
X37492857Y-134374285D01*
X37635714Y-134517142D01*
X37707142Y-134660000D01*
X38778571Y-132374285D02*
X38778571Y-133231428D01*
X38778571Y-132802857D02*
X37278571Y-132802857D01*
X37492857Y-132945714D01*
X37635714Y-133088571D01*
X37707142Y-133231428D01*
X75716428Y-71163571D02*
X75716428Y-69663571D01*
X76359285Y-69806428D02*
X76430714Y-69735000D01*
X76573571Y-69663571D01*
X76930714Y-69663571D01*
X77073571Y-69735000D01*
X77145000Y-69806428D01*
X77216428Y-69949285D01*
X77216428Y-70092142D01*
X77145000Y-70306428D01*
X76287857Y-71163571D01*
X77216428Y-71163571D01*
X78716428Y-71020714D02*
X78645000Y-71092142D01*
X78430714Y-71163571D01*
X78287857Y-71163571D01*
X78073571Y-71092142D01*
X77930714Y-70949285D01*
X77859285Y-70806428D01*
X77787857Y-70520714D01*
X77787857Y-70306428D01*
X77859285Y-70020714D01*
X77930714Y-69877857D01*
X78073571Y-69735000D01*
X78287857Y-69663571D01*
X78430714Y-69663571D01*
X78645000Y-69735000D01*
X78716428Y-69806428D01*
X79359285Y-71020714D02*
X79430714Y-71092142D01*
X79359285Y-71163571D01*
X79287857Y-71092142D01*
X79359285Y-71020714D01*
X79359285Y-71163571D01*
X79359285Y-70235000D02*
X79430714Y-70306428D01*
X79359285Y-70377857D01*
X79287857Y-70306428D01*
X79359285Y-70235000D01*
X79359285Y-70377857D01*
X80859285Y-69735000D02*
X80716428Y-69663571D01*
X80502142Y-69663571D01*
X80287857Y-69735000D01*
X80145000Y-69877857D01*
X80073571Y-70020714D01*
X80002142Y-70306428D01*
X80002142Y-70520714D01*
X80073571Y-70806428D01*
X80145000Y-70949285D01*
X80287857Y-71092142D01*
X80502142Y-71163571D01*
X80645000Y-71163571D01*
X80859285Y-71092142D01*
X80930714Y-71020714D01*
X80930714Y-70520714D01*
X80645000Y-70520714D01*
X81573571Y-71163571D02*
X81573571Y-70163571D01*
X81573571Y-70449285D02*
X81645000Y-70306428D01*
X81716428Y-70235000D01*
X81859285Y-70163571D01*
X82002142Y-70163571D01*
X82716428Y-71163571D02*
X82573571Y-71092142D01*
X82502142Y-71020714D01*
X82430714Y-70877857D01*
X82430714Y-70449285D01*
X82502142Y-70306428D01*
X82573571Y-70235000D01*
X82716428Y-70163571D01*
X82930714Y-70163571D01*
X83073571Y-70235000D01*
X83145000Y-70306428D01*
X83216428Y-70449285D01*
X83216428Y-70877857D01*
X83145000Y-71020714D01*
X83073571Y-71092142D01*
X82930714Y-71163571D01*
X82716428Y-71163571D01*
X83716428Y-70163571D02*
X84073571Y-71163571D01*
X84430714Y-70163571D01*
X85573571Y-71092142D02*
X85430714Y-71163571D01*
X85145000Y-71163571D01*
X85002142Y-71092142D01*
X84930714Y-70949285D01*
X84930714Y-70377857D01*
X85002142Y-70235000D01*
X85145000Y-70163571D01*
X85430714Y-70163571D01*
X85573571Y-70235000D01*
X85645000Y-70377857D01*
X85645000Y-70520714D01*
X84930714Y-70663571D01*
X48498571Y-31000000D02*
X48355714Y-30928571D01*
X48141428Y-30928571D01*
X47927142Y-31000000D01*
X47784285Y-31142857D01*
X47712857Y-31285714D01*
X47641428Y-31571428D01*
X47641428Y-31785714D01*
X47712857Y-32071428D01*
X47784285Y-32214285D01*
X47927142Y-32357142D01*
X48141428Y-32428571D01*
X48284285Y-32428571D01*
X48498571Y-32357142D01*
X48570000Y-32285714D01*
X48570000Y-31785714D01*
X48284285Y-31785714D01*
X49212857Y-32428571D02*
X49212857Y-30928571D01*
X49784285Y-30928571D01*
X49927142Y-31000000D01*
X49998571Y-31071428D01*
X50070000Y-31214285D01*
X50070000Y-31428571D01*
X49998571Y-31571428D01*
X49927142Y-31642857D01*
X49784285Y-31714285D01*
X49212857Y-31714285D01*
X50712857Y-32428571D02*
X50712857Y-30928571D01*
X51712857Y-30928571D02*
X51998571Y-30928571D01*
X52141428Y-31000000D01*
X52284285Y-31142857D01*
X52355714Y-31428571D01*
X52355714Y-31928571D01*
X52284285Y-32214285D01*
X52141428Y-32357142D01*
X51998571Y-32428571D01*
X51712857Y-32428571D01*
X51570000Y-32357142D01*
X51427142Y-32214285D01*
X51355714Y-31928571D01*
X51355714Y-31428571D01*
X51427142Y-31142857D01*
X51570000Y-31000000D01*
X51712857Y-30928571D01*
X52641428Y-32571428D02*
X53784285Y-32571428D01*
X54141428Y-32428571D02*
X54141428Y-30928571D01*
X54712857Y-30928571D01*
X54855714Y-31000000D01*
X54927142Y-31071428D01*
X54998571Y-31214285D01*
X54998571Y-31428571D01*
X54927142Y-31571428D01*
X54855714Y-31642857D01*
X54712857Y-31714285D01*
X54141428Y-31714285D01*
X55641428Y-32428571D02*
X55641428Y-30928571D01*
X55998571Y-30928571D01*
X56212857Y-31000000D01*
X56355714Y-31142857D01*
X56427142Y-31285714D01*
X56498571Y-31571428D01*
X56498571Y-31785714D01*
X56427142Y-32071428D01*
X56355714Y-32214285D01*
X56212857Y-32357142D01*
X55998571Y-32428571D01*
X55641428Y-32428571D01*
X102437857Y-38620000D02*
X102295000Y-38548571D01*
X102080714Y-38548571D01*
X101866428Y-38620000D01*
X101723571Y-38762857D01*
X101652142Y-38905714D01*
X101580714Y-39191428D01*
X101580714Y-39405714D01*
X101652142Y-39691428D01*
X101723571Y-39834285D01*
X101866428Y-39977142D01*
X102080714Y-40048571D01*
X102223571Y-40048571D01*
X102437857Y-39977142D01*
X102509285Y-39905714D01*
X102509285Y-39405714D01*
X102223571Y-39405714D01*
X103152142Y-40048571D02*
X103152142Y-38548571D01*
X103723571Y-38548571D01*
X103866428Y-38620000D01*
X103937857Y-38691428D01*
X104009285Y-38834285D01*
X104009285Y-39048571D01*
X103937857Y-39191428D01*
X103866428Y-39262857D01*
X103723571Y-39334285D01*
X103152142Y-39334285D01*
X104652142Y-40048571D02*
X104652142Y-38548571D01*
X105652142Y-38548571D02*
X105937857Y-38548571D01*
X106080714Y-38620000D01*
X106223571Y-38762857D01*
X106295000Y-39048571D01*
X106295000Y-39548571D01*
X106223571Y-39834285D01*
X106080714Y-39977142D01*
X105937857Y-40048571D01*
X105652142Y-40048571D01*
X105509285Y-39977142D01*
X105366428Y-39834285D01*
X105295000Y-39548571D01*
X105295000Y-39048571D01*
X105366428Y-38762857D01*
X105509285Y-38620000D01*
X105652142Y-38548571D01*
X106580714Y-40191428D02*
X107723571Y-40191428D01*
X108080714Y-40048571D02*
X108080714Y-38548571D01*
X108652142Y-38548571D01*
X108795000Y-38620000D01*
X108866428Y-38691428D01*
X108937857Y-38834285D01*
X108937857Y-39048571D01*
X108866428Y-39191428D01*
X108795000Y-39262857D01*
X108652142Y-39334285D01*
X108080714Y-39334285D01*
X109580714Y-38548571D02*
X109580714Y-39762857D01*
X109652142Y-39905714D01*
X109723571Y-39977142D01*
X109866428Y-40048571D01*
X110152142Y-40048571D01*
X110295000Y-39977142D01*
X110366428Y-39905714D01*
X110437857Y-39762857D01*
X110437857Y-38548571D01*
X103790714Y-62678571D02*
X103505000Y-62678571D01*
X103362142Y-62750000D01*
X103290714Y-62821428D01*
X103147857Y-63035714D01*
X103076428Y-63321428D01*
X103076428Y-63892857D01*
X103147857Y-64035714D01*
X103219285Y-64107142D01*
X103362142Y-64178571D01*
X103647857Y-64178571D01*
X103790714Y-64107142D01*
X103862142Y-64035714D01*
X103933571Y-63892857D01*
X103933571Y-63535714D01*
X103862142Y-63392857D01*
X103790714Y-63321428D01*
X103647857Y-63250000D01*
X103362142Y-63250000D01*
X103219285Y-63321428D01*
X103147857Y-63392857D01*
X103076428Y-63535714D01*
X103862142Y-52518571D02*
X103147857Y-52518571D01*
X103076428Y-53232857D01*
X103147857Y-53161428D01*
X103290714Y-53090000D01*
X103647857Y-53090000D01*
X103790714Y-53161428D01*
X103862142Y-53232857D01*
X103933571Y-53375714D01*
X103933571Y-53732857D01*
X103862142Y-53875714D01*
X103790714Y-53947142D01*
X103647857Y-54018571D01*
X103290714Y-54018571D01*
X103147857Y-53947142D01*
X103076428Y-53875714D01*
X103790714Y-42858571D02*
X103790714Y-43858571D01*
X103433571Y-42287142D02*
X103076428Y-43358571D01*
X104005000Y-43358571D01*
X68929285Y-36238571D02*
X68072142Y-36238571D01*
X68500714Y-36238571D02*
X68500714Y-34738571D01*
X68357857Y-34952857D01*
X68215000Y-35095714D01*
X68072142Y-35167142D01*
X69500714Y-34881428D02*
X69572142Y-34810000D01*
X69715000Y-34738571D01*
X70072142Y-34738571D01*
X70215000Y-34810000D01*
X70286428Y-34881428D01*
X70357857Y-35024285D01*
X70357857Y-35167142D01*
X70286428Y-35381428D01*
X69429285Y-36238571D01*
X70357857Y-36238571D01*
X68929285Y-44493571D02*
X68072142Y-44493571D01*
X68500714Y-44493571D02*
X68500714Y-42993571D01*
X68357857Y-43207857D01*
X68215000Y-43350714D01*
X68072142Y-43422142D01*
X69429285Y-42993571D02*
X70357857Y-42993571D01*
X69857857Y-43565000D01*
X70072142Y-43565000D01*
X70215000Y-43636428D01*
X70286428Y-43707857D01*
X70357857Y-43850714D01*
X70357857Y-44207857D01*
X70286428Y-44350714D01*
X70215000Y-44422142D01*
X70072142Y-44493571D01*
X69643571Y-44493571D01*
X69500714Y-44422142D01*
X69429285Y-44350714D01*
X68929285Y-52748571D02*
X68072142Y-52748571D01*
X68500714Y-52748571D02*
X68500714Y-51248571D01*
X68357857Y-51462857D01*
X68215000Y-51605714D01*
X68072142Y-51677142D01*
X70215000Y-51248571D02*
X69929285Y-51248571D01*
X69786428Y-51320000D01*
X69715000Y-51391428D01*
X69572142Y-51605714D01*
X69500714Y-51891428D01*
X69500714Y-52462857D01*
X69572142Y-52605714D01*
X69643571Y-52677142D01*
X69786428Y-52748571D01*
X70072142Y-52748571D01*
X70215000Y-52677142D01*
X70286428Y-52605714D01*
X70357857Y-52462857D01*
X70357857Y-52105714D01*
X70286428Y-51962857D01*
X70215000Y-51891428D01*
X70072142Y-51820000D01*
X69786428Y-51820000D01*
X69643571Y-51891428D01*
X69572142Y-51962857D01*
X69500714Y-52105714D01*
X68929285Y-61003571D02*
X68072142Y-61003571D01*
X68500714Y-61003571D02*
X68500714Y-59503571D01*
X68357857Y-59717857D01*
X68215000Y-59860714D01*
X68072142Y-59932142D01*
X69429285Y-59503571D02*
X70429285Y-59503571D01*
X69786428Y-61003571D01*
X68929285Y-69258571D02*
X68072142Y-69258571D01*
X68500714Y-69258571D02*
X68500714Y-67758571D01*
X68357857Y-67972857D01*
X68215000Y-68115714D01*
X68072142Y-68187142D01*
X69786428Y-68401428D02*
X69643571Y-68330000D01*
X69572142Y-68258571D01*
X69500714Y-68115714D01*
X69500714Y-68044285D01*
X69572142Y-67901428D01*
X69643571Y-67830000D01*
X69786428Y-67758571D01*
X70072142Y-67758571D01*
X70215000Y-67830000D01*
X70286428Y-67901428D01*
X70357857Y-68044285D01*
X70357857Y-68115714D01*
X70286428Y-68258571D01*
X70215000Y-68330000D01*
X70072142Y-68401428D01*
X69786428Y-68401428D01*
X69643571Y-68472857D01*
X69572142Y-68544285D01*
X69500714Y-68687142D01*
X69500714Y-68972857D01*
X69572142Y-69115714D01*
X69643571Y-69187142D01*
X69786428Y-69258571D01*
X70072142Y-69258571D01*
X70215000Y-69187142D01*
X70286428Y-69115714D01*
X70357857Y-68972857D01*
X70357857Y-68687142D01*
X70286428Y-68544285D01*
X70215000Y-68472857D01*
X70072142Y-68401428D01*
X68929285Y-77513571D02*
X68072142Y-77513571D01*
X68500714Y-77513571D02*
X68500714Y-76013571D01*
X68357857Y-76227857D01*
X68215000Y-76370714D01*
X68072142Y-76442142D01*
X69643571Y-77513571D02*
X69929285Y-77513571D01*
X70072142Y-77442142D01*
X70143571Y-77370714D01*
X70286428Y-77156428D01*
X70357857Y-76870714D01*
X70357857Y-76299285D01*
X70286428Y-76156428D01*
X70215000Y-76085000D01*
X70072142Y-76013571D01*
X69786428Y-76013571D01*
X69643571Y-76085000D01*
X69572142Y-76156428D01*
X69500714Y-76299285D01*
X69500714Y-76656428D01*
X69572142Y-76799285D01*
X69643571Y-76870714D01*
X69786428Y-76942142D01*
X70072142Y-76942142D01*
X70215000Y-76870714D01*
X70286428Y-76799285D01*
X70357857Y-76656428D01*
X68072142Y-84411428D02*
X68143571Y-84340000D01*
X68286428Y-84268571D01*
X68643571Y-84268571D01*
X68786428Y-84340000D01*
X68857857Y-84411428D01*
X68929285Y-84554285D01*
X68929285Y-84697142D01*
X68857857Y-84911428D01*
X68000714Y-85768571D01*
X68929285Y-85768571D01*
X69857857Y-84268571D02*
X70000714Y-84268571D01*
X70143571Y-84340000D01*
X70215000Y-84411428D01*
X70286428Y-84554285D01*
X70357857Y-84840000D01*
X70357857Y-85197142D01*
X70286428Y-85482857D01*
X70215000Y-85625714D01*
X70143571Y-85697142D01*
X70000714Y-85768571D01*
X69857857Y-85768571D01*
X69715000Y-85697142D01*
X69643571Y-85625714D01*
X69572142Y-85482857D01*
X69500714Y-85197142D01*
X69500714Y-84840000D01*
X69572142Y-84554285D01*
X69643571Y-84411428D01*
X69715000Y-84340000D01*
X69857857Y-84268571D01*
X68072142Y-92666428D02*
X68143571Y-92595000D01*
X68286428Y-92523571D01*
X68643571Y-92523571D01*
X68786428Y-92595000D01*
X68857857Y-92666428D01*
X68929285Y-92809285D01*
X68929285Y-92952142D01*
X68857857Y-93166428D01*
X68000714Y-94023571D01*
X68929285Y-94023571D01*
X70357857Y-94023571D02*
X69500714Y-94023571D01*
X69929285Y-94023571D02*
X69929285Y-92523571D01*
X69786428Y-92737857D01*
X69643571Y-92880714D01*
X69500714Y-92952142D01*
X68072142Y-100921428D02*
X68143571Y-100850000D01*
X68286428Y-100778571D01*
X68643571Y-100778571D01*
X68786428Y-100850000D01*
X68857857Y-100921428D01*
X68929285Y-101064285D01*
X68929285Y-101207142D01*
X68857857Y-101421428D01*
X68000714Y-102278571D01*
X68929285Y-102278571D01*
X69500714Y-100921428D02*
X69572142Y-100850000D01*
X69715000Y-100778571D01*
X70072142Y-100778571D01*
X70215000Y-100850000D01*
X70286428Y-100921428D01*
X70357857Y-101064285D01*
X70357857Y-101207142D01*
X70286428Y-101421428D01*
X69429285Y-102278571D01*
X70357857Y-102278571D01*
X68072142Y-109176428D02*
X68143571Y-109105000D01*
X68286428Y-109033571D01*
X68643571Y-109033571D01*
X68786428Y-109105000D01*
X68857857Y-109176428D01*
X68929285Y-109319285D01*
X68929285Y-109462142D01*
X68857857Y-109676428D01*
X68000714Y-110533571D01*
X68929285Y-110533571D01*
X69429285Y-109033571D02*
X70357857Y-109033571D01*
X69857857Y-109605000D01*
X70072142Y-109605000D01*
X70215000Y-109676428D01*
X70286428Y-109747857D01*
X70357857Y-109890714D01*
X70357857Y-110247857D01*
X70286428Y-110390714D01*
X70215000Y-110462142D01*
X70072142Y-110533571D01*
X69643571Y-110533571D01*
X69500714Y-110462142D01*
X69429285Y-110390714D01*
X68072142Y-117431428D02*
X68143571Y-117360000D01*
X68286428Y-117288571D01*
X68643571Y-117288571D01*
X68786428Y-117360000D01*
X68857857Y-117431428D01*
X68929285Y-117574285D01*
X68929285Y-117717142D01*
X68857857Y-117931428D01*
X68000714Y-118788571D01*
X68929285Y-118788571D01*
X70215000Y-117788571D02*
X70215000Y-118788571D01*
X69857857Y-117217142D02*
X69500714Y-118288571D01*
X70429285Y-118288571D01*
X68072142Y-125686428D02*
X68143571Y-125615000D01*
X68286428Y-125543571D01*
X68643571Y-125543571D01*
X68786428Y-125615000D01*
X68857857Y-125686428D01*
X68929285Y-125829285D01*
X68929285Y-125972142D01*
X68857857Y-126186428D01*
X68000714Y-127043571D01*
X68929285Y-127043571D01*
X70286428Y-125543571D02*
X69572142Y-125543571D01*
X69500714Y-126257857D01*
X69572142Y-126186428D01*
X69715000Y-126115000D01*
X70072142Y-126115000D01*
X70215000Y-126186428D01*
X70286428Y-126257857D01*
X70357857Y-126400714D01*
X70357857Y-126757857D01*
X70286428Y-126900714D01*
X70215000Y-126972142D01*
X70072142Y-127043571D01*
X69715000Y-127043571D01*
X69572142Y-126972142D01*
X69500714Y-126900714D01*
X68072142Y-133941428D02*
X68143571Y-133870000D01*
X68286428Y-133798571D01*
X68643571Y-133798571D01*
X68786428Y-133870000D01*
X68857857Y-133941428D01*
X68929285Y-134084285D01*
X68929285Y-134227142D01*
X68857857Y-134441428D01*
X68000714Y-135298571D01*
X68929285Y-135298571D01*
X70215000Y-133798571D02*
X69929285Y-133798571D01*
X69786428Y-133870000D01*
X69715000Y-133941428D01*
X69572142Y-134155714D01*
X69500714Y-134441428D01*
X69500714Y-135012857D01*
X69572142Y-135155714D01*
X69643571Y-135227142D01*
X69786428Y-135298571D01*
X70072142Y-135298571D01*
X70215000Y-135227142D01*
X70286428Y-135155714D01*
X70357857Y-135012857D01*
X70357857Y-134655714D01*
X70286428Y-134512857D01*
X70215000Y-134441428D01*
X70072142Y-134370000D01*
X69786428Y-134370000D01*
X69643571Y-134441428D01*
X69572142Y-134512857D01*
X69500714Y-134655714D01*
X68072142Y-142196428D02*
X68143571Y-142125000D01*
X68286428Y-142053571D01*
X68643571Y-142053571D01*
X68786428Y-142125000D01*
X68857857Y-142196428D01*
X68929285Y-142339285D01*
X68929285Y-142482142D01*
X68857857Y-142696428D01*
X68000714Y-143553571D01*
X68929285Y-143553571D01*
X69429285Y-142053571D02*
X70429285Y-142053571D01*
X69786428Y-143553571D01*
X85768571Y-127920000D02*
X85054285Y-128420000D01*
X85768571Y-128777142D02*
X84268571Y-128777142D01*
X84268571Y-128205714D01*
X84340000Y-128062857D01*
X84411428Y-127991428D01*
X84554285Y-127920000D01*
X84768571Y-127920000D01*
X84911428Y-127991428D01*
X84982857Y-128062857D01*
X85054285Y-128205714D01*
X85054285Y-128777142D01*
X85768571Y-126634285D02*
X84982857Y-126634285D01*
X84840000Y-126705714D01*
X84768571Y-126848571D01*
X84768571Y-127134285D01*
X84840000Y-127277142D01*
X85697142Y-126634285D02*
X85768571Y-126777142D01*
X85768571Y-127134285D01*
X85697142Y-127277142D01*
X85554285Y-127348571D01*
X85411428Y-127348571D01*
X85268571Y-127277142D01*
X85197142Y-127134285D01*
X85197142Y-126777142D01*
X85125714Y-126634285D01*
X85697142Y-125991428D02*
X85768571Y-125848571D01*
X85768571Y-125562857D01*
X85697142Y-125420000D01*
X85554285Y-125348571D01*
X85482857Y-125348571D01*
X85340000Y-125420000D01*
X85268571Y-125562857D01*
X85268571Y-125777142D01*
X85197142Y-125920000D01*
X85054285Y-125991428D01*
X84982857Y-125991428D01*
X84840000Y-125920000D01*
X84768571Y-125777142D01*
X84768571Y-125562857D01*
X84840000Y-125420000D01*
X84768571Y-124705714D02*
X86268571Y-124705714D01*
X84840000Y-124705714D02*
X84768571Y-124562857D01*
X84768571Y-124277142D01*
X84840000Y-124134285D01*
X84911428Y-124062857D01*
X85054285Y-123991428D01*
X85482857Y-123991428D01*
X85625714Y-124062857D01*
X85697142Y-124134285D01*
X85768571Y-124277142D01*
X85768571Y-124562857D01*
X85697142Y-124705714D01*
X85768571Y-123348571D02*
X84268571Y-123348571D01*
X84840000Y-123348571D02*
X84768571Y-123205714D01*
X84768571Y-122920000D01*
X84840000Y-122777142D01*
X84911428Y-122705714D01*
X85054285Y-122634285D01*
X85482857Y-122634285D01*
X85625714Y-122705714D01*
X85697142Y-122777142D01*
X85768571Y-122920000D01*
X85768571Y-123205714D01*
X85697142Y-123348571D01*
X85697142Y-121420000D02*
X85768571Y-121562857D01*
X85768571Y-121848571D01*
X85697142Y-121991428D01*
X85554285Y-122062857D01*
X84982857Y-122062857D01*
X84840000Y-121991428D01*
X84768571Y-121848571D01*
X84768571Y-121562857D01*
X84840000Y-121420000D01*
X84982857Y-121348571D01*
X85125714Y-121348571D01*
X85268571Y-122062857D01*
X85768571Y-120705714D02*
X84768571Y-120705714D01*
X85054285Y-120705714D02*
X84911428Y-120634285D01*
X84840000Y-120562857D01*
X84768571Y-120420000D01*
X84768571Y-120277142D01*
X85768571Y-119777142D02*
X84768571Y-119777142D01*
X85054285Y-119777142D02*
X84911428Y-119705714D01*
X84840000Y-119634285D01*
X84768571Y-119491428D01*
X84768571Y-119348571D01*
X84768571Y-118991428D02*
X85768571Y-118634285D01*
X84768571Y-118277142D02*
X85768571Y-118634285D01*
X86125714Y-118777142D01*
X86197142Y-118848571D01*
X86268571Y-118991428D01*
X85768571Y-116562857D02*
X84268571Y-116562857D01*
X84268571Y-115991428D01*
X84340000Y-115848571D01*
X84411428Y-115777142D01*
X84554285Y-115705714D01*
X84768571Y-115705714D01*
X84911428Y-115777142D01*
X84982857Y-115848571D01*
X85054285Y-115991428D01*
X85054285Y-116562857D01*
X85768571Y-115062857D02*
X84768571Y-115062857D01*
X84268571Y-115062857D02*
X84340000Y-115134285D01*
X84411428Y-115062857D01*
X84340000Y-114991428D01*
X84268571Y-115062857D01*
X84411428Y-115062857D01*
X37235000Y-62750000D02*
X37092142Y-62678571D01*
X36877857Y-62678571D01*
X36663571Y-62750000D01*
X36520714Y-62892857D01*
X36449285Y-63035714D01*
X36377857Y-63321428D01*
X36377857Y-63535714D01*
X36449285Y-63821428D01*
X36520714Y-63964285D01*
X36663571Y-64107142D01*
X36877857Y-64178571D01*
X37020714Y-64178571D01*
X37235000Y-64107142D01*
X37306428Y-64035714D01*
X37306428Y-63535714D01*
X37020714Y-63535714D01*
X37949285Y-64178571D02*
X37949285Y-62678571D01*
X38520714Y-62678571D01*
X38663571Y-62750000D01*
X38735000Y-62821428D01*
X38806428Y-62964285D01*
X38806428Y-63178571D01*
X38735000Y-63321428D01*
X38663571Y-63392857D01*
X38520714Y-63464285D01*
X37949285Y-63464285D01*
X39449285Y-64178571D02*
X39449285Y-62678571D01*
X40449285Y-62678571D02*
X40735000Y-62678571D01*
X40877857Y-62750000D01*
X41020714Y-62892857D01*
X41092142Y-63178571D01*
X41092142Y-63678571D01*
X41020714Y-63964285D01*
X40877857Y-64107142D01*
X40735000Y-64178571D01*
X40449285Y-64178571D01*
X40306428Y-64107142D01*
X40163571Y-63964285D01*
X40092142Y-63678571D01*
X40092142Y-63178571D01*
X40163571Y-62892857D01*
X40306428Y-62750000D01*
X40449285Y-62678571D01*
X42037142Y-67100000D02*
X41894285Y-67028571D01*
X41680000Y-67028571D01*
X41465714Y-67100000D01*
X41322857Y-67242857D01*
X41251428Y-67385714D01*
X41180000Y-67671428D01*
X41180000Y-67885714D01*
X41251428Y-68171428D01*
X41322857Y-68314285D01*
X41465714Y-68457142D01*
X41680000Y-68528571D01*
X41822857Y-68528571D01*
X42037142Y-68457142D01*
X42108571Y-68385714D01*
X42108571Y-67885714D01*
X41822857Y-67885714D01*
X42751428Y-68528571D02*
X42751428Y-67028571D01*
X43608571Y-68528571D01*
X43608571Y-67028571D01*
X44322857Y-68528571D02*
X44322857Y-67028571D01*
X44680000Y-67028571D01*
X44894285Y-67100000D01*
X45037142Y-67242857D01*
X45108571Y-67385714D01*
X45180000Y-67671428D01*
X45180000Y-67885714D01*
X45108571Y-68171428D01*
X45037142Y-68314285D01*
X44894285Y-68457142D01*
X44680000Y-68528571D01*
X44322857Y-68528571D01*
X41322857Y-69578571D02*
X42251428Y-69578571D01*
X41751428Y-70150000D01*
X41965714Y-70150000D01*
X42108571Y-70221428D01*
X42180000Y-70292857D01*
X42251428Y-70435714D01*
X42251428Y-70792857D01*
X42180000Y-70935714D01*
X42108571Y-71007142D01*
X41965714Y-71078571D01*
X41537142Y-71078571D01*
X41394285Y-71007142D01*
X41322857Y-70935714D01*
X42680000Y-69578571D02*
X43180000Y-71078571D01*
X43680000Y-69578571D01*
X44037142Y-69578571D02*
X44965714Y-69578571D01*
X44465714Y-70150000D01*
X44680000Y-70150000D01*
X44822857Y-70221428D01*
X44894285Y-70292857D01*
X44965714Y-70435714D01*
X44965714Y-70792857D01*
X44894285Y-70935714D01*
X44822857Y-71007142D01*
X44680000Y-71078571D01*
X44251428Y-71078571D01*
X44108571Y-71007142D01*
X44037142Y-70935714D01*
X42894285Y-72128571D02*
X42180000Y-72128571D01*
X42108571Y-72842857D01*
X42180000Y-72771428D01*
X42322857Y-72700000D01*
X42680000Y-72700000D01*
X42822857Y-72771428D01*
X42894285Y-72842857D01*
X42965714Y-72985714D01*
X42965714Y-73342857D01*
X42894285Y-73485714D01*
X42822857Y-73557142D01*
X42680000Y-73628571D01*
X42322857Y-73628571D01*
X42180000Y-73557142D01*
X42108571Y-73485714D01*
X43394285Y-72128571D02*
X43894285Y-73628571D01*
X44394285Y-72128571D01*
X43465714Y-75178571D02*
X43465714Y-76178571D01*
X43108571Y-74607142D02*
X42751428Y-75678571D01*
X43680000Y-75678571D01*
X43537142Y-77228571D02*
X42822857Y-77228571D01*
X42751428Y-77942857D01*
X42822857Y-77871428D01*
X42965714Y-77800000D01*
X43322857Y-77800000D01*
X43465714Y-77871428D01*
X43537142Y-77942857D01*
X43608571Y-78085714D01*
X43608571Y-78442857D01*
X43537142Y-78585714D01*
X43465714Y-78657142D01*
X43322857Y-78728571D01*
X42965714Y-78728571D01*
X42822857Y-78657142D01*
X42751428Y-78585714D01*
X43465714Y-79778571D02*
X43180000Y-79778571D01*
X43037142Y-79850000D01*
X42965714Y-79921428D01*
X42822857Y-80135714D01*
X42751428Y-80421428D01*
X42751428Y-80992857D01*
X42822857Y-81135714D01*
X42894285Y-81207142D01*
X43037142Y-81278571D01*
X43322857Y-81278571D01*
X43465714Y-81207142D01*
X43537142Y-81135714D01*
X43608571Y-80992857D01*
X43608571Y-80635714D01*
X43537142Y-80492857D01*
X43465714Y-80421428D01*
X43322857Y-80350000D01*
X43037142Y-80350000D01*
X42894285Y-80421428D01*
X42822857Y-80492857D01*
X42751428Y-80635714D01*
X42894285Y-83828571D02*
X42037142Y-83828571D01*
X42465714Y-83828571D02*
X42465714Y-82328571D01*
X42322857Y-82542857D01*
X42180000Y-82685714D01*
X42037142Y-82757142D01*
X43465714Y-82471428D02*
X43537142Y-82400000D01*
X43680000Y-82328571D01*
X44037142Y-82328571D01*
X44180000Y-82400000D01*
X44251428Y-82471428D01*
X44322857Y-82614285D01*
X44322857Y-82757142D01*
X44251428Y-82971428D01*
X43394285Y-83828571D01*
X44322857Y-83828571D01*
X42894285Y-86378571D02*
X42037142Y-86378571D01*
X42465714Y-86378571D02*
X42465714Y-84878571D01*
X42322857Y-85092857D01*
X42180000Y-85235714D01*
X42037142Y-85307142D01*
X43394285Y-84878571D02*
X44322857Y-84878571D01*
X43822857Y-85450000D01*
X44037142Y-85450000D01*
X44180000Y-85521428D01*
X44251428Y-85592857D01*
X44322857Y-85735714D01*
X44322857Y-86092857D01*
X44251428Y-86235714D01*
X44180000Y-86307142D01*
X44037142Y-86378571D01*
X43608571Y-86378571D01*
X43465714Y-86307142D01*
X43394285Y-86235714D01*
X42894285Y-88928571D02*
X42037142Y-88928571D01*
X42465714Y-88928571D02*
X42465714Y-87428571D01*
X42322857Y-87642857D01*
X42180000Y-87785714D01*
X42037142Y-87857142D01*
X44180000Y-87428571D02*
X43894285Y-87428571D01*
X43751428Y-87500000D01*
X43680000Y-87571428D01*
X43537142Y-87785714D01*
X43465714Y-88071428D01*
X43465714Y-88642857D01*
X43537142Y-88785714D01*
X43608571Y-88857142D01*
X43751428Y-88928571D01*
X44037142Y-88928571D01*
X44180000Y-88857142D01*
X44251428Y-88785714D01*
X44322857Y-88642857D01*
X44322857Y-88285714D01*
X44251428Y-88142857D01*
X44180000Y-88071428D01*
X44037142Y-88000000D01*
X43751428Y-88000000D01*
X43608571Y-88071428D01*
X43537142Y-88142857D01*
X43465714Y-88285714D01*
X42894285Y-91478571D02*
X42037142Y-91478571D01*
X42465714Y-91478571D02*
X42465714Y-89978571D01*
X42322857Y-90192857D01*
X42180000Y-90335714D01*
X42037142Y-90407142D01*
X43394285Y-89978571D02*
X44394285Y-89978571D01*
X43751428Y-91478571D01*
X42894285Y-94028571D02*
X42037142Y-94028571D01*
X42465714Y-94028571D02*
X42465714Y-92528571D01*
X42322857Y-92742857D01*
X42180000Y-92885714D01*
X42037142Y-92957142D01*
X43751428Y-93171428D02*
X43608571Y-93100000D01*
X43537142Y-93028571D01*
X43465714Y-92885714D01*
X43465714Y-92814285D01*
X43537142Y-92671428D01*
X43608571Y-92600000D01*
X43751428Y-92528571D01*
X44037142Y-92528571D01*
X44180000Y-92600000D01*
X44251428Y-92671428D01*
X44322857Y-92814285D01*
X44322857Y-92885714D01*
X44251428Y-93028571D01*
X44180000Y-93100000D01*
X44037142Y-93171428D01*
X43751428Y-93171428D01*
X43608571Y-93242857D01*
X43537142Y-93314285D01*
X43465714Y-93457142D01*
X43465714Y-93742857D01*
X43537142Y-93885714D01*
X43608571Y-93957142D01*
X43751428Y-94028571D01*
X44037142Y-94028571D01*
X44180000Y-93957142D01*
X44251428Y-93885714D01*
X44322857Y-93742857D01*
X44322857Y-93457142D01*
X44251428Y-93314285D01*
X44180000Y-93242857D01*
X44037142Y-93171428D01*
X42894285Y-96578571D02*
X42037142Y-96578571D01*
X42465714Y-96578571D02*
X42465714Y-95078571D01*
X42322857Y-95292857D01*
X42180000Y-95435714D01*
X42037142Y-95507142D01*
X43608571Y-96578571D02*
X43894285Y-96578571D01*
X44037142Y-96507142D01*
X44108571Y-96435714D01*
X44251428Y-96221428D01*
X44322857Y-95935714D01*
X44322857Y-95364285D01*
X44251428Y-95221428D01*
X44180000Y-95150000D01*
X44037142Y-95078571D01*
X43751428Y-95078571D01*
X43608571Y-95150000D01*
X43537142Y-95221428D01*
X43465714Y-95364285D01*
X43465714Y-95721428D01*
X43537142Y-95864285D01*
X43608571Y-95935714D01*
X43751428Y-96007142D01*
X44037142Y-96007142D01*
X44180000Y-95935714D01*
X44251428Y-95864285D01*
X44322857Y-95721428D01*
X42037142Y-97771428D02*
X42108571Y-97700000D01*
X42251428Y-97628571D01*
X42608571Y-97628571D01*
X42751428Y-97700000D01*
X42822857Y-97771428D01*
X42894285Y-97914285D01*
X42894285Y-98057142D01*
X42822857Y-98271428D01*
X41965714Y-99128571D01*
X42894285Y-99128571D01*
X43822857Y-97628571D02*
X43965714Y-97628571D01*
X44108571Y-97700000D01*
X44180000Y-97771428D01*
X44251428Y-97914285D01*
X44322857Y-98200000D01*
X44322857Y-98557142D01*
X44251428Y-98842857D01*
X44180000Y-98985714D01*
X44108571Y-99057142D01*
X43965714Y-99128571D01*
X43822857Y-99128571D01*
X43680000Y-99057142D01*
X43608571Y-98985714D01*
X43537142Y-98842857D01*
X43465714Y-98557142D01*
X43465714Y-98200000D01*
X43537142Y-97914285D01*
X43608571Y-97771428D01*
X43680000Y-97700000D01*
X43822857Y-97628571D01*
X42037142Y-100321428D02*
X42108571Y-100250000D01*
X42251428Y-100178571D01*
X42608571Y-100178571D01*
X42751428Y-100250000D01*
X42822857Y-100321428D01*
X42894285Y-100464285D01*
X42894285Y-100607142D01*
X42822857Y-100821428D01*
X41965714Y-101678571D01*
X42894285Y-101678571D01*
X44322857Y-101678571D02*
X43465714Y-101678571D01*
X43894285Y-101678571D02*
X43894285Y-100178571D01*
X43751428Y-100392857D01*
X43608571Y-100535714D01*
X43465714Y-100607142D01*
X42037142Y-102871428D02*
X42108571Y-102800000D01*
X42251428Y-102728571D01*
X42608571Y-102728571D01*
X42751428Y-102800000D01*
X42822857Y-102871428D01*
X42894285Y-103014285D01*
X42894285Y-103157142D01*
X42822857Y-103371428D01*
X41965714Y-104228571D01*
X42894285Y-104228571D01*
X43465714Y-102871428D02*
X43537142Y-102800000D01*
X43680000Y-102728571D01*
X44037142Y-102728571D01*
X44180000Y-102800000D01*
X44251428Y-102871428D01*
X44322857Y-103014285D01*
X44322857Y-103157142D01*
X44251428Y-103371428D01*
X43394285Y-104228571D01*
X44322857Y-104228571D01*
X42037142Y-105421428D02*
X42108571Y-105350000D01*
X42251428Y-105278571D01*
X42608571Y-105278571D01*
X42751428Y-105350000D01*
X42822857Y-105421428D01*
X42894285Y-105564285D01*
X42894285Y-105707142D01*
X42822857Y-105921428D01*
X41965714Y-106778571D01*
X42894285Y-106778571D01*
X43394285Y-105278571D02*
X44322857Y-105278571D01*
X43822857Y-105850000D01*
X44037142Y-105850000D01*
X44180000Y-105921428D01*
X44251428Y-105992857D01*
X44322857Y-106135714D01*
X44322857Y-106492857D01*
X44251428Y-106635714D01*
X44180000Y-106707142D01*
X44037142Y-106778571D01*
X43608571Y-106778571D01*
X43465714Y-106707142D01*
X43394285Y-106635714D01*
X42037142Y-107971428D02*
X42108571Y-107900000D01*
X42251428Y-107828571D01*
X42608571Y-107828571D01*
X42751428Y-107900000D01*
X42822857Y-107971428D01*
X42894285Y-108114285D01*
X42894285Y-108257142D01*
X42822857Y-108471428D01*
X41965714Y-109328571D01*
X42894285Y-109328571D01*
X44180000Y-108328571D02*
X44180000Y-109328571D01*
X43822857Y-107757142D02*
X43465714Y-108828571D01*
X44394285Y-108828571D01*
X42037142Y-110521428D02*
X42108571Y-110450000D01*
X42251428Y-110378571D01*
X42608571Y-110378571D01*
X42751428Y-110450000D01*
X42822857Y-110521428D01*
X42894285Y-110664285D01*
X42894285Y-110807142D01*
X42822857Y-111021428D01*
X41965714Y-111878571D01*
X42894285Y-111878571D01*
X44251428Y-110378571D02*
X43537142Y-110378571D01*
X43465714Y-111092857D01*
X43537142Y-111021428D01*
X43680000Y-110950000D01*
X44037142Y-110950000D01*
X44180000Y-111021428D01*
X44251428Y-111092857D01*
X44322857Y-111235714D01*
X44322857Y-111592857D01*
X44251428Y-111735714D01*
X44180000Y-111807142D01*
X44037142Y-111878571D01*
X43680000Y-111878571D01*
X43537142Y-111807142D01*
X43465714Y-111735714D01*
X42037142Y-113071428D02*
X42108571Y-113000000D01*
X42251428Y-112928571D01*
X42608571Y-112928571D01*
X42751428Y-113000000D01*
X42822857Y-113071428D01*
X42894285Y-113214285D01*
X42894285Y-113357142D01*
X42822857Y-113571428D01*
X41965714Y-114428571D01*
X42894285Y-114428571D01*
X44180000Y-112928571D02*
X43894285Y-112928571D01*
X43751428Y-113000000D01*
X43680000Y-113071428D01*
X43537142Y-113285714D01*
X43465714Y-113571428D01*
X43465714Y-114142857D01*
X43537142Y-114285714D01*
X43608571Y-114357142D01*
X43751428Y-114428571D01*
X44037142Y-114428571D01*
X44180000Y-114357142D01*
X44251428Y-114285714D01*
X44322857Y-114142857D01*
X44322857Y-113785714D01*
X44251428Y-113642857D01*
X44180000Y-113571428D01*
X44037142Y-113500000D01*
X43751428Y-113500000D01*
X43608571Y-113571428D01*
X43537142Y-113642857D01*
X43465714Y-113785714D01*
X42037142Y-115621428D02*
X42108571Y-115550000D01*
X42251428Y-115478571D01*
X42608571Y-115478571D01*
X42751428Y-115550000D01*
X42822857Y-115621428D01*
X42894285Y-115764285D01*
X42894285Y-115907142D01*
X42822857Y-116121428D01*
X41965714Y-116978571D01*
X42894285Y-116978571D01*
X43394285Y-115478571D02*
X44394285Y-115478571D01*
X43751428Y-116978571D01*
X73779285Y-76157142D02*
X73993571Y-76228571D01*
X74350714Y-76228571D01*
X74493571Y-76157142D01*
X74565000Y-76085714D01*
X74636428Y-75942857D01*
X74636428Y-75800000D01*
X74565000Y-75657142D01*
X74493571Y-75585714D01*
X74350714Y-75514285D01*
X74065000Y-75442857D01*
X73922142Y-75371428D01*
X73850714Y-75300000D01*
X73779285Y-75157142D01*
X73779285Y-75014285D01*
X73850714Y-74871428D01*
X73922142Y-74800000D01*
X74065000Y-74728571D01*
X74422142Y-74728571D01*
X74636428Y-74800000D01*
X76136428Y-76085714D02*
X76065000Y-76157142D01*
X75850714Y-76228571D01*
X75707857Y-76228571D01*
X75493571Y-76157142D01*
X75350714Y-76014285D01*
X75279285Y-75871428D01*
X75207857Y-75585714D01*
X75207857Y-75371428D01*
X75279285Y-75085714D01*
X75350714Y-74942857D01*
X75493571Y-74800000D01*
X75707857Y-74728571D01*
X75850714Y-74728571D01*
X76065000Y-74800000D01*
X76136428Y-74871428D01*
X77493571Y-76228571D02*
X76779285Y-76228571D01*
X76779285Y-74728571D01*
X73743571Y-78707142D02*
X73957857Y-78778571D01*
X74315000Y-78778571D01*
X74457857Y-78707142D01*
X74529285Y-78635714D01*
X74600714Y-78492857D01*
X74600714Y-78350000D01*
X74529285Y-78207142D01*
X74457857Y-78135714D01*
X74315000Y-78064285D01*
X74029285Y-77992857D01*
X73886428Y-77921428D01*
X73815000Y-77850000D01*
X73743571Y-77707142D01*
X73743571Y-77564285D01*
X73815000Y-77421428D01*
X73886428Y-77350000D01*
X74029285Y-77278571D01*
X74386428Y-77278571D01*
X74600714Y-77350000D01*
X75243571Y-78778571D02*
X75243571Y-77278571D01*
X75600714Y-77278571D01*
X75815000Y-77350000D01*
X75957857Y-77492857D01*
X76029285Y-77635714D01*
X76100714Y-77921428D01*
X76100714Y-78135714D01*
X76029285Y-78421428D01*
X75957857Y-78564285D01*
X75815000Y-78707142D01*
X75600714Y-78778571D01*
X75243571Y-78778571D01*
X76672142Y-78350000D02*
X77386428Y-78350000D01*
X76529285Y-78778571D02*
X77029285Y-77278571D01*
X77529285Y-78778571D01*
X73707857Y-79828571D02*
X74636428Y-79828571D01*
X74136428Y-80400000D01*
X74350714Y-80400000D01*
X74493571Y-80471428D01*
X74565000Y-80542857D01*
X74636428Y-80685714D01*
X74636428Y-81042857D01*
X74565000Y-81185714D01*
X74493571Y-81257142D01*
X74350714Y-81328571D01*
X73922142Y-81328571D01*
X73779285Y-81257142D01*
X73707857Y-81185714D01*
X75065000Y-79828571D02*
X75565000Y-81328571D01*
X76065000Y-79828571D01*
X76422142Y-79828571D02*
X77350714Y-79828571D01*
X76850714Y-80400000D01*
X77065000Y-80400000D01*
X77207857Y-80471428D01*
X77279285Y-80542857D01*
X77350714Y-80685714D01*
X77350714Y-81042857D01*
X77279285Y-81185714D01*
X77207857Y-81257142D01*
X77065000Y-81328571D01*
X76636428Y-81328571D01*
X76493571Y-81257142D01*
X76422142Y-81185714D01*
X74422142Y-82450000D02*
X74279285Y-82378571D01*
X74065000Y-82378571D01*
X73850714Y-82450000D01*
X73707857Y-82592857D01*
X73636428Y-82735714D01*
X73565000Y-83021428D01*
X73565000Y-83235714D01*
X73636428Y-83521428D01*
X73707857Y-83664285D01*
X73850714Y-83807142D01*
X74065000Y-83878571D01*
X74207857Y-83878571D01*
X74422142Y-83807142D01*
X74493571Y-83735714D01*
X74493571Y-83235714D01*
X74207857Y-83235714D01*
X75136428Y-83878571D02*
X75136428Y-82378571D01*
X75993571Y-83878571D01*
X75993571Y-82378571D01*
X76707857Y-83878571D02*
X76707857Y-82378571D01*
X77065000Y-82378571D01*
X77279285Y-82450000D01*
X77422142Y-82592857D01*
X77493571Y-82735714D01*
X77565000Y-83021428D01*
X77565000Y-83235714D01*
X77493571Y-83521428D01*
X77422142Y-83664285D01*
X77279285Y-83807142D01*
X77065000Y-83878571D01*
X76707857Y-83878571D01*
X94182857Y-92753571D02*
X94182857Y-91253571D01*
X94825714Y-91396428D02*
X94897142Y-91325000D01*
X95040000Y-91253571D01*
X95397142Y-91253571D01*
X95540000Y-91325000D01*
X95611428Y-91396428D01*
X95682857Y-91539285D01*
X95682857Y-91682142D01*
X95611428Y-91896428D01*
X94754285Y-92753571D01*
X95682857Y-92753571D01*
X97182857Y-92610714D02*
X97111428Y-92682142D01*
X96897142Y-92753571D01*
X96754285Y-92753571D01*
X96540000Y-92682142D01*
X96397142Y-92539285D01*
X96325714Y-92396428D01*
X96254285Y-92110714D01*
X96254285Y-91896428D01*
X96325714Y-91610714D01*
X96397142Y-91467857D01*
X96540000Y-91325000D01*
X96754285Y-91253571D01*
X96897142Y-91253571D01*
X97111428Y-91325000D01*
X97182857Y-91396428D01*
X98968571Y-92610714D02*
X99040000Y-92682142D01*
X98968571Y-92753571D01*
X98897142Y-92682142D01*
X98968571Y-92610714D01*
X98968571Y-92753571D01*
X98968571Y-91825000D02*
X99040000Y-91896428D01*
X98968571Y-91967857D01*
X98897142Y-91896428D01*
X98968571Y-91825000D01*
X98968571Y-91967857D01*
X100754285Y-92325000D02*
X101468571Y-92325000D01*
X100611428Y-92753571D02*
X101111428Y-91253571D01*
X101611428Y-92753571D01*
X102997142Y-116035000D02*
X102854285Y-115963571D01*
X102640000Y-115963571D01*
X102425714Y-116035000D01*
X102282857Y-116177857D01*
X102211428Y-116320714D01*
X102140000Y-116606428D01*
X102140000Y-116820714D01*
X102211428Y-117106428D01*
X102282857Y-117249285D01*
X102425714Y-117392142D01*
X102640000Y-117463571D01*
X102782857Y-117463571D01*
X102997142Y-117392142D01*
X103068571Y-117320714D01*
X103068571Y-116820714D01*
X102782857Y-116820714D01*
X103711428Y-117463571D02*
X103711428Y-115963571D01*
X104568571Y-117463571D01*
X104568571Y-115963571D01*
X105282857Y-117463571D02*
X105282857Y-115963571D01*
X105640000Y-115963571D01*
X105854285Y-116035000D01*
X105997142Y-116177857D01*
X106068571Y-116320714D01*
X106140000Y-116606428D01*
X106140000Y-116820714D01*
X106068571Y-117106428D01*
X105997142Y-117249285D01*
X105854285Y-117392142D01*
X105640000Y-117463571D01*
X105282857Y-117463571D01*
X102282857Y-118513571D02*
X103211428Y-118513571D01*
X102711428Y-119085000D01*
X102925714Y-119085000D01*
X103068571Y-119156428D01*
X103140000Y-119227857D01*
X103211428Y-119370714D01*
X103211428Y-119727857D01*
X103140000Y-119870714D01*
X103068571Y-119942142D01*
X102925714Y-120013571D01*
X102497142Y-120013571D01*
X102354285Y-119942142D01*
X102282857Y-119870714D01*
X103640000Y-118513571D02*
X104140000Y-120013571D01*
X104640000Y-118513571D01*
X104997142Y-118513571D02*
X105925714Y-118513571D01*
X105425714Y-119085000D01*
X105640000Y-119085000D01*
X105782857Y-119156428D01*
X105854285Y-119227857D01*
X105925714Y-119370714D01*
X105925714Y-119727857D01*
X105854285Y-119870714D01*
X105782857Y-119942142D01*
X105640000Y-120013571D01*
X105211428Y-120013571D01*
X105068571Y-119942142D01*
X104997142Y-119870714D01*
X103854285Y-121063571D02*
X103140000Y-121063571D01*
X103068571Y-121777857D01*
X103140000Y-121706428D01*
X103282857Y-121635000D01*
X103640000Y-121635000D01*
X103782857Y-121706428D01*
X103854285Y-121777857D01*
X103925714Y-121920714D01*
X103925714Y-122277857D01*
X103854285Y-122420714D01*
X103782857Y-122492142D01*
X103640000Y-122563571D01*
X103282857Y-122563571D01*
X103140000Y-122492142D01*
X103068571Y-122420714D01*
X104354285Y-121063571D02*
X104854285Y-122563571D01*
X105354285Y-121063571D01*
X101532857Y-123613571D02*
X102390000Y-123613571D01*
X101961428Y-125113571D02*
X101961428Y-123613571D01*
X102747142Y-123613571D02*
X103747142Y-125113571D01*
X103747142Y-123613571D02*
X102747142Y-125113571D01*
X104318571Y-125113571D02*
X104318571Y-123613571D01*
X104675714Y-123613571D01*
X104890000Y-123685000D01*
X105032857Y-123827857D01*
X105104285Y-123970714D01*
X105175714Y-124256428D01*
X105175714Y-124470714D01*
X105104285Y-124756428D01*
X105032857Y-124899285D01*
X104890000Y-125042142D01*
X104675714Y-125113571D01*
X104318571Y-125113571D01*
X106104285Y-123613571D02*
X106247142Y-123613571D01*
X106390000Y-123685000D01*
X106461428Y-123756428D01*
X106532857Y-123899285D01*
X106604285Y-124185000D01*
X106604285Y-124542142D01*
X106532857Y-124827857D01*
X106461428Y-124970714D01*
X106390000Y-125042142D01*
X106247142Y-125113571D01*
X106104285Y-125113571D01*
X105961428Y-125042142D01*
X105890000Y-124970714D01*
X105818571Y-124827857D01*
X105747142Y-124542142D01*
X105747142Y-124185000D01*
X105818571Y-123899285D01*
X105890000Y-123756428D01*
X105961428Y-123685000D01*
X106104285Y-123613571D01*
X102425714Y-127663571D02*
X101925714Y-126949285D01*
X101568571Y-127663571D02*
X101568571Y-126163571D01*
X102140000Y-126163571D01*
X102282857Y-126235000D01*
X102354285Y-126306428D01*
X102425714Y-126449285D01*
X102425714Y-126663571D01*
X102354285Y-126806428D01*
X102282857Y-126877857D01*
X102140000Y-126949285D01*
X101568571Y-126949285D01*
X102925714Y-126163571D02*
X103925714Y-127663571D01*
X103925714Y-126163571D02*
X102925714Y-127663571D01*
X104497142Y-127663571D02*
X104497142Y-126163571D01*
X104854285Y-126163571D01*
X105068571Y-126235000D01*
X105211428Y-126377857D01*
X105282857Y-126520714D01*
X105354285Y-126806428D01*
X105354285Y-127020714D01*
X105282857Y-127306428D01*
X105211428Y-127449285D01*
X105068571Y-127592142D01*
X104854285Y-127663571D01*
X104497142Y-127663571D01*
X106282857Y-126163571D02*
X106425714Y-126163571D01*
X106568571Y-126235000D01*
X106640000Y-126306428D01*
X106711428Y-126449285D01*
X106782857Y-126735000D01*
X106782857Y-127092142D01*
X106711428Y-127377857D01*
X106640000Y-127520714D01*
X106568571Y-127592142D01*
X106425714Y-127663571D01*
X106282857Y-127663571D01*
X106140000Y-127592142D01*
X106068571Y-127520714D01*
X105997142Y-127377857D01*
X105925714Y-127092142D01*
X105925714Y-126735000D01*
X105997142Y-126449285D01*
X106068571Y-126306428D01*
X106140000Y-126235000D01*
X106282857Y-126163571D01*
X103211428Y-130070714D02*
X103140000Y-130142142D01*
X102925714Y-130213571D01*
X102782857Y-130213571D01*
X102568571Y-130142142D01*
X102425714Y-129999285D01*
X102354285Y-129856428D01*
X102282857Y-129570714D01*
X102282857Y-129356428D01*
X102354285Y-129070714D01*
X102425714Y-128927857D01*
X102568571Y-128785000D01*
X102782857Y-128713571D01*
X102925714Y-128713571D01*
X103140000Y-128785000D01*
X103211428Y-128856428D01*
X103854285Y-129427857D02*
X104354285Y-129427857D01*
X104568571Y-130213571D02*
X103854285Y-130213571D01*
X103854285Y-128713571D01*
X104568571Y-128713571D01*
X105997142Y-130213571D02*
X105140000Y-130213571D01*
X105568571Y-130213571D02*
X105568571Y-128713571D01*
X105425714Y-128927857D01*
X105282857Y-129070714D01*
X105140000Y-129142142D01*
X103211428Y-132620714D02*
X103140000Y-132692142D01*
X102925714Y-132763571D01*
X102782857Y-132763571D01*
X102568571Y-132692142D01*
X102425714Y-132549285D01*
X102354285Y-132406428D01*
X102282857Y-132120714D01*
X102282857Y-131906428D01*
X102354285Y-131620714D01*
X102425714Y-131477857D01*
X102568571Y-131335000D01*
X102782857Y-131263571D01*
X102925714Y-131263571D01*
X103140000Y-131335000D01*
X103211428Y-131406428D01*
X103854285Y-131977857D02*
X104354285Y-131977857D01*
X104568571Y-132763571D02*
X103854285Y-132763571D01*
X103854285Y-131263571D01*
X104568571Y-131263571D01*
X105497142Y-131263571D02*
X105640000Y-131263571D01*
X105782857Y-131335000D01*
X105854285Y-131406428D01*
X105925714Y-131549285D01*
X105997142Y-131835000D01*
X105997142Y-132192142D01*
X105925714Y-132477857D01*
X105854285Y-132620714D01*
X105782857Y-132692142D01*
X105640000Y-132763571D01*
X105497142Y-132763571D01*
X105354285Y-132692142D01*
X105282857Y-132620714D01*
X105211428Y-132477857D01*
X105140000Y-132192142D01*
X105140000Y-131835000D01*
X105211428Y-131549285D01*
X105282857Y-131406428D01*
X105354285Y-131335000D01*
X105497142Y-131263571D01*
X101782857Y-135313571D02*
X101782857Y-133813571D01*
X102282857Y-134885000D01*
X102782857Y-133813571D01*
X102782857Y-135313571D01*
X103497142Y-135313571D02*
X103497142Y-133813571D01*
X104140000Y-135242142D02*
X104354285Y-135313571D01*
X104711428Y-135313571D01*
X104854285Y-135242142D01*
X104925714Y-135170714D01*
X104997142Y-135027857D01*
X104997142Y-134885000D01*
X104925714Y-134742142D01*
X104854285Y-134670714D01*
X104711428Y-134599285D01*
X104425714Y-134527857D01*
X104282857Y-134456428D01*
X104211428Y-134385000D01*
X104140000Y-134242142D01*
X104140000Y-134099285D01*
X104211428Y-133956428D01*
X104282857Y-133885000D01*
X104425714Y-133813571D01*
X104782857Y-133813571D01*
X104997142Y-133885000D01*
X105925714Y-133813571D02*
X106211428Y-133813571D01*
X106354285Y-133885000D01*
X106497142Y-134027857D01*
X106568571Y-134313571D01*
X106568571Y-134813571D01*
X106497142Y-135099285D01*
X106354285Y-135242142D01*
X106211428Y-135313571D01*
X105925714Y-135313571D01*
X105782857Y-135242142D01*
X105640000Y-135099285D01*
X105568571Y-134813571D01*
X105568571Y-134313571D01*
X105640000Y-134027857D01*
X105782857Y-133885000D01*
X105925714Y-133813571D01*
X101782857Y-137863571D02*
X101782857Y-136363571D01*
X102282857Y-137435000D01*
X102782857Y-136363571D01*
X102782857Y-137863571D01*
X103782857Y-136363571D02*
X104068571Y-136363571D01*
X104211428Y-136435000D01*
X104354285Y-136577857D01*
X104425714Y-136863571D01*
X104425714Y-137363571D01*
X104354285Y-137649285D01*
X104211428Y-137792142D01*
X104068571Y-137863571D01*
X103782857Y-137863571D01*
X103640000Y-137792142D01*
X103497142Y-137649285D01*
X103425714Y-137363571D01*
X103425714Y-136863571D01*
X103497142Y-136577857D01*
X103640000Y-136435000D01*
X103782857Y-136363571D01*
X104997142Y-137792142D02*
X105211428Y-137863571D01*
X105568571Y-137863571D01*
X105711428Y-137792142D01*
X105782857Y-137720714D01*
X105854285Y-137577857D01*
X105854285Y-137435000D01*
X105782857Y-137292142D01*
X105711428Y-137220714D01*
X105568571Y-137149285D01*
X105282857Y-137077857D01*
X105140000Y-137006428D01*
X105068571Y-136935000D01*
X104997142Y-136792142D01*
X104997142Y-136649285D01*
X105068571Y-136506428D01*
X105140000Y-136435000D01*
X105282857Y-136363571D01*
X105640000Y-136363571D01*
X105854285Y-136435000D01*
X106497142Y-137863571D02*
X106497142Y-136363571D01*
X101604285Y-140342142D02*
X101818571Y-140413571D01*
X102175714Y-140413571D01*
X102318571Y-140342142D01*
X102390000Y-140270714D01*
X102461428Y-140127857D01*
X102461428Y-139985000D01*
X102390000Y-139842142D01*
X102318571Y-139770714D01*
X102175714Y-139699285D01*
X101890000Y-139627857D01*
X101747142Y-139556428D01*
X101675714Y-139485000D01*
X101604285Y-139342142D01*
X101604285Y-139199285D01*
X101675714Y-139056428D01*
X101747142Y-138985000D01*
X101890000Y-138913571D01*
X102247142Y-138913571D01*
X102461428Y-138985000D01*
X103961428Y-140270714D02*
X103890000Y-140342142D01*
X103675714Y-140413571D01*
X103532857Y-140413571D01*
X103318571Y-140342142D01*
X103175714Y-140199285D01*
X103104285Y-140056428D01*
X103032857Y-139770714D01*
X103032857Y-139556428D01*
X103104285Y-139270714D01*
X103175714Y-139127857D01*
X103318571Y-138985000D01*
X103532857Y-138913571D01*
X103675714Y-138913571D01*
X103890000Y-138985000D01*
X103961428Y-139056428D01*
X105318571Y-140413571D02*
X104604285Y-140413571D01*
X104604285Y-138913571D01*
X105818571Y-140413571D02*
X105818571Y-138913571D01*
X106675714Y-140413571D02*
X106032857Y-139556428D01*
X106675714Y-138913571D02*
X105818571Y-139770714D01*
X101354285Y-142963571D02*
X101354285Y-141463571D01*
X102068571Y-142963571D02*
X102068571Y-141463571D01*
X102425714Y-141463571D01*
X102640000Y-141535000D01*
X102782857Y-141677857D01*
X102854285Y-141820714D01*
X102925714Y-142106428D01*
X102925714Y-142320714D01*
X102854285Y-142606428D01*
X102782857Y-142749285D01*
X102640000Y-142892142D01*
X102425714Y-142963571D01*
X102068571Y-142963571D01*
X103211428Y-143106428D02*
X104354285Y-143106428D01*
X104640000Y-142892142D02*
X104854285Y-142963571D01*
X105211428Y-142963571D01*
X105354285Y-142892142D01*
X105425714Y-142820714D01*
X105497142Y-142677857D01*
X105497142Y-142535000D01*
X105425714Y-142392142D01*
X105354285Y-142320714D01*
X105211428Y-142249285D01*
X104925714Y-142177857D01*
X104782857Y-142106428D01*
X104711428Y-142035000D01*
X104640000Y-141892142D01*
X104640000Y-141749285D01*
X104711428Y-141606428D01*
X104782857Y-141535000D01*
X104925714Y-141463571D01*
X105282857Y-141463571D01*
X105497142Y-141535000D01*
X106997142Y-142820714D02*
X106925714Y-142892142D01*
X106711428Y-142963571D01*
X106568571Y-142963571D01*
X106354285Y-142892142D01*
X106211428Y-142749285D01*
X106140000Y-142606428D01*
X106068571Y-142320714D01*
X106068571Y-142106428D01*
X106140000Y-141820714D01*
X106211428Y-141677857D01*
X106354285Y-141535000D01*
X106568571Y-141463571D01*
X106711428Y-141463571D01*
X106925714Y-141535000D01*
X106997142Y-141606428D01*
X101354285Y-145513571D02*
X101354285Y-144013571D01*
X102068571Y-145513571D02*
X102068571Y-144013571D01*
X102425714Y-144013571D01*
X102640000Y-144085000D01*
X102782857Y-144227857D01*
X102854285Y-144370714D01*
X102925714Y-144656428D01*
X102925714Y-144870714D01*
X102854285Y-145156428D01*
X102782857Y-145299285D01*
X102640000Y-145442142D01*
X102425714Y-145513571D01*
X102068571Y-145513571D01*
X103211428Y-145656428D02*
X104354285Y-145656428D01*
X104640000Y-145442142D02*
X104854285Y-145513571D01*
X105211428Y-145513571D01*
X105354285Y-145442142D01*
X105425714Y-145370714D01*
X105497142Y-145227857D01*
X105497142Y-145085000D01*
X105425714Y-144942142D01*
X105354285Y-144870714D01*
X105211428Y-144799285D01*
X104925714Y-144727857D01*
X104782857Y-144656428D01*
X104711428Y-144585000D01*
X104640000Y-144442142D01*
X104640000Y-144299285D01*
X104711428Y-144156428D01*
X104782857Y-144085000D01*
X104925714Y-144013571D01*
X105282857Y-144013571D01*
X105497142Y-144085000D01*
X106140000Y-145513571D02*
X106140000Y-144013571D01*
X106497142Y-144013571D01*
X106711428Y-144085000D01*
X106854285Y-144227857D01*
X106925714Y-144370714D01*
X106997142Y-144656428D01*
X106997142Y-144870714D01*
X106925714Y-145156428D01*
X106854285Y-145299285D01*
X106711428Y-145442142D01*
X106497142Y-145513571D01*
X106140000Y-145513571D01*
X108668571Y-97112142D02*
X108882857Y-97183571D01*
X109240000Y-97183571D01*
X109382857Y-97112142D01*
X109454285Y-97040714D01*
X109525714Y-96897857D01*
X109525714Y-96755000D01*
X109454285Y-96612142D01*
X109382857Y-96540714D01*
X109240000Y-96469285D01*
X108954285Y-96397857D01*
X108811428Y-96326428D01*
X108740000Y-96255000D01*
X108668571Y-96112142D01*
X108668571Y-95969285D01*
X108740000Y-95826428D01*
X108811428Y-95755000D01*
X108954285Y-95683571D01*
X109311428Y-95683571D01*
X109525714Y-95755000D01*
X110168571Y-97183571D02*
X110168571Y-95683571D01*
X110525714Y-95683571D01*
X110740000Y-95755000D01*
X110882857Y-95897857D01*
X110954285Y-96040714D01*
X111025714Y-96326428D01*
X111025714Y-96540714D01*
X110954285Y-96826428D01*
X110882857Y-96969285D01*
X110740000Y-97112142D01*
X110525714Y-97183571D01*
X110168571Y-97183571D01*
X111597142Y-96755000D02*
X112311428Y-96755000D01*
X111454285Y-97183571D02*
X111954285Y-95683571D01*
X112454285Y-97183571D01*
X108704285Y-99662142D02*
X108918571Y-99733571D01*
X109275714Y-99733571D01*
X109418571Y-99662142D01*
X109490000Y-99590714D01*
X109561428Y-99447857D01*
X109561428Y-99305000D01*
X109490000Y-99162142D01*
X109418571Y-99090714D01*
X109275714Y-99019285D01*
X108990000Y-98947857D01*
X108847142Y-98876428D01*
X108775714Y-98805000D01*
X108704285Y-98662142D01*
X108704285Y-98519285D01*
X108775714Y-98376428D01*
X108847142Y-98305000D01*
X108990000Y-98233571D01*
X109347142Y-98233571D01*
X109561428Y-98305000D01*
X111061428Y-99590714D02*
X110990000Y-99662142D01*
X110775714Y-99733571D01*
X110632857Y-99733571D01*
X110418571Y-99662142D01*
X110275714Y-99519285D01*
X110204285Y-99376428D01*
X110132857Y-99090714D01*
X110132857Y-98876428D01*
X110204285Y-98590714D01*
X110275714Y-98447857D01*
X110418571Y-98305000D01*
X110632857Y-98233571D01*
X110775714Y-98233571D01*
X110990000Y-98305000D01*
X111061428Y-98376428D01*
X112418571Y-99733571D02*
X111704285Y-99733571D01*
X111704285Y-98233571D01*
X109347142Y-100855000D02*
X109204285Y-100783571D01*
X108990000Y-100783571D01*
X108775714Y-100855000D01*
X108632857Y-100997857D01*
X108561428Y-101140714D01*
X108490000Y-101426428D01*
X108490000Y-101640714D01*
X108561428Y-101926428D01*
X108632857Y-102069285D01*
X108775714Y-102212142D01*
X108990000Y-102283571D01*
X109132857Y-102283571D01*
X109347142Y-102212142D01*
X109418571Y-102140714D01*
X109418571Y-101640714D01*
X109132857Y-101640714D01*
X110061428Y-102283571D02*
X110061428Y-100783571D01*
X110918571Y-102283571D01*
X110918571Y-100783571D01*
X111632857Y-102283571D02*
X111632857Y-100783571D01*
X111990000Y-100783571D01*
X112204285Y-100855000D01*
X112347142Y-100997857D01*
X112418571Y-101140714D01*
X112490000Y-101426428D01*
X112490000Y-101640714D01*
X112418571Y-101926428D01*
X112347142Y-102069285D01*
X112204285Y-102212142D01*
X111990000Y-102283571D01*
X111632857Y-102283571D01*
X108632857Y-103333571D02*
X109561428Y-103333571D01*
X109061428Y-103905000D01*
X109275714Y-103905000D01*
X109418571Y-103976428D01*
X109490000Y-104047857D01*
X109561428Y-104190714D01*
X109561428Y-104547857D01*
X109490000Y-104690714D01*
X109418571Y-104762142D01*
X109275714Y-104833571D01*
X108847142Y-104833571D01*
X108704285Y-104762142D01*
X108632857Y-104690714D01*
X109990000Y-103333571D02*
X110490000Y-104833571D01*
X110990000Y-103333571D01*
X111347142Y-103333571D02*
X112275714Y-103333571D01*
X111775714Y-103905000D01*
X111990000Y-103905000D01*
X112132857Y-103976428D01*
X112204285Y-104047857D01*
X112275714Y-104190714D01*
X112275714Y-104547857D01*
X112204285Y-104690714D01*
X112132857Y-104762142D01*
X111990000Y-104833571D01*
X111561428Y-104833571D01*
X111418571Y-104762142D01*
X111347142Y-104690714D01*
X94075714Y-72433571D02*
X94075714Y-70933571D01*
X94718571Y-71076428D02*
X94790000Y-71005000D01*
X94932857Y-70933571D01*
X95290000Y-70933571D01*
X95432857Y-71005000D01*
X95504285Y-71076428D01*
X95575714Y-71219285D01*
X95575714Y-71362142D01*
X95504285Y-71576428D01*
X94647142Y-72433571D01*
X95575714Y-72433571D01*
X97075714Y-72290714D02*
X97004285Y-72362142D01*
X96790000Y-72433571D01*
X96647142Y-72433571D01*
X96432857Y-72362142D01*
X96290000Y-72219285D01*
X96218571Y-72076428D01*
X96147142Y-71790714D01*
X96147142Y-71576428D01*
X96218571Y-71290714D01*
X96290000Y-71147857D01*
X96432857Y-71005000D01*
X96647142Y-70933571D01*
X96790000Y-70933571D01*
X97004285Y-71005000D01*
X97075714Y-71076428D01*
X98861428Y-72290714D02*
X98932857Y-72362142D01*
X98861428Y-72433571D01*
X98790000Y-72362142D01*
X98861428Y-72290714D01*
X98861428Y-72433571D01*
X98861428Y-71505000D02*
X98932857Y-71576428D01*
X98861428Y-71647857D01*
X98790000Y-71576428D01*
X98861428Y-71505000D01*
X98861428Y-71647857D01*
X101218571Y-71647857D02*
X101432857Y-71719285D01*
X101504285Y-71790714D01*
X101575714Y-71933571D01*
X101575714Y-72147857D01*
X101504285Y-72290714D01*
X101432857Y-72362142D01*
X101290000Y-72433571D01*
X100718571Y-72433571D01*
X100718571Y-70933571D01*
X101218571Y-70933571D01*
X101361428Y-71005000D01*
X101432857Y-71076428D01*
X101504285Y-71219285D01*
X101504285Y-71362142D01*
X101432857Y-71505000D01*
X101361428Y-71576428D01*
X101218571Y-71647857D01*
X100718571Y-71647857D01*
X109347142Y-75435000D02*
X109204285Y-75363571D01*
X108990000Y-75363571D01*
X108775714Y-75435000D01*
X108632857Y-75577857D01*
X108561428Y-75720714D01*
X108490000Y-76006428D01*
X108490000Y-76220714D01*
X108561428Y-76506428D01*
X108632857Y-76649285D01*
X108775714Y-76792142D01*
X108990000Y-76863571D01*
X109132857Y-76863571D01*
X109347142Y-76792142D01*
X109418571Y-76720714D01*
X109418571Y-76220714D01*
X109132857Y-76220714D01*
X110061428Y-76863571D02*
X110061428Y-75363571D01*
X110918571Y-76863571D01*
X110918571Y-75363571D01*
X111632857Y-76863571D02*
X111632857Y-75363571D01*
X111990000Y-75363571D01*
X112204285Y-75435000D01*
X112347142Y-75577857D01*
X112418571Y-75720714D01*
X112490000Y-76006428D01*
X112490000Y-76220714D01*
X112418571Y-76506428D01*
X112347142Y-76649285D01*
X112204285Y-76792142D01*
X111990000Y-76863571D01*
X111632857Y-76863571D01*
X108704285Y-79342142D02*
X108918571Y-79413571D01*
X109275714Y-79413571D01*
X109418571Y-79342142D01*
X109490000Y-79270714D01*
X109561428Y-79127857D01*
X109561428Y-78985000D01*
X109490000Y-78842142D01*
X109418571Y-78770714D01*
X109275714Y-78699285D01*
X108990000Y-78627857D01*
X108847142Y-78556428D01*
X108775714Y-78485000D01*
X108704285Y-78342142D01*
X108704285Y-78199285D01*
X108775714Y-78056428D01*
X108847142Y-77985000D01*
X108990000Y-77913571D01*
X109347142Y-77913571D01*
X109561428Y-77985000D01*
X111061428Y-79270714D02*
X110990000Y-79342142D01*
X110775714Y-79413571D01*
X110632857Y-79413571D01*
X110418571Y-79342142D01*
X110275714Y-79199285D01*
X110204285Y-79056428D01*
X110132857Y-78770714D01*
X110132857Y-78556428D01*
X110204285Y-78270714D01*
X110275714Y-78127857D01*
X110418571Y-77985000D01*
X110632857Y-77913571D01*
X110775714Y-77913571D01*
X110990000Y-77985000D01*
X111061428Y-78056428D01*
X112418571Y-79413571D02*
X111704285Y-79413571D01*
X111704285Y-77913571D01*
X108668571Y-81892142D02*
X108882857Y-81963571D01*
X109240000Y-81963571D01*
X109382857Y-81892142D01*
X109454285Y-81820714D01*
X109525714Y-81677857D01*
X109525714Y-81535000D01*
X109454285Y-81392142D01*
X109382857Y-81320714D01*
X109240000Y-81249285D01*
X108954285Y-81177857D01*
X108811428Y-81106428D01*
X108740000Y-81035000D01*
X108668571Y-80892142D01*
X108668571Y-80749285D01*
X108740000Y-80606428D01*
X108811428Y-80535000D01*
X108954285Y-80463571D01*
X109311428Y-80463571D01*
X109525714Y-80535000D01*
X110168571Y-81963571D02*
X110168571Y-80463571D01*
X110525714Y-80463571D01*
X110740000Y-80535000D01*
X110882857Y-80677857D01*
X110954285Y-80820714D01*
X111025714Y-81106428D01*
X111025714Y-81320714D01*
X110954285Y-81606428D01*
X110882857Y-81749285D01*
X110740000Y-81892142D01*
X110525714Y-81963571D01*
X110168571Y-81963571D01*
X111597142Y-81535000D02*
X112311428Y-81535000D01*
X111454285Y-81963571D02*
X111954285Y-80463571D01*
X112454285Y-81963571D01*
X108632857Y-83013571D02*
X109561428Y-83013571D01*
X109061428Y-83585000D01*
X109275714Y-83585000D01*
X109418571Y-83656428D01*
X109490000Y-83727857D01*
X109561428Y-83870714D01*
X109561428Y-84227857D01*
X109490000Y-84370714D01*
X109418571Y-84442142D01*
X109275714Y-84513571D01*
X108847142Y-84513571D01*
X108704285Y-84442142D01*
X108632857Y-84370714D01*
X109990000Y-83013571D02*
X110490000Y-84513571D01*
X110990000Y-83013571D01*
X111347142Y-83013571D02*
X112275714Y-83013571D01*
X111775714Y-83585000D01*
X111990000Y-83585000D01*
X112132857Y-83656428D01*
X112204285Y-83727857D01*
X112275714Y-83870714D01*
X112275714Y-84227857D01*
X112204285Y-84370714D01*
X112132857Y-84442142D01*
X111990000Y-84513571D01*
X111561428Y-84513571D01*
X111418571Y-84442142D01*
X111347142Y-84370714D01*
X78039285Y-32280714D02*
X77967857Y-32352142D01*
X77753571Y-32423571D01*
X77610714Y-32423571D01*
X77396428Y-32352142D01*
X77253571Y-32209285D01*
X77182142Y-32066428D01*
X77110714Y-31780714D01*
X77110714Y-31566428D01*
X77182142Y-31280714D01*
X77253571Y-31137857D01*
X77396428Y-30995000D01*
X77610714Y-30923571D01*
X77753571Y-30923571D01*
X77967857Y-30995000D01*
X78039285Y-31066428D01*
X78682142Y-32423571D02*
X78682142Y-30923571D01*
X78682142Y-31637857D02*
X79539285Y-31637857D01*
X79539285Y-32423571D02*
X79539285Y-30923571D01*
X80253571Y-32423571D02*
X80253571Y-30923571D01*
X81825000Y-32423571D02*
X81325000Y-31709285D01*
X80967857Y-32423571D02*
X80967857Y-30923571D01*
X81539285Y-30923571D01*
X81682142Y-30995000D01*
X81753571Y-31066428D01*
X81825000Y-31209285D01*
X81825000Y-31423571D01*
X81753571Y-31566428D01*
X81682142Y-31637857D01*
X81539285Y-31709285D01*
X80967857Y-31709285D01*
X82467857Y-32423571D02*
X82467857Y-30923571D01*
X83182142Y-32423571D02*
X83182142Y-30923571D01*
X83682142Y-31995000D01*
X84182142Y-30923571D01*
X84182142Y-32423571D01*
X84896428Y-31637857D02*
X85396428Y-31637857D01*
X85610714Y-32423571D02*
X84896428Y-32423571D01*
X84896428Y-30923571D01*
X85610714Y-30923571D01*
X86253571Y-32423571D02*
X86253571Y-30923571D01*
X87110714Y-32423571D01*
X87110714Y-30923571D01*
X88753571Y-31423571D02*
X89325000Y-31423571D01*
X88967857Y-32423571D02*
X88967857Y-31137857D01*
X89039285Y-30995000D01*
X89182142Y-30923571D01*
X89325000Y-30923571D01*
X90039285Y-32423571D02*
X89896428Y-32352142D01*
X89825000Y-32280714D01*
X89753571Y-32137857D01*
X89753571Y-31709285D01*
X89825000Y-31566428D01*
X89896428Y-31495000D01*
X90039285Y-31423571D01*
X90253571Y-31423571D01*
X90396428Y-31495000D01*
X90467857Y-31566428D01*
X90539285Y-31709285D01*
X90539285Y-32137857D01*
X90467857Y-32280714D01*
X90396428Y-32352142D01*
X90253571Y-32423571D01*
X90039285Y-32423571D01*
X91182142Y-32423571D02*
X91182142Y-31423571D01*
X91182142Y-31709285D02*
X91253571Y-31566428D01*
X91325000Y-31495000D01*
X91467857Y-31423571D01*
X91610714Y-31423571D01*
X94110714Y-32423571D02*
X93610714Y-31709285D01*
X93253571Y-32423571D02*
X93253571Y-30923571D01*
X93825000Y-30923571D01*
X93967857Y-30995000D01*
X94039285Y-31066428D01*
X94110714Y-31209285D01*
X94110714Y-31423571D01*
X94039285Y-31566428D01*
X93967857Y-31637857D01*
X93825000Y-31709285D01*
X93253571Y-31709285D01*
X95396428Y-32423571D02*
X95396428Y-31637857D01*
X95325000Y-31495000D01*
X95182142Y-31423571D01*
X94896428Y-31423571D01*
X94753571Y-31495000D01*
X95396428Y-32352142D02*
X95253571Y-32423571D01*
X94896428Y-32423571D01*
X94753571Y-32352142D01*
X94682142Y-32209285D01*
X94682142Y-32066428D01*
X94753571Y-31923571D01*
X94896428Y-31852142D01*
X95253571Y-31852142D01*
X95396428Y-31780714D01*
X96039285Y-32352142D02*
X96182142Y-32423571D01*
X96467857Y-32423571D01*
X96610714Y-32352142D01*
X96682142Y-32209285D01*
X96682142Y-32137857D01*
X96610714Y-31995000D01*
X96467857Y-31923571D01*
X96253571Y-31923571D01*
X96110714Y-31852142D01*
X96039285Y-31709285D01*
X96039285Y-31637857D01*
X96110714Y-31495000D01*
X96253571Y-31423571D01*
X96467857Y-31423571D01*
X96610714Y-31495000D01*
X97325000Y-31423571D02*
X97325000Y-32923571D01*
X97325000Y-31495000D02*
X97467857Y-31423571D01*
X97753571Y-31423571D01*
X97896428Y-31495000D01*
X97967857Y-31566428D01*
X98039285Y-31709285D01*
X98039285Y-32137857D01*
X97967857Y-32280714D01*
X97896428Y-32352142D01*
X97753571Y-32423571D01*
X97467857Y-32423571D01*
X97325000Y-32352142D01*
X98682142Y-32423571D02*
X98682142Y-30923571D01*
X98682142Y-31495000D02*
X98825000Y-31423571D01*
X99110714Y-31423571D01*
X99253571Y-31495000D01*
X99325000Y-31566428D01*
X99396428Y-31709285D01*
X99396428Y-32137857D01*
X99325000Y-32280714D01*
X99253571Y-32352142D01*
X99110714Y-32423571D01*
X98825000Y-32423571D01*
X98682142Y-32352142D01*
X100610714Y-32352142D02*
X100467857Y-32423571D01*
X100182142Y-32423571D01*
X100039285Y-32352142D01*
X99967857Y-32209285D01*
X99967857Y-31637857D01*
X100039285Y-31495000D01*
X100182142Y-31423571D01*
X100467857Y-31423571D01*
X100610714Y-31495000D01*
X100682142Y-31637857D01*
X100682142Y-31780714D01*
X99967857Y-31923571D01*
X101325000Y-32423571D02*
X101325000Y-31423571D01*
X101325000Y-31709285D02*
X101396428Y-31566428D01*
X101467857Y-31495000D01*
X101610714Y-31423571D01*
X101753571Y-31423571D01*
X102253571Y-32423571D02*
X102253571Y-31423571D01*
X102253571Y-31709285D02*
X102325000Y-31566428D01*
X102396428Y-31495000D01*
X102539285Y-31423571D01*
X102682142Y-31423571D01*
X103039285Y-31423571D02*
X103396428Y-32423571D01*
X103753571Y-31423571D02*
X103396428Y-32423571D01*
X103253571Y-32780714D01*
X103182142Y-32852142D01*
X103039285Y-32923571D01*
X105467857Y-32423571D02*
X105467857Y-30923571D01*
X106039285Y-30923571D01*
X106182142Y-30995000D01*
X106253571Y-31066428D01*
X106325000Y-31209285D01*
X106325000Y-31423571D01*
X106253571Y-31566428D01*
X106182142Y-31637857D01*
X106039285Y-31709285D01*
X105467857Y-31709285D01*
X106967857Y-32423571D02*
X106967857Y-31423571D01*
X106967857Y-30923571D02*
X106896428Y-30995000D01*
X106967857Y-31066428D01*
X107039285Y-30995000D01*
X106967857Y-30923571D01*
X106967857Y-31066428D01*
X86146428Y-33473571D02*
X87003571Y-33473571D01*
X86575000Y-34973571D02*
X86575000Y-33473571D01*
X88075000Y-34902142D02*
X87932142Y-34973571D01*
X87646428Y-34973571D01*
X87503571Y-34902142D01*
X87432142Y-34759285D01*
X87432142Y-34187857D01*
X87503571Y-34045000D01*
X87646428Y-33973571D01*
X87932142Y-33973571D01*
X88075000Y-34045000D01*
X88146428Y-34187857D01*
X88146428Y-34330714D01*
X87432142Y-34473571D01*
X88717857Y-34902142D02*
X88860714Y-34973571D01*
X89146428Y-34973571D01*
X89289285Y-34902142D01*
X89360714Y-34759285D01*
X89360714Y-34687857D01*
X89289285Y-34545000D01*
X89146428Y-34473571D01*
X88932142Y-34473571D01*
X88789285Y-34402142D01*
X88717857Y-34259285D01*
X88717857Y-34187857D01*
X88789285Y-34045000D01*
X88932142Y-33973571D01*
X89146428Y-33973571D01*
X89289285Y-34045000D01*
X89789285Y-33973571D02*
X90360714Y-33973571D01*
X90003571Y-33473571D02*
X90003571Y-34759285D01*
X90075000Y-34902142D01*
X90217857Y-34973571D01*
X90360714Y-34973571D01*
X92503571Y-34187857D02*
X92717857Y-34259285D01*
X92789285Y-34330714D01*
X92860714Y-34473571D01*
X92860714Y-34687857D01*
X92789285Y-34830714D01*
X92717857Y-34902142D01*
X92575000Y-34973571D01*
X92003571Y-34973571D01*
X92003571Y-33473571D01*
X92503571Y-33473571D01*
X92646428Y-33545000D01*
X92717857Y-33616428D01*
X92789285Y-33759285D01*
X92789285Y-33902142D01*
X92717857Y-34045000D01*
X92646428Y-34116428D01*
X92503571Y-34187857D01*
X92003571Y-34187857D01*
X93717857Y-34973571D02*
X93575000Y-34902142D01*
X93503571Y-34830714D01*
X93432142Y-34687857D01*
X93432142Y-34259285D01*
X93503571Y-34116428D01*
X93575000Y-34045000D01*
X93717857Y-33973571D01*
X93932142Y-33973571D01*
X94075000Y-34045000D01*
X94146428Y-34116428D01*
X94217857Y-34259285D01*
X94217857Y-34687857D01*
X94146428Y-34830714D01*
X94075000Y-34902142D01*
X93932142Y-34973571D01*
X93717857Y-34973571D01*
X95503571Y-34973571D02*
X95503571Y-34187857D01*
X95432142Y-34045000D01*
X95289285Y-33973571D01*
X95003571Y-33973571D01*
X94860714Y-34045000D01*
X95503571Y-34902142D02*
X95360714Y-34973571D01*
X95003571Y-34973571D01*
X94860714Y-34902142D01*
X94789285Y-34759285D01*
X94789285Y-34616428D01*
X94860714Y-34473571D01*
X95003571Y-34402142D01*
X95360714Y-34402142D01*
X95503571Y-34330714D01*
X96217857Y-34973571D02*
X96217857Y-33973571D01*
X96217857Y-34259285D02*
X96289285Y-34116428D01*
X96360714Y-34045000D01*
X96503571Y-33973571D01*
X96646428Y-33973571D01*
X97789285Y-34973571D02*
X97789285Y-33473571D01*
X97789285Y-34902142D02*
X97646428Y-34973571D01*
X97360714Y-34973571D01*
X97217857Y-34902142D01*
X97146428Y-34830714D01*
X97075000Y-34687857D01*
X97075000Y-34259285D01*
X97146428Y-34116428D01*
X97217857Y-34045000D01*
X97360714Y-33973571D01*
X97646428Y-33973571D01*
X97789285Y-34045000D01*
D12*
X105350000Y-97790000D02*
X105350000Y-105470000D01*
X105350000Y-105470000D02*
X108010000Y-105470000D01*
X108010000Y-105470000D02*
X108010000Y-97790000D01*
X108010000Y-97790000D02*
X105350000Y-97790000D01*
X105350000Y-96520000D02*
X105350000Y-95190000D01*
X105350000Y-95190000D02*
X106680000Y-95190000D01*
X99635000Y-97790000D02*
X99635000Y-105470000D01*
X99635000Y-105470000D02*
X102295000Y-105470000D01*
X102295000Y-105470000D02*
X102295000Y-97790000D01*
X102295000Y-97790000D02*
X99635000Y-97790000D01*
X99635000Y-96520000D02*
X99635000Y-95190000D01*
X99635000Y-95190000D02*
X100965000Y-95190000D01*
X105350000Y-77470000D02*
X105350000Y-85150000D01*
X105350000Y-85150000D02*
X108010000Y-85150000D01*
X108010000Y-85150000D02*
X108010000Y-77470000D01*
X108010000Y-77470000D02*
X105350000Y-77470000D01*
X105350000Y-76200000D02*
X105350000Y-74870000D01*
X105350000Y-74870000D02*
X106680000Y-74870000D01*
X99635000Y-74870000D02*
X100965000Y-74870000D01*
X99635000Y-76200000D02*
X99635000Y-74870000D01*
X102295000Y-77470000D02*
X99635000Y-77470000D01*
X102295000Y-85150000D02*
X102295000Y-77470000D01*
X99635000Y-85150000D02*
X102295000Y-85150000D01*
X99635000Y-77470000D02*
X99635000Y-85150000D01*
X96711392Y-42777665D02*
G75*
G03X96554484Y-46010000I1078608J-1672335D01*
G01*
X98868608Y-42777665D02*
G75*
G02X99025516Y-46010000I-1078608J-1672335D01*
G01*
X96710163Y-43408870D02*
G75*
G03X96710000Y-45490961I1079837J-1041130D01*
G01*
X98869837Y-43408870D02*
G75*
G02X98870000Y-45490961I-1079837J-1041130D01*
G01*
X96554000Y-46010000D02*
X96710000Y-46010000D01*
X98870000Y-46010000D02*
X99026000Y-46010000D01*
X96711392Y-52937665D02*
G75*
G03X96554484Y-56170000I1078608J-1672335D01*
G01*
X98868608Y-52937665D02*
G75*
G02X99025516Y-56170000I-1078608J-1672335D01*
G01*
X96710163Y-53568870D02*
G75*
G03X96710000Y-55650961I1079837J-1041130D01*
G01*
X98869837Y-53568870D02*
G75*
G02X98870000Y-55650961I-1079837J-1041130D01*
G01*
X96554000Y-56170000D02*
X96710000Y-56170000D01*
X98870000Y-56170000D02*
X99026000Y-56170000D01*
X96711392Y-63097665D02*
G75*
G03X96554484Y-66330000I1078608J-1672335D01*
G01*
X98868608Y-63097665D02*
G75*
G02X99025516Y-66330000I-1078608J-1672335D01*
G01*
X96710163Y-63728870D02*
G75*
G03X96710000Y-65810961I1079837J-1041130D01*
G01*
X98869837Y-63728870D02*
G75*
G02X98870000Y-65810961I-1079837J-1041130D01*
G01*
X96554000Y-66330000D02*
X96710000Y-66330000D01*
X98870000Y-66330000D02*
X99026000Y-66330000D01*
X50356392Y-34522665D02*
G75*
G03X50199484Y-37755000I1078608J-1672335D01*
G01*
X52513608Y-34522665D02*
G75*
G02X52670516Y-37755000I-1078608J-1672335D01*
G01*
X50355163Y-35153870D02*
G75*
G03X50355000Y-37235961I1079837J-1041130D01*
G01*
X52514837Y-35153870D02*
G75*
G02X52515000Y-37235961I-1079837J-1041130D01*
G01*
X50199000Y-37755000D02*
X50355000Y-37755000D01*
X52515000Y-37755000D02*
X52671000Y-37755000D01*
X50356392Y-42777665D02*
G75*
G03X50199484Y-46010000I1078608J-1672335D01*
G01*
X52513608Y-42777665D02*
G75*
G02X52670516Y-46010000I-1078608J-1672335D01*
G01*
X50355163Y-43408870D02*
G75*
G03X50355000Y-45490961I1079837J-1041130D01*
G01*
X52514837Y-43408870D02*
G75*
G02X52515000Y-45490961I-1079837J-1041130D01*
G01*
X50199000Y-46010000D02*
X50355000Y-46010000D01*
X52515000Y-46010000D02*
X52671000Y-46010000D01*
X50356392Y-51032665D02*
G75*
G03X50199484Y-54265000I1078608J-1672335D01*
G01*
X52513608Y-51032665D02*
G75*
G02X52670516Y-54265000I-1078608J-1672335D01*
G01*
X50355163Y-51663870D02*
G75*
G03X50355000Y-53745961I1079837J-1041130D01*
G01*
X52514837Y-51663870D02*
G75*
G02X52515000Y-53745961I-1079837J-1041130D01*
G01*
X50199000Y-54265000D02*
X50355000Y-54265000D01*
X52515000Y-54265000D02*
X52671000Y-54265000D01*
X50356392Y-59287665D02*
G75*
G03X50199484Y-62520000I1078608J-1672335D01*
G01*
X52513608Y-59287665D02*
G75*
G02X52670516Y-62520000I-1078608J-1672335D01*
G01*
X50355163Y-59918870D02*
G75*
G03X50355000Y-62000961I1079837J-1041130D01*
G01*
X52514837Y-59918870D02*
G75*
G02X52515000Y-62000961I-1079837J-1041130D01*
G01*
X50199000Y-62520000D02*
X50355000Y-62520000D01*
X52515000Y-62520000D02*
X52671000Y-62520000D01*
X50356392Y-67542665D02*
G75*
G03X50199484Y-70775000I1078608J-1672335D01*
G01*
X52513608Y-67542665D02*
G75*
G02X52670516Y-70775000I-1078608J-1672335D01*
G01*
X50355163Y-68173870D02*
G75*
G03X50355000Y-70255961I1079837J-1041130D01*
G01*
X52514837Y-68173870D02*
G75*
G02X52515000Y-70255961I-1079837J-1041130D01*
G01*
X50199000Y-70775000D02*
X50355000Y-70775000D01*
X52515000Y-70775000D02*
X52671000Y-70775000D01*
X50356392Y-75797665D02*
G75*
G03X50199484Y-79030000I1078608J-1672335D01*
G01*
X52513608Y-75797665D02*
G75*
G02X52670516Y-79030000I-1078608J-1672335D01*
G01*
X50355163Y-76428870D02*
G75*
G03X50355000Y-78510961I1079837J-1041130D01*
G01*
X52514837Y-76428870D02*
G75*
G02X52515000Y-78510961I-1079837J-1041130D01*
G01*
X50199000Y-79030000D02*
X50355000Y-79030000D01*
X52515000Y-79030000D02*
X52671000Y-79030000D01*
X50356392Y-84052665D02*
G75*
G03X50199484Y-87285000I1078608J-1672335D01*
G01*
X52513608Y-84052665D02*
G75*
G02X52670516Y-87285000I-1078608J-1672335D01*
G01*
X50355163Y-84683870D02*
G75*
G03X50355000Y-86765961I1079837J-1041130D01*
G01*
X52514837Y-84683870D02*
G75*
G02X52515000Y-86765961I-1079837J-1041130D01*
G01*
X50199000Y-87285000D02*
X50355000Y-87285000D01*
X52515000Y-87285000D02*
X52671000Y-87285000D01*
X50356392Y-92307665D02*
G75*
G03X50199484Y-95540000I1078608J-1672335D01*
G01*
X52513608Y-92307665D02*
G75*
G02X52670516Y-95540000I-1078608J-1672335D01*
G01*
X50355163Y-92938870D02*
G75*
G03X50355000Y-95020961I1079837J-1041130D01*
G01*
X52514837Y-92938870D02*
G75*
G02X52515000Y-95020961I-1079837J-1041130D01*
G01*
X50199000Y-95540000D02*
X50355000Y-95540000D01*
X52515000Y-95540000D02*
X52671000Y-95540000D01*
X50356392Y-100562665D02*
G75*
G03X50199484Y-103795000I1078608J-1672335D01*
G01*
X52513608Y-100562665D02*
G75*
G02X52670516Y-103795000I-1078608J-1672335D01*
G01*
X50355163Y-101193870D02*
G75*
G03X50355000Y-103275961I1079837J-1041130D01*
G01*
X52514837Y-101193870D02*
G75*
G02X52515000Y-103275961I-1079837J-1041130D01*
G01*
X50199000Y-103795000D02*
X50355000Y-103795000D01*
X52515000Y-103795000D02*
X52671000Y-103795000D01*
X50356392Y-108817665D02*
G75*
G03X50199484Y-112050000I1078608J-1672335D01*
G01*
X52513608Y-108817665D02*
G75*
G02X52670516Y-112050000I-1078608J-1672335D01*
G01*
X50355163Y-109448870D02*
G75*
G03X50355000Y-111530961I1079837J-1041130D01*
G01*
X52514837Y-109448870D02*
G75*
G02X52515000Y-111530961I-1079837J-1041130D01*
G01*
X50199000Y-112050000D02*
X50355000Y-112050000D01*
X52515000Y-112050000D02*
X52671000Y-112050000D01*
X50356392Y-117072665D02*
G75*
G03X50199484Y-120305000I1078608J-1672335D01*
G01*
X52513608Y-117072665D02*
G75*
G02X52670516Y-120305000I-1078608J-1672335D01*
G01*
X50355163Y-117703870D02*
G75*
G03X50355000Y-119785961I1079837J-1041130D01*
G01*
X52514837Y-117703870D02*
G75*
G02X52515000Y-119785961I-1079837J-1041130D01*
G01*
X50199000Y-120305000D02*
X50355000Y-120305000D01*
X52515000Y-120305000D02*
X52671000Y-120305000D01*
X50356392Y-125327665D02*
G75*
G03X50199484Y-128560000I1078608J-1672335D01*
G01*
X52513608Y-125327665D02*
G75*
G02X52670516Y-128560000I-1078608J-1672335D01*
G01*
X50355163Y-125958870D02*
G75*
G03X50355000Y-128040961I1079837J-1041130D01*
G01*
X52514837Y-125958870D02*
G75*
G02X52515000Y-128040961I-1079837J-1041130D01*
G01*
X50199000Y-128560000D02*
X50355000Y-128560000D01*
X52515000Y-128560000D02*
X52671000Y-128560000D01*
X50356392Y-133582665D02*
G75*
G03X50199484Y-136815000I1078608J-1672335D01*
G01*
X52513608Y-133582665D02*
G75*
G02X52670516Y-136815000I-1078608J-1672335D01*
G01*
X50355163Y-134213870D02*
G75*
G03X50355000Y-136295961I1079837J-1041130D01*
G01*
X52514837Y-134213870D02*
G75*
G02X52515000Y-136295961I-1079837J-1041130D01*
G01*
X50199000Y-136815000D02*
X50355000Y-136815000D01*
X52515000Y-136815000D02*
X52671000Y-136815000D01*
X50356392Y-141837665D02*
G75*
G03X50199484Y-145070000I1078608J-1672335D01*
G01*
X52513608Y-141837665D02*
G75*
G02X52670516Y-145070000I-1078608J-1672335D01*
G01*
X50355163Y-142468870D02*
G75*
G03X50355000Y-144550961I1079837J-1041130D01*
G01*
X52514837Y-142468870D02*
G75*
G02X52515000Y-144550961I-1079837J-1041130D01*
G01*
X50199000Y-145070000D02*
X50355000Y-145070000D01*
X52515000Y-145070000D02*
X52671000Y-145070000D01*
X88205000Y-95190000D02*
X89535000Y-95190000D01*
X88205000Y-96520000D02*
X88205000Y-95190000D01*
X90865000Y-97790000D02*
X88205000Y-97790000D01*
X90865000Y-105470000D02*
X90865000Y-97790000D01*
X88205000Y-105470000D02*
X90865000Y-105470000D01*
X88205000Y-97790000D02*
X88205000Y-105470000D01*
X93920000Y-97790000D02*
X93920000Y-105470000D01*
X93920000Y-105470000D02*
X96580000Y-105470000D01*
X96580000Y-105470000D02*
X96580000Y-97790000D01*
X96580000Y-97790000D02*
X93920000Y-97790000D01*
X93920000Y-96520000D02*
X93920000Y-95190000D01*
X93920000Y-95190000D02*
X95250000Y-95190000D01*
X88205000Y-77470000D02*
X88205000Y-85150000D01*
X88205000Y-85150000D02*
X90865000Y-85150000D01*
X90865000Y-85150000D02*
X90865000Y-77470000D01*
X90865000Y-77470000D02*
X88205000Y-77470000D01*
X88205000Y-76200000D02*
X88205000Y-74870000D01*
X88205000Y-74870000D02*
X89535000Y-74870000D01*
X93920000Y-77470000D02*
X93920000Y-85150000D01*
X93920000Y-85150000D02*
X96580000Y-85150000D01*
X96580000Y-85150000D02*
X96580000Y-77470000D01*
X96580000Y-77470000D02*
X93920000Y-77470000D01*
X93920000Y-76200000D02*
X93920000Y-74870000D01*
X93920000Y-74870000D02*
X95250000Y-74870000D01*
X77980000Y-81200000D02*
X77980000Y-81800000D01*
X77980000Y-76600000D02*
X77980000Y-77200000D01*
X83830000Y-73700000D02*
X83830000Y-84750000D01*
X77980000Y-73700000D02*
X83830000Y-73700000D01*
X77980000Y-77450000D02*
X77980000Y-80950000D01*
X77980000Y-84750000D02*
X83830000Y-84750000D01*
X77980000Y-73700000D02*
X77980000Y-76350000D01*
X77980000Y-82100000D02*
X77980000Y-84750000D01*
X37405000Y-117535000D02*
X40065000Y-117535000D01*
X37405000Y-69215000D02*
X37405000Y-117535000D01*
X40065000Y-69215000D02*
X40065000Y-117535000D01*
X37405000Y-69215000D02*
X40065000Y-69215000D01*
X37405000Y-67945000D02*
X37405000Y-66615000D01*
X37405000Y-66615000D02*
X38735000Y-66615000D01*
X96460000Y-146110000D02*
X99120000Y-146110000D01*
X96460000Y-118110000D02*
X96460000Y-146110000D01*
X99120000Y-118110000D02*
X99120000Y-146110000D01*
X96460000Y-118110000D02*
X99120000Y-118110000D01*
X96460000Y-116840000D02*
X96460000Y-115510000D01*
X96460000Y-115510000D02*
X97790000Y-115510000D01*
X84495000Y-43180000D02*
G75*
G03X84495000Y-43180000I-1310000J0D01*
G01*
X83185000Y-41870000D02*
X83185000Y-41740000D01*
X84495000Y-53340000D02*
G75*
G03X84495000Y-53340000I-1310000J0D01*
G01*
X83185000Y-52030000D02*
X83185000Y-51900000D01*
X84495000Y-63500000D02*
G75*
G03X84495000Y-63500000I-1310000J0D01*
G01*
X83185000Y-62190000D02*
X83185000Y-62060000D01*
X57190000Y-37465000D02*
G75*
G03X57190000Y-37465000I-1310000J0D01*
G01*
X55880000Y-36155000D02*
X55880000Y-36025000D01*
X57190000Y-45720000D02*
G75*
G03X57190000Y-45720000I-1310000J0D01*
G01*
X55880000Y-44410000D02*
X55880000Y-44280000D01*
X57190000Y-53975000D02*
G75*
G03X57190000Y-53975000I-1310000J0D01*
G01*
X55880000Y-52665000D02*
X55880000Y-52535000D01*
X57190000Y-62230000D02*
G75*
G03X57190000Y-62230000I-1310000J0D01*
G01*
X55880000Y-60920000D02*
X55880000Y-60790000D01*
X57190000Y-70485000D02*
G75*
G03X57190000Y-70485000I-1310000J0D01*
G01*
X55880000Y-69175000D02*
X55880000Y-69045000D01*
X57190000Y-78740000D02*
G75*
G03X57190000Y-78740000I-1310000J0D01*
G01*
X55880000Y-77430000D02*
X55880000Y-77300000D01*
X57190000Y-86995000D02*
G75*
G03X57190000Y-86995000I-1310000J0D01*
G01*
X55880000Y-85685000D02*
X55880000Y-85555000D01*
X57190000Y-95250000D02*
G75*
G03X57190000Y-95250000I-1310000J0D01*
G01*
X55880000Y-93940000D02*
X55880000Y-93810000D01*
X57190000Y-103505000D02*
G75*
G03X57190000Y-103505000I-1310000J0D01*
G01*
X55880000Y-102195000D02*
X55880000Y-102065000D01*
X57190000Y-111760000D02*
G75*
G03X57190000Y-111760000I-1310000J0D01*
G01*
X55880000Y-110450000D02*
X55880000Y-110320000D01*
X57190000Y-120015000D02*
G75*
G03X57190000Y-120015000I-1310000J0D01*
G01*
X55880000Y-118705000D02*
X55880000Y-118575000D01*
X57190000Y-128270000D02*
G75*
G03X57190000Y-128270000I-1310000J0D01*
G01*
X55880000Y-126960000D02*
X55880000Y-126830000D01*
X57190000Y-136525000D02*
G75*
G03X57190000Y-136525000I-1310000J0D01*
G01*
X55880000Y-135215000D02*
X55880000Y-135085000D01*
X57190000Y-144780000D02*
G75*
G03X57190000Y-144780000I-1310000J0D01*
G01*
X55880000Y-143470000D02*
X55880000Y-143340000D01*
X86360000Y-39370000D02*
X93980000Y-39370000D01*
X93980000Y-39370000D02*
X93980000Y-39670000D01*
X93980000Y-46990000D02*
X86360000Y-46990000D01*
X86360000Y-39370000D02*
X86360000Y-39670000D01*
X93980000Y-41610000D02*
X93980000Y-44750000D01*
X86360000Y-41610000D02*
X86360000Y-44750000D01*
X93980000Y-46690000D02*
X93980000Y-46990000D01*
X86360000Y-46690000D02*
X86360000Y-46990000D01*
X92710000Y-43180000D02*
G75*
G03X92710000Y-43180000I-2540000J0D01*
G01*
X86360000Y-49530000D02*
X93980000Y-49530000D01*
X93980000Y-49530000D02*
X93980000Y-49830000D01*
X93980000Y-57150000D02*
X86360000Y-57150000D01*
X86360000Y-49530000D02*
X86360000Y-49830000D01*
X93980000Y-51770000D02*
X93980000Y-54910000D01*
X86360000Y-51770000D02*
X86360000Y-54910000D01*
X93980000Y-56850000D02*
X93980000Y-57150000D01*
X86360000Y-56850000D02*
X86360000Y-57150000D01*
X92710000Y-53340000D02*
G75*
G03X92710000Y-53340000I-2540000J0D01*
G01*
X86360000Y-59690000D02*
X93980000Y-59690000D01*
X93980000Y-59690000D02*
X93980000Y-59990000D01*
X93980000Y-67310000D02*
X86360000Y-67310000D01*
X86360000Y-59690000D02*
X86360000Y-59990000D01*
X93980000Y-61930000D02*
X93980000Y-65070000D01*
X86360000Y-61930000D02*
X86360000Y-65070000D01*
X93980000Y-67010000D02*
X93980000Y-67310000D01*
X86360000Y-67010000D02*
X86360000Y-67310000D01*
X92710000Y-63500000D02*
G75*
G03X92710000Y-63500000I-2540000J0D01*
G01*
X59055000Y-31115000D02*
X66675000Y-31115000D01*
X66675000Y-31115000D02*
X66675000Y-31415000D01*
X66675000Y-38735000D02*
X59055000Y-38735000D01*
X59055000Y-31115000D02*
X59055000Y-31415000D01*
X66675000Y-33355000D02*
X66675000Y-36495000D01*
X59055000Y-33355000D02*
X59055000Y-36495000D01*
X66675000Y-38435000D02*
X66675000Y-38735000D01*
X59055000Y-38435000D02*
X59055000Y-38735000D01*
X65405000Y-34925000D02*
G75*
G03X65405000Y-34925000I-2540000J0D01*
G01*
X59055000Y-39370000D02*
X66675000Y-39370000D01*
X66675000Y-39370000D02*
X66675000Y-39670000D01*
X66675000Y-46990000D02*
X59055000Y-46990000D01*
X59055000Y-39370000D02*
X59055000Y-39670000D01*
X66675000Y-41610000D02*
X66675000Y-44750000D01*
X59055000Y-41610000D02*
X59055000Y-44750000D01*
X66675000Y-46690000D02*
X66675000Y-46990000D01*
X59055000Y-46690000D02*
X59055000Y-46990000D01*
X65405000Y-43180000D02*
G75*
G03X65405000Y-43180000I-2540000J0D01*
G01*
X59055000Y-47625000D02*
X66675000Y-47625000D01*
X66675000Y-47625000D02*
X66675000Y-47925000D01*
X66675000Y-55245000D02*
X59055000Y-55245000D01*
X59055000Y-47625000D02*
X59055000Y-47925000D01*
X66675000Y-49865000D02*
X66675000Y-53005000D01*
X59055000Y-49865000D02*
X59055000Y-53005000D01*
X66675000Y-54945000D02*
X66675000Y-55245000D01*
X59055000Y-54945000D02*
X59055000Y-55245000D01*
X65405000Y-51435000D02*
G75*
G03X65405000Y-51435000I-2540000J0D01*
G01*
X59055000Y-55880000D02*
X66675000Y-55880000D01*
X66675000Y-55880000D02*
X66675000Y-56180000D01*
X66675000Y-63500000D02*
X59055000Y-63500000D01*
X59055000Y-55880000D02*
X59055000Y-56180000D01*
X66675000Y-58120000D02*
X66675000Y-61260000D01*
X59055000Y-58120000D02*
X59055000Y-61260000D01*
X66675000Y-63200000D02*
X66675000Y-63500000D01*
X59055000Y-63200000D02*
X59055000Y-63500000D01*
X65405000Y-59690000D02*
G75*
G03X65405000Y-59690000I-2540000J0D01*
G01*
X59055000Y-64135000D02*
X66675000Y-64135000D01*
X66675000Y-64135000D02*
X66675000Y-64435000D01*
X66675000Y-71755000D02*
X59055000Y-71755000D01*
X59055000Y-64135000D02*
X59055000Y-64435000D01*
X66675000Y-66375000D02*
X66675000Y-69515000D01*
X59055000Y-66375000D02*
X59055000Y-69515000D01*
X66675000Y-71455000D02*
X66675000Y-71755000D01*
X59055000Y-71455000D02*
X59055000Y-71755000D01*
X65405000Y-67945000D02*
G75*
G03X65405000Y-67945000I-2540000J0D01*
G01*
X59055000Y-72390000D02*
X66675000Y-72390000D01*
X66675000Y-72390000D02*
X66675000Y-72690000D01*
X66675000Y-80010000D02*
X59055000Y-80010000D01*
X59055000Y-72390000D02*
X59055000Y-72690000D01*
X66675000Y-74630000D02*
X66675000Y-77770000D01*
X59055000Y-74630000D02*
X59055000Y-77770000D01*
X66675000Y-79710000D02*
X66675000Y-80010000D01*
X59055000Y-79710000D02*
X59055000Y-80010000D01*
X65405000Y-76200000D02*
G75*
G03X65405000Y-76200000I-2540000J0D01*
G01*
X59055000Y-80645000D02*
X66675000Y-80645000D01*
X66675000Y-80645000D02*
X66675000Y-80945000D01*
X66675000Y-88265000D02*
X59055000Y-88265000D01*
X59055000Y-80645000D02*
X59055000Y-80945000D01*
X66675000Y-82885000D02*
X66675000Y-86025000D01*
X59055000Y-82885000D02*
X59055000Y-86025000D01*
X66675000Y-87965000D02*
X66675000Y-88265000D01*
X59055000Y-87965000D02*
X59055000Y-88265000D01*
X65405000Y-84455000D02*
G75*
G03X65405000Y-84455000I-2540000J0D01*
G01*
X59055000Y-88900000D02*
X66675000Y-88900000D01*
X66675000Y-88900000D02*
X66675000Y-89200000D01*
X66675000Y-96520000D02*
X59055000Y-96520000D01*
X59055000Y-88900000D02*
X59055000Y-89200000D01*
X66675000Y-91140000D02*
X66675000Y-94280000D01*
X59055000Y-91140000D02*
X59055000Y-94280000D01*
X66675000Y-96220000D02*
X66675000Y-96520000D01*
X59055000Y-96220000D02*
X59055000Y-96520000D01*
X65405000Y-92710000D02*
G75*
G03X65405000Y-92710000I-2540000J0D01*
G01*
X59055000Y-97155000D02*
X66675000Y-97155000D01*
X66675000Y-97155000D02*
X66675000Y-97455000D01*
X66675000Y-104775000D02*
X59055000Y-104775000D01*
X59055000Y-97155000D02*
X59055000Y-97455000D01*
X66675000Y-99395000D02*
X66675000Y-102535000D01*
X59055000Y-99395000D02*
X59055000Y-102535000D01*
X66675000Y-104475000D02*
X66675000Y-104775000D01*
X59055000Y-104475000D02*
X59055000Y-104775000D01*
X65405000Y-100965000D02*
G75*
G03X65405000Y-100965000I-2540000J0D01*
G01*
X59055000Y-105410000D02*
X66675000Y-105410000D01*
X66675000Y-105410000D02*
X66675000Y-105710000D01*
X66675000Y-113030000D02*
X59055000Y-113030000D01*
X59055000Y-105410000D02*
X59055000Y-105710000D01*
X66675000Y-107650000D02*
X66675000Y-110790000D01*
X59055000Y-107650000D02*
X59055000Y-110790000D01*
X66675000Y-112730000D02*
X66675000Y-113030000D01*
X59055000Y-112730000D02*
X59055000Y-113030000D01*
X65405000Y-109220000D02*
G75*
G03X65405000Y-109220000I-2540000J0D01*
G01*
X59055000Y-113665000D02*
X66675000Y-113665000D01*
X66675000Y-113665000D02*
X66675000Y-113965000D01*
X66675000Y-121285000D02*
X59055000Y-121285000D01*
X59055000Y-113665000D02*
X59055000Y-113965000D01*
X66675000Y-115905000D02*
X66675000Y-119045000D01*
X59055000Y-115905000D02*
X59055000Y-119045000D01*
X66675000Y-120985000D02*
X66675000Y-121285000D01*
X59055000Y-120985000D02*
X59055000Y-121285000D01*
X65405000Y-117475000D02*
G75*
G03X65405000Y-117475000I-2540000J0D01*
G01*
X59055000Y-121920000D02*
X66675000Y-121920000D01*
X66675000Y-121920000D02*
X66675000Y-122220000D01*
X66675000Y-129540000D02*
X59055000Y-129540000D01*
X59055000Y-121920000D02*
X59055000Y-122220000D01*
X66675000Y-124160000D02*
X66675000Y-127300000D01*
X59055000Y-124160000D02*
X59055000Y-127300000D01*
X66675000Y-129240000D02*
X66675000Y-129540000D01*
X59055000Y-129240000D02*
X59055000Y-129540000D01*
X65405000Y-125730000D02*
G75*
G03X65405000Y-125730000I-2540000J0D01*
G01*
X59055000Y-130175000D02*
X66675000Y-130175000D01*
X66675000Y-130175000D02*
X66675000Y-130475000D01*
X66675000Y-137795000D02*
X59055000Y-137795000D01*
X59055000Y-130175000D02*
X59055000Y-130475000D01*
X66675000Y-132415000D02*
X66675000Y-135555000D01*
X59055000Y-132415000D02*
X59055000Y-135555000D01*
X66675000Y-137495000D02*
X66675000Y-137795000D01*
X59055000Y-137495000D02*
X59055000Y-137795000D01*
X65405000Y-133985000D02*
G75*
G03X65405000Y-133985000I-2540000J0D01*
G01*
X59055000Y-138430000D02*
X66675000Y-138430000D01*
X66675000Y-138430000D02*
X66675000Y-138730000D01*
X66675000Y-146050000D02*
X59055000Y-146050000D01*
X59055000Y-138430000D02*
X59055000Y-138730000D01*
X66675000Y-140670000D02*
X66675000Y-143810000D01*
X59055000Y-140670000D02*
X59055000Y-143810000D01*
X66675000Y-145750000D02*
X66675000Y-146050000D01*
X59055000Y-145750000D02*
X59055000Y-146050000D01*
X65405000Y-142240000D02*
G75*
G03X65405000Y-142240000I-2540000J0D01*
G01*
D10*
X105227619Y-94642380D02*
X105227619Y-93642380D01*
X105656190Y-93737619D02*
X105703809Y-93690000D01*
X105799047Y-93642380D01*
X106037142Y-93642380D01*
X106132380Y-93690000D01*
X106180000Y-93737619D01*
X106227619Y-93832857D01*
X106227619Y-93928095D01*
X106180000Y-94070952D01*
X105608571Y-94642380D01*
X106227619Y-94642380D01*
X107227619Y-94547142D02*
X107180000Y-94594761D01*
X107037142Y-94642380D01*
X106941904Y-94642380D01*
X106799047Y-94594761D01*
X106703809Y-94499523D01*
X106656190Y-94404285D01*
X106608571Y-94213809D01*
X106608571Y-94070952D01*
X106656190Y-93880476D01*
X106703809Y-93785238D01*
X106799047Y-93690000D01*
X106941904Y-93642380D01*
X107037142Y-93642380D01*
X107180000Y-93690000D01*
X107227619Y-93737619D01*
X108084761Y-93975714D02*
X108084761Y-94642380D01*
X107846666Y-93594761D02*
X107608571Y-94309047D01*
X108227619Y-94309047D01*
X99512619Y-94642380D02*
X99512619Y-93642380D01*
X99941190Y-93737619D02*
X99988809Y-93690000D01*
X100084047Y-93642380D01*
X100322142Y-93642380D01*
X100417380Y-93690000D01*
X100465000Y-93737619D01*
X100512619Y-93832857D01*
X100512619Y-93928095D01*
X100465000Y-94070952D01*
X99893571Y-94642380D01*
X100512619Y-94642380D01*
X101512619Y-94547142D02*
X101465000Y-94594761D01*
X101322142Y-94642380D01*
X101226904Y-94642380D01*
X101084047Y-94594761D01*
X100988809Y-94499523D01*
X100941190Y-94404285D01*
X100893571Y-94213809D01*
X100893571Y-94070952D01*
X100941190Y-93880476D01*
X100988809Y-93785238D01*
X101084047Y-93690000D01*
X101226904Y-93642380D01*
X101322142Y-93642380D01*
X101465000Y-93690000D01*
X101512619Y-93737619D01*
X101845952Y-93642380D02*
X102465000Y-93642380D01*
X102131666Y-94023333D01*
X102274523Y-94023333D01*
X102369761Y-94070952D01*
X102417380Y-94118571D01*
X102465000Y-94213809D01*
X102465000Y-94451904D01*
X102417380Y-94547142D01*
X102369761Y-94594761D01*
X102274523Y-94642380D01*
X101988809Y-94642380D01*
X101893571Y-94594761D01*
X101845952Y-94547142D01*
X105227619Y-74322380D02*
X105227619Y-73322380D01*
X105656190Y-73417619D02*
X105703809Y-73370000D01*
X105799047Y-73322380D01*
X106037142Y-73322380D01*
X106132380Y-73370000D01*
X106180000Y-73417619D01*
X106227619Y-73512857D01*
X106227619Y-73608095D01*
X106180000Y-73750952D01*
X105608571Y-74322380D01*
X106227619Y-74322380D01*
X107227619Y-74227142D02*
X107180000Y-74274761D01*
X107037142Y-74322380D01*
X106941904Y-74322380D01*
X106799047Y-74274761D01*
X106703809Y-74179523D01*
X106656190Y-74084285D01*
X106608571Y-73893809D01*
X106608571Y-73750952D01*
X106656190Y-73560476D01*
X106703809Y-73465238D01*
X106799047Y-73370000D01*
X106941904Y-73322380D01*
X107037142Y-73322380D01*
X107180000Y-73370000D01*
X107227619Y-73417619D01*
X107799047Y-73750952D02*
X107703809Y-73703333D01*
X107656190Y-73655714D01*
X107608571Y-73560476D01*
X107608571Y-73512857D01*
X107656190Y-73417619D01*
X107703809Y-73370000D01*
X107799047Y-73322380D01*
X107989523Y-73322380D01*
X108084761Y-73370000D01*
X108132380Y-73417619D01*
X108180000Y-73512857D01*
X108180000Y-73560476D01*
X108132380Y-73655714D01*
X108084761Y-73703333D01*
X107989523Y-73750952D01*
X107799047Y-73750952D01*
X107703809Y-73798571D01*
X107656190Y-73846190D01*
X107608571Y-73941428D01*
X107608571Y-74131904D01*
X107656190Y-74227142D01*
X107703809Y-74274761D01*
X107799047Y-74322380D01*
X107989523Y-74322380D01*
X108084761Y-74274761D01*
X108132380Y-74227142D01*
X108180000Y-74131904D01*
X108180000Y-73941428D01*
X108132380Y-73846190D01*
X108084761Y-73798571D01*
X107989523Y-73750952D01*
X99512619Y-74322380D02*
X99512619Y-73322380D01*
X99941190Y-73417619D02*
X99988809Y-73370000D01*
X100084047Y-73322380D01*
X100322142Y-73322380D01*
X100417380Y-73370000D01*
X100465000Y-73417619D01*
X100512619Y-73512857D01*
X100512619Y-73608095D01*
X100465000Y-73750952D01*
X99893571Y-74322380D01*
X100512619Y-74322380D01*
X101512619Y-74227142D02*
X101465000Y-74274761D01*
X101322142Y-74322380D01*
X101226904Y-74322380D01*
X101084047Y-74274761D01*
X100988809Y-74179523D01*
X100941190Y-74084285D01*
X100893571Y-73893809D01*
X100893571Y-73750952D01*
X100941190Y-73560476D01*
X100988809Y-73465238D01*
X101084047Y-73370000D01*
X101226904Y-73322380D01*
X101322142Y-73322380D01*
X101465000Y-73370000D01*
X101512619Y-73417619D01*
X101845952Y-73322380D02*
X102512619Y-73322380D01*
X102084047Y-74322380D01*
X95282380Y-45188095D02*
X94282380Y-45188095D01*
X94282380Y-44950000D01*
X94330000Y-44807142D01*
X94425238Y-44711904D01*
X94520476Y-44664285D01*
X94710952Y-44616666D01*
X94853809Y-44616666D01*
X95044285Y-44664285D01*
X95139523Y-44711904D01*
X95234761Y-44807142D01*
X95282380Y-44950000D01*
X95282380Y-45188095D01*
X94615714Y-43759523D02*
X95282380Y-43759523D01*
X94234761Y-43997619D02*
X94949047Y-44235714D01*
X94949047Y-43616666D01*
X95282380Y-55348095D02*
X94282380Y-55348095D01*
X94282380Y-55110000D01*
X94330000Y-54967142D01*
X94425238Y-54871904D01*
X94520476Y-54824285D01*
X94710952Y-54776666D01*
X94853809Y-54776666D01*
X95044285Y-54824285D01*
X95139523Y-54871904D01*
X95234761Y-54967142D01*
X95282380Y-55110000D01*
X95282380Y-55348095D01*
X94282380Y-53871904D02*
X94282380Y-54348095D01*
X94758571Y-54395714D01*
X94710952Y-54348095D01*
X94663333Y-54252857D01*
X94663333Y-54014761D01*
X94710952Y-53919523D01*
X94758571Y-53871904D01*
X94853809Y-53824285D01*
X95091904Y-53824285D01*
X95187142Y-53871904D01*
X95234761Y-53919523D01*
X95282380Y-54014761D01*
X95282380Y-54252857D01*
X95234761Y-54348095D01*
X95187142Y-54395714D01*
X95282380Y-65508095D02*
X94282380Y-65508095D01*
X94282380Y-65270000D01*
X94330000Y-65127142D01*
X94425238Y-65031904D01*
X94520476Y-64984285D01*
X94710952Y-64936666D01*
X94853809Y-64936666D01*
X95044285Y-64984285D01*
X95139523Y-65031904D01*
X95234761Y-65127142D01*
X95282380Y-65270000D01*
X95282380Y-65508095D01*
X94282380Y-64079523D02*
X94282380Y-64270000D01*
X94330000Y-64365238D01*
X94377619Y-64412857D01*
X94520476Y-64508095D01*
X94710952Y-64555714D01*
X95091904Y-64555714D01*
X95187142Y-64508095D01*
X95234761Y-64460476D01*
X95282380Y-64365238D01*
X95282380Y-64174761D01*
X95234761Y-64079523D01*
X95187142Y-64031904D01*
X95091904Y-63984285D01*
X94853809Y-63984285D01*
X94758571Y-64031904D01*
X94710952Y-64079523D01*
X94663333Y-64174761D01*
X94663333Y-64365238D01*
X94710952Y-64460476D01*
X94758571Y-64508095D01*
X94853809Y-64555714D01*
X48927380Y-37409285D02*
X47927380Y-37409285D01*
X47927380Y-37171190D01*
X47975000Y-37028333D01*
X48070238Y-36933095D01*
X48165476Y-36885476D01*
X48355952Y-36837857D01*
X48498809Y-36837857D01*
X48689285Y-36885476D01*
X48784523Y-36933095D01*
X48879761Y-37028333D01*
X48927380Y-37171190D01*
X48927380Y-37409285D01*
X48927380Y-35885476D02*
X48927380Y-36456904D01*
X48927380Y-36171190D02*
X47927380Y-36171190D01*
X48070238Y-36266428D01*
X48165476Y-36361666D01*
X48213095Y-36456904D01*
X48022619Y-35504523D02*
X47975000Y-35456904D01*
X47927380Y-35361666D01*
X47927380Y-35123571D01*
X47975000Y-35028333D01*
X48022619Y-34980714D01*
X48117857Y-34933095D01*
X48213095Y-34933095D01*
X48355952Y-34980714D01*
X48927380Y-35552142D01*
X48927380Y-34933095D01*
X48927380Y-45664285D02*
X47927380Y-45664285D01*
X47927380Y-45426190D01*
X47975000Y-45283333D01*
X48070238Y-45188095D01*
X48165476Y-45140476D01*
X48355952Y-45092857D01*
X48498809Y-45092857D01*
X48689285Y-45140476D01*
X48784523Y-45188095D01*
X48879761Y-45283333D01*
X48927380Y-45426190D01*
X48927380Y-45664285D01*
X48927380Y-44140476D02*
X48927380Y-44711904D01*
X48927380Y-44426190D02*
X47927380Y-44426190D01*
X48070238Y-44521428D01*
X48165476Y-44616666D01*
X48213095Y-44711904D01*
X47927380Y-43807142D02*
X47927380Y-43188095D01*
X48308333Y-43521428D01*
X48308333Y-43378571D01*
X48355952Y-43283333D01*
X48403571Y-43235714D01*
X48498809Y-43188095D01*
X48736904Y-43188095D01*
X48832142Y-43235714D01*
X48879761Y-43283333D01*
X48927380Y-43378571D01*
X48927380Y-43664285D01*
X48879761Y-43759523D01*
X48832142Y-43807142D01*
X48927380Y-53919285D02*
X47927380Y-53919285D01*
X47927380Y-53681190D01*
X47975000Y-53538333D01*
X48070238Y-53443095D01*
X48165476Y-53395476D01*
X48355952Y-53347857D01*
X48498809Y-53347857D01*
X48689285Y-53395476D01*
X48784523Y-53443095D01*
X48879761Y-53538333D01*
X48927380Y-53681190D01*
X48927380Y-53919285D01*
X48927380Y-52395476D02*
X48927380Y-52966904D01*
X48927380Y-52681190D02*
X47927380Y-52681190D01*
X48070238Y-52776428D01*
X48165476Y-52871666D01*
X48213095Y-52966904D01*
X47927380Y-51538333D02*
X47927380Y-51728809D01*
X47975000Y-51824047D01*
X48022619Y-51871666D01*
X48165476Y-51966904D01*
X48355952Y-52014523D01*
X48736904Y-52014523D01*
X48832142Y-51966904D01*
X48879761Y-51919285D01*
X48927380Y-51824047D01*
X48927380Y-51633571D01*
X48879761Y-51538333D01*
X48832142Y-51490714D01*
X48736904Y-51443095D01*
X48498809Y-51443095D01*
X48403571Y-51490714D01*
X48355952Y-51538333D01*
X48308333Y-51633571D01*
X48308333Y-51824047D01*
X48355952Y-51919285D01*
X48403571Y-51966904D01*
X48498809Y-52014523D01*
X48927380Y-62174285D02*
X47927380Y-62174285D01*
X47927380Y-61936190D01*
X47975000Y-61793333D01*
X48070238Y-61698095D01*
X48165476Y-61650476D01*
X48355952Y-61602857D01*
X48498809Y-61602857D01*
X48689285Y-61650476D01*
X48784523Y-61698095D01*
X48879761Y-61793333D01*
X48927380Y-61936190D01*
X48927380Y-62174285D01*
X48927380Y-60650476D02*
X48927380Y-61221904D01*
X48927380Y-60936190D02*
X47927380Y-60936190D01*
X48070238Y-61031428D01*
X48165476Y-61126666D01*
X48213095Y-61221904D01*
X47927380Y-60317142D02*
X47927380Y-59650476D01*
X48927380Y-60079047D01*
X48927380Y-70429285D02*
X47927380Y-70429285D01*
X47927380Y-70191190D01*
X47975000Y-70048333D01*
X48070238Y-69953095D01*
X48165476Y-69905476D01*
X48355952Y-69857857D01*
X48498809Y-69857857D01*
X48689285Y-69905476D01*
X48784523Y-69953095D01*
X48879761Y-70048333D01*
X48927380Y-70191190D01*
X48927380Y-70429285D01*
X48927380Y-68905476D02*
X48927380Y-69476904D01*
X48927380Y-69191190D02*
X47927380Y-69191190D01*
X48070238Y-69286428D01*
X48165476Y-69381666D01*
X48213095Y-69476904D01*
X48355952Y-68334047D02*
X48308333Y-68429285D01*
X48260714Y-68476904D01*
X48165476Y-68524523D01*
X48117857Y-68524523D01*
X48022619Y-68476904D01*
X47975000Y-68429285D01*
X47927380Y-68334047D01*
X47927380Y-68143571D01*
X47975000Y-68048333D01*
X48022619Y-68000714D01*
X48117857Y-67953095D01*
X48165476Y-67953095D01*
X48260714Y-68000714D01*
X48308333Y-68048333D01*
X48355952Y-68143571D01*
X48355952Y-68334047D01*
X48403571Y-68429285D01*
X48451190Y-68476904D01*
X48546428Y-68524523D01*
X48736904Y-68524523D01*
X48832142Y-68476904D01*
X48879761Y-68429285D01*
X48927380Y-68334047D01*
X48927380Y-68143571D01*
X48879761Y-68048333D01*
X48832142Y-68000714D01*
X48736904Y-67953095D01*
X48546428Y-67953095D01*
X48451190Y-68000714D01*
X48403571Y-68048333D01*
X48355952Y-68143571D01*
X48927380Y-78684285D02*
X47927380Y-78684285D01*
X47927380Y-78446190D01*
X47975000Y-78303333D01*
X48070238Y-78208095D01*
X48165476Y-78160476D01*
X48355952Y-78112857D01*
X48498809Y-78112857D01*
X48689285Y-78160476D01*
X48784523Y-78208095D01*
X48879761Y-78303333D01*
X48927380Y-78446190D01*
X48927380Y-78684285D01*
X48927380Y-77160476D02*
X48927380Y-77731904D01*
X48927380Y-77446190D02*
X47927380Y-77446190D01*
X48070238Y-77541428D01*
X48165476Y-77636666D01*
X48213095Y-77731904D01*
X48927380Y-76684285D02*
X48927380Y-76493809D01*
X48879761Y-76398571D01*
X48832142Y-76350952D01*
X48689285Y-76255714D01*
X48498809Y-76208095D01*
X48117857Y-76208095D01*
X48022619Y-76255714D01*
X47975000Y-76303333D01*
X47927380Y-76398571D01*
X47927380Y-76589047D01*
X47975000Y-76684285D01*
X48022619Y-76731904D01*
X48117857Y-76779523D01*
X48355952Y-76779523D01*
X48451190Y-76731904D01*
X48498809Y-76684285D01*
X48546428Y-76589047D01*
X48546428Y-76398571D01*
X48498809Y-76303333D01*
X48451190Y-76255714D01*
X48355952Y-76208095D01*
X48927380Y-86939285D02*
X47927380Y-86939285D01*
X47927380Y-86701190D01*
X47975000Y-86558333D01*
X48070238Y-86463095D01*
X48165476Y-86415476D01*
X48355952Y-86367857D01*
X48498809Y-86367857D01*
X48689285Y-86415476D01*
X48784523Y-86463095D01*
X48879761Y-86558333D01*
X48927380Y-86701190D01*
X48927380Y-86939285D01*
X48022619Y-85986904D02*
X47975000Y-85939285D01*
X47927380Y-85844047D01*
X47927380Y-85605952D01*
X47975000Y-85510714D01*
X48022619Y-85463095D01*
X48117857Y-85415476D01*
X48213095Y-85415476D01*
X48355952Y-85463095D01*
X48927380Y-86034523D01*
X48927380Y-85415476D01*
X47927380Y-84796428D02*
X47927380Y-84701190D01*
X47975000Y-84605952D01*
X48022619Y-84558333D01*
X48117857Y-84510714D01*
X48308333Y-84463095D01*
X48546428Y-84463095D01*
X48736904Y-84510714D01*
X48832142Y-84558333D01*
X48879761Y-84605952D01*
X48927380Y-84701190D01*
X48927380Y-84796428D01*
X48879761Y-84891666D01*
X48832142Y-84939285D01*
X48736904Y-84986904D01*
X48546428Y-85034523D01*
X48308333Y-85034523D01*
X48117857Y-84986904D01*
X48022619Y-84939285D01*
X47975000Y-84891666D01*
X47927380Y-84796428D01*
X48927380Y-95194285D02*
X47927380Y-95194285D01*
X47927380Y-94956190D01*
X47975000Y-94813333D01*
X48070238Y-94718095D01*
X48165476Y-94670476D01*
X48355952Y-94622857D01*
X48498809Y-94622857D01*
X48689285Y-94670476D01*
X48784523Y-94718095D01*
X48879761Y-94813333D01*
X48927380Y-94956190D01*
X48927380Y-95194285D01*
X48022619Y-94241904D02*
X47975000Y-94194285D01*
X47927380Y-94099047D01*
X47927380Y-93860952D01*
X47975000Y-93765714D01*
X48022619Y-93718095D01*
X48117857Y-93670476D01*
X48213095Y-93670476D01*
X48355952Y-93718095D01*
X48927380Y-94289523D01*
X48927380Y-93670476D01*
X48927380Y-92718095D02*
X48927380Y-93289523D01*
X48927380Y-93003809D02*
X47927380Y-93003809D01*
X48070238Y-93099047D01*
X48165476Y-93194285D01*
X48213095Y-93289523D01*
X48927380Y-103449285D02*
X47927380Y-103449285D01*
X47927380Y-103211190D01*
X47975000Y-103068333D01*
X48070238Y-102973095D01*
X48165476Y-102925476D01*
X48355952Y-102877857D01*
X48498809Y-102877857D01*
X48689285Y-102925476D01*
X48784523Y-102973095D01*
X48879761Y-103068333D01*
X48927380Y-103211190D01*
X48927380Y-103449285D01*
X48022619Y-102496904D02*
X47975000Y-102449285D01*
X47927380Y-102354047D01*
X47927380Y-102115952D01*
X47975000Y-102020714D01*
X48022619Y-101973095D01*
X48117857Y-101925476D01*
X48213095Y-101925476D01*
X48355952Y-101973095D01*
X48927380Y-102544523D01*
X48927380Y-101925476D01*
X48022619Y-101544523D02*
X47975000Y-101496904D01*
X47927380Y-101401666D01*
X47927380Y-101163571D01*
X47975000Y-101068333D01*
X48022619Y-101020714D01*
X48117857Y-100973095D01*
X48213095Y-100973095D01*
X48355952Y-101020714D01*
X48927380Y-101592142D01*
X48927380Y-100973095D01*
X48927380Y-111704285D02*
X47927380Y-111704285D01*
X47927380Y-111466190D01*
X47975000Y-111323333D01*
X48070238Y-111228095D01*
X48165476Y-111180476D01*
X48355952Y-111132857D01*
X48498809Y-111132857D01*
X48689285Y-111180476D01*
X48784523Y-111228095D01*
X48879761Y-111323333D01*
X48927380Y-111466190D01*
X48927380Y-111704285D01*
X48022619Y-110751904D02*
X47975000Y-110704285D01*
X47927380Y-110609047D01*
X47927380Y-110370952D01*
X47975000Y-110275714D01*
X48022619Y-110228095D01*
X48117857Y-110180476D01*
X48213095Y-110180476D01*
X48355952Y-110228095D01*
X48927380Y-110799523D01*
X48927380Y-110180476D01*
X47927380Y-109847142D02*
X47927380Y-109228095D01*
X48308333Y-109561428D01*
X48308333Y-109418571D01*
X48355952Y-109323333D01*
X48403571Y-109275714D01*
X48498809Y-109228095D01*
X48736904Y-109228095D01*
X48832142Y-109275714D01*
X48879761Y-109323333D01*
X48927380Y-109418571D01*
X48927380Y-109704285D01*
X48879761Y-109799523D01*
X48832142Y-109847142D01*
X48927380Y-119959285D02*
X47927380Y-119959285D01*
X47927380Y-119721190D01*
X47975000Y-119578333D01*
X48070238Y-119483095D01*
X48165476Y-119435476D01*
X48355952Y-119387857D01*
X48498809Y-119387857D01*
X48689285Y-119435476D01*
X48784523Y-119483095D01*
X48879761Y-119578333D01*
X48927380Y-119721190D01*
X48927380Y-119959285D01*
X48022619Y-119006904D02*
X47975000Y-118959285D01*
X47927380Y-118864047D01*
X47927380Y-118625952D01*
X47975000Y-118530714D01*
X48022619Y-118483095D01*
X48117857Y-118435476D01*
X48213095Y-118435476D01*
X48355952Y-118483095D01*
X48927380Y-119054523D01*
X48927380Y-118435476D01*
X48260714Y-117578333D02*
X48927380Y-117578333D01*
X47879761Y-117816428D02*
X48594047Y-118054523D01*
X48594047Y-117435476D01*
X48927380Y-128214285D02*
X47927380Y-128214285D01*
X47927380Y-127976190D01*
X47975000Y-127833333D01*
X48070238Y-127738095D01*
X48165476Y-127690476D01*
X48355952Y-127642857D01*
X48498809Y-127642857D01*
X48689285Y-127690476D01*
X48784523Y-127738095D01*
X48879761Y-127833333D01*
X48927380Y-127976190D01*
X48927380Y-128214285D01*
X48022619Y-127261904D02*
X47975000Y-127214285D01*
X47927380Y-127119047D01*
X47927380Y-126880952D01*
X47975000Y-126785714D01*
X48022619Y-126738095D01*
X48117857Y-126690476D01*
X48213095Y-126690476D01*
X48355952Y-126738095D01*
X48927380Y-127309523D01*
X48927380Y-126690476D01*
X47927380Y-125785714D02*
X47927380Y-126261904D01*
X48403571Y-126309523D01*
X48355952Y-126261904D01*
X48308333Y-126166666D01*
X48308333Y-125928571D01*
X48355952Y-125833333D01*
X48403571Y-125785714D01*
X48498809Y-125738095D01*
X48736904Y-125738095D01*
X48832142Y-125785714D01*
X48879761Y-125833333D01*
X48927380Y-125928571D01*
X48927380Y-126166666D01*
X48879761Y-126261904D01*
X48832142Y-126309523D01*
X48927380Y-136469285D02*
X47927380Y-136469285D01*
X47927380Y-136231190D01*
X47975000Y-136088333D01*
X48070238Y-135993095D01*
X48165476Y-135945476D01*
X48355952Y-135897857D01*
X48498809Y-135897857D01*
X48689285Y-135945476D01*
X48784523Y-135993095D01*
X48879761Y-136088333D01*
X48927380Y-136231190D01*
X48927380Y-136469285D01*
X48022619Y-135516904D02*
X47975000Y-135469285D01*
X47927380Y-135374047D01*
X47927380Y-135135952D01*
X47975000Y-135040714D01*
X48022619Y-134993095D01*
X48117857Y-134945476D01*
X48213095Y-134945476D01*
X48355952Y-134993095D01*
X48927380Y-135564523D01*
X48927380Y-134945476D01*
X47927380Y-134088333D02*
X47927380Y-134278809D01*
X47975000Y-134374047D01*
X48022619Y-134421666D01*
X48165476Y-134516904D01*
X48355952Y-134564523D01*
X48736904Y-134564523D01*
X48832142Y-134516904D01*
X48879761Y-134469285D01*
X48927380Y-134374047D01*
X48927380Y-134183571D01*
X48879761Y-134088333D01*
X48832142Y-134040714D01*
X48736904Y-133993095D01*
X48498809Y-133993095D01*
X48403571Y-134040714D01*
X48355952Y-134088333D01*
X48308333Y-134183571D01*
X48308333Y-134374047D01*
X48355952Y-134469285D01*
X48403571Y-134516904D01*
X48498809Y-134564523D01*
X48927380Y-144724285D02*
X47927380Y-144724285D01*
X47927380Y-144486190D01*
X47975000Y-144343333D01*
X48070238Y-144248095D01*
X48165476Y-144200476D01*
X48355952Y-144152857D01*
X48498809Y-144152857D01*
X48689285Y-144200476D01*
X48784523Y-144248095D01*
X48879761Y-144343333D01*
X48927380Y-144486190D01*
X48927380Y-144724285D01*
X48022619Y-143771904D02*
X47975000Y-143724285D01*
X47927380Y-143629047D01*
X47927380Y-143390952D01*
X47975000Y-143295714D01*
X48022619Y-143248095D01*
X48117857Y-143200476D01*
X48213095Y-143200476D01*
X48355952Y-143248095D01*
X48927380Y-143819523D01*
X48927380Y-143200476D01*
X47927380Y-142867142D02*
X47927380Y-142200476D01*
X48927380Y-142629047D01*
X88082619Y-94642380D02*
X88082619Y-93642380D01*
X88511190Y-93737619D02*
X88558809Y-93690000D01*
X88654047Y-93642380D01*
X88892142Y-93642380D01*
X88987380Y-93690000D01*
X89035000Y-93737619D01*
X89082619Y-93832857D01*
X89082619Y-93928095D01*
X89035000Y-94070952D01*
X88463571Y-94642380D01*
X89082619Y-94642380D01*
X90082619Y-94547142D02*
X90035000Y-94594761D01*
X89892142Y-94642380D01*
X89796904Y-94642380D01*
X89654047Y-94594761D01*
X89558809Y-94499523D01*
X89511190Y-94404285D01*
X89463571Y-94213809D01*
X89463571Y-94070952D01*
X89511190Y-93880476D01*
X89558809Y-93785238D01*
X89654047Y-93690000D01*
X89796904Y-93642380D01*
X89892142Y-93642380D01*
X90035000Y-93690000D01*
X90082619Y-93737619D01*
X91035000Y-94642380D02*
X90463571Y-94642380D01*
X90749285Y-94642380D02*
X90749285Y-93642380D01*
X90654047Y-93785238D01*
X90558809Y-93880476D01*
X90463571Y-93928095D01*
X93797619Y-94642380D02*
X93797619Y-93642380D01*
X94226190Y-93737619D02*
X94273809Y-93690000D01*
X94369047Y-93642380D01*
X94607142Y-93642380D01*
X94702380Y-93690000D01*
X94750000Y-93737619D01*
X94797619Y-93832857D01*
X94797619Y-93928095D01*
X94750000Y-94070952D01*
X94178571Y-94642380D01*
X94797619Y-94642380D01*
X95797619Y-94547142D02*
X95750000Y-94594761D01*
X95607142Y-94642380D01*
X95511904Y-94642380D01*
X95369047Y-94594761D01*
X95273809Y-94499523D01*
X95226190Y-94404285D01*
X95178571Y-94213809D01*
X95178571Y-94070952D01*
X95226190Y-93880476D01*
X95273809Y-93785238D01*
X95369047Y-93690000D01*
X95511904Y-93642380D01*
X95607142Y-93642380D01*
X95750000Y-93690000D01*
X95797619Y-93737619D01*
X96178571Y-93737619D02*
X96226190Y-93690000D01*
X96321428Y-93642380D01*
X96559523Y-93642380D01*
X96654761Y-93690000D01*
X96702380Y-93737619D01*
X96750000Y-93832857D01*
X96750000Y-93928095D01*
X96702380Y-94070952D01*
X96130952Y-94642380D01*
X96750000Y-94642380D01*
X88082619Y-74322380D02*
X88082619Y-73322380D01*
X88511190Y-73417619D02*
X88558809Y-73370000D01*
X88654047Y-73322380D01*
X88892142Y-73322380D01*
X88987380Y-73370000D01*
X89035000Y-73417619D01*
X89082619Y-73512857D01*
X89082619Y-73608095D01*
X89035000Y-73750952D01*
X88463571Y-74322380D01*
X89082619Y-74322380D01*
X90082619Y-74227142D02*
X90035000Y-74274761D01*
X89892142Y-74322380D01*
X89796904Y-74322380D01*
X89654047Y-74274761D01*
X89558809Y-74179523D01*
X89511190Y-74084285D01*
X89463571Y-73893809D01*
X89463571Y-73750952D01*
X89511190Y-73560476D01*
X89558809Y-73465238D01*
X89654047Y-73370000D01*
X89796904Y-73322380D01*
X89892142Y-73322380D01*
X90035000Y-73370000D01*
X90082619Y-73417619D01*
X90987380Y-73322380D02*
X90511190Y-73322380D01*
X90463571Y-73798571D01*
X90511190Y-73750952D01*
X90606428Y-73703333D01*
X90844523Y-73703333D01*
X90939761Y-73750952D01*
X90987380Y-73798571D01*
X91035000Y-73893809D01*
X91035000Y-74131904D01*
X90987380Y-74227142D01*
X90939761Y-74274761D01*
X90844523Y-74322380D01*
X90606428Y-74322380D01*
X90511190Y-74274761D01*
X90463571Y-74227142D01*
X93797619Y-74322380D02*
X93797619Y-73322380D01*
X94226190Y-73417619D02*
X94273809Y-73370000D01*
X94369047Y-73322380D01*
X94607142Y-73322380D01*
X94702380Y-73370000D01*
X94750000Y-73417619D01*
X94797619Y-73512857D01*
X94797619Y-73608095D01*
X94750000Y-73750952D01*
X94178571Y-74322380D01*
X94797619Y-74322380D01*
X95797619Y-74227142D02*
X95750000Y-74274761D01*
X95607142Y-74322380D01*
X95511904Y-74322380D01*
X95369047Y-74274761D01*
X95273809Y-74179523D01*
X95226190Y-74084285D01*
X95178571Y-73893809D01*
X95178571Y-73750952D01*
X95226190Y-73560476D01*
X95273809Y-73465238D01*
X95369047Y-73370000D01*
X95511904Y-73322380D01*
X95607142Y-73322380D01*
X95750000Y-73370000D01*
X95797619Y-73417619D01*
X96654761Y-73322380D02*
X96464285Y-73322380D01*
X96369047Y-73370000D01*
X96321428Y-73417619D01*
X96226190Y-73560476D01*
X96178571Y-73750952D01*
X96178571Y-74131904D01*
X96226190Y-74227142D01*
X96273809Y-74274761D01*
X96369047Y-74322380D01*
X96559523Y-74322380D01*
X96654761Y-74274761D01*
X96702380Y-74227142D01*
X96750000Y-74131904D01*
X96750000Y-73893809D01*
X96702380Y-73798571D01*
X96654761Y-73750952D01*
X96559523Y-73703333D01*
X96369047Y-73703333D01*
X96273809Y-73750952D01*
X96226190Y-73798571D01*
X96178571Y-73893809D01*
X75875238Y-72652380D02*
X75875238Y-71652380D01*
X76303809Y-71747619D02*
X76351428Y-71700000D01*
X76446666Y-71652380D01*
X76684761Y-71652380D01*
X76780000Y-71700000D01*
X76827619Y-71747619D01*
X76875238Y-71842857D01*
X76875238Y-71938095D01*
X76827619Y-72080952D01*
X76256190Y-72652380D01*
X76875238Y-72652380D01*
X77875238Y-72557142D02*
X77827619Y-72604761D01*
X77684761Y-72652380D01*
X77589523Y-72652380D01*
X77446666Y-72604761D01*
X77351428Y-72509523D01*
X77303809Y-72414285D01*
X77256190Y-72223809D01*
X77256190Y-72080952D01*
X77303809Y-71890476D01*
X77351428Y-71795238D01*
X77446666Y-71700000D01*
X77589523Y-71652380D01*
X77684761Y-71652380D01*
X77827619Y-71700000D01*
X77875238Y-71747619D01*
X78065714Y-72747619D02*
X78827619Y-72747619D01*
X79589523Y-71700000D02*
X79494285Y-71652380D01*
X79351428Y-71652380D01*
X79208571Y-71700000D01*
X79113333Y-71795238D01*
X79065714Y-71890476D01*
X79018095Y-72080952D01*
X79018095Y-72223809D01*
X79065714Y-72414285D01*
X79113333Y-72509523D01*
X79208571Y-72604761D01*
X79351428Y-72652380D01*
X79446666Y-72652380D01*
X79589523Y-72604761D01*
X79637142Y-72557142D01*
X79637142Y-72223809D01*
X79446666Y-72223809D01*
X80065714Y-72652380D02*
X80065714Y-71985714D01*
X80065714Y-72176190D02*
X80113333Y-72080952D01*
X80160952Y-72033333D01*
X80256190Y-71985714D01*
X80351428Y-71985714D01*
X80827619Y-72652380D02*
X80732380Y-72604761D01*
X80684761Y-72557142D01*
X80637142Y-72461904D01*
X80637142Y-72176190D01*
X80684761Y-72080952D01*
X80732380Y-72033333D01*
X80827619Y-71985714D01*
X80970476Y-71985714D01*
X81065714Y-72033333D01*
X81113333Y-72080952D01*
X81160952Y-72176190D01*
X81160952Y-72461904D01*
X81113333Y-72557142D01*
X81065714Y-72604761D01*
X80970476Y-72652380D01*
X80827619Y-72652380D01*
X81494285Y-71985714D02*
X81732380Y-72652380D01*
X81970476Y-71985714D01*
X82732380Y-72604761D02*
X82637142Y-72652380D01*
X82446666Y-72652380D01*
X82351428Y-72604761D01*
X82303809Y-72509523D01*
X82303809Y-72128571D01*
X82351428Y-72033333D01*
X82446666Y-71985714D01*
X82637142Y-71985714D01*
X82732380Y-72033333D01*
X82780000Y-72128571D01*
X82780000Y-72223809D01*
X82303809Y-72319047D01*
X83732380Y-72652380D02*
X83160952Y-72652380D01*
X83446666Y-72652380D02*
X83446666Y-71652380D01*
X83351428Y-71795238D01*
X83256190Y-71890476D01*
X83160952Y-71938095D01*
D12*
X79933571Y-76953571D02*
X79076428Y-76953571D01*
X79505000Y-76953571D02*
X79505000Y-75453571D01*
X79362142Y-75667857D01*
X79219285Y-75810714D01*
X79076428Y-75882142D01*
D10*
X38401666Y-65067380D02*
X38401666Y-65781666D01*
X38354047Y-65924523D01*
X38258809Y-66019761D01*
X38115952Y-66067380D01*
X38020714Y-66067380D01*
X38830238Y-65162619D02*
X38877857Y-65115000D01*
X38973095Y-65067380D01*
X39211190Y-65067380D01*
X39306428Y-65115000D01*
X39354047Y-65162619D01*
X39401666Y-65257857D01*
X39401666Y-65353095D01*
X39354047Y-65495952D01*
X38782619Y-66067380D01*
X39401666Y-66067380D01*
X97456666Y-113962380D02*
X97456666Y-114676666D01*
X97409047Y-114819523D01*
X97313809Y-114914761D01*
X97170952Y-114962380D01*
X97075714Y-114962380D01*
X97837619Y-113962380D02*
X98456666Y-113962380D01*
X98123333Y-114343333D01*
X98266190Y-114343333D01*
X98361428Y-114390952D01*
X98409047Y-114438571D01*
X98456666Y-114533809D01*
X98456666Y-114771904D01*
X98409047Y-114867142D01*
X98361428Y-114914761D01*
X98266190Y-114962380D01*
X97980476Y-114962380D01*
X97885238Y-114914761D01*
X97837619Y-114867142D01*
X81327380Y-42076666D02*
X80851190Y-42410000D01*
X81327380Y-42648095D02*
X80327380Y-42648095D01*
X80327380Y-42267142D01*
X80375000Y-42171904D01*
X80422619Y-42124285D01*
X80517857Y-42076666D01*
X80660714Y-42076666D01*
X80755952Y-42124285D01*
X80803571Y-42171904D01*
X80851190Y-42267142D01*
X80851190Y-42648095D01*
X80660714Y-41219523D02*
X81327380Y-41219523D01*
X80279761Y-41457619D02*
X80994047Y-41695714D01*
X80994047Y-41076666D01*
X81327380Y-52236666D02*
X80851190Y-52570000D01*
X81327380Y-52808095D02*
X80327380Y-52808095D01*
X80327380Y-52427142D01*
X80375000Y-52331904D01*
X80422619Y-52284285D01*
X80517857Y-52236666D01*
X80660714Y-52236666D01*
X80755952Y-52284285D01*
X80803571Y-52331904D01*
X80851190Y-52427142D01*
X80851190Y-52808095D01*
X80327380Y-51331904D02*
X80327380Y-51808095D01*
X80803571Y-51855714D01*
X80755952Y-51808095D01*
X80708333Y-51712857D01*
X80708333Y-51474761D01*
X80755952Y-51379523D01*
X80803571Y-51331904D01*
X80898809Y-51284285D01*
X81136904Y-51284285D01*
X81232142Y-51331904D01*
X81279761Y-51379523D01*
X81327380Y-51474761D01*
X81327380Y-51712857D01*
X81279761Y-51808095D01*
X81232142Y-51855714D01*
X81327380Y-62396666D02*
X80851190Y-62730000D01*
X81327380Y-62968095D02*
X80327380Y-62968095D01*
X80327380Y-62587142D01*
X80375000Y-62491904D01*
X80422619Y-62444285D01*
X80517857Y-62396666D01*
X80660714Y-62396666D01*
X80755952Y-62444285D01*
X80803571Y-62491904D01*
X80851190Y-62587142D01*
X80851190Y-62968095D01*
X80327380Y-61539523D02*
X80327380Y-61730000D01*
X80375000Y-61825238D01*
X80422619Y-61872857D01*
X80565476Y-61968095D01*
X80755952Y-62015714D01*
X81136904Y-62015714D01*
X81232142Y-61968095D01*
X81279761Y-61920476D01*
X81327380Y-61825238D01*
X81327380Y-61634761D01*
X81279761Y-61539523D01*
X81232142Y-61491904D01*
X81136904Y-61444285D01*
X80898809Y-61444285D01*
X80803571Y-61491904D01*
X80755952Y-61539523D01*
X80708333Y-61634761D01*
X80708333Y-61825238D01*
X80755952Y-61920476D01*
X80803571Y-61968095D01*
X80898809Y-62015714D01*
X54022380Y-36837857D02*
X53546190Y-37171190D01*
X54022380Y-37409285D02*
X53022380Y-37409285D01*
X53022380Y-37028333D01*
X53070000Y-36933095D01*
X53117619Y-36885476D01*
X53212857Y-36837857D01*
X53355714Y-36837857D01*
X53450952Y-36885476D01*
X53498571Y-36933095D01*
X53546190Y-37028333D01*
X53546190Y-37409285D01*
X54022380Y-35885476D02*
X54022380Y-36456904D01*
X54022380Y-36171190D02*
X53022380Y-36171190D01*
X53165238Y-36266428D01*
X53260476Y-36361666D01*
X53308095Y-36456904D01*
X53117619Y-35504523D02*
X53070000Y-35456904D01*
X53022380Y-35361666D01*
X53022380Y-35123571D01*
X53070000Y-35028333D01*
X53117619Y-34980714D01*
X53212857Y-34933095D01*
X53308095Y-34933095D01*
X53450952Y-34980714D01*
X54022380Y-35552142D01*
X54022380Y-34933095D01*
X54022380Y-45092857D02*
X53546190Y-45426190D01*
X54022380Y-45664285D02*
X53022380Y-45664285D01*
X53022380Y-45283333D01*
X53070000Y-45188095D01*
X53117619Y-45140476D01*
X53212857Y-45092857D01*
X53355714Y-45092857D01*
X53450952Y-45140476D01*
X53498571Y-45188095D01*
X53546190Y-45283333D01*
X53546190Y-45664285D01*
X54022380Y-44140476D02*
X54022380Y-44711904D01*
X54022380Y-44426190D02*
X53022380Y-44426190D01*
X53165238Y-44521428D01*
X53260476Y-44616666D01*
X53308095Y-44711904D01*
X53022380Y-43807142D02*
X53022380Y-43188095D01*
X53403333Y-43521428D01*
X53403333Y-43378571D01*
X53450952Y-43283333D01*
X53498571Y-43235714D01*
X53593809Y-43188095D01*
X53831904Y-43188095D01*
X53927142Y-43235714D01*
X53974761Y-43283333D01*
X54022380Y-43378571D01*
X54022380Y-43664285D01*
X53974761Y-43759523D01*
X53927142Y-43807142D01*
X54022380Y-53347857D02*
X53546190Y-53681190D01*
X54022380Y-53919285D02*
X53022380Y-53919285D01*
X53022380Y-53538333D01*
X53070000Y-53443095D01*
X53117619Y-53395476D01*
X53212857Y-53347857D01*
X53355714Y-53347857D01*
X53450952Y-53395476D01*
X53498571Y-53443095D01*
X53546190Y-53538333D01*
X53546190Y-53919285D01*
X54022380Y-52395476D02*
X54022380Y-52966904D01*
X54022380Y-52681190D02*
X53022380Y-52681190D01*
X53165238Y-52776428D01*
X53260476Y-52871666D01*
X53308095Y-52966904D01*
X53022380Y-51538333D02*
X53022380Y-51728809D01*
X53070000Y-51824047D01*
X53117619Y-51871666D01*
X53260476Y-51966904D01*
X53450952Y-52014523D01*
X53831904Y-52014523D01*
X53927142Y-51966904D01*
X53974761Y-51919285D01*
X54022380Y-51824047D01*
X54022380Y-51633571D01*
X53974761Y-51538333D01*
X53927142Y-51490714D01*
X53831904Y-51443095D01*
X53593809Y-51443095D01*
X53498571Y-51490714D01*
X53450952Y-51538333D01*
X53403333Y-51633571D01*
X53403333Y-51824047D01*
X53450952Y-51919285D01*
X53498571Y-51966904D01*
X53593809Y-52014523D01*
X54022380Y-61602857D02*
X53546190Y-61936190D01*
X54022380Y-62174285D02*
X53022380Y-62174285D01*
X53022380Y-61793333D01*
X53070000Y-61698095D01*
X53117619Y-61650476D01*
X53212857Y-61602857D01*
X53355714Y-61602857D01*
X53450952Y-61650476D01*
X53498571Y-61698095D01*
X53546190Y-61793333D01*
X53546190Y-62174285D01*
X54022380Y-60650476D02*
X54022380Y-61221904D01*
X54022380Y-60936190D02*
X53022380Y-60936190D01*
X53165238Y-61031428D01*
X53260476Y-61126666D01*
X53308095Y-61221904D01*
X53022380Y-60317142D02*
X53022380Y-59650476D01*
X54022380Y-60079047D01*
X54022380Y-69857857D02*
X53546190Y-70191190D01*
X54022380Y-70429285D02*
X53022380Y-70429285D01*
X53022380Y-70048333D01*
X53070000Y-69953095D01*
X53117619Y-69905476D01*
X53212857Y-69857857D01*
X53355714Y-69857857D01*
X53450952Y-69905476D01*
X53498571Y-69953095D01*
X53546190Y-70048333D01*
X53546190Y-70429285D01*
X54022380Y-68905476D02*
X54022380Y-69476904D01*
X54022380Y-69191190D02*
X53022380Y-69191190D01*
X53165238Y-69286428D01*
X53260476Y-69381666D01*
X53308095Y-69476904D01*
X53450952Y-68334047D02*
X53403333Y-68429285D01*
X53355714Y-68476904D01*
X53260476Y-68524523D01*
X53212857Y-68524523D01*
X53117619Y-68476904D01*
X53070000Y-68429285D01*
X53022380Y-68334047D01*
X53022380Y-68143571D01*
X53070000Y-68048333D01*
X53117619Y-68000714D01*
X53212857Y-67953095D01*
X53260476Y-67953095D01*
X53355714Y-68000714D01*
X53403333Y-68048333D01*
X53450952Y-68143571D01*
X53450952Y-68334047D01*
X53498571Y-68429285D01*
X53546190Y-68476904D01*
X53641428Y-68524523D01*
X53831904Y-68524523D01*
X53927142Y-68476904D01*
X53974761Y-68429285D01*
X54022380Y-68334047D01*
X54022380Y-68143571D01*
X53974761Y-68048333D01*
X53927142Y-68000714D01*
X53831904Y-67953095D01*
X53641428Y-67953095D01*
X53546190Y-68000714D01*
X53498571Y-68048333D01*
X53450952Y-68143571D01*
X54022380Y-78112857D02*
X53546190Y-78446190D01*
X54022380Y-78684285D02*
X53022380Y-78684285D01*
X53022380Y-78303333D01*
X53070000Y-78208095D01*
X53117619Y-78160476D01*
X53212857Y-78112857D01*
X53355714Y-78112857D01*
X53450952Y-78160476D01*
X53498571Y-78208095D01*
X53546190Y-78303333D01*
X53546190Y-78684285D01*
X54022380Y-77160476D02*
X54022380Y-77731904D01*
X54022380Y-77446190D02*
X53022380Y-77446190D01*
X53165238Y-77541428D01*
X53260476Y-77636666D01*
X53308095Y-77731904D01*
X54022380Y-76684285D02*
X54022380Y-76493809D01*
X53974761Y-76398571D01*
X53927142Y-76350952D01*
X53784285Y-76255714D01*
X53593809Y-76208095D01*
X53212857Y-76208095D01*
X53117619Y-76255714D01*
X53070000Y-76303333D01*
X53022380Y-76398571D01*
X53022380Y-76589047D01*
X53070000Y-76684285D01*
X53117619Y-76731904D01*
X53212857Y-76779523D01*
X53450952Y-76779523D01*
X53546190Y-76731904D01*
X53593809Y-76684285D01*
X53641428Y-76589047D01*
X53641428Y-76398571D01*
X53593809Y-76303333D01*
X53546190Y-76255714D01*
X53450952Y-76208095D01*
X54022380Y-86367857D02*
X53546190Y-86701190D01*
X54022380Y-86939285D02*
X53022380Y-86939285D01*
X53022380Y-86558333D01*
X53070000Y-86463095D01*
X53117619Y-86415476D01*
X53212857Y-86367857D01*
X53355714Y-86367857D01*
X53450952Y-86415476D01*
X53498571Y-86463095D01*
X53546190Y-86558333D01*
X53546190Y-86939285D01*
X53117619Y-85986904D02*
X53070000Y-85939285D01*
X53022380Y-85844047D01*
X53022380Y-85605952D01*
X53070000Y-85510714D01*
X53117619Y-85463095D01*
X53212857Y-85415476D01*
X53308095Y-85415476D01*
X53450952Y-85463095D01*
X54022380Y-86034523D01*
X54022380Y-85415476D01*
X53022380Y-84796428D02*
X53022380Y-84701190D01*
X53070000Y-84605952D01*
X53117619Y-84558333D01*
X53212857Y-84510714D01*
X53403333Y-84463095D01*
X53641428Y-84463095D01*
X53831904Y-84510714D01*
X53927142Y-84558333D01*
X53974761Y-84605952D01*
X54022380Y-84701190D01*
X54022380Y-84796428D01*
X53974761Y-84891666D01*
X53927142Y-84939285D01*
X53831904Y-84986904D01*
X53641428Y-85034523D01*
X53403333Y-85034523D01*
X53212857Y-84986904D01*
X53117619Y-84939285D01*
X53070000Y-84891666D01*
X53022380Y-84796428D01*
X54022380Y-94622857D02*
X53546190Y-94956190D01*
X54022380Y-95194285D02*
X53022380Y-95194285D01*
X53022380Y-94813333D01*
X53070000Y-94718095D01*
X53117619Y-94670476D01*
X53212857Y-94622857D01*
X53355714Y-94622857D01*
X53450952Y-94670476D01*
X53498571Y-94718095D01*
X53546190Y-94813333D01*
X53546190Y-95194285D01*
X53117619Y-94241904D02*
X53070000Y-94194285D01*
X53022380Y-94099047D01*
X53022380Y-93860952D01*
X53070000Y-93765714D01*
X53117619Y-93718095D01*
X53212857Y-93670476D01*
X53308095Y-93670476D01*
X53450952Y-93718095D01*
X54022380Y-94289523D01*
X54022380Y-93670476D01*
X54022380Y-92718095D02*
X54022380Y-93289523D01*
X54022380Y-93003809D02*
X53022380Y-93003809D01*
X53165238Y-93099047D01*
X53260476Y-93194285D01*
X53308095Y-93289523D01*
X54022380Y-102877857D02*
X53546190Y-103211190D01*
X54022380Y-103449285D02*
X53022380Y-103449285D01*
X53022380Y-103068333D01*
X53070000Y-102973095D01*
X53117619Y-102925476D01*
X53212857Y-102877857D01*
X53355714Y-102877857D01*
X53450952Y-102925476D01*
X53498571Y-102973095D01*
X53546190Y-103068333D01*
X53546190Y-103449285D01*
X53117619Y-102496904D02*
X53070000Y-102449285D01*
X53022380Y-102354047D01*
X53022380Y-102115952D01*
X53070000Y-102020714D01*
X53117619Y-101973095D01*
X53212857Y-101925476D01*
X53308095Y-101925476D01*
X53450952Y-101973095D01*
X54022380Y-102544523D01*
X54022380Y-101925476D01*
X53117619Y-101544523D02*
X53070000Y-101496904D01*
X53022380Y-101401666D01*
X53022380Y-101163571D01*
X53070000Y-101068333D01*
X53117619Y-101020714D01*
X53212857Y-100973095D01*
X53308095Y-100973095D01*
X53450952Y-101020714D01*
X54022380Y-101592142D01*
X54022380Y-100973095D01*
X54022380Y-111132857D02*
X53546190Y-111466190D01*
X54022380Y-111704285D02*
X53022380Y-111704285D01*
X53022380Y-111323333D01*
X53070000Y-111228095D01*
X53117619Y-111180476D01*
X53212857Y-111132857D01*
X53355714Y-111132857D01*
X53450952Y-111180476D01*
X53498571Y-111228095D01*
X53546190Y-111323333D01*
X53546190Y-111704285D01*
X53117619Y-110751904D02*
X53070000Y-110704285D01*
X53022380Y-110609047D01*
X53022380Y-110370952D01*
X53070000Y-110275714D01*
X53117619Y-110228095D01*
X53212857Y-110180476D01*
X53308095Y-110180476D01*
X53450952Y-110228095D01*
X54022380Y-110799523D01*
X54022380Y-110180476D01*
X53022380Y-109847142D02*
X53022380Y-109228095D01*
X53403333Y-109561428D01*
X53403333Y-109418571D01*
X53450952Y-109323333D01*
X53498571Y-109275714D01*
X53593809Y-109228095D01*
X53831904Y-109228095D01*
X53927142Y-109275714D01*
X53974761Y-109323333D01*
X54022380Y-109418571D01*
X54022380Y-109704285D01*
X53974761Y-109799523D01*
X53927142Y-109847142D01*
X54022380Y-119387857D02*
X53546190Y-119721190D01*
X54022380Y-119959285D02*
X53022380Y-119959285D01*
X53022380Y-119578333D01*
X53070000Y-119483095D01*
X53117619Y-119435476D01*
X53212857Y-119387857D01*
X53355714Y-119387857D01*
X53450952Y-119435476D01*
X53498571Y-119483095D01*
X53546190Y-119578333D01*
X53546190Y-119959285D01*
X53117619Y-119006904D02*
X53070000Y-118959285D01*
X53022380Y-118864047D01*
X53022380Y-118625952D01*
X53070000Y-118530714D01*
X53117619Y-118483095D01*
X53212857Y-118435476D01*
X53308095Y-118435476D01*
X53450952Y-118483095D01*
X54022380Y-119054523D01*
X54022380Y-118435476D01*
X53355714Y-117578333D02*
X54022380Y-117578333D01*
X52974761Y-117816428D02*
X53689047Y-118054523D01*
X53689047Y-117435476D01*
X54022380Y-127642857D02*
X53546190Y-127976190D01*
X54022380Y-128214285D02*
X53022380Y-128214285D01*
X53022380Y-127833333D01*
X53070000Y-127738095D01*
X53117619Y-127690476D01*
X53212857Y-127642857D01*
X53355714Y-127642857D01*
X53450952Y-127690476D01*
X53498571Y-127738095D01*
X53546190Y-127833333D01*
X53546190Y-128214285D01*
X53117619Y-127261904D02*
X53070000Y-127214285D01*
X53022380Y-127119047D01*
X53022380Y-126880952D01*
X53070000Y-126785714D01*
X53117619Y-126738095D01*
X53212857Y-126690476D01*
X53308095Y-126690476D01*
X53450952Y-126738095D01*
X54022380Y-127309523D01*
X54022380Y-126690476D01*
X53022380Y-125785714D02*
X53022380Y-126261904D01*
X53498571Y-126309523D01*
X53450952Y-126261904D01*
X53403333Y-126166666D01*
X53403333Y-125928571D01*
X53450952Y-125833333D01*
X53498571Y-125785714D01*
X53593809Y-125738095D01*
X53831904Y-125738095D01*
X53927142Y-125785714D01*
X53974761Y-125833333D01*
X54022380Y-125928571D01*
X54022380Y-126166666D01*
X53974761Y-126261904D01*
X53927142Y-126309523D01*
X54022380Y-135897857D02*
X53546190Y-136231190D01*
X54022380Y-136469285D02*
X53022380Y-136469285D01*
X53022380Y-136088333D01*
X53070000Y-135993095D01*
X53117619Y-135945476D01*
X53212857Y-135897857D01*
X53355714Y-135897857D01*
X53450952Y-135945476D01*
X53498571Y-135993095D01*
X53546190Y-136088333D01*
X53546190Y-136469285D01*
X53117619Y-135516904D02*
X53070000Y-135469285D01*
X53022380Y-135374047D01*
X53022380Y-135135952D01*
X53070000Y-135040714D01*
X53117619Y-134993095D01*
X53212857Y-134945476D01*
X53308095Y-134945476D01*
X53450952Y-134993095D01*
X54022380Y-135564523D01*
X54022380Y-134945476D01*
X53022380Y-134088333D02*
X53022380Y-134278809D01*
X53070000Y-134374047D01*
X53117619Y-134421666D01*
X53260476Y-134516904D01*
X53450952Y-134564523D01*
X53831904Y-134564523D01*
X53927142Y-134516904D01*
X53974761Y-134469285D01*
X54022380Y-134374047D01*
X54022380Y-134183571D01*
X53974761Y-134088333D01*
X53927142Y-134040714D01*
X53831904Y-133993095D01*
X53593809Y-133993095D01*
X53498571Y-134040714D01*
X53450952Y-134088333D01*
X53403333Y-134183571D01*
X53403333Y-134374047D01*
X53450952Y-134469285D01*
X53498571Y-134516904D01*
X53593809Y-134564523D01*
X54022380Y-144152857D02*
X53546190Y-144486190D01*
X54022380Y-144724285D02*
X53022380Y-144724285D01*
X53022380Y-144343333D01*
X53070000Y-144248095D01*
X53117619Y-144200476D01*
X53212857Y-144152857D01*
X53355714Y-144152857D01*
X53450952Y-144200476D01*
X53498571Y-144248095D01*
X53546190Y-144343333D01*
X53546190Y-144724285D01*
X53117619Y-143771904D02*
X53070000Y-143724285D01*
X53022380Y-143629047D01*
X53022380Y-143390952D01*
X53070000Y-143295714D01*
X53117619Y-143248095D01*
X53212857Y-143200476D01*
X53308095Y-143200476D01*
X53450952Y-143248095D01*
X54022380Y-143819523D01*
X54022380Y-143200476D01*
X53022380Y-142867142D02*
X53022380Y-142200476D01*
X54022380Y-142629047D01*
X88836666Y-38964761D02*
X88979523Y-39012380D01*
X89217619Y-39012380D01*
X89312857Y-38964761D01*
X89360476Y-38917142D01*
X89408095Y-38821904D01*
X89408095Y-38726666D01*
X89360476Y-38631428D01*
X89312857Y-38583809D01*
X89217619Y-38536190D01*
X89027142Y-38488571D01*
X88931904Y-38440952D01*
X88884285Y-38393333D01*
X88836666Y-38298095D01*
X88836666Y-38202857D01*
X88884285Y-38107619D01*
X88931904Y-38060000D01*
X89027142Y-38012380D01*
X89265238Y-38012380D01*
X89408095Y-38060000D01*
X89741428Y-38012380D02*
X89979523Y-39012380D01*
X90170000Y-38298095D01*
X90360476Y-39012380D01*
X90598571Y-38012380D01*
X91408095Y-38345714D02*
X91408095Y-39012380D01*
X91170000Y-37964761D02*
X90931904Y-38679047D01*
X91550952Y-38679047D01*
X88836666Y-49124761D02*
X88979523Y-49172380D01*
X89217619Y-49172380D01*
X89312857Y-49124761D01*
X89360476Y-49077142D01*
X89408095Y-48981904D01*
X89408095Y-48886666D01*
X89360476Y-48791428D01*
X89312857Y-48743809D01*
X89217619Y-48696190D01*
X89027142Y-48648571D01*
X88931904Y-48600952D01*
X88884285Y-48553333D01*
X88836666Y-48458095D01*
X88836666Y-48362857D01*
X88884285Y-48267619D01*
X88931904Y-48220000D01*
X89027142Y-48172380D01*
X89265238Y-48172380D01*
X89408095Y-48220000D01*
X89741428Y-48172380D02*
X89979523Y-49172380D01*
X90170000Y-48458095D01*
X90360476Y-49172380D01*
X90598571Y-48172380D01*
X91455714Y-48172380D02*
X90979523Y-48172380D01*
X90931904Y-48648571D01*
X90979523Y-48600952D01*
X91074761Y-48553333D01*
X91312857Y-48553333D01*
X91408095Y-48600952D01*
X91455714Y-48648571D01*
X91503333Y-48743809D01*
X91503333Y-48981904D01*
X91455714Y-49077142D01*
X91408095Y-49124761D01*
X91312857Y-49172380D01*
X91074761Y-49172380D01*
X90979523Y-49124761D01*
X90931904Y-49077142D01*
X88836666Y-59284761D02*
X88979523Y-59332380D01*
X89217619Y-59332380D01*
X89312857Y-59284761D01*
X89360476Y-59237142D01*
X89408095Y-59141904D01*
X89408095Y-59046666D01*
X89360476Y-58951428D01*
X89312857Y-58903809D01*
X89217619Y-58856190D01*
X89027142Y-58808571D01*
X88931904Y-58760952D01*
X88884285Y-58713333D01*
X88836666Y-58618095D01*
X88836666Y-58522857D01*
X88884285Y-58427619D01*
X88931904Y-58380000D01*
X89027142Y-58332380D01*
X89265238Y-58332380D01*
X89408095Y-58380000D01*
X89741428Y-58332380D02*
X89979523Y-59332380D01*
X90170000Y-58618095D01*
X90360476Y-59332380D01*
X90598571Y-58332380D01*
X91408095Y-58332380D02*
X91217619Y-58332380D01*
X91122380Y-58380000D01*
X91074761Y-58427619D01*
X90979523Y-58570476D01*
X90931904Y-58760952D01*
X90931904Y-59141904D01*
X90979523Y-59237142D01*
X91027142Y-59284761D01*
X91122380Y-59332380D01*
X91312857Y-59332380D01*
X91408095Y-59284761D01*
X91455714Y-59237142D01*
X91503333Y-59141904D01*
X91503333Y-58903809D01*
X91455714Y-58808571D01*
X91408095Y-58760952D01*
X91312857Y-58713333D01*
X91122380Y-58713333D01*
X91027142Y-58760952D01*
X90979523Y-58808571D01*
X90931904Y-58903809D01*
X61055476Y-30709761D02*
X61198333Y-30757380D01*
X61436428Y-30757380D01*
X61531666Y-30709761D01*
X61579285Y-30662142D01*
X61626904Y-30566904D01*
X61626904Y-30471666D01*
X61579285Y-30376428D01*
X61531666Y-30328809D01*
X61436428Y-30281190D01*
X61245952Y-30233571D01*
X61150714Y-30185952D01*
X61103095Y-30138333D01*
X61055476Y-30043095D01*
X61055476Y-29947857D01*
X61103095Y-29852619D01*
X61150714Y-29805000D01*
X61245952Y-29757380D01*
X61484047Y-29757380D01*
X61626904Y-29805000D01*
X61960238Y-29757380D02*
X62198333Y-30757380D01*
X62388809Y-30043095D01*
X62579285Y-30757380D01*
X62817380Y-29757380D01*
X63722142Y-30757380D02*
X63150714Y-30757380D01*
X63436428Y-30757380D02*
X63436428Y-29757380D01*
X63341190Y-29900238D01*
X63245952Y-29995476D01*
X63150714Y-30043095D01*
X64103095Y-29852619D02*
X64150714Y-29805000D01*
X64245952Y-29757380D01*
X64484047Y-29757380D01*
X64579285Y-29805000D01*
X64626904Y-29852619D01*
X64674523Y-29947857D01*
X64674523Y-30043095D01*
X64626904Y-30185952D01*
X64055476Y-30757380D01*
X64674523Y-30757380D01*
X61055476Y-38964761D02*
X61198333Y-39012380D01*
X61436428Y-39012380D01*
X61531666Y-38964761D01*
X61579285Y-38917142D01*
X61626904Y-38821904D01*
X61626904Y-38726666D01*
X61579285Y-38631428D01*
X61531666Y-38583809D01*
X61436428Y-38536190D01*
X61245952Y-38488571D01*
X61150714Y-38440952D01*
X61103095Y-38393333D01*
X61055476Y-38298095D01*
X61055476Y-38202857D01*
X61103095Y-38107619D01*
X61150714Y-38060000D01*
X61245952Y-38012380D01*
X61484047Y-38012380D01*
X61626904Y-38060000D01*
X61960238Y-38012380D02*
X62198333Y-39012380D01*
X62388809Y-38298095D01*
X62579285Y-39012380D01*
X62817380Y-38012380D01*
X63722142Y-39012380D02*
X63150714Y-39012380D01*
X63436428Y-39012380D02*
X63436428Y-38012380D01*
X63341190Y-38155238D01*
X63245952Y-38250476D01*
X63150714Y-38298095D01*
X64055476Y-38012380D02*
X64674523Y-38012380D01*
X64341190Y-38393333D01*
X64484047Y-38393333D01*
X64579285Y-38440952D01*
X64626904Y-38488571D01*
X64674523Y-38583809D01*
X64674523Y-38821904D01*
X64626904Y-38917142D01*
X64579285Y-38964761D01*
X64484047Y-39012380D01*
X64198333Y-39012380D01*
X64103095Y-38964761D01*
X64055476Y-38917142D01*
X61055476Y-47219761D02*
X61198333Y-47267380D01*
X61436428Y-47267380D01*
X61531666Y-47219761D01*
X61579285Y-47172142D01*
X61626904Y-47076904D01*
X61626904Y-46981666D01*
X61579285Y-46886428D01*
X61531666Y-46838809D01*
X61436428Y-46791190D01*
X61245952Y-46743571D01*
X61150714Y-46695952D01*
X61103095Y-46648333D01*
X61055476Y-46553095D01*
X61055476Y-46457857D01*
X61103095Y-46362619D01*
X61150714Y-46315000D01*
X61245952Y-46267380D01*
X61484047Y-46267380D01*
X61626904Y-46315000D01*
X61960238Y-46267380D02*
X62198333Y-47267380D01*
X62388809Y-46553095D01*
X62579285Y-47267380D01*
X62817380Y-46267380D01*
X63722142Y-47267380D02*
X63150714Y-47267380D01*
X63436428Y-47267380D02*
X63436428Y-46267380D01*
X63341190Y-46410238D01*
X63245952Y-46505476D01*
X63150714Y-46553095D01*
X64579285Y-46267380D02*
X64388809Y-46267380D01*
X64293571Y-46315000D01*
X64245952Y-46362619D01*
X64150714Y-46505476D01*
X64103095Y-46695952D01*
X64103095Y-47076904D01*
X64150714Y-47172142D01*
X64198333Y-47219761D01*
X64293571Y-47267380D01*
X64484047Y-47267380D01*
X64579285Y-47219761D01*
X64626904Y-47172142D01*
X64674523Y-47076904D01*
X64674523Y-46838809D01*
X64626904Y-46743571D01*
X64579285Y-46695952D01*
X64484047Y-46648333D01*
X64293571Y-46648333D01*
X64198333Y-46695952D01*
X64150714Y-46743571D01*
X64103095Y-46838809D01*
X61055476Y-55474761D02*
X61198333Y-55522380D01*
X61436428Y-55522380D01*
X61531666Y-55474761D01*
X61579285Y-55427142D01*
X61626904Y-55331904D01*
X61626904Y-55236666D01*
X61579285Y-55141428D01*
X61531666Y-55093809D01*
X61436428Y-55046190D01*
X61245952Y-54998571D01*
X61150714Y-54950952D01*
X61103095Y-54903333D01*
X61055476Y-54808095D01*
X61055476Y-54712857D01*
X61103095Y-54617619D01*
X61150714Y-54570000D01*
X61245952Y-54522380D01*
X61484047Y-54522380D01*
X61626904Y-54570000D01*
X61960238Y-54522380D02*
X62198333Y-55522380D01*
X62388809Y-54808095D01*
X62579285Y-55522380D01*
X62817380Y-54522380D01*
X63722142Y-55522380D02*
X63150714Y-55522380D01*
X63436428Y-55522380D02*
X63436428Y-54522380D01*
X63341190Y-54665238D01*
X63245952Y-54760476D01*
X63150714Y-54808095D01*
X64055476Y-54522380D02*
X64722142Y-54522380D01*
X64293571Y-55522380D01*
X61055476Y-63729761D02*
X61198333Y-63777380D01*
X61436428Y-63777380D01*
X61531666Y-63729761D01*
X61579285Y-63682142D01*
X61626904Y-63586904D01*
X61626904Y-63491666D01*
X61579285Y-63396428D01*
X61531666Y-63348809D01*
X61436428Y-63301190D01*
X61245952Y-63253571D01*
X61150714Y-63205952D01*
X61103095Y-63158333D01*
X61055476Y-63063095D01*
X61055476Y-62967857D01*
X61103095Y-62872619D01*
X61150714Y-62825000D01*
X61245952Y-62777380D01*
X61484047Y-62777380D01*
X61626904Y-62825000D01*
X61960238Y-62777380D02*
X62198333Y-63777380D01*
X62388809Y-63063095D01*
X62579285Y-63777380D01*
X62817380Y-62777380D01*
X63722142Y-63777380D02*
X63150714Y-63777380D01*
X63436428Y-63777380D02*
X63436428Y-62777380D01*
X63341190Y-62920238D01*
X63245952Y-63015476D01*
X63150714Y-63063095D01*
X64293571Y-63205952D02*
X64198333Y-63158333D01*
X64150714Y-63110714D01*
X64103095Y-63015476D01*
X64103095Y-62967857D01*
X64150714Y-62872619D01*
X64198333Y-62825000D01*
X64293571Y-62777380D01*
X64484047Y-62777380D01*
X64579285Y-62825000D01*
X64626904Y-62872619D01*
X64674523Y-62967857D01*
X64674523Y-63015476D01*
X64626904Y-63110714D01*
X64579285Y-63158333D01*
X64484047Y-63205952D01*
X64293571Y-63205952D01*
X64198333Y-63253571D01*
X64150714Y-63301190D01*
X64103095Y-63396428D01*
X64103095Y-63586904D01*
X64150714Y-63682142D01*
X64198333Y-63729761D01*
X64293571Y-63777380D01*
X64484047Y-63777380D01*
X64579285Y-63729761D01*
X64626904Y-63682142D01*
X64674523Y-63586904D01*
X64674523Y-63396428D01*
X64626904Y-63301190D01*
X64579285Y-63253571D01*
X64484047Y-63205952D01*
X61055476Y-71984761D02*
X61198333Y-72032380D01*
X61436428Y-72032380D01*
X61531666Y-71984761D01*
X61579285Y-71937142D01*
X61626904Y-71841904D01*
X61626904Y-71746666D01*
X61579285Y-71651428D01*
X61531666Y-71603809D01*
X61436428Y-71556190D01*
X61245952Y-71508571D01*
X61150714Y-71460952D01*
X61103095Y-71413333D01*
X61055476Y-71318095D01*
X61055476Y-71222857D01*
X61103095Y-71127619D01*
X61150714Y-71080000D01*
X61245952Y-71032380D01*
X61484047Y-71032380D01*
X61626904Y-71080000D01*
X61960238Y-71032380D02*
X62198333Y-72032380D01*
X62388809Y-71318095D01*
X62579285Y-72032380D01*
X62817380Y-71032380D01*
X63722142Y-72032380D02*
X63150714Y-72032380D01*
X63436428Y-72032380D02*
X63436428Y-71032380D01*
X63341190Y-71175238D01*
X63245952Y-71270476D01*
X63150714Y-71318095D01*
X64198333Y-72032380D02*
X64388809Y-72032380D01*
X64484047Y-71984761D01*
X64531666Y-71937142D01*
X64626904Y-71794285D01*
X64674523Y-71603809D01*
X64674523Y-71222857D01*
X64626904Y-71127619D01*
X64579285Y-71080000D01*
X64484047Y-71032380D01*
X64293571Y-71032380D01*
X64198333Y-71080000D01*
X64150714Y-71127619D01*
X64103095Y-71222857D01*
X64103095Y-71460952D01*
X64150714Y-71556190D01*
X64198333Y-71603809D01*
X64293571Y-71651428D01*
X64484047Y-71651428D01*
X64579285Y-71603809D01*
X64626904Y-71556190D01*
X64674523Y-71460952D01*
X61055476Y-80239761D02*
X61198333Y-80287380D01*
X61436428Y-80287380D01*
X61531666Y-80239761D01*
X61579285Y-80192142D01*
X61626904Y-80096904D01*
X61626904Y-80001666D01*
X61579285Y-79906428D01*
X61531666Y-79858809D01*
X61436428Y-79811190D01*
X61245952Y-79763571D01*
X61150714Y-79715952D01*
X61103095Y-79668333D01*
X61055476Y-79573095D01*
X61055476Y-79477857D01*
X61103095Y-79382619D01*
X61150714Y-79335000D01*
X61245952Y-79287380D01*
X61484047Y-79287380D01*
X61626904Y-79335000D01*
X61960238Y-79287380D02*
X62198333Y-80287380D01*
X62388809Y-79573095D01*
X62579285Y-80287380D01*
X62817380Y-79287380D01*
X63150714Y-79382619D02*
X63198333Y-79335000D01*
X63293571Y-79287380D01*
X63531666Y-79287380D01*
X63626904Y-79335000D01*
X63674523Y-79382619D01*
X63722142Y-79477857D01*
X63722142Y-79573095D01*
X63674523Y-79715952D01*
X63103095Y-80287380D01*
X63722142Y-80287380D01*
X64341190Y-79287380D02*
X64436428Y-79287380D01*
X64531666Y-79335000D01*
X64579285Y-79382619D01*
X64626904Y-79477857D01*
X64674523Y-79668333D01*
X64674523Y-79906428D01*
X64626904Y-80096904D01*
X64579285Y-80192142D01*
X64531666Y-80239761D01*
X64436428Y-80287380D01*
X64341190Y-80287380D01*
X64245952Y-80239761D01*
X64198333Y-80192142D01*
X64150714Y-80096904D01*
X64103095Y-79906428D01*
X64103095Y-79668333D01*
X64150714Y-79477857D01*
X64198333Y-79382619D01*
X64245952Y-79335000D01*
X64341190Y-79287380D01*
X61055476Y-88494761D02*
X61198333Y-88542380D01*
X61436428Y-88542380D01*
X61531666Y-88494761D01*
X61579285Y-88447142D01*
X61626904Y-88351904D01*
X61626904Y-88256666D01*
X61579285Y-88161428D01*
X61531666Y-88113809D01*
X61436428Y-88066190D01*
X61245952Y-88018571D01*
X61150714Y-87970952D01*
X61103095Y-87923333D01*
X61055476Y-87828095D01*
X61055476Y-87732857D01*
X61103095Y-87637619D01*
X61150714Y-87590000D01*
X61245952Y-87542380D01*
X61484047Y-87542380D01*
X61626904Y-87590000D01*
X61960238Y-87542380D02*
X62198333Y-88542380D01*
X62388809Y-87828095D01*
X62579285Y-88542380D01*
X62817380Y-87542380D01*
X63150714Y-87637619D02*
X63198333Y-87590000D01*
X63293571Y-87542380D01*
X63531666Y-87542380D01*
X63626904Y-87590000D01*
X63674523Y-87637619D01*
X63722142Y-87732857D01*
X63722142Y-87828095D01*
X63674523Y-87970952D01*
X63103095Y-88542380D01*
X63722142Y-88542380D01*
X64674523Y-88542380D02*
X64103095Y-88542380D01*
X64388809Y-88542380D02*
X64388809Y-87542380D01*
X64293571Y-87685238D01*
X64198333Y-87780476D01*
X64103095Y-87828095D01*
X61055476Y-96749761D02*
X61198333Y-96797380D01*
X61436428Y-96797380D01*
X61531666Y-96749761D01*
X61579285Y-96702142D01*
X61626904Y-96606904D01*
X61626904Y-96511666D01*
X61579285Y-96416428D01*
X61531666Y-96368809D01*
X61436428Y-96321190D01*
X61245952Y-96273571D01*
X61150714Y-96225952D01*
X61103095Y-96178333D01*
X61055476Y-96083095D01*
X61055476Y-95987857D01*
X61103095Y-95892619D01*
X61150714Y-95845000D01*
X61245952Y-95797380D01*
X61484047Y-95797380D01*
X61626904Y-95845000D01*
X61960238Y-95797380D02*
X62198333Y-96797380D01*
X62388809Y-96083095D01*
X62579285Y-96797380D01*
X62817380Y-95797380D01*
X63150714Y-95892619D02*
X63198333Y-95845000D01*
X63293571Y-95797380D01*
X63531666Y-95797380D01*
X63626904Y-95845000D01*
X63674523Y-95892619D01*
X63722142Y-95987857D01*
X63722142Y-96083095D01*
X63674523Y-96225952D01*
X63103095Y-96797380D01*
X63722142Y-96797380D01*
X64103095Y-95892619D02*
X64150714Y-95845000D01*
X64245952Y-95797380D01*
X64484047Y-95797380D01*
X64579285Y-95845000D01*
X64626904Y-95892619D01*
X64674523Y-95987857D01*
X64674523Y-96083095D01*
X64626904Y-96225952D01*
X64055476Y-96797380D01*
X64674523Y-96797380D01*
X61055476Y-105004761D02*
X61198333Y-105052380D01*
X61436428Y-105052380D01*
X61531666Y-105004761D01*
X61579285Y-104957142D01*
X61626904Y-104861904D01*
X61626904Y-104766666D01*
X61579285Y-104671428D01*
X61531666Y-104623809D01*
X61436428Y-104576190D01*
X61245952Y-104528571D01*
X61150714Y-104480952D01*
X61103095Y-104433333D01*
X61055476Y-104338095D01*
X61055476Y-104242857D01*
X61103095Y-104147619D01*
X61150714Y-104100000D01*
X61245952Y-104052380D01*
X61484047Y-104052380D01*
X61626904Y-104100000D01*
X61960238Y-104052380D02*
X62198333Y-105052380D01*
X62388809Y-104338095D01*
X62579285Y-105052380D01*
X62817380Y-104052380D01*
X63150714Y-104147619D02*
X63198333Y-104100000D01*
X63293571Y-104052380D01*
X63531666Y-104052380D01*
X63626904Y-104100000D01*
X63674523Y-104147619D01*
X63722142Y-104242857D01*
X63722142Y-104338095D01*
X63674523Y-104480952D01*
X63103095Y-105052380D01*
X63722142Y-105052380D01*
X64055476Y-104052380D02*
X64674523Y-104052380D01*
X64341190Y-104433333D01*
X64484047Y-104433333D01*
X64579285Y-104480952D01*
X64626904Y-104528571D01*
X64674523Y-104623809D01*
X64674523Y-104861904D01*
X64626904Y-104957142D01*
X64579285Y-105004761D01*
X64484047Y-105052380D01*
X64198333Y-105052380D01*
X64103095Y-105004761D01*
X64055476Y-104957142D01*
X61055476Y-113259761D02*
X61198333Y-113307380D01*
X61436428Y-113307380D01*
X61531666Y-113259761D01*
X61579285Y-113212142D01*
X61626904Y-113116904D01*
X61626904Y-113021666D01*
X61579285Y-112926428D01*
X61531666Y-112878809D01*
X61436428Y-112831190D01*
X61245952Y-112783571D01*
X61150714Y-112735952D01*
X61103095Y-112688333D01*
X61055476Y-112593095D01*
X61055476Y-112497857D01*
X61103095Y-112402619D01*
X61150714Y-112355000D01*
X61245952Y-112307380D01*
X61484047Y-112307380D01*
X61626904Y-112355000D01*
X61960238Y-112307380D02*
X62198333Y-113307380D01*
X62388809Y-112593095D01*
X62579285Y-113307380D01*
X62817380Y-112307380D01*
X63150714Y-112402619D02*
X63198333Y-112355000D01*
X63293571Y-112307380D01*
X63531666Y-112307380D01*
X63626904Y-112355000D01*
X63674523Y-112402619D01*
X63722142Y-112497857D01*
X63722142Y-112593095D01*
X63674523Y-112735952D01*
X63103095Y-113307380D01*
X63722142Y-113307380D01*
X64579285Y-112640714D02*
X64579285Y-113307380D01*
X64341190Y-112259761D02*
X64103095Y-112974047D01*
X64722142Y-112974047D01*
X61055476Y-121514761D02*
X61198333Y-121562380D01*
X61436428Y-121562380D01*
X61531666Y-121514761D01*
X61579285Y-121467142D01*
X61626904Y-121371904D01*
X61626904Y-121276666D01*
X61579285Y-121181428D01*
X61531666Y-121133809D01*
X61436428Y-121086190D01*
X61245952Y-121038571D01*
X61150714Y-120990952D01*
X61103095Y-120943333D01*
X61055476Y-120848095D01*
X61055476Y-120752857D01*
X61103095Y-120657619D01*
X61150714Y-120610000D01*
X61245952Y-120562380D01*
X61484047Y-120562380D01*
X61626904Y-120610000D01*
X61960238Y-120562380D02*
X62198333Y-121562380D01*
X62388809Y-120848095D01*
X62579285Y-121562380D01*
X62817380Y-120562380D01*
X63150714Y-120657619D02*
X63198333Y-120610000D01*
X63293571Y-120562380D01*
X63531666Y-120562380D01*
X63626904Y-120610000D01*
X63674523Y-120657619D01*
X63722142Y-120752857D01*
X63722142Y-120848095D01*
X63674523Y-120990952D01*
X63103095Y-121562380D01*
X63722142Y-121562380D01*
X64626904Y-120562380D02*
X64150714Y-120562380D01*
X64103095Y-121038571D01*
X64150714Y-120990952D01*
X64245952Y-120943333D01*
X64484047Y-120943333D01*
X64579285Y-120990952D01*
X64626904Y-121038571D01*
X64674523Y-121133809D01*
X64674523Y-121371904D01*
X64626904Y-121467142D01*
X64579285Y-121514761D01*
X64484047Y-121562380D01*
X64245952Y-121562380D01*
X64150714Y-121514761D01*
X64103095Y-121467142D01*
X61055476Y-129769761D02*
X61198333Y-129817380D01*
X61436428Y-129817380D01*
X61531666Y-129769761D01*
X61579285Y-129722142D01*
X61626904Y-129626904D01*
X61626904Y-129531666D01*
X61579285Y-129436428D01*
X61531666Y-129388809D01*
X61436428Y-129341190D01*
X61245952Y-129293571D01*
X61150714Y-129245952D01*
X61103095Y-129198333D01*
X61055476Y-129103095D01*
X61055476Y-129007857D01*
X61103095Y-128912619D01*
X61150714Y-128865000D01*
X61245952Y-128817380D01*
X61484047Y-128817380D01*
X61626904Y-128865000D01*
X61960238Y-128817380D02*
X62198333Y-129817380D01*
X62388809Y-129103095D01*
X62579285Y-129817380D01*
X62817380Y-128817380D01*
X63150714Y-128912619D02*
X63198333Y-128865000D01*
X63293571Y-128817380D01*
X63531666Y-128817380D01*
X63626904Y-128865000D01*
X63674523Y-128912619D01*
X63722142Y-129007857D01*
X63722142Y-129103095D01*
X63674523Y-129245952D01*
X63103095Y-129817380D01*
X63722142Y-129817380D01*
X64579285Y-128817380D02*
X64388809Y-128817380D01*
X64293571Y-128865000D01*
X64245952Y-128912619D01*
X64150714Y-129055476D01*
X64103095Y-129245952D01*
X64103095Y-129626904D01*
X64150714Y-129722142D01*
X64198333Y-129769761D01*
X64293571Y-129817380D01*
X64484047Y-129817380D01*
X64579285Y-129769761D01*
X64626904Y-129722142D01*
X64674523Y-129626904D01*
X64674523Y-129388809D01*
X64626904Y-129293571D01*
X64579285Y-129245952D01*
X64484047Y-129198333D01*
X64293571Y-129198333D01*
X64198333Y-129245952D01*
X64150714Y-129293571D01*
X64103095Y-129388809D01*
X61055476Y-138024761D02*
X61198333Y-138072380D01*
X61436428Y-138072380D01*
X61531666Y-138024761D01*
X61579285Y-137977142D01*
X61626904Y-137881904D01*
X61626904Y-137786666D01*
X61579285Y-137691428D01*
X61531666Y-137643809D01*
X61436428Y-137596190D01*
X61245952Y-137548571D01*
X61150714Y-137500952D01*
X61103095Y-137453333D01*
X61055476Y-137358095D01*
X61055476Y-137262857D01*
X61103095Y-137167619D01*
X61150714Y-137120000D01*
X61245952Y-137072380D01*
X61484047Y-137072380D01*
X61626904Y-137120000D01*
X61960238Y-137072380D02*
X62198333Y-138072380D01*
X62388809Y-137358095D01*
X62579285Y-138072380D01*
X62817380Y-137072380D01*
X63150714Y-137167619D02*
X63198333Y-137120000D01*
X63293571Y-137072380D01*
X63531666Y-137072380D01*
X63626904Y-137120000D01*
X63674523Y-137167619D01*
X63722142Y-137262857D01*
X63722142Y-137358095D01*
X63674523Y-137500952D01*
X63103095Y-138072380D01*
X63722142Y-138072380D01*
X64055476Y-137072380D02*
X64722142Y-137072380D01*
X64293571Y-138072380D01*
M02*
