G04 #@! TF.GenerationSoftware,KiCad,Pcbnew,(5.1.4)-1*
G04 #@! TF.CreationDate,2019-11-28T22:36:49+09:00*
G04 #@! TF.ProjectId,rpi3GpioTester,72706933-4770-4696-9f54-65737465722e,rev?*
G04 #@! TF.SameCoordinates,Original*
G04 #@! TF.FileFunction,Soldermask,Top*
G04 #@! TF.FilePolarity,Negative*
%FSLAX46Y46*%
G04 Gerber Fmt 4.6, Leading zero omitted, Abs format (unit mm)*
G04 Created by KiCad (PCBNEW (5.1.4)-1) date 2019-11-28 22:36:49*
%MOMM*%
%LPD*%
G04 APERTURE LIST*
%ADD10R,2.100000X2.100000*%
%ADD11O,2.100000X2.100000*%
%ADD12C,1.924000*%
%ADD13R,2.200000X2.200000*%
%ADD14C,2.200000*%
%ADD15C,2.000000*%
%ADD16O,2.000000X2.000000*%
%ADD17C,1.797000*%
G04 APERTURE END LIST*
D10*
X101600000Y-143510000D03*
D11*
X104140000Y-143510000D03*
X106680000Y-143510000D03*
X109220000Y-143510000D03*
X43942000Y-54864000D03*
X43942000Y-57404000D03*
X43942000Y-59944000D03*
D10*
X43942000Y-62484000D03*
X101600000Y-132080000D03*
D11*
X104140000Y-132080000D03*
X106680000Y-132080000D03*
X109220000Y-132080000D03*
D10*
X101600000Y-137795000D03*
D11*
X104140000Y-137795000D03*
X106680000Y-137795000D03*
X109220000Y-137795000D03*
D10*
X38100000Y-128270000D03*
D11*
X38100000Y-130810000D03*
X38100000Y-133350000D03*
X38100000Y-135890000D03*
X43815000Y-135890000D03*
X43815000Y-133350000D03*
X43815000Y-130810000D03*
D10*
X43815000Y-128270000D03*
D11*
X83185000Y-70485000D03*
X83185000Y-73025000D03*
X83185000Y-75565000D03*
D10*
X83185000Y-78105000D03*
D12*
X122270000Y-116205000D03*
X124270000Y-116205000D03*
X126270000Y-116205000D03*
X128270000Y-116205000D03*
X122270000Y-131445000D03*
X124270000Y-131445000D03*
X126270000Y-131445000D03*
X128270000Y-131445000D03*
X122270000Y-123825000D03*
X124270000Y-123825000D03*
X126270000Y-123825000D03*
X128270000Y-123825000D03*
D10*
X114935000Y-60325000D03*
D11*
X114935000Y-57785000D03*
X114935000Y-55245000D03*
X114935000Y-52705000D03*
X74930000Y-52705000D03*
X74930000Y-55245000D03*
X74930000Y-57785000D03*
D10*
X74930000Y-60325000D03*
D11*
X80645000Y-52705000D03*
X80645000Y-55245000D03*
X80645000Y-57785000D03*
D10*
X80645000Y-60325000D03*
D11*
X86360000Y-52705000D03*
X86360000Y-55245000D03*
X86360000Y-57785000D03*
D10*
X86360000Y-60325000D03*
D11*
X92075000Y-52705000D03*
X92075000Y-55245000D03*
X92075000Y-57785000D03*
D10*
X92075000Y-60325000D03*
D11*
X121920000Y-64135000D03*
X124460000Y-64135000D03*
X127000000Y-64135000D03*
D10*
X129540000Y-64135000D03*
D11*
X121920000Y-69850000D03*
X124460000Y-69850000D03*
X127000000Y-69850000D03*
D10*
X129540000Y-69850000D03*
D11*
X121920000Y-75565000D03*
X124460000Y-75565000D03*
X127000000Y-75565000D03*
D10*
X129540000Y-75565000D03*
D11*
X121920000Y-81280000D03*
X124460000Y-81280000D03*
X127000000Y-81280000D03*
D10*
X129540000Y-81280000D03*
X129540000Y-86995000D03*
D11*
X127000000Y-86995000D03*
X124460000Y-86995000D03*
X121920000Y-86995000D03*
D10*
X129540000Y-92710000D03*
D11*
X127000000Y-92710000D03*
X124460000Y-92710000D03*
X121920000Y-92710000D03*
D10*
X97790000Y-60325000D03*
D11*
X97790000Y-57785000D03*
X97790000Y-55245000D03*
X97790000Y-52705000D03*
X103505000Y-52705000D03*
X103505000Y-55245000D03*
X103505000Y-57785000D03*
D10*
X103505000Y-60325000D03*
D13*
X90805000Y-69215000D03*
D14*
X90805000Y-66675000D03*
D13*
X90805000Y-77470000D03*
D14*
X90805000Y-74930000D03*
D13*
X90805000Y-85725000D03*
D14*
X90805000Y-83185000D03*
D13*
X90805000Y-93980000D03*
D14*
X90805000Y-91440000D03*
D13*
X90805000Y-102235000D03*
D14*
X90805000Y-99695000D03*
D13*
X90805000Y-110490000D03*
D14*
X90805000Y-107950000D03*
D13*
X50800000Y-62230000D03*
D14*
X50800000Y-59690000D03*
D13*
X50800000Y-70485000D03*
D14*
X50800000Y-67945000D03*
D13*
X50800000Y-78740000D03*
D14*
X50800000Y-76200000D03*
D13*
X50800000Y-86995000D03*
D14*
X50800000Y-84455000D03*
D13*
X50800000Y-95250000D03*
D14*
X50800000Y-92710000D03*
D13*
X50800000Y-103505000D03*
D14*
X50800000Y-100965000D03*
D13*
X50800000Y-111760000D03*
D14*
X50800000Y-109220000D03*
D13*
X50800000Y-120015000D03*
D14*
X50800000Y-117475000D03*
D13*
X50800000Y-128270000D03*
D14*
X50800000Y-125730000D03*
D13*
X50800000Y-136525000D03*
D14*
X50800000Y-133985000D03*
D13*
X50800000Y-144780000D03*
D14*
X50800000Y-142240000D03*
D11*
X121920000Y-104140000D03*
X124460000Y-104140000D03*
X127000000Y-104140000D03*
D10*
X129540000Y-104140000D03*
X129540000Y-98425000D03*
D11*
X127000000Y-98425000D03*
X124460000Y-98425000D03*
X121920000Y-98425000D03*
D10*
X109220000Y-60325000D03*
D11*
X109220000Y-57785000D03*
X109220000Y-55245000D03*
X109220000Y-52705000D03*
D12*
X128270000Y-139065000D03*
X126270000Y-139065000D03*
X124270000Y-139065000D03*
X122270000Y-139065000D03*
D10*
X78105000Y-96520000D03*
D11*
X80645000Y-96520000D03*
X78105000Y-99060000D03*
X80645000Y-99060000D03*
X78105000Y-101600000D03*
X80645000Y-101600000D03*
X78105000Y-104140000D03*
X80645000Y-104140000D03*
X78105000Y-106680000D03*
X80645000Y-106680000D03*
X78105000Y-109220000D03*
X80645000Y-109220000D03*
X78105000Y-111760000D03*
X80645000Y-111760000D03*
X78105000Y-114300000D03*
X80645000Y-114300000D03*
X78105000Y-116840000D03*
X80645000Y-116840000D03*
X78105000Y-119380000D03*
X80645000Y-119380000D03*
X78105000Y-121920000D03*
X80645000Y-121920000D03*
X78105000Y-124460000D03*
X80645000Y-124460000D03*
X78105000Y-127000000D03*
X80645000Y-127000000D03*
X78105000Y-129540000D03*
X80645000Y-129540000D03*
X78105000Y-132080000D03*
X80645000Y-132080000D03*
X78105000Y-134620000D03*
X80645000Y-134620000D03*
X78105000Y-137160000D03*
X80645000Y-137160000D03*
X78105000Y-139700000D03*
X80645000Y-139700000D03*
X78105000Y-142240000D03*
X80645000Y-142240000D03*
X78105000Y-144780000D03*
X80645000Y-144780000D03*
D10*
X38100000Y-67945000D03*
D11*
X38100000Y-70485000D03*
X38100000Y-73025000D03*
X38100000Y-75565000D03*
X38100000Y-78105000D03*
X38100000Y-80645000D03*
X38100000Y-83185000D03*
X38100000Y-85725000D03*
X38100000Y-88265000D03*
X38100000Y-90805000D03*
X38100000Y-93345000D03*
X38100000Y-95885000D03*
X38100000Y-98425000D03*
X38100000Y-100965000D03*
X38100000Y-103505000D03*
X38100000Y-106045000D03*
X38100000Y-108585000D03*
X38100000Y-111125000D03*
X38100000Y-113665000D03*
X38100000Y-116205000D03*
D10*
X90805000Y-116840000D03*
D11*
X90805000Y-119380000D03*
X90805000Y-121920000D03*
X90805000Y-124460000D03*
X90805000Y-127000000D03*
X90805000Y-129540000D03*
X90805000Y-132080000D03*
X90805000Y-134620000D03*
X90805000Y-137160000D03*
X90805000Y-139700000D03*
X90805000Y-142240000D03*
X90805000Y-144780000D03*
D15*
X95250000Y-69215000D03*
D16*
X95250000Y-66675000D03*
D15*
X95250000Y-77470000D03*
D16*
X95250000Y-74930000D03*
D15*
X95250000Y-85725000D03*
D16*
X95250000Y-83185000D03*
D15*
X95250000Y-93980000D03*
D16*
X95250000Y-91440000D03*
D15*
X95250000Y-102235000D03*
D16*
X95250000Y-99695000D03*
D15*
X95250000Y-110490000D03*
D16*
X95250000Y-107950000D03*
D15*
X55245000Y-62230000D03*
D16*
X55245000Y-59690000D03*
D15*
X55245000Y-70485000D03*
D16*
X55245000Y-67945000D03*
D15*
X55245000Y-78740000D03*
D16*
X55245000Y-76200000D03*
D15*
X55245000Y-86995000D03*
D16*
X55245000Y-84455000D03*
D15*
X55245000Y-95250000D03*
D16*
X55245000Y-92710000D03*
D15*
X55245000Y-103505000D03*
D16*
X55245000Y-100965000D03*
D15*
X55245000Y-111760000D03*
D16*
X55245000Y-109220000D03*
D15*
X55245000Y-120015000D03*
D16*
X55245000Y-117475000D03*
D15*
X55245000Y-128270000D03*
D16*
X55245000Y-125730000D03*
D15*
X55245000Y-136525000D03*
D16*
X55245000Y-133985000D03*
D15*
X55245000Y-144780000D03*
D16*
X55245000Y-142240000D03*
D17*
X106045000Y-66675000D03*
X106045000Y-71755000D03*
X98425000Y-66675000D03*
X98425000Y-71755000D03*
X106045000Y-74930000D03*
X106045000Y-80010000D03*
X98425000Y-74930000D03*
X98425000Y-80010000D03*
X106045000Y-83185000D03*
X106045000Y-88265000D03*
X98425000Y-83185000D03*
X98425000Y-88265000D03*
X106045000Y-91440000D03*
X106045000Y-96520000D03*
X98425000Y-91440000D03*
X98425000Y-96520000D03*
X106045000Y-99695000D03*
X106045000Y-104775000D03*
X98425000Y-99695000D03*
X98425000Y-104775000D03*
X106045000Y-107950000D03*
X106045000Y-113030000D03*
X98425000Y-107950000D03*
X98425000Y-113030000D03*
X66040000Y-57150000D03*
X66040000Y-62230000D03*
X58420000Y-57150000D03*
X58420000Y-62230000D03*
X66040000Y-65405000D03*
X66040000Y-70485000D03*
X58420000Y-65405000D03*
X58420000Y-70485000D03*
X66040000Y-73660000D03*
X66040000Y-78740000D03*
X58420000Y-73660000D03*
X58420000Y-78740000D03*
X66040000Y-81915000D03*
X66040000Y-86995000D03*
X58420000Y-81915000D03*
X58420000Y-86995000D03*
X66040000Y-90170000D03*
X66040000Y-95250000D03*
X58420000Y-90170000D03*
X58420000Y-95250000D03*
X66040000Y-98425000D03*
X66040000Y-103505000D03*
X58420000Y-98425000D03*
X58420000Y-103505000D03*
X66040000Y-106680000D03*
X66040000Y-111760000D03*
X58420000Y-106680000D03*
X58420000Y-111760000D03*
X66040000Y-114935000D03*
X66040000Y-120015000D03*
X58420000Y-114935000D03*
X58420000Y-120015000D03*
X66040000Y-123190000D03*
X66040000Y-128270000D03*
X58420000Y-123190000D03*
X58420000Y-128270000D03*
X66040000Y-131445000D03*
X66040000Y-136525000D03*
X58420000Y-131445000D03*
X58420000Y-136525000D03*
X66040000Y-139700000D03*
X66040000Y-144780000D03*
X58420000Y-139700000D03*
X58420000Y-144780000D03*
M02*
