M48
; DRILL file {KiCad (5.1.4)-1} date 2019/11/22 10:59:23
; FORMAT={-:-/ absolute / inch / decimal}
; #@! TF.CreationDate,2019-11-22T10:59:23+09:00
; #@! TF.GenerationSoftware,Kicad,Pcbnew,(5.1.4)-1
; #@! TF.FileFunction,Plated,1,2,PTH
FMAT,2
INCH
T1C0.0157
T2C0.0300
T3C0.0315
T4C0.0320
T5C0.0354
T6C0.0394
%
G90
G05
T1
X1.725Y-2.775
X1.725Y-2.85
X1.725Y-3.15
X1.725Y-3.8
X1.825Y-3.75
X1.85Y-3.15
X2.3Y-2.975
X2.4Y-4.025
X2.475Y-3.275
X2.475Y-3.375
X2.475Y-3.875
X2.55Y-4.125
X2.65Y-3.325
X2.675Y-2.975
X2.675Y-3.925
X2.675Y-4.025
X2.675Y-4.325
X2.725Y-2.725
X2.725Y-3.075
X2.725Y-3.4
X2.725Y-4.025
X2.725Y-4.25
X2.775Y-3.075
X2.775Y-3.4
X2.775Y-4.025
X2.775Y-4.475
X2.775Y-4.625
X2.8Y-4.05
X2.8Y-4.45
X2.8Y-4.6
X2.8Y-5.325
X2.8Y-5.45
X2.825Y-3.075
X2.825Y-3.45
X2.825Y-4.475
X2.825Y-4.525
X2.85Y-3.475
X2.85Y-4.025
X2.85Y-4.45
X2.85Y-4.625
X2.85Y-5.2
X2.875Y-3.075
X2.875Y-3.325
X2.875Y-3.55
X2.875Y-3.975
X2.875Y-4.475
X2.875Y-4.525
X2.925Y-4.05
X2.925Y-4.475
X2.925Y-4.625
X2.95Y-3.95
X2.95Y-4.125
X2.95Y-4.45
X2.95Y-4.6
X2.975Y-2.975
X2.975Y-3.925
X2.975Y-4.3
X3.0Y-3.95
X3.0Y-4.2
X3.0Y-4.35
X3.0Y-4.775
X3.05Y-3.325
X3.1Y-3.175
X3.15Y-3.7
X3.25Y-4.25
X3.3Y-4.9
X3.3Y-5.2
X3.3Y-5.3
X3.325Y-4.85
X3.35Y-3.9
X3.35Y-4.05
X3.4Y-5.0
X3.425Y-4.975
X3.5Y-5.025
X4.2Y-3.4
X4.2Y-4.7
T2
X3.2388Y-3.375
X3.3175Y-3.375
X3.3963Y-3.375
X3.475Y-3.375
X3.2388Y-3.05
X3.3175Y-3.05
X3.3963Y-3.05
X3.475Y-3.05
X3.2388Y-2.4
X3.3175Y-2.4
X3.3963Y-2.4
X3.475Y-2.4
X3.2388Y-2.725
X3.3175Y-2.725
X3.3963Y-2.725
X3.475Y-2.725
T3
X3.025Y-1.6
X3.025Y-1.7
X2.2Y-1.7
X2.2Y-1.8
X3.025Y-1.275
X3.025Y-1.375
X2.2Y-4.625
X2.2Y-4.725
X2.2Y-3.0
X2.2Y-3.1
X2.2Y-4.95
X2.2Y-5.05
X3.025Y-1.925
X3.025Y-2.025
X2.2Y-1.375
X2.2Y-1.475
X2.2Y-2.675
X2.2Y-2.775
X2.2Y-5.6
X2.2Y-5.7
X2.2Y-3.975
X2.2Y-4.075
X2.2Y-3.325
X2.2Y-3.425
X2.2Y-2.025
X2.2Y-2.125
X2.2Y-2.35
X2.2Y-2.45
X2.2Y-5.275
X2.2Y-5.375
X2.2Y-4.3
X2.2Y-4.4
X2.2Y-3.65
X2.2Y-3.75
T4
X2.325Y-2.575
X2.325Y-2.775
X2.625Y-2.575
X2.625Y-2.775
X2.325Y-4.2
X2.325Y-4.4
X2.625Y-4.2
X2.625Y-4.4
X2.325Y-1.6
X2.325Y-1.8
X2.625Y-1.6
X2.625Y-1.8
X2.325Y-4.525
X2.325Y-4.725
X2.625Y-4.525
X2.625Y-4.725
X2.325Y-1.275
X2.325Y-1.475
X2.625Y-1.275
X2.625Y-1.475
X2.325Y-3.225
X2.325Y-3.425
X2.625Y-3.225
X2.625Y-3.425
X3.15Y-1.275
X3.15Y-1.475
X3.45Y-1.275
X3.45Y-1.475
X2.325Y-5.5
X2.325Y-5.7
X2.625Y-5.5
X2.625Y-5.7
X2.325Y-1.925
X2.325Y-2.125
X2.625Y-1.925
X2.625Y-2.125
X2.325Y-4.85
X2.325Y-5.05
X2.625Y-4.85
X2.625Y-5.05
X3.15Y-1.925
X3.15Y-2.125
X3.45Y-1.925
X3.45Y-2.125
X2.325Y-2.9
X2.325Y-3.1
X2.625Y-2.9
X2.625Y-3.1
X2.325Y-3.875
X2.325Y-4.075
X2.625Y-3.875
X2.625Y-4.075
X3.15Y-1.6
X3.15Y-1.8
X3.45Y-1.6
X3.45Y-1.8
X2.325Y-3.55
X2.325Y-3.75
X2.625Y-3.55
X2.625Y-3.75
X2.325Y-2.25
X2.325Y-2.45
X2.625Y-2.25
X2.625Y-2.45
X2.325Y-5.175
X2.325Y-5.375
X2.625Y-5.175
X2.625Y-5.375
T5
X2.025Y-1.375
X2.025Y-1.475
X2.025Y-2.675
X2.025Y-2.775
X2.025Y-5.275
X2.025Y-5.375
X2.025Y-3.65
X2.025Y-3.75
X2.025Y-2.025
X2.025Y-2.125
X3.6Y-2.025
X3.6Y-2.125
X2.025Y-1.7
X2.025Y-1.8
X2.025Y-3.975
X2.025Y-4.075
X2.025Y-5.6
X2.025Y-5.7
X2.025Y-2.35
X2.025Y-2.45
X2.025Y-4.3
X2.025Y-4.4
X3.6Y-1.7
X3.6Y-1.8
X2.025Y-3.0
X2.025Y-3.1
X3.6Y-1.375
X3.6Y-1.475
X2.025Y-4.95
X2.025Y-5.05
X2.025Y-4.625
X2.025Y-4.725
X2.025Y-3.325
X2.025Y-3.425
T6
X3.9Y-5.475
X4.0Y-5.475
X4.1Y-5.475
X4.2Y-5.475
X3.9Y-3.9
X4.0Y-3.9
X4.1Y-3.9
X4.2Y-3.9
X3.9Y-2.825
X4.0Y-2.825
X4.1Y-2.825
X4.2Y-2.825
X1.525Y-2.675
X1.525Y-2.775
X1.525Y-2.875
X1.525Y-2.975
X1.525Y-3.075
X1.525Y-3.175
X1.525Y-3.275
X1.525Y-3.375
X1.525Y-3.475
X1.525Y-3.575
X1.525Y-3.675
X1.525Y-3.775
X1.525Y-3.875
X1.525Y-3.975
X1.525Y-4.075
X1.525Y-4.175
X1.525Y-4.275
X1.525Y-4.375
X1.525Y-4.475
X1.525Y-4.575
X3.9Y-2.15
X4.0Y-2.15
X4.1Y-2.15
X4.2Y-2.15
X3.9Y-3.5
X4.0Y-3.5
X4.1Y-3.5
X4.2Y-3.5
X3.9Y-1.5
X4.0Y-1.5
X4.1Y-1.5
X4.2Y-1.5
X3.9Y-4.8
X4.0Y-4.8
X4.1Y-4.8
X4.2Y-4.8
X3.9Y-5.25
X4.0Y-5.25
X4.1Y-5.25
X4.2Y-5.25
X3.9Y-4.125
X4.0Y-4.125
X4.1Y-4.125
X4.2Y-4.125
X3.9Y-4.575
X4.0Y-4.575
X4.1Y-4.575
X4.2Y-4.575
X3.9Y-5.025
X4.0Y-5.025
X4.1Y-5.025
X4.2Y-5.025
X3.9Y-2.375
X4.0Y-2.375
X4.1Y-2.375
X4.2Y-2.375
X3.5Y-4.05
X3.5Y-4.15
X3.5Y-4.25
X3.5Y-4.35
X3.65Y-4.05
X3.65Y-4.15
X3.65Y-4.25
X3.65Y-4.35
X3.6Y-4.6
X3.6Y-4.7
X3.6Y-4.8
X3.6Y-4.9
X3.6Y-5.0
X3.6Y-5.1
X3.6Y-5.2
X3.6Y-5.3
X3.6Y-5.4
X3.6Y-5.5
X3.6Y-5.6
X3.6Y-5.7
X3.9Y-3.275
X4.0Y-3.275
X4.1Y-3.275
X4.2Y-3.275
X3.9Y-4.35
X4.0Y-4.35
X4.1Y-4.35
X4.2Y-4.35
X3.1Y-3.8
X3.1Y-3.9
X3.1Y-4.0
X3.1Y-4.1
X3.1Y-4.2
X3.1Y-4.3
X3.1Y-4.4
X3.1Y-4.5
X3.1Y-4.6
X3.1Y-4.7
X3.1Y-4.8
X3.1Y-4.9
X3.1Y-5.0
X3.1Y-5.1
X3.1Y-5.2
X3.1Y-5.3
X3.1Y-5.4
X3.1Y-5.5
X3.1Y-5.6
X3.1Y-5.7
X3.2Y-3.8
X3.2Y-3.9
X3.2Y-4.0
X3.2Y-4.1
X3.2Y-4.2
X3.2Y-4.3
X3.2Y-4.4
X3.2Y-4.5
X3.2Y-4.6
X3.2Y-4.7
X3.2Y-4.8
X3.2Y-4.9
X3.2Y-5.0
X3.2Y-5.1
X3.2Y-5.2
X3.2Y-5.3
X3.2Y-5.4
X3.2Y-5.5
X3.2Y-5.6
X3.2Y-5.7
X3.9Y-1.925
X4.0Y-1.925
X4.1Y-1.925
X4.2Y-1.925
X3.9Y-3.05
X4.0Y-3.05
X4.1Y-3.05
X4.2Y-3.05
X3.9Y-2.6
X4.0Y-2.6
X4.1Y-2.6
X4.2Y-2.6
T0
M30
