M48
;DRILL file {KiCad 4.0.7} date 11/15/19 19:08:34
;FORMAT={-:-/ absolute / inch / decimal}
FMAT,2
INCH,TZ
T1C0.016
T2C0.030
T3C0.031
T4C0.032
T5C0.035
T6C0.039
%
G90
G05
M72
T1
X1.725Y-2.775
X1.725Y-2.85
X1.725Y-3.15
X1.725Y-3.8
X1.825Y-3.75
X1.85Y-3.15
X2.3Y-2.975
X2.4Y-4.025
X2.475Y-3.275
X2.475Y-3.375
X2.475Y-3.875
X2.55Y-4.125
X2.65Y-3.325
X2.675Y-2.975
X2.675Y-3.925
X2.675Y-4.025
X2.675Y-4.325
X2.725Y-2.725
X2.725Y-3.075
X2.725Y-3.4
X2.725Y-4.025
X2.725Y-4.25
X2.775Y-3.075
X2.775Y-3.4
X2.775Y-4.025
X2.775Y-4.475
X2.775Y-4.625
X2.8Y-4.05
X2.8Y-4.45
X2.8Y-4.6
X2.8Y-5.325
X2.8Y-5.45
X2.825Y-3.075
X2.825Y-3.45
X2.825Y-4.475
X2.825Y-4.525
X2.85Y-3.475
X2.85Y-4.025
X2.85Y-4.45
X2.85Y-4.625
X2.85Y-5.2
X2.875Y-3.075
X2.875Y-3.325
X2.875Y-4.475
X2.875Y-4.525
X2.925Y-4.05
X2.925Y-4.475
X2.925Y-4.625
X2.95Y-3.95
X2.95Y-4.125
X2.95Y-4.45
X2.95Y-4.6
X2.975Y-2.975
X2.975Y-3.925
X2.975Y-4.3
X3.Y-3.95
X3.Y-4.2
X3.Y-4.35
X3.05Y-3.325
X3.175Y-3.45
X3.175Y-3.6
X3.3Y-3.725
X3.325Y-4.85
X3.35Y-3.9
X3.45Y-4.45
X3.45Y-4.9
X3.5Y-4.875
X3.675Y-5.05
T2
X3.2Y-3.
X3.2Y-3.0787
X3.2Y-3.1575
X3.2Y-3.2362
T3
X2.2Y-1.375
X2.2Y-1.475
X2.2Y-1.7
X2.2Y-1.8
X2.2Y-2.025
X2.2Y-2.125
X2.2Y-2.35
X2.2Y-2.45
X2.2Y-2.675
X2.2Y-2.775
X2.2Y-3.
X2.2Y-3.1
X2.2Y-3.325
X2.2Y-3.425
X2.2Y-3.65
X2.2Y-3.75
X2.2Y-3.975
X2.2Y-4.075
X2.2Y-4.3
X2.2Y-4.4
X2.2Y-4.625
X2.2Y-4.725
X2.2Y-4.95
X2.2Y-5.05
X2.2Y-5.275
X2.2Y-5.375
X2.2Y-5.6
X2.2Y-5.7
X3.275Y-1.6
X3.275Y-1.7
X3.275Y-2.
X3.275Y-2.1
X3.275Y-2.425
X3.275Y-2.525
T4
X2.325Y-1.275
X2.325Y-1.475
X2.325Y-1.6
X2.325Y-1.8
X2.325Y-1.925
X2.325Y-2.125
X2.325Y-2.25
X2.325Y-2.45
X2.325Y-2.575
X2.325Y-2.775
X2.325Y-2.9
X2.325Y-3.1
X2.325Y-3.225
X2.325Y-3.425
X2.325Y-3.55
X2.325Y-3.75
X2.325Y-3.875
X2.325Y-4.075
X2.325Y-4.2
X2.325Y-4.4
X2.325Y-4.525
X2.325Y-4.725
X2.325Y-4.85
X2.325Y-5.05
X2.325Y-5.175
X2.325Y-5.375
X2.325Y-5.5
X2.325Y-5.7
X2.625Y-1.275
X2.625Y-1.475
X2.625Y-1.6
X2.625Y-1.8
X2.625Y-1.925
X2.625Y-2.125
X2.625Y-2.25
X2.625Y-2.45
X2.625Y-2.575
X2.625Y-2.775
X2.625Y-2.9
X2.625Y-3.1
X2.625Y-3.225
X2.625Y-3.425
X2.625Y-3.55
X2.625Y-3.75
X2.625Y-3.875
X2.625Y-4.075
X2.625Y-4.2
X2.625Y-4.4
X2.625Y-4.525
X2.625Y-4.725
X2.625Y-4.85
X2.625Y-5.05
X2.625Y-5.175
X2.625Y-5.375
X2.625Y-5.5
X2.625Y-5.7
X3.4Y-1.6
X3.4Y-1.8
X3.4Y-2.
X3.4Y-2.2
X3.4Y-2.425
X3.4Y-2.625
X3.7Y-1.6
X3.7Y-1.8
X3.7Y-2.
X3.7Y-2.2
X3.7Y-2.425
X3.7Y-2.625
T5
X2.025Y-1.375
X2.025Y-1.475
X2.025Y-1.7
X2.025Y-1.8
X2.025Y-2.025
X2.025Y-2.125
X2.025Y-2.35
X2.025Y-2.45
X2.025Y-2.675
X2.025Y-2.775
X2.025Y-3.
X2.025Y-3.1
X2.025Y-3.325
X2.025Y-3.425
X2.025Y-3.65
X2.025Y-3.75
X2.025Y-3.975
X2.025Y-4.075
X2.025Y-4.3
X2.025Y-4.4
X2.025Y-4.625
X2.025Y-4.725
X2.025Y-4.95
X2.025Y-5.05
X2.025Y-5.275
X2.025Y-5.375
X2.025Y-5.6
X2.025Y-5.7
X3.85Y-1.7
X3.85Y-1.8
X3.85Y-2.1
X3.85Y-2.2
X3.85Y-2.525
X3.85Y-2.625
T6
X1.525Y-2.675
X1.525Y-2.775
X1.525Y-2.875
X1.525Y-2.975
X1.525Y-3.075
X1.525Y-3.175
X1.525Y-3.275
X1.525Y-3.375
X1.525Y-3.475
X1.525Y-3.575
X1.525Y-3.675
X1.525Y-3.775
X1.525Y-3.875
X1.525Y-3.975
X1.525Y-4.075
X1.525Y-4.175
X1.525Y-4.275
X1.525Y-4.375
X1.525Y-4.475
X1.525Y-4.575
X3.1Y-3.8
X3.1Y-3.9
X3.1Y-4.
X3.1Y-4.1
X3.1Y-4.2
X3.1Y-4.3
X3.1Y-4.4
X3.1Y-4.5
X3.1Y-4.6
X3.1Y-4.7
X3.1Y-4.8
X3.1Y-4.9
X3.1Y-5.
X3.1Y-5.1
X3.1Y-5.2
X3.1Y-5.3
X3.1Y-5.4
X3.1Y-5.5
X3.1Y-5.6
X3.1Y-5.7
X3.2Y-3.8
X3.2Y-3.9
X3.2Y-4.
X3.2Y-4.1
X3.2Y-4.2
X3.2Y-4.3
X3.2Y-4.4
X3.2Y-4.5
X3.2Y-4.6
X3.2Y-4.7
X3.2Y-4.8
X3.2Y-4.9
X3.2Y-5.
X3.2Y-5.1
X3.2Y-5.2
X3.2Y-5.3
X3.2Y-5.4
X3.2Y-5.5
X3.2Y-5.6
X3.2Y-5.7
X3.7Y-2.95
X3.7Y-3.05
X3.7Y-3.15
X3.7Y-3.25
X3.7Y-3.8
X3.7Y-3.9
X3.7Y-4.
X3.7Y-4.1
X3.85Y-4.6
X3.85Y-4.7
X3.85Y-4.8
X3.85Y-4.9
X3.85Y-5.
X3.85Y-5.1
X3.85Y-5.2
X3.85Y-5.3
X3.85Y-5.4
X3.85Y-5.5
X3.85Y-5.6
X3.85Y-5.7
X4.2Y-2.95
X4.2Y-3.05
X4.2Y-3.15
X4.2Y-3.25
X4.2Y-3.8
X4.2Y-3.9
X4.2Y-4.
X4.2Y-4.1
T0
M30
