G04 #@! TF.GenerationSoftware,KiCad,Pcbnew,(5.1.4)-1*
G04 #@! TF.CreationDate,2019-11-22T08:31:13+09:00*
G04 #@! TF.ProjectId,rpi3GpioTester,72706933-4770-4696-9f54-65737465722e,rev?*
G04 #@! TF.SameCoordinates,Original*
G04 #@! TF.FileFunction,Soldermask,Top*
G04 #@! TF.FilePolarity,Negative*
%FSLAX46Y46*%
G04 Gerber Fmt 4.6, Leading zero omitted, Abs format (unit mm)*
G04 Created by KiCad (PCBNEW (5.1.4)-1) date 2019-11-22 08:31:13*
%MOMM*%
%LPD*%
G04 APERTURE LIST*
%ADD10C,1.924000*%
%ADD11R,2.100000X2.100000*%
%ADD12O,2.100000X2.100000*%
%ADD13R,2.200000X2.200000*%
%ADD14C,2.200000*%
%ADD15C,2.000000*%
%ADD16O,2.000000X2.000000*%
%ADD17C,1.797000*%
G04 APERTURE END LIST*
D10*
X82265000Y-85725000D03*
X84265000Y-85725000D03*
X86265000Y-85725000D03*
X88265000Y-85725000D03*
X82265000Y-69215000D03*
X84265000Y-69215000D03*
X86265000Y-69215000D03*
X88265000Y-69215000D03*
X82265000Y-77470000D03*
X84265000Y-77470000D03*
X86265000Y-77470000D03*
X88265000Y-77470000D03*
D11*
X99060000Y-86995000D03*
D12*
X101600000Y-86995000D03*
X104140000Y-86995000D03*
X106680000Y-86995000D03*
X106680000Y-46990000D03*
X104140000Y-46990000D03*
X101600000Y-46990000D03*
D11*
X99060000Y-46990000D03*
D12*
X106680000Y-52705000D03*
X104140000Y-52705000D03*
X101600000Y-52705000D03*
D11*
X99060000Y-52705000D03*
D12*
X106680000Y-58420000D03*
X104140000Y-58420000D03*
X101600000Y-58420000D03*
D11*
X99060000Y-58420000D03*
D12*
X106680000Y-64135000D03*
X104140000Y-64135000D03*
X101600000Y-64135000D03*
D11*
X99060000Y-64135000D03*
D12*
X106680000Y-99060000D03*
X104140000Y-99060000D03*
X101600000Y-99060000D03*
D11*
X99060000Y-99060000D03*
D12*
X106680000Y-104775000D03*
X104140000Y-104775000D03*
X101600000Y-104775000D03*
D11*
X99060000Y-104775000D03*
D12*
X106680000Y-110490000D03*
X104140000Y-110490000D03*
X101600000Y-110490000D03*
D11*
X99060000Y-110490000D03*
D12*
X106680000Y-116205000D03*
X104140000Y-116205000D03*
X101600000Y-116205000D03*
D11*
X99060000Y-116205000D03*
X99060000Y-121920000D03*
D12*
X101600000Y-121920000D03*
X104140000Y-121920000D03*
X106680000Y-121920000D03*
D11*
X99060000Y-127635000D03*
D12*
X101600000Y-127635000D03*
X104140000Y-127635000D03*
X106680000Y-127635000D03*
D11*
X99060000Y-69850000D03*
D12*
X101600000Y-69850000D03*
X104140000Y-69850000D03*
X106680000Y-69850000D03*
X106680000Y-75565000D03*
X104140000Y-75565000D03*
X101600000Y-75565000D03*
D11*
X99060000Y-75565000D03*
D13*
X91440000Y-37465000D03*
D14*
X91440000Y-34925000D03*
D13*
X91440000Y-45720000D03*
D14*
X91440000Y-43180000D03*
D13*
X91440000Y-53975000D03*
D14*
X91440000Y-51435000D03*
D13*
X51435000Y-37465000D03*
D14*
X51435000Y-34925000D03*
D13*
X51435000Y-45720000D03*
D14*
X51435000Y-43180000D03*
D13*
X51435000Y-53975000D03*
D14*
X51435000Y-51435000D03*
D13*
X51435000Y-62230000D03*
D14*
X51435000Y-59690000D03*
D13*
X51435000Y-70485000D03*
D14*
X51435000Y-67945000D03*
D13*
X51435000Y-78740000D03*
D14*
X51435000Y-76200000D03*
D13*
X51435000Y-86995000D03*
D14*
X51435000Y-84455000D03*
D13*
X51435000Y-95250000D03*
D14*
X51435000Y-92710000D03*
D13*
X51435000Y-103505000D03*
D14*
X51435000Y-100965000D03*
D13*
X51435000Y-111760000D03*
D14*
X51435000Y-109220000D03*
D13*
X51435000Y-120015000D03*
D14*
X51435000Y-117475000D03*
D13*
X51435000Y-128270000D03*
D14*
X51435000Y-125730000D03*
D13*
X51435000Y-136525000D03*
D14*
X51435000Y-133985000D03*
D13*
X51435000Y-144780000D03*
D14*
X51435000Y-142240000D03*
D12*
X106680000Y-139065000D03*
X104140000Y-139065000D03*
X101600000Y-139065000D03*
D11*
X99060000Y-139065000D03*
X99060000Y-133350000D03*
D12*
X101600000Y-133350000D03*
X104140000Y-133350000D03*
X106680000Y-133350000D03*
D11*
X99060000Y-81280000D03*
D12*
X101600000Y-81280000D03*
X104140000Y-81280000D03*
X106680000Y-81280000D03*
D10*
X88265000Y-60960000D03*
X86265000Y-60960000D03*
X84265000Y-60960000D03*
X82265000Y-60960000D03*
D11*
X78740000Y-96520000D03*
D12*
X81280000Y-96520000D03*
X78740000Y-99060000D03*
X81280000Y-99060000D03*
X78740000Y-101600000D03*
X81280000Y-101600000D03*
X78740000Y-104140000D03*
X81280000Y-104140000D03*
X78740000Y-106680000D03*
X81280000Y-106680000D03*
X78740000Y-109220000D03*
X81280000Y-109220000D03*
X78740000Y-111760000D03*
X81280000Y-111760000D03*
X78740000Y-114300000D03*
X81280000Y-114300000D03*
X78740000Y-116840000D03*
X81280000Y-116840000D03*
X78740000Y-119380000D03*
X81280000Y-119380000D03*
X78740000Y-121920000D03*
X81280000Y-121920000D03*
X78740000Y-124460000D03*
X81280000Y-124460000D03*
X78740000Y-127000000D03*
X81280000Y-127000000D03*
X78740000Y-129540000D03*
X81280000Y-129540000D03*
X78740000Y-132080000D03*
X81280000Y-132080000D03*
X78740000Y-134620000D03*
X81280000Y-134620000D03*
X78740000Y-137160000D03*
X81280000Y-137160000D03*
X78740000Y-139700000D03*
X81280000Y-139700000D03*
X78740000Y-142240000D03*
X81280000Y-142240000D03*
X78740000Y-144780000D03*
X81280000Y-144780000D03*
D11*
X38735000Y-67945000D03*
D12*
X38735000Y-70485000D03*
X38735000Y-73025000D03*
X38735000Y-75565000D03*
X38735000Y-78105000D03*
X38735000Y-80645000D03*
X38735000Y-83185000D03*
X38735000Y-85725000D03*
X38735000Y-88265000D03*
X38735000Y-90805000D03*
X38735000Y-93345000D03*
X38735000Y-95885000D03*
X38735000Y-98425000D03*
X38735000Y-100965000D03*
X38735000Y-103505000D03*
X38735000Y-106045000D03*
X38735000Y-108585000D03*
X38735000Y-111125000D03*
X38735000Y-113665000D03*
X38735000Y-116205000D03*
D11*
X91440000Y-116840000D03*
D12*
X91440000Y-119380000D03*
X91440000Y-121920000D03*
X91440000Y-124460000D03*
X91440000Y-127000000D03*
X91440000Y-129540000D03*
X91440000Y-132080000D03*
X91440000Y-134620000D03*
X91440000Y-137160000D03*
X91440000Y-139700000D03*
X91440000Y-142240000D03*
X91440000Y-144780000D03*
D15*
X76835000Y-34925000D03*
D16*
X76835000Y-32385000D03*
D15*
X76835000Y-43180000D03*
D16*
X76835000Y-40640000D03*
D15*
X76835000Y-51435000D03*
D16*
X76835000Y-48895000D03*
D15*
X55880000Y-37465000D03*
D16*
X55880000Y-34925000D03*
D15*
X55880000Y-45720000D03*
D16*
X55880000Y-43180000D03*
D15*
X55880000Y-53975000D03*
D16*
X55880000Y-51435000D03*
D15*
X55880000Y-62230000D03*
D16*
X55880000Y-59690000D03*
D15*
X55880000Y-70485000D03*
D16*
X55880000Y-67945000D03*
D15*
X55880000Y-78740000D03*
D16*
X55880000Y-76200000D03*
D15*
X55880000Y-86995000D03*
D16*
X55880000Y-84455000D03*
D15*
X55880000Y-95250000D03*
D16*
X55880000Y-92710000D03*
D15*
X55880000Y-103505000D03*
D16*
X55880000Y-100965000D03*
D15*
X55880000Y-111760000D03*
D16*
X55880000Y-109220000D03*
D15*
X55880000Y-120015000D03*
D16*
X55880000Y-117475000D03*
D15*
X55880000Y-128270000D03*
D16*
X55880000Y-125730000D03*
D15*
X55880000Y-136525000D03*
D16*
X55880000Y-133985000D03*
D15*
X55880000Y-144780000D03*
D16*
X55880000Y-142240000D03*
D17*
X87630000Y-32385000D03*
X87630000Y-37465000D03*
X80010000Y-32385000D03*
X80010000Y-37465000D03*
X87630000Y-40640000D03*
X87630000Y-45720000D03*
X80010000Y-40640000D03*
X80010000Y-45720000D03*
X87630000Y-48895000D03*
X87630000Y-53975000D03*
X80010000Y-48895000D03*
X80010000Y-53975000D03*
X66675000Y-32385000D03*
X66675000Y-37465000D03*
X59055000Y-32385000D03*
X59055000Y-37465000D03*
X66675000Y-40640000D03*
X66675000Y-45720000D03*
X59055000Y-40640000D03*
X59055000Y-45720000D03*
X66675000Y-48895000D03*
X66675000Y-53975000D03*
X59055000Y-48895000D03*
X59055000Y-53975000D03*
X66675000Y-57150000D03*
X66675000Y-62230000D03*
X59055000Y-57150000D03*
X59055000Y-62230000D03*
X66675000Y-65405000D03*
X66675000Y-70485000D03*
X59055000Y-65405000D03*
X59055000Y-70485000D03*
X66675000Y-73660000D03*
X66675000Y-78740000D03*
X59055000Y-73660000D03*
X59055000Y-78740000D03*
X66675000Y-81915000D03*
X66675000Y-86995000D03*
X59055000Y-81915000D03*
X59055000Y-86995000D03*
X66675000Y-90170000D03*
X66675000Y-95250000D03*
X59055000Y-90170000D03*
X59055000Y-95250000D03*
X66675000Y-98425000D03*
X66675000Y-103505000D03*
X59055000Y-98425000D03*
X59055000Y-103505000D03*
X66675000Y-106680000D03*
X66675000Y-111760000D03*
X59055000Y-106680000D03*
X59055000Y-111760000D03*
X66675000Y-114935000D03*
X66675000Y-120015000D03*
X59055000Y-114935000D03*
X59055000Y-120015000D03*
X66675000Y-123190000D03*
X66675000Y-128270000D03*
X59055000Y-123190000D03*
X59055000Y-128270000D03*
X66675000Y-131445000D03*
X66675000Y-136525000D03*
X59055000Y-131445000D03*
X59055000Y-136525000D03*
X66675000Y-139700000D03*
X66675000Y-144780000D03*
X59055000Y-139700000D03*
X59055000Y-144780000D03*
M02*
